G04 EAGLE Gerber RS-274X export*
G75*
%MOMM*%
%FSLAX34Y34*%
%LPD*%
%AMOC8*
5,1,8,0,0,1.08239X$1,22.5*%
G01*
%ADD10P,1.429621X8X292.500000*%
%ADD11C,1.320800*%
%ADD12C,1.422400*%
%ADD13C,1.320800*%
%ADD14C,1.400000*%
%ADD15P,1.429621X8X112.500000*%
%ADD16P,1.429621X8X22.500000*%
%ADD17P,1.429621X8X202.500000*%
%ADD18C,1.790000*%
%ADD19C,1.219200*%


D10*
X114300Y127000D03*
D11*
X114300Y177800D03*
D12*
X780288Y304800D02*
X794512Y304800D01*
X794512Y330200D02*
X780288Y330200D01*
D13*
X247904Y419100D02*
X234696Y419100D01*
X234696Y393700D02*
X247904Y393700D01*
X247904Y266700D02*
X234696Y266700D01*
X310896Y266700D02*
X324104Y266700D01*
X247904Y368300D02*
X234696Y368300D01*
X234696Y342900D02*
X247904Y342900D01*
X247904Y292100D02*
X234696Y292100D01*
X234696Y317500D02*
X247904Y317500D01*
X310896Y292100D02*
X324104Y292100D01*
X324104Y317500D02*
X310896Y317500D01*
X310896Y342900D02*
X324104Y342900D01*
X324104Y368300D02*
X310896Y368300D01*
X310896Y393700D02*
X324104Y393700D01*
X324104Y419100D02*
X310896Y419100D01*
D14*
X546100Y283700D03*
X546100Y249700D03*
D10*
X444500Y558800D03*
X444500Y533400D03*
D15*
X114300Y419100D03*
X114300Y546100D03*
X165100Y292100D03*
X165100Y419100D03*
D16*
X317500Y190500D03*
X444500Y190500D03*
D10*
X241300Y228600D03*
X241300Y101600D03*
D17*
X673100Y152400D03*
X546100Y152400D03*
X749300Y330200D03*
X622300Y330200D03*
D13*
X869696Y355600D02*
X882904Y355600D01*
X882904Y304800D02*
X869696Y304800D01*
X869696Y330200D02*
X882904Y330200D01*
X705104Y431800D02*
X691896Y431800D01*
X691896Y381000D02*
X705104Y381000D01*
X705104Y406400D02*
X691896Y406400D01*
D12*
X88900Y577088D02*
X88900Y591312D01*
X114300Y591312D02*
X114300Y577088D01*
D18*
X723900Y584200D03*
X800100Y584200D03*
D19*
X266700Y342900D02*
X241300Y342900D01*
X266700Y342900D02*
X279400Y355600D01*
X279400Y419100D01*
X279400Y584200D01*
X114300Y584200D01*
X279400Y419100D02*
X317500Y419100D01*
X114300Y546100D02*
X114300Y584200D01*
X190500Y266700D02*
X241300Y266700D01*
X190500Y266700D02*
X190500Y228600D01*
X241300Y228600D01*
X190500Y228600D02*
X190500Y88900D01*
X292100Y190500D02*
X254000Y228600D01*
X241300Y228600D01*
X88900Y88900D02*
X63500Y88900D01*
X114300Y88900D02*
X190500Y88900D01*
X215900Y63500D01*
X787400Y63500D01*
X787400Y279400D01*
X787400Y304800D01*
X698500Y304800D02*
X698500Y381000D01*
X723900Y279400D02*
X787400Y279400D01*
X723900Y279400D02*
X698500Y304800D01*
X787400Y304800D02*
X876300Y304800D01*
X88900Y584200D02*
X63500Y584200D01*
X63500Y88900D01*
X114300Y88900D02*
X114300Y127000D01*
X292100Y190500D02*
X317500Y190500D01*
X114300Y88900D02*
X88900Y88900D01*
X114300Y419100D02*
X165100Y419100D01*
X241300Y419100D01*
X114300Y292100D02*
X114300Y177800D01*
X114300Y292100D02*
X165100Y292100D01*
X203200Y292100D01*
X241300Y292100D01*
X241300Y393700D02*
X203200Y393700D01*
X203200Y292100D01*
X444500Y190500D02*
X444500Y533400D01*
X546100Y330200D02*
X622300Y330200D01*
X546100Y330200D02*
X546100Y283700D01*
X279400Y304800D02*
X279400Y254000D01*
X368300Y228600D02*
X368300Y139700D01*
X469900Y139700D01*
X508000Y177800D01*
X508000Y330200D01*
X546100Y330200D01*
X546100Y558800D02*
X444500Y558800D01*
X279400Y254000D02*
X304800Y228600D01*
X368300Y228600D01*
X266700Y317500D02*
X241300Y317500D01*
X266700Y317500D02*
X279400Y304800D01*
X546100Y330200D02*
X546100Y558800D01*
X647700Y558800D02*
X673100Y584200D01*
X647700Y558800D02*
X546100Y558800D01*
X673100Y584200D02*
X723900Y584200D01*
X698500Y431800D02*
X876300Y431800D01*
X876300Y355600D01*
X876300Y431800D02*
X876300Y557530D01*
X849630Y584200D02*
X800100Y584200D01*
X849630Y584200D02*
X876300Y557530D01*
X787400Y330200D02*
X749300Y330200D01*
X787400Y330200D02*
X876300Y330200D01*
X495300Y101600D02*
X241300Y101600D01*
X495300Y101600D02*
X546100Y152400D01*
X546100Y249700D01*
X673100Y152400D02*
X673100Y406400D01*
X698500Y406400D01*
M02*
