M48
;GenerationSoftware,Autodesk,EAGLE,9.1.0*%
;CreationDate,2018-07-16T05:47:24Z*%
FMAT,2
ICI,OFF
METRIC,TZ,000.000
T4C0.700
T3C0.813
T2C0.914
T1C1.190
%
G90
M71
T1
X80010Y58420
X72390Y58420
T2
X8890Y58420
X78740Y30480
X78740Y33020
X11430Y58420
T3
X24130Y41910
X24130Y39370
X24130Y26670
X31750Y26670
X24130Y36830
X24130Y34290
X24130Y29210
X24130Y31750
X31750Y29210
X31750Y31750
X31750Y34290
X31750Y36830
X31750Y39370
X31750Y41910
X44450Y55880
X44450Y53340
X11430Y41910
X11430Y54610
X16510Y29210
X16510Y41910
X31750Y19050
X44450Y19050
X24130Y22860
X24130Y10160
X67310Y15240
X54610Y15240
X74930Y33020
X87630Y35560
X87630Y30480
X87630Y33020
X69850Y43180
X62230Y33020
X69850Y40640
X11430Y12700
X11430Y17780
X69850Y38100
T4
X54610Y28370
X54610Y24970
M30