G04 EAGLE Gerber RS-274X export*
G75*
%MOMM*%
%FSLAX34Y34*%
%LPD*%
%AMOC8*
5,1,8,0,0,1.08239X$1,22.5*%
G01*
%ADD10P,1.429621X8X292.500000*%
%ADD11C,1.320800*%
%ADD12C,1.422400*%
%ADD13C,1.320800*%
%ADD14C,1.400000*%
%ADD15P,1.429621X8X112.500000*%
%ADD16P,1.429621X8X202.500000*%
%ADD17P,1.429621X8X22.500000*%
%ADD18C,1.790000*%
%ADD19C,1.219200*%


D10*
X-114300Y127000D03*
D11*
X-114300Y177800D03*
D12*
X-780288Y304800D02*
X-794512Y304800D01*
X-794512Y330200D02*
X-780288Y330200D01*
D13*
X-247904Y419100D02*
X-234696Y419100D01*
X-234696Y393700D02*
X-247904Y393700D01*
X-247904Y266700D02*
X-234696Y266700D01*
X-310896Y266700D02*
X-324104Y266700D01*
X-247904Y368300D02*
X-234696Y368300D01*
X-234696Y342900D02*
X-247904Y342900D01*
X-247904Y292100D02*
X-234696Y292100D01*
X-234696Y317500D02*
X-247904Y317500D01*
X-310896Y292100D02*
X-324104Y292100D01*
X-324104Y317500D02*
X-310896Y317500D01*
X-310896Y342900D02*
X-324104Y342900D01*
X-324104Y368300D02*
X-310896Y368300D01*
X-310896Y393700D02*
X-324104Y393700D01*
X-324104Y419100D02*
X-310896Y419100D01*
D14*
X-546100Y283700D03*
X-546100Y249700D03*
D10*
X-444500Y558800D03*
X-444500Y533400D03*
D15*
X-114300Y419100D03*
X-114300Y546100D03*
X-165100Y292100D03*
X-165100Y419100D03*
D16*
X-317500Y190500D03*
X-444500Y190500D03*
D10*
X-241300Y228600D03*
X-241300Y101600D03*
D17*
X-673100Y152400D03*
X-546100Y152400D03*
X-749300Y330200D03*
X-622300Y330200D03*
D13*
X-869696Y355600D02*
X-882904Y355600D01*
X-882904Y304800D02*
X-869696Y304800D01*
X-869696Y330200D02*
X-882904Y330200D01*
X-705104Y431800D02*
X-691896Y431800D01*
X-691896Y381000D02*
X-705104Y381000D01*
X-705104Y406400D02*
X-691896Y406400D01*
D12*
X-88900Y577088D02*
X-88900Y591312D01*
X-114300Y591312D02*
X-114300Y577088D01*
D18*
X-723900Y584200D03*
X-800100Y584200D03*
D19*
X-266700Y342900D02*
X-241300Y342900D01*
X-266700Y342900D02*
X-279400Y355600D01*
X-279400Y419100D01*
X-279400Y584200D01*
X-114300Y584200D01*
X-279400Y419100D02*
X-317500Y419100D01*
X-114300Y546100D02*
X-114300Y584200D01*
X-190500Y266700D02*
X-241300Y266700D01*
X-190500Y266700D02*
X-190500Y228600D01*
X-241300Y228600D01*
X-190500Y228600D02*
X-190500Y88900D01*
X-292100Y190500D02*
X-254000Y228600D01*
X-241300Y228600D01*
X-88900Y88900D02*
X-63500Y88900D01*
X-114300Y88900D02*
X-190500Y88900D01*
X-215900Y63500D01*
X-787400Y63500D01*
X-787400Y279400D01*
X-787400Y304800D01*
X-698500Y304800D02*
X-698500Y381000D01*
X-723900Y279400D02*
X-787400Y279400D01*
X-723900Y279400D02*
X-698500Y304800D01*
X-787400Y304800D02*
X-876300Y304800D01*
X-88900Y584200D02*
X-63500Y584200D01*
X-63500Y88900D01*
X-114300Y88900D02*
X-114300Y127000D01*
X-292100Y190500D02*
X-317500Y190500D01*
X-114300Y88900D02*
X-88900Y88900D01*
X-114300Y419100D02*
X-165100Y419100D01*
X-241300Y419100D01*
X-114300Y292100D02*
X-114300Y177800D01*
X-114300Y292100D02*
X-165100Y292100D01*
X-203200Y292100D01*
X-241300Y292100D01*
X-241300Y393700D02*
X-203200Y393700D01*
X-203200Y292100D01*
X-444500Y190500D02*
X-444500Y533400D01*
X-546100Y330200D02*
X-622300Y330200D01*
X-546100Y330200D02*
X-546100Y283700D01*
X-279400Y304800D02*
X-279400Y254000D01*
X-368300Y228600D02*
X-368300Y139700D01*
X-469900Y139700D01*
X-508000Y177800D01*
X-508000Y330200D01*
X-546100Y330200D01*
X-546100Y558800D02*
X-444500Y558800D01*
X-279400Y254000D02*
X-304800Y228600D01*
X-368300Y228600D01*
X-266700Y317500D02*
X-241300Y317500D01*
X-266700Y317500D02*
X-279400Y304800D01*
X-546100Y330200D02*
X-546100Y558800D01*
X-647700Y558800D02*
X-673100Y584200D01*
X-647700Y558800D02*
X-546100Y558800D01*
X-673100Y584200D02*
X-723900Y584200D01*
X-698500Y431800D02*
X-876300Y431800D01*
X-876300Y355600D01*
X-876300Y431800D02*
X-876300Y557530D01*
X-849630Y584200D02*
X-800100Y584200D01*
X-849630Y584200D02*
X-876300Y557530D01*
X-787400Y330200D02*
X-749300Y330200D01*
X-787400Y330200D02*
X-876300Y330200D01*
X-495300Y101600D02*
X-241300Y101600D01*
X-495300Y101600D02*
X-546100Y152400D01*
X-546100Y249700D01*
X-673100Y152400D02*
X-673100Y406400D01*
X-698500Y406400D01*
M02*
