G04 MADE WITH FRITZING*
G04 WWW.FRITZING.ORG*
G04 DOUBLE SIDED*
G04 HOLES PLATED*
G04 CONTOUR ON CENTER OF CONTOUR VECTOR*
%ASAXBY*%
%FSLAX23Y23*%
%MOIN*%
%OFA0B0*%
%SFA1.0B1.0*%
%ADD10C,0.075000*%
%ADD11C,0.062992*%
%ADD12C,0.052000*%
%ADD13C,0.078000*%
%ADD14C,0.092000*%
%ADD15R,0.075000X0.075000*%
%ADD16R,0.078000X0.078000*%
%ADD17R,0.092000X0.092000*%
%ADD18C,0.015748*%
%ADD19R,0.001000X0.001000*%
%LNCOPPER1*%
G90*
G70*
G54D10*
X514Y862D03*
X514Y962D03*
X2014Y1362D03*
X2014Y1262D03*
X2014Y1162D03*
X2814Y1662D03*
X2814Y1562D03*
X2814Y1462D03*
X3214Y1162D03*
X3214Y1562D03*
X1614Y1062D03*
X1614Y1462D03*
X2714Y1262D03*
X2314Y1262D03*
X714Y1862D03*
X714Y1462D03*
X514Y1062D03*
X514Y1462D03*
G54D11*
X1614Y1862D03*
X1614Y1764D03*
G54D10*
X2714Y462D03*
X2714Y762D03*
G54D12*
X1014Y1462D03*
X1014Y1362D03*
X1014Y1262D03*
X1014Y1162D03*
X1014Y1062D03*
X1014Y962D03*
X1014Y862D03*
X1314Y862D03*
X1314Y962D03*
X1314Y1062D03*
X1314Y1162D03*
X1314Y1262D03*
X1314Y1362D03*
X1314Y1462D03*
X1014Y1462D03*
X1014Y1362D03*
X1014Y1262D03*
X1014Y1162D03*
X1014Y1062D03*
X1014Y962D03*
X1014Y862D03*
X1314Y862D03*
X1314Y962D03*
X1314Y1062D03*
X1314Y1162D03*
X1314Y1262D03*
X1314Y1362D03*
X1314Y1462D03*
G54D13*
X314Y1862D03*
X414Y1862D03*
X2014Y1762D03*
X2014Y1862D03*
G54D14*
X2314Y462D03*
X2314Y762D03*
G54D15*
X514Y862D03*
G54D16*
X314Y1862D03*
X2014Y1762D03*
G54D17*
X2314Y462D03*
G54D18*
X1590Y1838D02*
X1590Y1886D01*
X1637Y1886D01*
X1637Y1838D01*
X1590Y1838D01*
D02*
G54D19*
X981Y1488D02*
X1046Y1488D01*
X1281Y1488D02*
X1345Y1488D01*
X978Y1487D02*
X1048Y1487D01*
X1278Y1487D02*
X1348Y1487D01*
X976Y1486D02*
X1050Y1486D01*
X1276Y1486D02*
X1350Y1486D01*
X974Y1485D02*
X1052Y1485D01*
X1274Y1485D02*
X1352Y1485D01*
X972Y1484D02*
X1054Y1484D01*
X1272Y1484D02*
X1354Y1484D01*
X971Y1483D02*
X1055Y1483D01*
X1271Y1483D02*
X1355Y1483D01*
X970Y1482D02*
X1056Y1482D01*
X1270Y1482D02*
X1356Y1482D01*
X969Y1481D02*
X1057Y1481D01*
X1269Y1481D02*
X1357Y1481D01*
X968Y1480D02*
X1058Y1480D01*
X1268Y1480D02*
X1358Y1480D01*
X967Y1479D02*
X1059Y1479D01*
X1267Y1479D02*
X1359Y1479D01*
X966Y1478D02*
X1007Y1478D01*
X1019Y1478D02*
X1060Y1478D01*
X1266Y1478D02*
X1307Y1478D01*
X1319Y1478D02*
X1360Y1478D01*
X966Y1477D02*
X1005Y1477D01*
X1021Y1477D02*
X1060Y1477D01*
X1266Y1477D02*
X1305Y1477D01*
X1321Y1477D02*
X1360Y1477D01*
X965Y1476D02*
X1003Y1476D01*
X1023Y1476D02*
X1061Y1476D01*
X1265Y1476D02*
X1303Y1476D01*
X1323Y1476D02*
X1361Y1476D01*
X965Y1475D02*
X1002Y1475D01*
X1024Y1475D02*
X1062Y1475D01*
X1265Y1475D02*
X1302Y1475D01*
X1324Y1475D02*
X1361Y1475D01*
X964Y1474D02*
X1001Y1474D01*
X1025Y1474D02*
X1062Y1474D01*
X1264Y1474D02*
X1301Y1474D01*
X1325Y1474D02*
X1362Y1474D01*
X964Y1473D02*
X1000Y1473D01*
X1026Y1473D02*
X1063Y1473D01*
X1264Y1473D02*
X1300Y1473D01*
X1326Y1473D02*
X1363Y1473D01*
X963Y1472D02*
X999Y1472D01*
X1027Y1472D02*
X1063Y1472D01*
X1263Y1472D02*
X1299Y1472D01*
X1327Y1472D02*
X1363Y1472D01*
X963Y1471D02*
X999Y1471D01*
X1027Y1471D02*
X1063Y1471D01*
X1263Y1471D02*
X1299Y1471D01*
X1327Y1471D02*
X1363Y1471D01*
X963Y1470D02*
X998Y1470D01*
X1028Y1470D02*
X1064Y1470D01*
X1263Y1470D02*
X1298Y1470D01*
X1328Y1470D02*
X1364Y1470D01*
X962Y1469D02*
X998Y1469D01*
X1028Y1469D02*
X1064Y1469D01*
X1262Y1469D02*
X1298Y1469D01*
X1328Y1469D02*
X1364Y1469D01*
X962Y1468D02*
X998Y1468D01*
X1029Y1468D02*
X1064Y1468D01*
X1262Y1468D02*
X1297Y1468D01*
X1329Y1468D02*
X1364Y1468D01*
X962Y1467D02*
X997Y1467D01*
X1029Y1467D02*
X1064Y1467D01*
X1262Y1467D02*
X1297Y1467D01*
X1329Y1467D02*
X1364Y1467D01*
X962Y1466D02*
X997Y1466D01*
X1029Y1466D02*
X1064Y1466D01*
X1262Y1466D02*
X1297Y1466D01*
X1329Y1466D02*
X1364Y1466D01*
X962Y1465D02*
X997Y1465D01*
X1029Y1465D02*
X1064Y1465D01*
X1262Y1465D02*
X1297Y1465D01*
X1329Y1465D02*
X1364Y1465D01*
X962Y1464D02*
X997Y1464D01*
X1029Y1464D02*
X1065Y1464D01*
X1262Y1464D02*
X1297Y1464D01*
X1329Y1464D02*
X1364Y1464D01*
X962Y1463D02*
X997Y1463D01*
X1030Y1463D02*
X1065Y1463D01*
X1262Y1463D02*
X1297Y1463D01*
X1330Y1463D02*
X1365Y1463D01*
X962Y1462D02*
X997Y1462D01*
X1030Y1462D02*
X1065Y1462D01*
X1262Y1462D02*
X1297Y1462D01*
X1329Y1462D02*
X1364Y1462D01*
X962Y1461D02*
X997Y1461D01*
X1029Y1461D02*
X1065Y1461D01*
X1262Y1461D02*
X1297Y1461D01*
X1329Y1461D02*
X1364Y1461D01*
X962Y1460D02*
X997Y1460D01*
X1029Y1460D02*
X1064Y1460D01*
X1262Y1460D02*
X1297Y1460D01*
X1329Y1460D02*
X1364Y1460D01*
X962Y1459D02*
X997Y1459D01*
X1029Y1459D02*
X1064Y1459D01*
X1262Y1459D02*
X1297Y1459D01*
X1329Y1459D02*
X1364Y1459D01*
X962Y1458D02*
X997Y1458D01*
X1029Y1458D02*
X1064Y1458D01*
X1262Y1458D02*
X1297Y1458D01*
X1329Y1458D02*
X1364Y1458D01*
X962Y1457D02*
X998Y1457D01*
X1028Y1457D02*
X1064Y1457D01*
X1262Y1457D02*
X1298Y1457D01*
X1328Y1457D02*
X1364Y1457D01*
X963Y1456D02*
X998Y1456D01*
X1028Y1456D02*
X1064Y1456D01*
X1263Y1456D02*
X1298Y1456D01*
X1328Y1456D02*
X1364Y1456D01*
X963Y1455D02*
X999Y1455D01*
X1027Y1455D02*
X1063Y1455D01*
X1263Y1455D02*
X1299Y1455D01*
X1327Y1455D02*
X1363Y1455D01*
X963Y1454D02*
X999Y1454D01*
X1027Y1454D02*
X1063Y1454D01*
X1263Y1454D02*
X1299Y1454D01*
X1327Y1454D02*
X1363Y1454D01*
X964Y1453D02*
X1000Y1453D01*
X1026Y1453D02*
X1063Y1453D01*
X1264Y1453D02*
X1300Y1453D01*
X1326Y1453D02*
X1363Y1453D01*
X964Y1452D02*
X1001Y1452D01*
X1025Y1452D02*
X1062Y1452D01*
X1264Y1452D02*
X1301Y1452D01*
X1325Y1452D02*
X1362Y1452D01*
X965Y1451D02*
X1002Y1451D01*
X1024Y1451D02*
X1062Y1451D01*
X1265Y1451D02*
X1302Y1451D01*
X1324Y1451D02*
X1361Y1451D01*
X965Y1450D02*
X1003Y1450D01*
X1023Y1450D02*
X1061Y1450D01*
X1265Y1450D02*
X1303Y1450D01*
X1323Y1450D02*
X1361Y1450D01*
X966Y1449D02*
X1005Y1449D01*
X1021Y1449D02*
X1060Y1449D01*
X1266Y1449D02*
X1305Y1449D01*
X1321Y1449D02*
X1360Y1449D01*
X966Y1448D02*
X1007Y1448D01*
X1019Y1448D02*
X1060Y1448D01*
X1266Y1448D02*
X1307Y1448D01*
X1319Y1448D02*
X1360Y1448D01*
X967Y1447D02*
X1012Y1447D01*
X1014Y1447D02*
X1059Y1447D01*
X1267Y1447D02*
X1312Y1447D01*
X1314Y1447D02*
X1359Y1447D01*
X968Y1446D02*
X1058Y1446D01*
X1268Y1446D02*
X1358Y1446D01*
X969Y1445D02*
X1057Y1445D01*
X1269Y1445D02*
X1357Y1445D01*
X970Y1444D02*
X1056Y1444D01*
X1270Y1444D02*
X1356Y1444D01*
X971Y1443D02*
X1055Y1443D01*
X1271Y1443D02*
X1355Y1443D01*
X972Y1442D02*
X1054Y1442D01*
X1272Y1442D02*
X1354Y1442D01*
X974Y1441D02*
X1052Y1441D01*
X1274Y1441D02*
X1352Y1441D01*
X976Y1440D02*
X1051Y1440D01*
X1276Y1440D02*
X1350Y1440D01*
X978Y1439D02*
X1049Y1439D01*
X1278Y1439D02*
X1349Y1439D01*
X980Y1438D02*
X1046Y1438D01*
X1280Y1438D02*
X1346Y1438D01*
X987Y1437D02*
X1039Y1437D01*
X1287Y1437D02*
X1339Y1437D01*
X981Y1388D02*
X1046Y1388D01*
X1281Y1388D02*
X1346Y1388D01*
X978Y1387D02*
X1049Y1387D01*
X1278Y1387D02*
X1348Y1387D01*
X976Y1386D02*
X1050Y1386D01*
X1276Y1386D02*
X1350Y1386D01*
X974Y1385D02*
X1052Y1385D01*
X1274Y1385D02*
X1352Y1385D01*
X972Y1384D02*
X1054Y1384D01*
X1272Y1384D02*
X1354Y1384D01*
X971Y1383D02*
X1055Y1383D01*
X1271Y1383D02*
X1355Y1383D01*
X970Y1382D02*
X1056Y1382D01*
X1270Y1382D02*
X1356Y1382D01*
X969Y1381D02*
X1057Y1381D01*
X1269Y1381D02*
X1357Y1381D01*
X968Y1380D02*
X1058Y1380D01*
X1268Y1380D02*
X1358Y1380D01*
X967Y1379D02*
X1059Y1379D01*
X1267Y1379D02*
X1359Y1379D01*
X966Y1378D02*
X1007Y1378D01*
X1019Y1378D02*
X1060Y1378D01*
X1266Y1378D02*
X1307Y1378D01*
X1319Y1378D02*
X1360Y1378D01*
X966Y1377D02*
X1005Y1377D01*
X1021Y1377D02*
X1060Y1377D01*
X1266Y1377D02*
X1305Y1377D01*
X1321Y1377D02*
X1360Y1377D01*
X965Y1376D02*
X1003Y1376D01*
X1023Y1376D02*
X1061Y1376D01*
X1265Y1376D02*
X1303Y1376D01*
X1323Y1376D02*
X1361Y1376D01*
X965Y1375D02*
X1002Y1375D01*
X1024Y1375D02*
X1062Y1375D01*
X1265Y1375D02*
X1302Y1375D01*
X1324Y1375D02*
X1361Y1375D01*
X964Y1374D02*
X1001Y1374D01*
X1025Y1374D02*
X1062Y1374D01*
X1264Y1374D02*
X1301Y1374D01*
X1325Y1374D02*
X1362Y1374D01*
X964Y1373D02*
X1000Y1373D01*
X1026Y1373D02*
X1063Y1373D01*
X1264Y1373D02*
X1300Y1373D01*
X1326Y1373D02*
X1363Y1373D01*
X963Y1372D02*
X999Y1372D01*
X1027Y1372D02*
X1063Y1372D01*
X1263Y1372D02*
X1299Y1372D01*
X1327Y1372D02*
X1363Y1372D01*
X963Y1371D02*
X999Y1371D01*
X1027Y1371D02*
X1063Y1371D01*
X1263Y1371D02*
X1299Y1371D01*
X1327Y1371D02*
X1363Y1371D01*
X963Y1370D02*
X998Y1370D01*
X1028Y1370D02*
X1064Y1370D01*
X1263Y1370D02*
X1298Y1370D01*
X1328Y1370D02*
X1364Y1370D01*
X962Y1369D02*
X998Y1369D01*
X1028Y1369D02*
X1064Y1369D01*
X1262Y1369D02*
X1298Y1369D01*
X1328Y1369D02*
X1364Y1369D01*
X962Y1368D02*
X997Y1368D01*
X1029Y1368D02*
X1064Y1368D01*
X1262Y1368D02*
X1297Y1368D01*
X1329Y1368D02*
X1364Y1368D01*
X962Y1367D02*
X997Y1367D01*
X1029Y1367D02*
X1064Y1367D01*
X1262Y1367D02*
X1297Y1367D01*
X1329Y1367D02*
X1364Y1367D01*
X962Y1366D02*
X997Y1366D01*
X1029Y1366D02*
X1064Y1366D01*
X1262Y1366D02*
X1297Y1366D01*
X1329Y1366D02*
X1364Y1366D01*
X962Y1365D02*
X997Y1365D01*
X1029Y1365D02*
X1064Y1365D01*
X1262Y1365D02*
X1297Y1365D01*
X1329Y1365D02*
X1364Y1365D01*
X962Y1364D02*
X997Y1364D01*
X1030Y1364D02*
X1065Y1364D01*
X1262Y1364D02*
X1297Y1364D01*
X1329Y1364D02*
X1364Y1364D01*
X962Y1363D02*
X997Y1363D01*
X1030Y1363D02*
X1065Y1363D01*
X1262Y1363D02*
X1297Y1363D01*
X1330Y1363D02*
X1365Y1363D01*
X962Y1362D02*
X997Y1362D01*
X1030Y1362D02*
X1065Y1362D01*
X1262Y1362D02*
X1297Y1362D01*
X1329Y1362D02*
X1364Y1362D01*
X962Y1361D02*
X997Y1361D01*
X1029Y1361D02*
X1065Y1361D01*
X1262Y1361D02*
X1297Y1361D01*
X1329Y1361D02*
X1364Y1361D01*
X962Y1360D02*
X997Y1360D01*
X1029Y1360D02*
X1064Y1360D01*
X1262Y1360D02*
X1297Y1360D01*
X1329Y1360D02*
X1364Y1360D01*
X962Y1359D02*
X997Y1359D01*
X1029Y1359D02*
X1064Y1359D01*
X1262Y1359D02*
X1297Y1359D01*
X1329Y1359D02*
X1364Y1359D01*
X962Y1358D02*
X997Y1358D01*
X1029Y1358D02*
X1064Y1358D01*
X1262Y1358D02*
X1297Y1358D01*
X1329Y1358D02*
X1364Y1358D01*
X962Y1357D02*
X998Y1357D01*
X1028Y1357D02*
X1064Y1357D01*
X1262Y1357D02*
X1298Y1357D01*
X1328Y1357D02*
X1364Y1357D01*
X963Y1356D02*
X998Y1356D01*
X1028Y1356D02*
X1064Y1356D01*
X1263Y1356D02*
X1298Y1356D01*
X1328Y1356D02*
X1364Y1356D01*
X963Y1355D02*
X999Y1355D01*
X1027Y1355D02*
X1063Y1355D01*
X1263Y1355D02*
X1299Y1355D01*
X1327Y1355D02*
X1363Y1355D01*
X963Y1354D02*
X999Y1354D01*
X1027Y1354D02*
X1063Y1354D01*
X1263Y1354D02*
X1299Y1354D01*
X1327Y1354D02*
X1363Y1354D01*
X964Y1353D02*
X1000Y1353D01*
X1026Y1353D02*
X1063Y1353D01*
X1264Y1353D02*
X1300Y1353D01*
X1326Y1353D02*
X1363Y1353D01*
X964Y1352D02*
X1001Y1352D01*
X1025Y1352D02*
X1062Y1352D01*
X1264Y1352D02*
X1301Y1352D01*
X1325Y1352D02*
X1362Y1352D01*
X965Y1351D02*
X1002Y1351D01*
X1024Y1351D02*
X1062Y1351D01*
X1265Y1351D02*
X1302Y1351D01*
X1324Y1351D02*
X1361Y1351D01*
X965Y1350D02*
X1003Y1350D01*
X1023Y1350D02*
X1061Y1350D01*
X1265Y1350D02*
X1303Y1350D01*
X1323Y1350D02*
X1361Y1350D01*
X966Y1349D02*
X1005Y1349D01*
X1021Y1349D02*
X1060Y1349D01*
X1266Y1349D02*
X1305Y1349D01*
X1321Y1349D02*
X1360Y1349D01*
X966Y1348D02*
X1007Y1348D01*
X1019Y1348D02*
X1060Y1348D01*
X1266Y1348D02*
X1307Y1348D01*
X1319Y1348D02*
X1360Y1348D01*
X967Y1347D02*
X1059Y1347D01*
X1267Y1347D02*
X1359Y1347D01*
X968Y1346D02*
X1058Y1346D01*
X1268Y1346D02*
X1358Y1346D01*
X969Y1345D02*
X1057Y1345D01*
X1269Y1345D02*
X1357Y1345D01*
X970Y1344D02*
X1056Y1344D01*
X1270Y1344D02*
X1356Y1344D01*
X971Y1343D02*
X1055Y1343D01*
X1271Y1343D02*
X1355Y1343D01*
X972Y1342D02*
X1054Y1342D01*
X1272Y1342D02*
X1354Y1342D01*
X974Y1341D02*
X1052Y1341D01*
X1274Y1341D02*
X1352Y1341D01*
X976Y1340D02*
X1050Y1340D01*
X1276Y1340D02*
X1350Y1340D01*
X978Y1339D02*
X1049Y1339D01*
X1278Y1339D02*
X1349Y1339D01*
X981Y1338D02*
X1046Y1338D01*
X1280Y1338D02*
X1346Y1338D01*
X988Y1337D02*
X1038Y1337D01*
X1288Y1337D02*
X1338Y1337D01*
X987Y1289D02*
X1039Y1289D01*
X1287Y1289D02*
X1339Y1289D01*
X980Y1288D02*
X1046Y1288D01*
X1280Y1288D02*
X1346Y1288D01*
X978Y1287D02*
X1049Y1287D01*
X1278Y1287D02*
X1349Y1287D01*
X976Y1286D02*
X1051Y1286D01*
X1276Y1286D02*
X1350Y1286D01*
X974Y1285D02*
X1052Y1285D01*
X1274Y1285D02*
X1352Y1285D01*
X972Y1284D02*
X1054Y1284D01*
X1272Y1284D02*
X1354Y1284D01*
X971Y1283D02*
X1055Y1283D01*
X1271Y1283D02*
X1355Y1283D01*
X970Y1282D02*
X1056Y1282D01*
X1270Y1282D02*
X1356Y1282D01*
X969Y1281D02*
X1057Y1281D01*
X1269Y1281D02*
X1357Y1281D01*
X968Y1280D02*
X1058Y1280D01*
X1268Y1280D02*
X1358Y1280D01*
X967Y1279D02*
X1059Y1279D01*
X1267Y1279D02*
X1359Y1279D01*
X966Y1278D02*
X1007Y1278D01*
X1019Y1278D02*
X1060Y1278D01*
X1266Y1278D02*
X1307Y1278D01*
X1319Y1278D02*
X1360Y1278D01*
X966Y1277D02*
X1005Y1277D01*
X1021Y1277D02*
X1060Y1277D01*
X1266Y1277D02*
X1305Y1277D01*
X1321Y1277D02*
X1360Y1277D01*
X965Y1276D02*
X1003Y1276D01*
X1023Y1276D02*
X1061Y1276D01*
X1265Y1276D02*
X1303Y1276D01*
X1323Y1276D02*
X1361Y1276D01*
X965Y1275D02*
X1002Y1275D01*
X1024Y1275D02*
X1062Y1275D01*
X1265Y1275D02*
X1302Y1275D01*
X1324Y1275D02*
X1361Y1275D01*
X964Y1274D02*
X1001Y1274D01*
X1025Y1274D02*
X1062Y1274D01*
X1264Y1274D02*
X1301Y1274D01*
X1325Y1274D02*
X1362Y1274D01*
X964Y1273D02*
X1000Y1273D01*
X1026Y1273D02*
X1063Y1273D01*
X1264Y1273D02*
X1300Y1273D01*
X1326Y1273D02*
X1363Y1273D01*
X963Y1272D02*
X999Y1272D01*
X1027Y1272D02*
X1063Y1272D01*
X1263Y1272D02*
X1299Y1272D01*
X1327Y1272D02*
X1363Y1272D01*
X963Y1271D02*
X999Y1271D01*
X1027Y1271D02*
X1063Y1271D01*
X1263Y1271D02*
X1299Y1271D01*
X1327Y1271D02*
X1363Y1271D01*
X963Y1270D02*
X998Y1270D01*
X1028Y1270D02*
X1064Y1270D01*
X1263Y1270D02*
X1298Y1270D01*
X1328Y1270D02*
X1364Y1270D01*
X962Y1269D02*
X998Y1269D01*
X1028Y1269D02*
X1064Y1269D01*
X1262Y1269D02*
X1298Y1269D01*
X1328Y1269D02*
X1364Y1269D01*
X962Y1268D02*
X997Y1268D01*
X1029Y1268D02*
X1064Y1268D01*
X1262Y1268D02*
X1297Y1268D01*
X1329Y1268D02*
X1364Y1268D01*
X962Y1267D02*
X997Y1267D01*
X1029Y1267D02*
X1064Y1267D01*
X1262Y1267D02*
X1297Y1267D01*
X1329Y1267D02*
X1364Y1267D01*
X962Y1266D02*
X997Y1266D01*
X1029Y1266D02*
X1064Y1266D01*
X1262Y1266D02*
X1297Y1266D01*
X1329Y1266D02*
X1364Y1266D01*
X962Y1265D02*
X997Y1265D01*
X1029Y1265D02*
X1065Y1265D01*
X1262Y1265D02*
X1297Y1265D01*
X1329Y1265D02*
X1364Y1265D01*
X962Y1264D02*
X997Y1264D01*
X1030Y1264D02*
X1065Y1264D01*
X1262Y1264D02*
X1297Y1264D01*
X1329Y1264D02*
X1364Y1264D01*
X962Y1263D02*
X997Y1263D01*
X1030Y1263D02*
X1065Y1263D01*
X1262Y1263D02*
X1297Y1263D01*
X1330Y1263D02*
X1365Y1263D01*
X962Y1262D02*
X997Y1262D01*
X1030Y1262D02*
X1065Y1262D01*
X1262Y1262D02*
X1297Y1262D01*
X1329Y1262D02*
X1364Y1262D01*
X962Y1261D02*
X997Y1261D01*
X1029Y1261D02*
X1064Y1261D01*
X1262Y1261D02*
X1297Y1261D01*
X1329Y1261D02*
X1364Y1261D01*
X962Y1260D02*
X997Y1260D01*
X1029Y1260D02*
X1064Y1260D01*
X1262Y1260D02*
X1297Y1260D01*
X1329Y1260D02*
X1364Y1260D01*
X962Y1259D02*
X997Y1259D01*
X1029Y1259D02*
X1064Y1259D01*
X1262Y1259D02*
X1297Y1259D01*
X1329Y1259D02*
X1364Y1259D01*
X962Y1258D02*
X997Y1258D01*
X1029Y1258D02*
X1064Y1258D01*
X1262Y1258D02*
X1297Y1258D01*
X1329Y1258D02*
X1364Y1258D01*
X962Y1257D02*
X998Y1257D01*
X1028Y1257D02*
X1064Y1257D01*
X1262Y1257D02*
X1298Y1257D01*
X1328Y1257D02*
X1364Y1257D01*
X963Y1256D02*
X998Y1256D01*
X1028Y1256D02*
X1064Y1256D01*
X1263Y1256D02*
X1298Y1256D01*
X1328Y1256D02*
X1364Y1256D01*
X963Y1255D02*
X999Y1255D01*
X1027Y1255D02*
X1063Y1255D01*
X1263Y1255D02*
X1299Y1255D01*
X1327Y1255D02*
X1363Y1255D01*
X963Y1254D02*
X999Y1254D01*
X1027Y1254D02*
X1063Y1254D01*
X1263Y1254D02*
X1299Y1254D01*
X1327Y1254D02*
X1363Y1254D01*
X964Y1253D02*
X1000Y1253D01*
X1026Y1253D02*
X1063Y1253D01*
X1264Y1253D02*
X1300Y1253D01*
X1326Y1253D02*
X1363Y1253D01*
X964Y1252D02*
X1001Y1252D01*
X1025Y1252D02*
X1062Y1252D01*
X1264Y1252D02*
X1301Y1252D01*
X1325Y1252D02*
X1362Y1252D01*
X965Y1251D02*
X1002Y1251D01*
X1024Y1251D02*
X1062Y1251D01*
X1265Y1251D02*
X1302Y1251D01*
X1324Y1251D02*
X1361Y1251D01*
X965Y1250D02*
X1003Y1250D01*
X1023Y1250D02*
X1061Y1250D01*
X1265Y1250D02*
X1303Y1250D01*
X1323Y1250D02*
X1361Y1250D01*
X966Y1249D02*
X1005Y1249D01*
X1021Y1249D02*
X1060Y1249D01*
X1266Y1249D02*
X1305Y1249D01*
X1321Y1249D02*
X1360Y1249D01*
X966Y1248D02*
X1007Y1248D01*
X1019Y1248D02*
X1060Y1248D01*
X1266Y1248D02*
X1307Y1248D01*
X1319Y1248D02*
X1360Y1248D01*
X967Y1247D02*
X1059Y1247D01*
X1267Y1247D02*
X1359Y1247D01*
X968Y1246D02*
X1058Y1246D01*
X1268Y1246D02*
X1358Y1246D01*
X969Y1245D02*
X1057Y1245D01*
X1269Y1245D02*
X1357Y1245D01*
X970Y1244D02*
X1056Y1244D01*
X1270Y1244D02*
X1356Y1244D01*
X971Y1243D02*
X1055Y1243D01*
X1271Y1243D02*
X1355Y1243D01*
X972Y1242D02*
X1054Y1242D01*
X1272Y1242D02*
X1354Y1242D01*
X974Y1241D02*
X1052Y1241D01*
X1274Y1241D02*
X1352Y1241D01*
X976Y1240D02*
X1050Y1240D01*
X1276Y1240D02*
X1350Y1240D01*
X978Y1239D02*
X1048Y1239D01*
X1278Y1239D02*
X1348Y1239D01*
X981Y1238D02*
X1046Y1238D01*
X1281Y1238D02*
X1345Y1238D01*
X987Y1189D02*
X1040Y1189D01*
X1286Y1189D02*
X1340Y1189D01*
X980Y1188D02*
X1046Y1188D01*
X1280Y1188D02*
X1346Y1188D01*
X978Y1187D02*
X1049Y1187D01*
X1277Y1187D02*
X1349Y1187D01*
X976Y1186D02*
X1051Y1186D01*
X1276Y1186D02*
X1351Y1186D01*
X974Y1185D02*
X1052Y1185D01*
X1274Y1185D02*
X1352Y1185D01*
X972Y1184D02*
X1054Y1184D01*
X1272Y1184D02*
X1354Y1184D01*
X971Y1183D02*
X1055Y1183D01*
X1271Y1183D02*
X1355Y1183D01*
X970Y1182D02*
X1056Y1182D01*
X1270Y1182D02*
X1356Y1182D01*
X969Y1181D02*
X1057Y1181D01*
X1269Y1181D02*
X1357Y1181D01*
X968Y1180D02*
X1058Y1180D01*
X1268Y1180D02*
X1358Y1180D01*
X967Y1179D02*
X1012Y1179D01*
X1014Y1179D02*
X1059Y1179D01*
X1267Y1179D02*
X1312Y1179D01*
X1314Y1179D02*
X1359Y1179D01*
X966Y1178D02*
X1007Y1178D01*
X1019Y1178D02*
X1060Y1178D01*
X1266Y1178D02*
X1307Y1178D01*
X1319Y1178D02*
X1360Y1178D01*
X966Y1177D02*
X1005Y1177D01*
X1021Y1177D02*
X1060Y1177D01*
X1266Y1177D02*
X1305Y1177D01*
X1321Y1177D02*
X1360Y1177D01*
X965Y1176D02*
X1003Y1176D01*
X1023Y1176D02*
X1061Y1176D01*
X1265Y1176D02*
X1303Y1176D01*
X1323Y1176D02*
X1361Y1176D01*
X965Y1175D02*
X1002Y1175D01*
X1024Y1175D02*
X1062Y1175D01*
X1265Y1175D02*
X1302Y1175D01*
X1324Y1175D02*
X1361Y1175D01*
X964Y1174D02*
X1001Y1174D01*
X1025Y1174D02*
X1062Y1174D01*
X1264Y1174D02*
X1301Y1174D01*
X1325Y1174D02*
X1362Y1174D01*
X964Y1173D02*
X1000Y1173D01*
X1026Y1173D02*
X1063Y1173D01*
X1264Y1173D02*
X1300Y1173D01*
X1326Y1173D02*
X1363Y1173D01*
X963Y1172D02*
X999Y1172D01*
X1027Y1172D02*
X1063Y1172D01*
X1263Y1172D02*
X1299Y1172D01*
X1327Y1172D02*
X1363Y1172D01*
X963Y1171D02*
X999Y1171D01*
X1027Y1171D02*
X1063Y1171D01*
X1263Y1171D02*
X1299Y1171D01*
X1327Y1171D02*
X1363Y1171D01*
X963Y1170D02*
X998Y1170D01*
X1028Y1170D02*
X1064Y1170D01*
X1263Y1170D02*
X1298Y1170D01*
X1328Y1170D02*
X1364Y1170D01*
X962Y1169D02*
X998Y1169D01*
X1028Y1169D02*
X1064Y1169D01*
X1262Y1169D02*
X1298Y1169D01*
X1328Y1169D02*
X1364Y1169D01*
X962Y1168D02*
X997Y1168D01*
X1029Y1168D02*
X1064Y1168D01*
X1262Y1168D02*
X1297Y1168D01*
X1329Y1168D02*
X1364Y1168D01*
X962Y1167D02*
X997Y1167D01*
X1029Y1167D02*
X1064Y1167D01*
X1262Y1167D02*
X1297Y1167D01*
X1329Y1167D02*
X1364Y1167D01*
X962Y1166D02*
X997Y1166D01*
X1029Y1166D02*
X1064Y1166D01*
X1262Y1166D02*
X1297Y1166D01*
X1329Y1166D02*
X1364Y1166D01*
X962Y1165D02*
X997Y1165D01*
X1029Y1165D02*
X1065Y1165D01*
X1262Y1165D02*
X1297Y1165D01*
X1329Y1165D02*
X1364Y1165D01*
X962Y1164D02*
X997Y1164D01*
X1030Y1164D02*
X1065Y1164D01*
X1262Y1164D02*
X1297Y1164D01*
X1329Y1164D02*
X1364Y1164D01*
X962Y1163D02*
X997Y1163D01*
X1030Y1163D02*
X1065Y1163D01*
X1262Y1163D02*
X1297Y1163D01*
X1330Y1163D02*
X1365Y1163D01*
X962Y1162D02*
X997Y1162D01*
X1029Y1162D02*
X1065Y1162D01*
X1262Y1162D02*
X1297Y1162D01*
X1329Y1162D02*
X1364Y1162D01*
X962Y1161D02*
X997Y1161D01*
X1029Y1161D02*
X1064Y1161D01*
X1262Y1161D02*
X1297Y1161D01*
X1329Y1161D02*
X1364Y1161D01*
X962Y1160D02*
X997Y1160D01*
X1029Y1160D02*
X1064Y1160D01*
X1262Y1160D02*
X1297Y1160D01*
X1329Y1160D02*
X1364Y1160D01*
X962Y1159D02*
X997Y1159D01*
X1029Y1159D02*
X1064Y1159D01*
X1262Y1159D02*
X1297Y1159D01*
X1329Y1159D02*
X1364Y1159D01*
X962Y1158D02*
X998Y1158D01*
X1029Y1158D02*
X1064Y1158D01*
X1262Y1158D02*
X1297Y1158D01*
X1329Y1158D02*
X1364Y1158D01*
X962Y1157D02*
X998Y1157D01*
X1028Y1157D02*
X1064Y1157D01*
X1262Y1157D02*
X1298Y1157D01*
X1328Y1157D02*
X1364Y1157D01*
X963Y1156D02*
X998Y1156D01*
X1028Y1156D02*
X1064Y1156D01*
X1263Y1156D02*
X1298Y1156D01*
X1328Y1156D02*
X1364Y1156D01*
X963Y1155D02*
X999Y1155D01*
X1027Y1155D02*
X1063Y1155D01*
X1263Y1155D02*
X1299Y1155D01*
X1327Y1155D02*
X1363Y1155D01*
X963Y1154D02*
X999Y1154D01*
X1027Y1154D02*
X1063Y1154D01*
X1263Y1154D02*
X1299Y1154D01*
X1327Y1154D02*
X1363Y1154D01*
X964Y1153D02*
X1000Y1153D01*
X1026Y1153D02*
X1063Y1153D01*
X1264Y1153D02*
X1300Y1153D01*
X1326Y1153D02*
X1362Y1153D01*
X964Y1152D02*
X1001Y1152D01*
X1025Y1152D02*
X1062Y1152D01*
X1264Y1152D02*
X1301Y1152D01*
X1325Y1152D02*
X1362Y1152D01*
X965Y1151D02*
X1002Y1151D01*
X1024Y1151D02*
X1062Y1151D01*
X1265Y1151D02*
X1302Y1151D01*
X1324Y1151D02*
X1361Y1151D01*
X965Y1150D02*
X1003Y1150D01*
X1023Y1150D02*
X1061Y1150D01*
X1265Y1150D02*
X1303Y1150D01*
X1323Y1150D02*
X1361Y1150D01*
X966Y1149D02*
X1005Y1149D01*
X1021Y1149D02*
X1060Y1149D01*
X1266Y1149D02*
X1305Y1149D01*
X1321Y1149D02*
X1360Y1149D01*
X966Y1148D02*
X1007Y1148D01*
X1019Y1148D02*
X1060Y1148D01*
X1266Y1148D02*
X1307Y1148D01*
X1319Y1148D02*
X1360Y1148D01*
X967Y1147D02*
X1059Y1147D01*
X1267Y1147D02*
X1359Y1147D01*
X968Y1146D02*
X1058Y1146D01*
X1268Y1146D02*
X1358Y1146D01*
X969Y1145D02*
X1057Y1145D01*
X1269Y1145D02*
X1357Y1145D01*
X970Y1144D02*
X1056Y1144D01*
X1270Y1144D02*
X1356Y1144D01*
X971Y1143D02*
X1055Y1143D01*
X1271Y1143D02*
X1355Y1143D01*
X972Y1142D02*
X1054Y1142D01*
X1272Y1142D02*
X1354Y1142D01*
X974Y1141D02*
X1052Y1141D01*
X1274Y1141D02*
X1352Y1141D01*
X976Y1140D02*
X1050Y1140D01*
X1276Y1140D02*
X1350Y1140D01*
X978Y1139D02*
X1048Y1139D01*
X1278Y1139D02*
X1348Y1139D01*
X981Y1138D02*
X1045Y1138D01*
X1281Y1138D02*
X1345Y1138D01*
X986Y1089D02*
X1040Y1089D01*
X1286Y1089D02*
X1340Y1089D01*
X980Y1088D02*
X1046Y1088D01*
X1280Y1088D02*
X1346Y1088D01*
X977Y1087D02*
X1049Y1087D01*
X1277Y1087D02*
X1349Y1087D01*
X976Y1086D02*
X1051Y1086D01*
X1276Y1086D02*
X1351Y1086D01*
X974Y1085D02*
X1052Y1085D01*
X1274Y1085D02*
X1352Y1085D01*
X972Y1084D02*
X1054Y1084D01*
X1272Y1084D02*
X1354Y1084D01*
X971Y1083D02*
X1055Y1083D01*
X1271Y1083D02*
X1355Y1083D01*
X970Y1082D02*
X1056Y1082D01*
X1270Y1082D02*
X1356Y1082D01*
X969Y1081D02*
X1057Y1081D01*
X1269Y1081D02*
X1357Y1081D01*
X968Y1080D02*
X1058Y1080D01*
X1268Y1080D02*
X1358Y1080D01*
X967Y1079D02*
X1012Y1079D01*
X1014Y1079D02*
X1059Y1079D01*
X1267Y1079D02*
X1312Y1079D01*
X1314Y1079D02*
X1359Y1079D01*
X966Y1078D02*
X1007Y1078D01*
X1019Y1078D02*
X1060Y1078D01*
X1266Y1078D02*
X1307Y1078D01*
X1319Y1078D02*
X1360Y1078D01*
X966Y1077D02*
X1005Y1077D01*
X1021Y1077D02*
X1060Y1077D01*
X1266Y1077D02*
X1305Y1077D01*
X1321Y1077D02*
X1360Y1077D01*
X965Y1076D02*
X1003Y1076D01*
X1023Y1076D02*
X1061Y1076D01*
X1265Y1076D02*
X1303Y1076D01*
X1323Y1076D02*
X1361Y1076D01*
X965Y1075D02*
X1002Y1075D01*
X1024Y1075D02*
X1062Y1075D01*
X1265Y1075D02*
X1302Y1075D01*
X1324Y1075D02*
X1362Y1075D01*
X964Y1074D02*
X1001Y1074D01*
X1025Y1074D02*
X1062Y1074D01*
X1264Y1074D02*
X1301Y1074D01*
X1325Y1074D02*
X1362Y1074D01*
X964Y1073D02*
X1000Y1073D01*
X1026Y1073D02*
X1063Y1073D01*
X1264Y1073D02*
X1300Y1073D01*
X1326Y1073D02*
X1363Y1073D01*
X963Y1072D02*
X999Y1072D01*
X1027Y1072D02*
X1063Y1072D01*
X1263Y1072D02*
X1299Y1072D01*
X1327Y1072D02*
X1363Y1072D01*
X963Y1071D02*
X999Y1071D01*
X1027Y1071D02*
X1063Y1071D01*
X1263Y1071D02*
X1299Y1071D01*
X1327Y1071D02*
X1363Y1071D01*
X963Y1070D02*
X998Y1070D01*
X1028Y1070D02*
X1064Y1070D01*
X1263Y1070D02*
X1298Y1070D01*
X1328Y1070D02*
X1364Y1070D01*
X962Y1069D02*
X998Y1069D01*
X1028Y1069D02*
X1064Y1069D01*
X1262Y1069D02*
X1298Y1069D01*
X1328Y1069D02*
X1364Y1069D01*
X962Y1068D02*
X997Y1068D01*
X1029Y1068D02*
X1064Y1068D01*
X1262Y1068D02*
X1297Y1068D01*
X1329Y1068D02*
X1364Y1068D01*
X962Y1067D02*
X997Y1067D01*
X1029Y1067D02*
X1064Y1067D01*
X1262Y1067D02*
X1297Y1067D01*
X1329Y1067D02*
X1364Y1067D01*
X962Y1066D02*
X997Y1066D01*
X1029Y1066D02*
X1064Y1066D01*
X1262Y1066D02*
X1297Y1066D01*
X1329Y1066D02*
X1364Y1066D01*
X962Y1065D02*
X997Y1065D01*
X1029Y1065D02*
X1065Y1065D01*
X1262Y1065D02*
X1297Y1065D01*
X1329Y1065D02*
X1364Y1065D01*
X962Y1064D02*
X997Y1064D01*
X1030Y1064D02*
X1065Y1064D01*
X1262Y1064D02*
X1297Y1064D01*
X1329Y1064D02*
X1364Y1064D01*
X962Y1063D02*
X997Y1063D01*
X1030Y1063D02*
X1065Y1063D01*
X1262Y1063D02*
X1297Y1063D01*
X1330Y1063D02*
X1365Y1063D01*
X962Y1062D02*
X997Y1062D01*
X1029Y1062D02*
X1065Y1062D01*
X1262Y1062D02*
X1297Y1062D01*
X1329Y1062D02*
X1364Y1062D01*
X962Y1061D02*
X997Y1061D01*
X1029Y1061D02*
X1064Y1061D01*
X1262Y1061D02*
X1297Y1061D01*
X1329Y1061D02*
X1364Y1061D01*
X962Y1060D02*
X997Y1060D01*
X1029Y1060D02*
X1064Y1060D01*
X1262Y1060D02*
X1297Y1060D01*
X1329Y1060D02*
X1364Y1060D01*
X962Y1059D02*
X997Y1059D01*
X1029Y1059D02*
X1064Y1059D01*
X1262Y1059D02*
X1297Y1059D01*
X1329Y1059D02*
X1364Y1059D01*
X962Y1058D02*
X998Y1058D01*
X1029Y1058D02*
X1064Y1058D01*
X1262Y1058D02*
X1297Y1058D01*
X1329Y1058D02*
X1364Y1058D01*
X962Y1057D02*
X998Y1057D01*
X1028Y1057D02*
X1064Y1057D01*
X1262Y1057D02*
X1298Y1057D01*
X1328Y1057D02*
X1364Y1057D01*
X963Y1056D02*
X998Y1056D01*
X1028Y1056D02*
X1064Y1056D01*
X1263Y1056D02*
X1298Y1056D01*
X1328Y1056D02*
X1364Y1056D01*
X963Y1055D02*
X999Y1055D01*
X1027Y1055D02*
X1063Y1055D01*
X1263Y1055D02*
X1299Y1055D01*
X1327Y1055D02*
X1363Y1055D01*
X963Y1054D02*
X999Y1054D01*
X1027Y1054D02*
X1063Y1054D01*
X1263Y1054D02*
X1299Y1054D01*
X1327Y1054D02*
X1363Y1054D01*
X964Y1053D02*
X1000Y1053D01*
X1026Y1053D02*
X1063Y1053D01*
X1264Y1053D02*
X1300Y1053D01*
X1326Y1053D02*
X1362Y1053D01*
X964Y1052D02*
X1001Y1052D01*
X1025Y1052D02*
X1062Y1052D01*
X1264Y1052D02*
X1301Y1052D01*
X1325Y1052D02*
X1362Y1052D01*
X965Y1051D02*
X1002Y1051D01*
X1024Y1051D02*
X1061Y1051D01*
X1265Y1051D02*
X1302Y1051D01*
X1324Y1051D02*
X1361Y1051D01*
X965Y1050D02*
X1003Y1050D01*
X1023Y1050D02*
X1061Y1050D01*
X1265Y1050D02*
X1303Y1050D01*
X1323Y1050D02*
X1361Y1050D01*
X966Y1049D02*
X1005Y1049D01*
X1021Y1049D02*
X1060Y1049D01*
X1266Y1049D02*
X1305Y1049D01*
X1321Y1049D02*
X1360Y1049D01*
X967Y1048D02*
X1008Y1048D01*
X1019Y1048D02*
X1060Y1048D01*
X1266Y1048D02*
X1307Y1048D01*
X1319Y1048D02*
X1360Y1048D01*
X967Y1047D02*
X1059Y1047D01*
X1267Y1047D02*
X1359Y1047D01*
X968Y1046D02*
X1058Y1046D01*
X1268Y1046D02*
X1358Y1046D01*
X969Y1045D02*
X1057Y1045D01*
X1269Y1045D02*
X1357Y1045D01*
X970Y1044D02*
X1056Y1044D01*
X1270Y1044D02*
X1356Y1044D01*
X971Y1043D02*
X1055Y1043D01*
X1271Y1043D02*
X1355Y1043D01*
X973Y1042D02*
X1054Y1042D01*
X1272Y1042D02*
X1354Y1042D01*
X974Y1041D02*
X1052Y1041D01*
X1274Y1041D02*
X1352Y1041D01*
X976Y1040D02*
X1050Y1040D01*
X1276Y1040D02*
X1350Y1040D01*
X978Y1039D02*
X1048Y1039D01*
X1278Y1039D02*
X1348Y1039D01*
X981Y1038D02*
X1045Y1038D01*
X1281Y1038D02*
X1345Y1038D01*
X985Y989D02*
X1041Y989D01*
X1285Y989D02*
X1341Y989D01*
X980Y988D02*
X1046Y988D01*
X1280Y988D02*
X1346Y988D01*
X977Y987D02*
X1049Y987D01*
X1277Y987D02*
X1349Y987D01*
X976Y986D02*
X1051Y986D01*
X1275Y986D02*
X1351Y986D01*
X974Y985D02*
X1053Y985D01*
X1274Y985D02*
X1352Y985D01*
X972Y984D02*
X1054Y984D01*
X1272Y984D02*
X1354Y984D01*
X971Y983D02*
X1055Y983D01*
X1271Y983D02*
X1355Y983D01*
X970Y982D02*
X1056Y982D01*
X1270Y982D02*
X1356Y982D01*
X969Y981D02*
X1057Y981D01*
X1269Y981D02*
X1357Y981D01*
X968Y980D02*
X1058Y980D01*
X1268Y980D02*
X1358Y980D01*
X967Y979D02*
X1011Y979D01*
X1015Y979D02*
X1059Y979D01*
X1267Y979D02*
X1311Y979D01*
X1315Y979D02*
X1359Y979D01*
X966Y978D02*
X1007Y978D01*
X1019Y978D02*
X1060Y978D01*
X1266Y978D02*
X1307Y978D01*
X1319Y978D02*
X1360Y978D01*
X966Y977D02*
X1005Y977D01*
X1021Y977D02*
X1061Y977D01*
X1266Y977D02*
X1305Y977D01*
X1321Y977D02*
X1360Y977D01*
X965Y976D02*
X1003Y976D01*
X1023Y976D02*
X1061Y976D01*
X1265Y976D02*
X1303Y976D01*
X1323Y976D02*
X1361Y976D01*
X965Y975D02*
X1002Y975D01*
X1024Y975D02*
X1062Y975D01*
X1265Y975D02*
X1302Y975D01*
X1324Y975D02*
X1362Y975D01*
X964Y974D02*
X1001Y974D01*
X1025Y974D02*
X1062Y974D01*
X1264Y974D02*
X1301Y974D01*
X1325Y974D02*
X1362Y974D01*
X964Y973D02*
X1000Y973D01*
X1026Y973D02*
X1063Y973D01*
X1264Y973D02*
X1300Y973D01*
X1326Y973D02*
X1363Y973D01*
X963Y972D02*
X999Y972D01*
X1027Y972D02*
X1063Y972D01*
X1263Y972D02*
X1299Y972D01*
X1327Y972D02*
X1363Y972D01*
X963Y971D02*
X999Y971D01*
X1027Y971D02*
X1063Y971D01*
X1263Y971D02*
X1299Y971D01*
X1327Y971D02*
X1363Y971D01*
X963Y970D02*
X998Y970D01*
X1028Y970D02*
X1064Y970D01*
X1262Y970D02*
X1298Y970D01*
X1328Y970D02*
X1364Y970D01*
X962Y969D02*
X998Y969D01*
X1028Y969D02*
X1064Y969D01*
X1262Y969D02*
X1298Y969D01*
X1328Y969D02*
X1364Y969D01*
X962Y968D02*
X997Y968D01*
X1029Y968D02*
X1064Y968D01*
X1262Y968D02*
X1297Y968D01*
X1329Y968D02*
X1364Y968D01*
X962Y967D02*
X997Y967D01*
X1029Y967D02*
X1064Y967D01*
X1262Y967D02*
X1297Y967D01*
X1329Y967D02*
X1364Y967D01*
X962Y966D02*
X997Y966D01*
X1029Y966D02*
X1064Y966D01*
X1262Y966D02*
X1297Y966D01*
X1329Y966D02*
X1364Y966D01*
X962Y965D02*
X997Y965D01*
X1029Y965D02*
X1065Y965D01*
X1262Y965D02*
X1297Y965D01*
X1329Y965D02*
X1364Y965D01*
X962Y964D02*
X997Y964D01*
X1030Y964D02*
X1065Y964D01*
X1262Y964D02*
X1297Y964D01*
X1329Y964D02*
X1364Y964D01*
X962Y963D02*
X997Y963D01*
X1030Y963D02*
X1065Y963D01*
X1262Y963D02*
X1297Y963D01*
X1330Y963D02*
X1365Y963D01*
X962Y962D02*
X997Y962D01*
X1029Y962D02*
X1065Y962D01*
X1262Y962D02*
X1297Y962D01*
X1329Y962D02*
X1364Y962D01*
X962Y961D02*
X997Y961D01*
X1029Y961D02*
X1064Y961D01*
X1262Y961D02*
X1297Y961D01*
X1329Y961D02*
X1364Y961D01*
X962Y960D02*
X997Y960D01*
X1029Y960D02*
X1064Y960D01*
X1262Y960D02*
X1297Y960D01*
X1329Y960D02*
X1364Y960D01*
X962Y959D02*
X997Y959D01*
X1029Y959D02*
X1064Y959D01*
X1262Y959D02*
X1297Y959D01*
X1329Y959D02*
X1364Y959D01*
X962Y958D02*
X998Y958D01*
X1029Y958D02*
X1064Y958D01*
X1262Y958D02*
X1297Y958D01*
X1329Y958D02*
X1364Y958D01*
X962Y957D02*
X998Y957D01*
X1028Y957D02*
X1064Y957D01*
X1262Y957D02*
X1298Y957D01*
X1328Y957D02*
X1364Y957D01*
X963Y956D02*
X998Y956D01*
X1028Y956D02*
X1064Y956D01*
X1263Y956D02*
X1298Y956D01*
X1328Y956D02*
X1364Y956D01*
X963Y955D02*
X999Y955D01*
X1027Y955D02*
X1063Y955D01*
X1263Y955D02*
X1299Y955D01*
X1327Y955D02*
X1363Y955D01*
X963Y954D02*
X1000Y954D01*
X1027Y954D02*
X1063Y954D01*
X1263Y954D02*
X1299Y954D01*
X1327Y954D02*
X1363Y954D01*
X964Y953D02*
X1000Y953D01*
X1026Y953D02*
X1063Y953D01*
X1264Y953D02*
X1300Y953D01*
X1326Y953D02*
X1362Y953D01*
X964Y952D02*
X1001Y952D01*
X1025Y952D02*
X1062Y952D01*
X1264Y952D02*
X1301Y952D01*
X1325Y952D02*
X1362Y952D01*
X965Y951D02*
X1002Y951D01*
X1024Y951D02*
X1061Y951D01*
X1265Y951D02*
X1302Y951D01*
X1324Y951D02*
X1361Y951D01*
X965Y950D02*
X1004Y950D01*
X1023Y950D02*
X1061Y950D01*
X1265Y950D02*
X1303Y950D01*
X1323Y950D02*
X1361Y950D01*
X966Y949D02*
X1005Y949D01*
X1021Y949D02*
X1060Y949D01*
X1266Y949D02*
X1305Y949D01*
X1321Y949D02*
X1360Y949D01*
X967Y948D02*
X1008Y948D01*
X1019Y948D02*
X1060Y948D01*
X1266Y948D02*
X1308Y948D01*
X1319Y948D02*
X1360Y948D01*
X967Y947D02*
X1059Y947D01*
X1267Y947D02*
X1359Y947D01*
X968Y946D02*
X1058Y946D01*
X1268Y946D02*
X1358Y946D01*
X969Y945D02*
X1057Y945D01*
X1269Y945D02*
X1357Y945D01*
X970Y944D02*
X1056Y944D01*
X1270Y944D02*
X1356Y944D01*
X971Y943D02*
X1055Y943D01*
X1271Y943D02*
X1355Y943D01*
X973Y942D02*
X1054Y942D01*
X1273Y942D02*
X1354Y942D01*
X974Y941D02*
X1052Y941D01*
X1274Y941D02*
X1352Y941D01*
X976Y940D02*
X1050Y940D01*
X1276Y940D02*
X1350Y940D01*
X978Y939D02*
X1048Y939D01*
X1278Y939D02*
X1348Y939D01*
X981Y938D02*
X1045Y938D01*
X1281Y938D02*
X1345Y938D01*
X985Y889D02*
X1041Y889D01*
X1285Y889D02*
X1341Y889D01*
X980Y888D02*
X1046Y888D01*
X1280Y888D02*
X1346Y888D01*
X977Y887D02*
X1049Y887D01*
X1277Y887D02*
X1349Y887D01*
X975Y886D02*
X1051Y886D01*
X1275Y886D02*
X1351Y886D01*
X974Y885D02*
X1053Y885D01*
X1274Y885D02*
X1353Y885D01*
X972Y884D02*
X1054Y884D01*
X1272Y884D02*
X1354Y884D01*
X971Y883D02*
X1055Y883D01*
X1271Y883D02*
X1355Y883D01*
X970Y882D02*
X1056Y882D01*
X1270Y882D02*
X1356Y882D01*
X969Y881D02*
X1057Y881D01*
X1269Y881D02*
X1357Y881D01*
X968Y880D02*
X1058Y880D01*
X1268Y880D02*
X1358Y880D01*
X967Y879D02*
X1011Y879D01*
X1015Y879D02*
X1059Y879D01*
X1267Y879D02*
X1311Y879D01*
X1315Y879D02*
X1359Y879D01*
X966Y878D02*
X1007Y878D01*
X1019Y878D02*
X1060Y878D01*
X1266Y878D02*
X1307Y878D01*
X1319Y878D02*
X1360Y878D01*
X966Y877D02*
X1005Y877D01*
X1021Y877D02*
X1061Y877D01*
X1266Y877D02*
X1305Y877D01*
X1321Y877D02*
X1360Y877D01*
X965Y876D02*
X1003Y876D01*
X1023Y876D02*
X1061Y876D01*
X1265Y876D02*
X1303Y876D01*
X1323Y876D02*
X1361Y876D01*
X965Y875D02*
X1002Y875D01*
X1024Y875D02*
X1062Y875D01*
X1265Y875D02*
X1302Y875D01*
X1324Y875D02*
X1362Y875D01*
X964Y874D02*
X1001Y874D01*
X1025Y874D02*
X1062Y874D01*
X1264Y874D02*
X1301Y874D01*
X1325Y874D02*
X1362Y874D01*
X964Y873D02*
X1000Y873D01*
X1026Y873D02*
X1063Y873D01*
X1263Y873D02*
X1300Y873D01*
X1326Y873D02*
X1363Y873D01*
X963Y872D02*
X999Y872D01*
X1027Y872D02*
X1063Y872D01*
X1263Y872D02*
X1299Y872D01*
X1327Y872D02*
X1363Y872D01*
X963Y871D02*
X999Y871D01*
X1027Y871D02*
X1063Y871D01*
X1263Y871D02*
X1299Y871D01*
X1327Y871D02*
X1363Y871D01*
X963Y870D02*
X998Y870D01*
X1028Y870D02*
X1064Y870D01*
X1262Y870D02*
X1298Y870D01*
X1328Y870D02*
X1364Y870D01*
X962Y869D02*
X998Y869D01*
X1028Y869D02*
X1064Y869D01*
X1262Y869D02*
X1298Y869D01*
X1328Y869D02*
X1364Y869D01*
X962Y868D02*
X997Y868D01*
X1029Y868D02*
X1064Y868D01*
X1262Y868D02*
X1297Y868D01*
X1329Y868D02*
X1364Y868D01*
X962Y867D02*
X997Y867D01*
X1029Y867D02*
X1064Y867D01*
X1262Y867D02*
X1297Y867D01*
X1329Y867D02*
X1364Y867D01*
X962Y866D02*
X997Y866D01*
X1029Y866D02*
X1064Y866D01*
X1262Y866D02*
X1297Y866D01*
X1329Y866D02*
X1364Y866D01*
X962Y865D02*
X997Y865D01*
X1029Y865D02*
X1065Y865D01*
X1262Y865D02*
X1297Y865D01*
X1329Y865D02*
X1364Y865D01*
X962Y864D02*
X997Y864D01*
X1030Y864D02*
X1065Y864D01*
X1262Y864D02*
X1297Y864D01*
X1329Y864D02*
X1364Y864D01*
X962Y863D02*
X997Y863D01*
X1030Y863D02*
X1065Y863D01*
X1262Y863D02*
X1297Y863D01*
X1330Y863D02*
X1365Y863D01*
X962Y862D02*
X997Y862D01*
X1029Y862D02*
X1065Y862D01*
X1262Y862D02*
X1297Y862D01*
X1329Y862D02*
X1364Y862D01*
X962Y861D02*
X997Y861D01*
X1029Y861D02*
X1064Y861D01*
X1262Y861D02*
X1297Y861D01*
X1329Y861D02*
X1364Y861D01*
X962Y860D02*
X997Y860D01*
X1029Y860D02*
X1064Y860D01*
X1262Y860D02*
X1297Y860D01*
X1329Y860D02*
X1364Y860D01*
X962Y859D02*
X997Y859D01*
X1029Y859D02*
X1064Y859D01*
X1262Y859D02*
X1297Y859D01*
X1329Y859D02*
X1364Y859D01*
X962Y858D02*
X998Y858D01*
X1029Y858D02*
X1064Y858D01*
X1262Y858D02*
X1297Y858D01*
X1329Y858D02*
X1364Y858D01*
X962Y857D02*
X998Y857D01*
X1028Y857D02*
X1064Y857D01*
X1262Y857D02*
X1298Y857D01*
X1328Y857D02*
X1364Y857D01*
X963Y856D02*
X998Y856D01*
X1028Y856D02*
X1064Y856D01*
X1263Y856D02*
X1298Y856D01*
X1328Y856D02*
X1364Y856D01*
X963Y855D02*
X999Y855D01*
X1027Y855D02*
X1063Y855D01*
X1263Y855D02*
X1299Y855D01*
X1327Y855D02*
X1363Y855D01*
X963Y854D02*
X1000Y854D01*
X1027Y854D02*
X1063Y854D01*
X1263Y854D02*
X1299Y854D01*
X1327Y854D02*
X1363Y854D01*
X964Y853D02*
X1000Y853D01*
X1026Y853D02*
X1063Y853D01*
X1264Y853D02*
X1300Y853D01*
X1326Y853D02*
X1362Y853D01*
X964Y852D02*
X1001Y852D01*
X1025Y852D02*
X1062Y852D01*
X1264Y852D02*
X1301Y852D01*
X1325Y852D02*
X1362Y852D01*
X965Y851D02*
X1002Y851D01*
X1024Y851D02*
X1061Y851D01*
X1265Y851D02*
X1302Y851D01*
X1324Y851D02*
X1361Y851D01*
X965Y850D02*
X1004Y850D01*
X1023Y850D02*
X1061Y850D01*
X1265Y850D02*
X1303Y850D01*
X1323Y850D02*
X1361Y850D01*
X966Y849D02*
X1005Y849D01*
X1021Y849D02*
X1060Y849D01*
X1266Y849D02*
X1305Y849D01*
X1321Y849D02*
X1360Y849D01*
X967Y848D02*
X1008Y848D01*
X1018Y848D02*
X1060Y848D01*
X1267Y848D02*
X1308Y848D01*
X1318Y848D02*
X1360Y848D01*
X967Y847D02*
X1059Y847D01*
X1267Y847D02*
X1359Y847D01*
X968Y846D02*
X1058Y846D01*
X1268Y846D02*
X1358Y846D01*
X969Y845D02*
X1057Y845D01*
X1269Y845D02*
X1357Y845D01*
X970Y844D02*
X1056Y844D01*
X1270Y844D02*
X1356Y844D01*
X971Y843D02*
X1055Y843D01*
X1271Y843D02*
X1355Y843D01*
X973Y842D02*
X1054Y842D01*
X1273Y842D02*
X1354Y842D01*
X974Y841D02*
X1052Y841D01*
X1274Y841D02*
X1352Y841D01*
X976Y840D02*
X1050Y840D01*
X1276Y840D02*
X1350Y840D01*
X978Y839D02*
X1048Y839D01*
X1278Y839D02*
X1348Y839D01*
X981Y838D02*
X1045Y838D01*
X1281Y838D02*
X1345Y838D01*
D02*
G04 End of Copper1*
M02*