G04 MADE WITH FRITZING*
G04 WWW.FRITZING.ORG*
G04 DOUBLE SIDED*
G04 HOLES PLATED*
G04 CONTOUR ON CENTER OF CONTOUR VECTOR*
%ASAXBY*%
%FSLAX23Y23*%
%MOIN*%
%OFA0B0*%
%SFA1.0B1.0*%
%ADD10C,0.085000*%
%ADD11C,0.072992*%
%ADD12C,0.062000*%
%ADD13C,0.088000*%
%ADD14C,0.102000*%
%ADD15R,0.085000X0.085000*%
%ADD16R,0.088000X0.088000*%
%ADD17R,0.102000X0.102000*%
%ADD18C,0.025748*%
%ADD19R,0.001000X0.001000*%
%LNMASK0*%
G90*
G70*
G54D10*
X514Y862D03*
X514Y962D03*
X2014Y1362D03*
X2014Y1262D03*
X2014Y1162D03*
X2814Y1662D03*
X2814Y1562D03*
X2814Y1462D03*
X3214Y1162D03*
X3214Y1562D03*
X1614Y1062D03*
X1614Y1462D03*
X2714Y1262D03*
X2314Y1262D03*
X714Y1862D03*
X714Y1462D03*
X514Y1062D03*
X514Y1462D03*
G54D11*
X1614Y1862D03*
X1614Y1764D03*
G54D10*
X2714Y462D03*
X2714Y762D03*
G54D12*
X1014Y1462D03*
X1014Y1362D03*
X1014Y1262D03*
X1014Y1162D03*
X1014Y1062D03*
X1014Y962D03*
X1014Y862D03*
X1314Y862D03*
X1314Y962D03*
X1314Y1062D03*
X1314Y1162D03*
X1314Y1262D03*
X1314Y1362D03*
X1314Y1462D03*
G54D13*
X314Y1862D03*
X414Y1862D03*
X2014Y1762D03*
X2014Y1862D03*
G54D14*
X2314Y462D03*
X2314Y762D03*
G54D15*
X514Y862D03*
G54D16*
X314Y1862D03*
X2014Y1762D03*
G54D17*
X2314Y462D03*
G54D18*
G36*
X1590Y1838D02*
X1590Y1886D01*
X1637Y1886D01*
X1637Y1838D01*
X1590Y1838D01*
G37*
D02*
G54D19*
X980Y1493D02*
X1046Y1493D01*
X1280Y1493D02*
X1346Y1493D01*
X977Y1492D02*
X1049Y1492D01*
X1277Y1492D02*
X1349Y1492D01*
X975Y1491D02*
X1052Y1491D01*
X1275Y1491D02*
X1351Y1491D01*
X973Y1490D02*
X1054Y1490D01*
X1273Y1490D02*
X1353Y1490D01*
X971Y1489D02*
X1055Y1489D01*
X1271Y1489D02*
X1355Y1489D01*
X969Y1488D02*
X1057Y1488D01*
X1269Y1488D02*
X1357Y1488D01*
X968Y1487D02*
X1058Y1487D01*
X1268Y1487D02*
X1358Y1487D01*
X967Y1486D02*
X1059Y1486D01*
X1267Y1486D02*
X1359Y1486D01*
X966Y1485D02*
X1060Y1485D01*
X1266Y1485D02*
X1360Y1485D01*
X965Y1484D02*
X1061Y1484D01*
X1265Y1484D02*
X1361Y1484D01*
X964Y1483D02*
X1062Y1483D01*
X1264Y1483D02*
X1362Y1483D01*
X963Y1482D02*
X1063Y1482D01*
X1263Y1482D02*
X1363Y1482D01*
X963Y1481D02*
X1064Y1481D01*
X1262Y1481D02*
X1364Y1481D01*
X962Y1480D02*
X1064Y1480D01*
X1262Y1480D02*
X1364Y1480D01*
X961Y1479D02*
X1065Y1479D01*
X1261Y1479D02*
X1365Y1479D01*
X961Y1478D02*
X1066Y1478D01*
X1261Y1478D02*
X1366Y1478D01*
X960Y1477D02*
X1066Y1477D01*
X1260Y1477D02*
X1366Y1477D01*
X960Y1476D02*
X1067Y1476D01*
X1260Y1476D02*
X1367Y1476D01*
X959Y1475D02*
X1067Y1475D01*
X1259Y1475D02*
X1367Y1475D01*
X959Y1474D02*
X1067Y1474D01*
X1259Y1474D02*
X1367Y1474D01*
X958Y1473D02*
X1008Y1473D01*
X1018Y1473D02*
X1068Y1473D01*
X1258Y1473D02*
X1308Y1473D01*
X1318Y1473D02*
X1368Y1473D01*
X958Y1472D02*
X1006Y1472D01*
X1020Y1472D02*
X1068Y1472D01*
X1258Y1472D02*
X1306Y1472D01*
X1320Y1472D02*
X1368Y1472D01*
X958Y1471D02*
X1005Y1471D01*
X1021Y1471D02*
X1068Y1471D01*
X1258Y1471D02*
X1305Y1471D01*
X1321Y1471D02*
X1368Y1471D01*
X958Y1470D02*
X1004Y1470D01*
X1022Y1470D02*
X1069Y1470D01*
X1257Y1470D02*
X1304Y1470D01*
X1322Y1470D02*
X1369Y1470D01*
X957Y1469D02*
X1003Y1469D01*
X1023Y1469D02*
X1069Y1469D01*
X1257Y1469D02*
X1303Y1469D01*
X1323Y1469D02*
X1369Y1469D01*
X957Y1468D02*
X1003Y1468D01*
X1023Y1468D02*
X1069Y1468D01*
X1257Y1468D02*
X1303Y1468D01*
X1323Y1468D02*
X1369Y1468D01*
X957Y1467D02*
X1002Y1467D01*
X1024Y1467D02*
X1069Y1467D01*
X1257Y1467D02*
X1302Y1467D01*
X1324Y1467D02*
X1369Y1467D01*
X957Y1466D02*
X1002Y1466D01*
X1024Y1466D02*
X1069Y1466D01*
X1257Y1466D02*
X1302Y1466D01*
X1324Y1466D02*
X1369Y1466D01*
X957Y1465D02*
X1002Y1465D01*
X1024Y1465D02*
X1069Y1465D01*
X1257Y1465D02*
X1302Y1465D01*
X1324Y1465D02*
X1369Y1465D01*
X957Y1464D02*
X1002Y1464D01*
X1025Y1464D02*
X1070Y1464D01*
X1257Y1464D02*
X1302Y1464D01*
X1324Y1464D02*
X1369Y1464D01*
X957Y1463D02*
X1002Y1463D01*
X1025Y1463D02*
X1070Y1463D01*
X1257Y1463D02*
X1302Y1463D01*
X1325Y1463D02*
X1370Y1463D01*
X957Y1462D02*
X1002Y1462D01*
X1025Y1462D02*
X1070Y1462D01*
X1257Y1462D02*
X1302Y1462D01*
X1324Y1462D02*
X1369Y1462D01*
X957Y1461D02*
X1002Y1461D01*
X1024Y1461D02*
X1069Y1461D01*
X1257Y1461D02*
X1302Y1461D01*
X1324Y1461D02*
X1369Y1461D01*
X957Y1460D02*
X1002Y1460D01*
X1024Y1460D02*
X1069Y1460D01*
X1257Y1460D02*
X1302Y1460D01*
X1324Y1460D02*
X1369Y1460D01*
X957Y1459D02*
X1002Y1459D01*
X1024Y1459D02*
X1069Y1459D01*
X1257Y1459D02*
X1302Y1459D01*
X1324Y1459D02*
X1369Y1459D01*
X957Y1458D02*
X1003Y1458D01*
X1023Y1458D02*
X1069Y1458D01*
X1257Y1458D02*
X1303Y1458D01*
X1323Y1458D02*
X1369Y1458D01*
X957Y1457D02*
X1003Y1457D01*
X1023Y1457D02*
X1069Y1457D01*
X1257Y1457D02*
X1303Y1457D01*
X1323Y1457D02*
X1369Y1457D01*
X958Y1456D02*
X1004Y1456D01*
X1022Y1456D02*
X1069Y1456D01*
X1257Y1456D02*
X1304Y1456D01*
X1322Y1456D02*
X1369Y1456D01*
X958Y1455D02*
X1005Y1455D01*
X1021Y1455D02*
X1068Y1455D01*
X1258Y1455D02*
X1305Y1455D01*
X1321Y1455D02*
X1368Y1455D01*
X958Y1454D02*
X1006Y1454D01*
X1020Y1454D02*
X1068Y1454D01*
X1258Y1454D02*
X1306Y1454D01*
X1320Y1454D02*
X1368Y1454D01*
X958Y1453D02*
X1008Y1453D01*
X1018Y1453D02*
X1068Y1453D01*
X1258Y1453D02*
X1308Y1453D01*
X1318Y1453D02*
X1368Y1453D01*
X959Y1452D02*
X1012Y1452D01*
X1014Y1452D02*
X1067Y1452D01*
X1259Y1452D02*
X1312Y1452D01*
X1314Y1452D02*
X1367Y1452D01*
X959Y1451D02*
X1067Y1451D01*
X1259Y1451D02*
X1367Y1451D01*
X960Y1450D02*
X1067Y1450D01*
X1260Y1450D02*
X1367Y1450D01*
X960Y1449D02*
X1066Y1449D01*
X1260Y1449D02*
X1366Y1449D01*
X961Y1448D02*
X1066Y1448D01*
X1261Y1448D02*
X1366Y1448D01*
X961Y1447D02*
X1065Y1447D01*
X1261Y1447D02*
X1365Y1447D01*
X962Y1446D02*
X1064Y1446D01*
X1262Y1446D02*
X1364Y1446D01*
X962Y1445D02*
X1064Y1445D01*
X1262Y1445D02*
X1364Y1445D01*
X963Y1444D02*
X1063Y1444D01*
X1263Y1444D02*
X1363Y1444D01*
X964Y1443D02*
X1062Y1443D01*
X1264Y1443D02*
X1362Y1443D01*
X965Y1442D02*
X1061Y1442D01*
X1265Y1442D02*
X1361Y1442D01*
X966Y1441D02*
X1060Y1441D01*
X1266Y1441D02*
X1360Y1441D01*
X967Y1440D02*
X1059Y1440D01*
X1267Y1440D02*
X1359Y1440D01*
X968Y1439D02*
X1058Y1439D01*
X1268Y1439D02*
X1358Y1439D01*
X969Y1438D02*
X1057Y1438D01*
X1269Y1438D02*
X1357Y1438D01*
X971Y1437D02*
X1055Y1437D01*
X1271Y1437D02*
X1355Y1437D01*
X973Y1436D02*
X1054Y1436D01*
X1272Y1436D02*
X1354Y1436D01*
X975Y1435D02*
X1052Y1435D01*
X1274Y1435D02*
X1352Y1435D01*
X977Y1434D02*
X1049Y1434D01*
X1277Y1434D02*
X1349Y1434D01*
X980Y1433D02*
X1046Y1433D01*
X1280Y1433D02*
X1346Y1433D01*
X987Y1432D02*
X1039Y1432D01*
X1287Y1432D02*
X1339Y1432D01*
X980Y1393D02*
X1046Y1393D01*
X1280Y1393D02*
X1346Y1393D01*
X977Y1392D02*
X1049Y1392D01*
X1277Y1392D02*
X1349Y1392D01*
X975Y1391D02*
X1052Y1391D01*
X1275Y1391D02*
X1352Y1391D01*
X973Y1390D02*
X1054Y1390D01*
X1273Y1390D02*
X1354Y1390D01*
X971Y1389D02*
X1055Y1389D01*
X1271Y1389D02*
X1355Y1389D01*
X969Y1388D02*
X1057Y1388D01*
X1269Y1388D02*
X1357Y1388D01*
X968Y1387D02*
X1058Y1387D01*
X1268Y1387D02*
X1358Y1387D01*
X967Y1386D02*
X1059Y1386D01*
X1267Y1386D02*
X1359Y1386D01*
X966Y1385D02*
X1060Y1385D01*
X1266Y1385D02*
X1360Y1385D01*
X965Y1384D02*
X1061Y1384D01*
X1265Y1384D02*
X1361Y1384D01*
X964Y1383D02*
X1062Y1383D01*
X1264Y1383D02*
X1362Y1383D01*
X963Y1382D02*
X1063Y1382D01*
X1263Y1382D02*
X1363Y1382D01*
X962Y1381D02*
X1064Y1381D01*
X1262Y1381D02*
X1364Y1381D01*
X962Y1380D02*
X1064Y1380D01*
X1262Y1380D02*
X1364Y1380D01*
X961Y1379D02*
X1065Y1379D01*
X1261Y1379D02*
X1365Y1379D01*
X961Y1378D02*
X1066Y1378D01*
X1261Y1378D02*
X1366Y1378D01*
X960Y1377D02*
X1066Y1377D01*
X1260Y1377D02*
X1366Y1377D01*
X960Y1376D02*
X1067Y1376D01*
X1260Y1376D02*
X1367Y1376D01*
X959Y1375D02*
X1067Y1375D01*
X1259Y1375D02*
X1367Y1375D01*
X959Y1374D02*
X1067Y1374D01*
X1259Y1374D02*
X1367Y1374D01*
X958Y1373D02*
X1008Y1373D01*
X1018Y1373D02*
X1068Y1373D01*
X1258Y1373D02*
X1308Y1373D01*
X1318Y1373D02*
X1368Y1373D01*
X958Y1372D02*
X1006Y1372D01*
X1020Y1372D02*
X1068Y1372D01*
X1258Y1372D02*
X1306Y1372D01*
X1320Y1372D02*
X1368Y1372D01*
X958Y1371D02*
X1005Y1371D01*
X1021Y1371D02*
X1068Y1371D01*
X1258Y1371D02*
X1305Y1371D01*
X1321Y1371D02*
X1368Y1371D01*
X958Y1370D02*
X1004Y1370D01*
X1022Y1370D02*
X1069Y1370D01*
X1257Y1370D02*
X1304Y1370D01*
X1322Y1370D02*
X1369Y1370D01*
X957Y1369D02*
X1003Y1369D01*
X1023Y1369D02*
X1069Y1369D01*
X1257Y1369D02*
X1303Y1369D01*
X1323Y1369D02*
X1369Y1369D01*
X957Y1368D02*
X1003Y1368D01*
X1023Y1368D02*
X1069Y1368D01*
X1257Y1368D02*
X1303Y1368D01*
X1323Y1368D02*
X1369Y1368D01*
X957Y1367D02*
X1002Y1367D01*
X1024Y1367D02*
X1069Y1367D01*
X1257Y1367D02*
X1302Y1367D01*
X1324Y1367D02*
X1369Y1367D01*
X957Y1366D02*
X1002Y1366D01*
X1024Y1366D02*
X1069Y1366D01*
X1257Y1366D02*
X1302Y1366D01*
X1324Y1366D02*
X1369Y1366D01*
X957Y1365D02*
X1002Y1365D01*
X1024Y1365D02*
X1069Y1365D01*
X1257Y1365D02*
X1302Y1365D01*
X1324Y1365D02*
X1369Y1365D01*
X957Y1364D02*
X1002Y1364D01*
X1025Y1364D02*
X1070Y1364D01*
X1257Y1364D02*
X1302Y1364D01*
X1324Y1364D02*
X1369Y1364D01*
X957Y1363D02*
X1002Y1363D01*
X1025Y1363D02*
X1070Y1363D01*
X1257Y1363D02*
X1302Y1363D01*
X1325Y1363D02*
X1370Y1363D01*
X957Y1362D02*
X1002Y1362D01*
X1025Y1362D02*
X1070Y1362D01*
X1257Y1362D02*
X1302Y1362D01*
X1324Y1362D02*
X1369Y1362D01*
X957Y1361D02*
X1002Y1361D01*
X1024Y1361D02*
X1069Y1361D01*
X1257Y1361D02*
X1302Y1361D01*
X1324Y1361D02*
X1369Y1361D01*
X957Y1360D02*
X1002Y1360D01*
X1024Y1360D02*
X1069Y1360D01*
X1257Y1360D02*
X1302Y1360D01*
X1324Y1360D02*
X1369Y1360D01*
X957Y1359D02*
X1002Y1359D01*
X1024Y1359D02*
X1069Y1359D01*
X1257Y1359D02*
X1302Y1359D01*
X1324Y1359D02*
X1369Y1359D01*
X957Y1358D02*
X1003Y1358D01*
X1023Y1358D02*
X1069Y1358D01*
X1257Y1358D02*
X1303Y1358D01*
X1323Y1358D02*
X1369Y1358D01*
X957Y1357D02*
X1003Y1357D01*
X1023Y1357D02*
X1069Y1357D01*
X1257Y1357D02*
X1303Y1357D01*
X1323Y1357D02*
X1369Y1357D01*
X958Y1356D02*
X1004Y1356D01*
X1022Y1356D02*
X1069Y1356D01*
X1257Y1356D02*
X1304Y1356D01*
X1322Y1356D02*
X1369Y1356D01*
X958Y1355D02*
X1005Y1355D01*
X1021Y1355D02*
X1068Y1355D01*
X1258Y1355D02*
X1305Y1355D01*
X1321Y1355D02*
X1368Y1355D01*
X958Y1354D02*
X1006Y1354D01*
X1020Y1354D02*
X1068Y1354D01*
X1258Y1354D02*
X1306Y1354D01*
X1320Y1354D02*
X1368Y1354D01*
X958Y1353D02*
X1008Y1353D01*
X1018Y1353D02*
X1068Y1353D01*
X1258Y1353D02*
X1308Y1353D01*
X1318Y1353D02*
X1368Y1353D01*
X959Y1352D02*
X1067Y1352D01*
X1259Y1352D02*
X1367Y1352D01*
X959Y1351D02*
X1067Y1351D01*
X1259Y1351D02*
X1367Y1351D01*
X960Y1350D02*
X1067Y1350D01*
X1260Y1350D02*
X1367Y1350D01*
X960Y1349D02*
X1066Y1349D01*
X1260Y1349D02*
X1366Y1349D01*
X961Y1348D02*
X1066Y1348D01*
X1261Y1348D02*
X1366Y1348D01*
X961Y1347D02*
X1065Y1347D01*
X1261Y1347D02*
X1365Y1347D01*
X962Y1346D02*
X1064Y1346D01*
X1262Y1346D02*
X1364Y1346D01*
X962Y1345D02*
X1064Y1345D01*
X1262Y1345D02*
X1364Y1345D01*
X963Y1344D02*
X1063Y1344D01*
X1263Y1344D02*
X1363Y1344D01*
X964Y1343D02*
X1062Y1343D01*
X1264Y1343D02*
X1362Y1343D01*
X965Y1342D02*
X1061Y1342D01*
X1265Y1342D02*
X1361Y1342D01*
X966Y1341D02*
X1060Y1341D01*
X1266Y1341D02*
X1360Y1341D01*
X967Y1340D02*
X1059Y1340D01*
X1267Y1340D02*
X1359Y1340D01*
X968Y1339D02*
X1058Y1339D01*
X1268Y1339D02*
X1358Y1339D01*
X969Y1338D02*
X1057Y1338D01*
X1269Y1338D02*
X1357Y1338D01*
X971Y1337D02*
X1055Y1337D01*
X1271Y1337D02*
X1355Y1337D01*
X973Y1336D02*
X1054Y1336D01*
X1273Y1336D02*
X1354Y1336D01*
X975Y1335D02*
X1052Y1335D01*
X1275Y1335D02*
X1352Y1335D01*
X977Y1334D02*
X1049Y1334D01*
X1277Y1334D02*
X1349Y1334D01*
X980Y1333D02*
X1046Y1333D01*
X1280Y1333D02*
X1346Y1333D01*
X988Y1332D02*
X1038Y1332D01*
X1288Y1332D02*
X1338Y1332D01*
X987Y1294D02*
X1039Y1294D01*
X1287Y1294D02*
X1339Y1294D01*
X980Y1293D02*
X1046Y1293D01*
X1280Y1293D02*
X1346Y1293D01*
X977Y1292D02*
X1049Y1292D01*
X1277Y1292D02*
X1349Y1292D01*
X975Y1291D02*
X1052Y1291D01*
X1274Y1291D02*
X1352Y1291D01*
X973Y1290D02*
X1054Y1290D01*
X1272Y1290D02*
X1354Y1290D01*
X971Y1289D02*
X1055Y1289D01*
X1271Y1289D02*
X1355Y1289D01*
X969Y1288D02*
X1057Y1288D01*
X1269Y1288D02*
X1357Y1288D01*
X968Y1287D02*
X1058Y1287D01*
X1268Y1287D02*
X1358Y1287D01*
X967Y1286D02*
X1059Y1286D01*
X1267Y1286D02*
X1359Y1286D01*
X966Y1285D02*
X1060Y1285D01*
X1266Y1285D02*
X1360Y1285D01*
X965Y1284D02*
X1061Y1284D01*
X1265Y1284D02*
X1361Y1284D01*
X964Y1283D02*
X1062Y1283D01*
X1264Y1283D02*
X1362Y1283D01*
X963Y1282D02*
X1063Y1282D01*
X1263Y1282D02*
X1363Y1282D01*
X962Y1281D02*
X1064Y1281D01*
X1262Y1281D02*
X1364Y1281D01*
X962Y1280D02*
X1064Y1280D01*
X1262Y1280D02*
X1364Y1280D01*
X961Y1279D02*
X1065Y1279D01*
X1261Y1279D02*
X1365Y1279D01*
X961Y1278D02*
X1066Y1278D01*
X1261Y1278D02*
X1366Y1278D01*
X960Y1277D02*
X1066Y1277D01*
X1260Y1277D02*
X1366Y1277D01*
X960Y1276D02*
X1067Y1276D01*
X1260Y1276D02*
X1367Y1276D01*
X959Y1275D02*
X1067Y1275D01*
X1259Y1275D02*
X1367Y1275D01*
X959Y1274D02*
X1067Y1274D01*
X1259Y1274D02*
X1367Y1274D01*
X958Y1273D02*
X1008Y1273D01*
X1018Y1273D02*
X1068Y1273D01*
X1258Y1273D02*
X1308Y1273D01*
X1318Y1273D02*
X1368Y1273D01*
X958Y1272D02*
X1006Y1272D01*
X1020Y1272D02*
X1068Y1272D01*
X1258Y1272D02*
X1306Y1272D01*
X1320Y1272D02*
X1368Y1272D01*
X958Y1271D02*
X1005Y1271D01*
X1021Y1271D02*
X1068Y1271D01*
X1258Y1271D02*
X1305Y1271D01*
X1321Y1271D02*
X1368Y1271D01*
X958Y1270D02*
X1004Y1270D01*
X1022Y1270D02*
X1069Y1270D01*
X1257Y1270D02*
X1304Y1270D01*
X1322Y1270D02*
X1369Y1270D01*
X957Y1269D02*
X1003Y1269D01*
X1023Y1269D02*
X1069Y1269D01*
X1257Y1269D02*
X1303Y1269D01*
X1323Y1269D02*
X1369Y1269D01*
X957Y1268D02*
X1003Y1268D01*
X1023Y1268D02*
X1069Y1268D01*
X1257Y1268D02*
X1303Y1268D01*
X1323Y1268D02*
X1369Y1268D01*
X957Y1267D02*
X1002Y1267D01*
X1024Y1267D02*
X1069Y1267D01*
X1257Y1267D02*
X1302Y1267D01*
X1324Y1267D02*
X1369Y1267D01*
X957Y1266D02*
X1002Y1266D01*
X1024Y1266D02*
X1069Y1266D01*
X1257Y1266D02*
X1302Y1266D01*
X1324Y1266D02*
X1369Y1266D01*
X957Y1265D02*
X1002Y1265D01*
X1024Y1265D02*
X1069Y1265D01*
X1257Y1265D02*
X1302Y1265D01*
X1324Y1265D02*
X1369Y1265D01*
X957Y1264D02*
X1002Y1264D01*
X1025Y1264D02*
X1070Y1264D01*
X1257Y1264D02*
X1302Y1264D01*
X1324Y1264D02*
X1369Y1264D01*
X957Y1263D02*
X1002Y1263D01*
X1025Y1263D02*
X1070Y1263D01*
X1257Y1263D02*
X1302Y1263D01*
X1325Y1263D02*
X1370Y1263D01*
X957Y1262D02*
X1002Y1262D01*
X1025Y1262D02*
X1070Y1262D01*
X1257Y1262D02*
X1302Y1262D01*
X1324Y1262D02*
X1369Y1262D01*
X957Y1261D02*
X1002Y1261D01*
X1024Y1261D02*
X1069Y1261D01*
X1257Y1261D02*
X1302Y1261D01*
X1324Y1261D02*
X1369Y1261D01*
X957Y1260D02*
X1002Y1260D01*
X1024Y1260D02*
X1069Y1260D01*
X1257Y1260D02*
X1302Y1260D01*
X1324Y1260D02*
X1369Y1260D01*
X957Y1259D02*
X1002Y1259D01*
X1024Y1259D02*
X1069Y1259D01*
X1257Y1259D02*
X1302Y1259D01*
X1324Y1259D02*
X1369Y1259D01*
X957Y1258D02*
X1003Y1258D01*
X1023Y1258D02*
X1069Y1258D01*
X1257Y1258D02*
X1303Y1258D01*
X1323Y1258D02*
X1369Y1258D01*
X957Y1257D02*
X1003Y1257D01*
X1023Y1257D02*
X1069Y1257D01*
X1257Y1257D02*
X1303Y1257D01*
X1323Y1257D02*
X1369Y1257D01*
X958Y1256D02*
X1004Y1256D01*
X1022Y1256D02*
X1069Y1256D01*
X1257Y1256D02*
X1304Y1256D01*
X1322Y1256D02*
X1369Y1256D01*
X958Y1255D02*
X1005Y1255D01*
X1021Y1255D02*
X1068Y1255D01*
X1258Y1255D02*
X1305Y1255D01*
X1321Y1255D02*
X1368Y1255D01*
X958Y1254D02*
X1006Y1254D01*
X1020Y1254D02*
X1068Y1254D01*
X1258Y1254D02*
X1306Y1254D01*
X1320Y1254D02*
X1368Y1254D01*
X958Y1253D02*
X1008Y1253D01*
X1018Y1253D02*
X1068Y1253D01*
X1258Y1253D02*
X1308Y1253D01*
X1318Y1253D02*
X1368Y1253D01*
X959Y1252D02*
X1067Y1252D01*
X1259Y1252D02*
X1367Y1252D01*
X959Y1251D02*
X1067Y1251D01*
X1259Y1251D02*
X1367Y1251D01*
X960Y1250D02*
X1067Y1250D01*
X1260Y1250D02*
X1367Y1250D01*
X960Y1249D02*
X1066Y1249D01*
X1260Y1249D02*
X1366Y1249D01*
X961Y1248D02*
X1066Y1248D01*
X1261Y1248D02*
X1366Y1248D01*
X961Y1247D02*
X1065Y1247D01*
X1261Y1247D02*
X1365Y1247D01*
X962Y1246D02*
X1064Y1246D01*
X1262Y1246D02*
X1364Y1246D01*
X962Y1245D02*
X1064Y1245D01*
X1262Y1245D02*
X1364Y1245D01*
X963Y1244D02*
X1063Y1244D01*
X1263Y1244D02*
X1363Y1244D01*
X964Y1243D02*
X1062Y1243D01*
X1264Y1243D02*
X1362Y1243D01*
X965Y1242D02*
X1061Y1242D01*
X1265Y1242D02*
X1361Y1242D01*
X966Y1241D02*
X1060Y1241D01*
X1266Y1241D02*
X1360Y1241D01*
X967Y1240D02*
X1059Y1240D01*
X1267Y1240D02*
X1359Y1240D01*
X968Y1239D02*
X1058Y1239D01*
X1268Y1239D02*
X1358Y1239D01*
X969Y1238D02*
X1057Y1238D01*
X1269Y1238D02*
X1357Y1238D01*
X971Y1237D02*
X1055Y1237D01*
X1271Y1237D02*
X1355Y1237D01*
X973Y1236D02*
X1054Y1236D01*
X1273Y1236D02*
X1354Y1236D01*
X975Y1235D02*
X1052Y1235D01*
X1275Y1235D02*
X1351Y1235D01*
X977Y1234D02*
X1049Y1234D01*
X1277Y1234D02*
X1349Y1234D01*
X980Y1233D02*
X1046Y1233D01*
X1280Y1233D02*
X1346Y1233D01*
X987Y1194D02*
X1040Y1194D01*
X1287Y1194D02*
X1339Y1194D01*
X980Y1193D02*
X1046Y1193D01*
X1280Y1193D02*
X1346Y1193D01*
X977Y1192D02*
X1049Y1192D01*
X1277Y1192D02*
X1349Y1192D01*
X974Y1191D02*
X1052Y1191D01*
X1274Y1191D02*
X1352Y1191D01*
X972Y1190D02*
X1054Y1190D01*
X1272Y1190D02*
X1354Y1190D01*
X971Y1189D02*
X1055Y1189D01*
X1271Y1189D02*
X1355Y1189D01*
X969Y1188D02*
X1057Y1188D01*
X1269Y1188D02*
X1357Y1188D01*
X968Y1187D02*
X1058Y1187D01*
X1268Y1187D02*
X1358Y1187D01*
X967Y1186D02*
X1059Y1186D01*
X1267Y1186D02*
X1359Y1186D01*
X966Y1185D02*
X1060Y1185D01*
X1266Y1185D02*
X1360Y1185D01*
X965Y1184D02*
X1061Y1184D01*
X1265Y1184D02*
X1361Y1184D01*
X964Y1183D02*
X1062Y1183D01*
X1264Y1183D02*
X1362Y1183D01*
X963Y1182D02*
X1063Y1182D01*
X1263Y1182D02*
X1363Y1182D01*
X962Y1181D02*
X1064Y1181D01*
X1262Y1181D02*
X1364Y1181D01*
X962Y1180D02*
X1064Y1180D01*
X1262Y1180D02*
X1364Y1180D01*
X961Y1179D02*
X1065Y1179D01*
X1261Y1179D02*
X1365Y1179D01*
X961Y1178D02*
X1066Y1178D01*
X1260Y1178D02*
X1366Y1178D01*
X960Y1177D02*
X1066Y1177D01*
X1260Y1177D02*
X1366Y1177D01*
X960Y1176D02*
X1067Y1176D01*
X1260Y1176D02*
X1367Y1176D01*
X959Y1175D02*
X1067Y1175D01*
X1259Y1175D02*
X1367Y1175D01*
X959Y1174D02*
X1012Y1174D01*
X1014Y1174D02*
X1067Y1174D01*
X1259Y1174D02*
X1312Y1174D01*
X1314Y1174D02*
X1367Y1174D01*
X958Y1173D02*
X1008Y1173D01*
X1018Y1173D02*
X1068Y1173D01*
X1258Y1173D02*
X1308Y1173D01*
X1318Y1173D02*
X1368Y1173D01*
X958Y1172D02*
X1006Y1172D01*
X1020Y1172D02*
X1068Y1172D01*
X1258Y1172D02*
X1306Y1172D01*
X1320Y1172D02*
X1368Y1172D01*
X958Y1171D02*
X1005Y1171D01*
X1021Y1171D02*
X1068Y1171D01*
X1258Y1171D02*
X1305Y1171D01*
X1321Y1171D02*
X1368Y1171D01*
X957Y1170D02*
X1004Y1170D01*
X1022Y1170D02*
X1069Y1170D01*
X1257Y1170D02*
X1304Y1170D01*
X1322Y1170D02*
X1369Y1170D01*
X957Y1169D02*
X1003Y1169D01*
X1023Y1169D02*
X1069Y1169D01*
X1257Y1169D02*
X1303Y1169D01*
X1323Y1169D02*
X1369Y1169D01*
X957Y1168D02*
X1003Y1168D01*
X1023Y1168D02*
X1069Y1168D01*
X1257Y1168D02*
X1303Y1168D01*
X1323Y1168D02*
X1369Y1168D01*
X957Y1167D02*
X1002Y1167D01*
X1024Y1167D02*
X1069Y1167D01*
X1257Y1167D02*
X1302Y1167D01*
X1324Y1167D02*
X1369Y1167D01*
X957Y1166D02*
X1002Y1166D01*
X1024Y1166D02*
X1069Y1166D01*
X1257Y1166D02*
X1302Y1166D01*
X1324Y1166D02*
X1369Y1166D01*
X957Y1165D02*
X1002Y1165D01*
X1024Y1165D02*
X1069Y1165D01*
X1257Y1165D02*
X1302Y1165D01*
X1324Y1165D02*
X1369Y1165D01*
X957Y1164D02*
X1002Y1164D01*
X1025Y1164D02*
X1070Y1164D01*
X1257Y1164D02*
X1302Y1164D01*
X1324Y1164D02*
X1369Y1164D01*
X957Y1163D02*
X1002Y1163D01*
X1025Y1163D02*
X1070Y1163D01*
X1257Y1163D02*
X1302Y1163D01*
X1325Y1163D02*
X1370Y1163D01*
X957Y1162D02*
X1002Y1162D01*
X1025Y1162D02*
X1070Y1162D01*
X1257Y1162D02*
X1302Y1162D01*
X1324Y1162D02*
X1369Y1162D01*
X957Y1161D02*
X1002Y1161D01*
X1024Y1161D02*
X1069Y1161D01*
X1257Y1161D02*
X1302Y1161D01*
X1324Y1161D02*
X1369Y1161D01*
X957Y1160D02*
X1002Y1160D01*
X1024Y1160D02*
X1069Y1160D01*
X1257Y1160D02*
X1302Y1160D01*
X1324Y1160D02*
X1369Y1160D01*
X957Y1159D02*
X1002Y1159D01*
X1024Y1159D02*
X1069Y1159D01*
X1257Y1159D02*
X1302Y1159D01*
X1324Y1159D02*
X1369Y1159D01*
X957Y1158D02*
X1003Y1158D01*
X1023Y1158D02*
X1069Y1158D01*
X1257Y1158D02*
X1303Y1158D01*
X1323Y1158D02*
X1369Y1158D01*
X957Y1157D02*
X1003Y1157D01*
X1023Y1157D02*
X1069Y1157D01*
X1257Y1157D02*
X1303Y1157D01*
X1323Y1157D02*
X1369Y1157D01*
X958Y1156D02*
X1004Y1156D01*
X1022Y1156D02*
X1069Y1156D01*
X1257Y1156D02*
X1304Y1156D01*
X1322Y1156D02*
X1369Y1156D01*
X958Y1155D02*
X1005Y1155D01*
X1021Y1155D02*
X1068Y1155D01*
X1258Y1155D02*
X1305Y1155D01*
X1321Y1155D02*
X1368Y1155D01*
X958Y1154D02*
X1006Y1154D01*
X1020Y1154D02*
X1068Y1154D01*
X1258Y1154D02*
X1306Y1154D01*
X1320Y1154D02*
X1368Y1154D01*
X958Y1153D02*
X1008Y1153D01*
X1018Y1153D02*
X1068Y1153D01*
X1258Y1153D02*
X1308Y1153D01*
X1318Y1153D02*
X1368Y1153D01*
X959Y1152D02*
X1067Y1152D01*
X1259Y1152D02*
X1367Y1152D01*
X959Y1151D02*
X1067Y1151D01*
X1259Y1151D02*
X1367Y1151D01*
X960Y1150D02*
X1067Y1150D01*
X1260Y1150D02*
X1367Y1150D01*
X960Y1149D02*
X1066Y1149D01*
X1260Y1149D02*
X1366Y1149D01*
X961Y1148D02*
X1066Y1148D01*
X1261Y1148D02*
X1366Y1148D01*
X961Y1147D02*
X1065Y1147D01*
X1261Y1147D02*
X1365Y1147D01*
X962Y1146D02*
X1064Y1146D01*
X1262Y1146D02*
X1364Y1146D01*
X963Y1145D02*
X1064Y1145D01*
X1262Y1145D02*
X1364Y1145D01*
X963Y1144D02*
X1063Y1144D01*
X1263Y1144D02*
X1363Y1144D01*
X964Y1143D02*
X1062Y1143D01*
X1264Y1143D02*
X1362Y1143D01*
X965Y1142D02*
X1061Y1142D01*
X1265Y1142D02*
X1361Y1142D01*
X966Y1141D02*
X1060Y1141D01*
X1266Y1141D02*
X1360Y1141D01*
X967Y1140D02*
X1059Y1140D01*
X1267Y1140D02*
X1359Y1140D01*
X968Y1139D02*
X1058Y1139D01*
X1268Y1139D02*
X1358Y1139D01*
X970Y1138D02*
X1057Y1138D01*
X1269Y1138D02*
X1357Y1138D01*
X971Y1137D02*
X1055Y1137D01*
X1271Y1137D02*
X1355Y1137D01*
X973Y1136D02*
X1054Y1136D01*
X1273Y1136D02*
X1353Y1136D01*
X975Y1135D02*
X1051Y1135D01*
X1275Y1135D02*
X1351Y1135D01*
X977Y1134D02*
X1049Y1134D01*
X1277Y1134D02*
X1349Y1134D01*
X980Y1133D02*
X1046Y1133D01*
X1280Y1133D02*
X1346Y1133D01*
X986Y1094D02*
X1040Y1094D01*
X1286Y1094D02*
X1340Y1094D01*
X980Y1093D02*
X1046Y1093D01*
X1280Y1093D02*
X1346Y1093D01*
X977Y1092D02*
X1049Y1092D01*
X1277Y1092D02*
X1349Y1092D01*
X974Y1091D02*
X1052Y1091D01*
X1274Y1091D02*
X1352Y1091D01*
X972Y1090D02*
X1054Y1090D01*
X1272Y1090D02*
X1354Y1090D01*
X971Y1089D02*
X1055Y1089D01*
X1271Y1089D02*
X1355Y1089D01*
X969Y1088D02*
X1057Y1088D01*
X1269Y1088D02*
X1357Y1088D01*
X968Y1087D02*
X1058Y1087D01*
X1268Y1087D02*
X1358Y1087D01*
X967Y1086D02*
X1059Y1086D01*
X1267Y1086D02*
X1359Y1086D01*
X966Y1085D02*
X1060Y1085D01*
X1266Y1085D02*
X1360Y1085D01*
X965Y1084D02*
X1061Y1084D01*
X1265Y1084D02*
X1361Y1084D01*
X964Y1083D02*
X1062Y1083D01*
X1264Y1083D02*
X1362Y1083D01*
X963Y1082D02*
X1063Y1082D01*
X1263Y1082D02*
X1363Y1082D01*
X962Y1081D02*
X1064Y1081D01*
X1262Y1081D02*
X1364Y1081D01*
X962Y1080D02*
X1064Y1080D01*
X1262Y1080D02*
X1364Y1080D01*
X961Y1079D02*
X1065Y1079D01*
X1261Y1079D02*
X1365Y1079D01*
X961Y1078D02*
X1066Y1078D01*
X1260Y1078D02*
X1366Y1078D01*
X960Y1077D02*
X1066Y1077D01*
X1260Y1077D02*
X1366Y1077D01*
X960Y1076D02*
X1067Y1076D01*
X1260Y1076D02*
X1367Y1076D01*
X959Y1075D02*
X1067Y1075D01*
X1259Y1075D02*
X1367Y1075D01*
X959Y1074D02*
X1011Y1074D01*
X1015Y1074D02*
X1067Y1074D01*
X1259Y1074D02*
X1311Y1074D01*
X1315Y1074D02*
X1367Y1074D01*
X958Y1073D02*
X1008Y1073D01*
X1018Y1073D02*
X1068Y1073D01*
X1258Y1073D02*
X1308Y1073D01*
X1318Y1073D02*
X1368Y1073D01*
X958Y1072D02*
X1006Y1072D01*
X1020Y1072D02*
X1068Y1072D01*
X1258Y1072D02*
X1306Y1072D01*
X1320Y1072D02*
X1368Y1072D01*
X958Y1071D02*
X1005Y1071D01*
X1021Y1071D02*
X1068Y1071D01*
X1258Y1071D02*
X1305Y1071D01*
X1321Y1071D02*
X1368Y1071D01*
X957Y1070D02*
X1004Y1070D01*
X1022Y1070D02*
X1069Y1070D01*
X1257Y1070D02*
X1304Y1070D01*
X1322Y1070D02*
X1369Y1070D01*
X957Y1069D02*
X1003Y1069D01*
X1023Y1069D02*
X1069Y1069D01*
X1257Y1069D02*
X1303Y1069D01*
X1323Y1069D02*
X1369Y1069D01*
X957Y1068D02*
X1003Y1068D01*
X1023Y1068D02*
X1069Y1068D01*
X1257Y1068D02*
X1303Y1068D01*
X1323Y1068D02*
X1369Y1068D01*
X957Y1067D02*
X1002Y1067D01*
X1024Y1067D02*
X1069Y1067D01*
X1257Y1067D02*
X1302Y1067D01*
X1324Y1067D02*
X1369Y1067D01*
X957Y1066D02*
X1002Y1066D01*
X1024Y1066D02*
X1069Y1066D01*
X1257Y1066D02*
X1302Y1066D01*
X1324Y1066D02*
X1369Y1066D01*
X957Y1065D02*
X1002Y1065D01*
X1024Y1065D02*
X1069Y1065D01*
X1257Y1065D02*
X1302Y1065D01*
X1324Y1065D02*
X1369Y1065D01*
X957Y1064D02*
X1002Y1064D01*
X1025Y1064D02*
X1070Y1064D01*
X1257Y1064D02*
X1302Y1064D01*
X1324Y1064D02*
X1369Y1064D01*
X957Y1063D02*
X1002Y1063D01*
X1025Y1063D02*
X1070Y1063D01*
X1257Y1063D02*
X1302Y1063D01*
X1325Y1063D02*
X1370Y1063D01*
X957Y1062D02*
X1002Y1062D01*
X1025Y1062D02*
X1070Y1062D01*
X1257Y1062D02*
X1302Y1062D01*
X1324Y1062D02*
X1369Y1062D01*
X957Y1061D02*
X1002Y1061D01*
X1024Y1061D02*
X1069Y1061D01*
X1257Y1061D02*
X1302Y1061D01*
X1324Y1061D02*
X1369Y1061D01*
X957Y1060D02*
X1002Y1060D01*
X1024Y1060D02*
X1069Y1060D01*
X1257Y1060D02*
X1302Y1060D01*
X1324Y1060D02*
X1369Y1060D01*
X957Y1059D02*
X1002Y1059D01*
X1024Y1059D02*
X1069Y1059D01*
X1257Y1059D02*
X1302Y1059D01*
X1324Y1059D02*
X1369Y1059D01*
X957Y1058D02*
X1003Y1058D01*
X1023Y1058D02*
X1069Y1058D01*
X1257Y1058D02*
X1303Y1058D01*
X1323Y1058D02*
X1369Y1058D01*
X957Y1057D02*
X1003Y1057D01*
X1023Y1057D02*
X1069Y1057D01*
X1257Y1057D02*
X1303Y1057D01*
X1323Y1057D02*
X1369Y1057D01*
X958Y1056D02*
X1004Y1056D01*
X1022Y1056D02*
X1069Y1056D01*
X1257Y1056D02*
X1304Y1056D01*
X1322Y1056D02*
X1369Y1056D01*
X958Y1055D02*
X1005Y1055D01*
X1021Y1055D02*
X1068Y1055D01*
X1258Y1055D02*
X1305Y1055D01*
X1321Y1055D02*
X1368Y1055D01*
X958Y1054D02*
X1006Y1054D01*
X1020Y1054D02*
X1068Y1054D01*
X1258Y1054D02*
X1306Y1054D01*
X1320Y1054D02*
X1368Y1054D01*
X958Y1053D02*
X1008Y1053D01*
X1018Y1053D02*
X1068Y1053D01*
X1258Y1053D02*
X1308Y1053D01*
X1318Y1053D02*
X1368Y1053D01*
X959Y1052D02*
X1067Y1052D01*
X1259Y1052D02*
X1367Y1052D01*
X959Y1051D02*
X1067Y1051D01*
X1259Y1051D02*
X1367Y1051D01*
X960Y1050D02*
X1067Y1050D01*
X1260Y1050D02*
X1367Y1050D01*
X960Y1049D02*
X1066Y1049D01*
X1260Y1049D02*
X1366Y1049D01*
X961Y1048D02*
X1066Y1048D01*
X1261Y1048D02*
X1366Y1048D01*
X961Y1047D02*
X1065Y1047D01*
X1261Y1047D02*
X1365Y1047D01*
X962Y1046D02*
X1064Y1046D01*
X1262Y1046D02*
X1364Y1046D01*
X963Y1045D02*
X1064Y1045D01*
X1262Y1045D02*
X1364Y1045D01*
X963Y1044D02*
X1063Y1044D01*
X1263Y1044D02*
X1363Y1044D01*
X964Y1043D02*
X1062Y1043D01*
X1264Y1043D02*
X1362Y1043D01*
X965Y1042D02*
X1061Y1042D01*
X1265Y1042D02*
X1361Y1042D01*
X966Y1041D02*
X1060Y1041D01*
X1266Y1041D02*
X1360Y1041D01*
X967Y1040D02*
X1059Y1040D01*
X1267Y1040D02*
X1359Y1040D01*
X968Y1039D02*
X1058Y1039D01*
X1268Y1039D02*
X1358Y1039D01*
X970Y1038D02*
X1057Y1038D01*
X1269Y1038D02*
X1357Y1038D01*
X971Y1037D02*
X1055Y1037D01*
X1271Y1037D02*
X1355Y1037D01*
X973Y1036D02*
X1053Y1036D01*
X1273Y1036D02*
X1353Y1036D01*
X975Y1035D02*
X1051Y1035D01*
X1275Y1035D02*
X1351Y1035D01*
X977Y1034D02*
X1049Y1034D01*
X1277Y1034D02*
X1349Y1034D01*
X981Y1033D02*
X1046Y1033D01*
X1281Y1033D02*
X1346Y1033D01*
X986Y994D02*
X1041Y994D01*
X1286Y994D02*
X1341Y994D01*
X980Y993D02*
X1046Y993D01*
X1280Y993D02*
X1346Y993D01*
X977Y992D02*
X1050Y992D01*
X1277Y992D02*
X1349Y992D01*
X974Y991D02*
X1052Y991D01*
X1274Y991D02*
X1352Y991D01*
X972Y990D02*
X1054Y990D01*
X1272Y990D02*
X1354Y990D01*
X971Y989D02*
X1056Y989D01*
X1271Y989D02*
X1355Y989D01*
X969Y988D02*
X1057Y988D01*
X1269Y988D02*
X1357Y988D01*
X968Y987D02*
X1058Y987D01*
X1268Y987D02*
X1358Y987D01*
X967Y986D02*
X1059Y986D01*
X1267Y986D02*
X1359Y986D01*
X966Y985D02*
X1061Y985D01*
X1266Y985D02*
X1360Y985D01*
X965Y984D02*
X1061Y984D01*
X1265Y984D02*
X1361Y984D01*
X964Y983D02*
X1062Y983D01*
X1264Y983D02*
X1362Y983D01*
X963Y982D02*
X1063Y982D01*
X1263Y982D02*
X1363Y982D01*
X962Y981D02*
X1064Y981D01*
X1262Y981D02*
X1364Y981D01*
X962Y980D02*
X1065Y980D01*
X1262Y980D02*
X1364Y980D01*
X961Y979D02*
X1065Y979D01*
X1261Y979D02*
X1365Y979D01*
X961Y978D02*
X1066Y978D01*
X1260Y978D02*
X1366Y978D01*
X960Y977D02*
X1066Y977D01*
X1260Y977D02*
X1366Y977D01*
X960Y976D02*
X1067Y976D01*
X1259Y976D02*
X1367Y976D01*
X959Y975D02*
X1067Y975D01*
X1259Y975D02*
X1367Y975D01*
X959Y974D02*
X1011Y974D01*
X1015Y974D02*
X1067Y974D01*
X1259Y974D02*
X1311Y974D01*
X1315Y974D02*
X1367Y974D01*
X958Y973D02*
X1008Y973D01*
X1019Y973D02*
X1068Y973D01*
X1258Y973D02*
X1308Y973D01*
X1318Y973D02*
X1368Y973D01*
X958Y972D02*
X1006Y972D01*
X1020Y972D02*
X1068Y972D01*
X1258Y972D02*
X1306Y972D01*
X1320Y972D02*
X1368Y972D01*
X958Y971D02*
X1005Y971D01*
X1021Y971D02*
X1068Y971D01*
X1258Y971D02*
X1305Y971D01*
X1321Y971D02*
X1368Y971D01*
X957Y970D02*
X1004Y970D01*
X1022Y970D02*
X1069Y970D01*
X1257Y970D02*
X1304Y970D01*
X1322Y970D02*
X1369Y970D01*
X957Y969D02*
X1003Y969D01*
X1023Y969D02*
X1069Y969D01*
X1257Y969D02*
X1303Y969D01*
X1323Y969D02*
X1369Y969D01*
X957Y968D02*
X1003Y968D01*
X1024Y968D02*
X1069Y968D01*
X1257Y968D02*
X1303Y968D01*
X1323Y968D02*
X1369Y968D01*
X957Y967D02*
X1002Y967D01*
X1024Y967D02*
X1069Y967D01*
X1257Y967D02*
X1302Y967D01*
X1324Y967D02*
X1369Y967D01*
X957Y966D02*
X1002Y966D01*
X1024Y966D02*
X1069Y966D01*
X1257Y966D02*
X1302Y966D01*
X1324Y966D02*
X1369Y966D01*
X957Y965D02*
X1002Y965D01*
X1024Y965D02*
X1069Y965D01*
X1257Y965D02*
X1302Y965D01*
X1324Y965D02*
X1369Y965D01*
X957Y964D02*
X1002Y964D01*
X1025Y964D02*
X1070Y964D01*
X1257Y964D02*
X1302Y964D01*
X1324Y964D02*
X1369Y964D01*
X957Y963D02*
X1002Y963D01*
X1025Y963D02*
X1070Y963D01*
X1257Y963D02*
X1302Y963D01*
X1325Y963D02*
X1370Y963D01*
X957Y962D02*
X1002Y962D01*
X1025Y962D02*
X1070Y962D01*
X1257Y962D02*
X1302Y962D01*
X1324Y962D02*
X1369Y962D01*
X957Y961D02*
X1002Y961D01*
X1024Y961D02*
X1069Y961D01*
X1257Y961D02*
X1302Y961D01*
X1324Y961D02*
X1369Y961D01*
X957Y960D02*
X1002Y960D01*
X1024Y960D02*
X1069Y960D01*
X1257Y960D02*
X1302Y960D01*
X1324Y960D02*
X1369Y960D01*
X957Y959D02*
X1002Y959D01*
X1024Y959D02*
X1069Y959D01*
X1257Y959D02*
X1302Y959D01*
X1324Y959D02*
X1369Y959D01*
X957Y958D02*
X1003Y958D01*
X1023Y958D02*
X1069Y958D01*
X1257Y958D02*
X1303Y958D01*
X1323Y958D02*
X1369Y958D01*
X957Y957D02*
X1003Y957D01*
X1023Y957D02*
X1069Y957D01*
X1257Y957D02*
X1303Y957D01*
X1323Y957D02*
X1369Y957D01*
X958Y956D02*
X1004Y956D01*
X1022Y956D02*
X1069Y956D01*
X1257Y956D02*
X1304Y956D01*
X1322Y956D02*
X1369Y956D01*
X958Y955D02*
X1005Y955D01*
X1021Y955D02*
X1068Y955D01*
X1258Y955D02*
X1305Y955D01*
X1321Y955D02*
X1368Y955D01*
X958Y954D02*
X1006Y954D01*
X1020Y954D02*
X1068Y954D01*
X1258Y954D02*
X1306Y954D01*
X1320Y954D02*
X1368Y954D01*
X958Y953D02*
X1008Y953D01*
X1018Y953D02*
X1068Y953D01*
X1258Y953D02*
X1308Y953D01*
X1318Y953D02*
X1368Y953D01*
X959Y952D02*
X1067Y952D01*
X1259Y952D02*
X1367Y952D01*
X959Y951D02*
X1067Y951D01*
X1259Y951D02*
X1367Y951D01*
X960Y950D02*
X1067Y950D01*
X1260Y950D02*
X1366Y950D01*
X960Y949D02*
X1066Y949D01*
X1260Y949D02*
X1366Y949D01*
X961Y948D02*
X1066Y948D01*
X1261Y948D02*
X1365Y948D01*
X961Y947D02*
X1065Y947D01*
X1261Y947D02*
X1365Y947D01*
X962Y946D02*
X1064Y946D01*
X1262Y946D02*
X1364Y946D01*
X963Y945D02*
X1064Y945D01*
X1262Y945D02*
X1364Y945D01*
X963Y944D02*
X1063Y944D01*
X1263Y944D02*
X1363Y944D01*
X964Y943D02*
X1062Y943D01*
X1264Y943D02*
X1362Y943D01*
X965Y942D02*
X1061Y942D01*
X1265Y942D02*
X1361Y942D01*
X966Y941D02*
X1060Y941D01*
X1266Y941D02*
X1360Y941D01*
X967Y940D02*
X1059Y940D01*
X1267Y940D02*
X1359Y940D01*
X968Y939D02*
X1058Y939D01*
X1268Y939D02*
X1358Y939D01*
X970Y938D02*
X1057Y938D01*
X1270Y938D02*
X1357Y938D01*
X971Y937D02*
X1055Y937D01*
X1271Y937D02*
X1355Y937D01*
X973Y936D02*
X1053Y936D01*
X1273Y936D02*
X1353Y936D01*
X975Y935D02*
X1051Y935D01*
X1275Y935D02*
X1351Y935D01*
X977Y934D02*
X1049Y934D01*
X1277Y934D02*
X1349Y934D01*
X981Y933D02*
X1046Y933D01*
X1281Y933D02*
X1345Y933D01*
X985Y894D02*
X1041Y894D01*
X1285Y894D02*
X1341Y894D01*
X980Y893D02*
X1047Y893D01*
X1280Y893D02*
X1347Y893D01*
X977Y892D02*
X1050Y892D01*
X1277Y892D02*
X1350Y892D01*
X974Y891D02*
X1052Y891D01*
X1274Y891D02*
X1352Y891D01*
X972Y890D02*
X1054Y890D01*
X1272Y890D02*
X1354Y890D01*
X971Y889D02*
X1056Y889D01*
X1271Y889D02*
X1356Y889D01*
X969Y888D02*
X1057Y888D01*
X1269Y888D02*
X1357Y888D01*
X968Y887D02*
X1058Y887D01*
X1268Y887D02*
X1358Y887D01*
X967Y886D02*
X1059Y886D01*
X1267Y886D02*
X1359Y886D01*
X966Y885D02*
X1061Y885D01*
X1266Y885D02*
X1361Y885D01*
X965Y884D02*
X1061Y884D01*
X1265Y884D02*
X1361Y884D01*
X964Y883D02*
X1062Y883D01*
X1264Y883D02*
X1362Y883D01*
X963Y882D02*
X1063Y882D01*
X1263Y882D02*
X1363Y882D01*
X962Y881D02*
X1064Y881D01*
X1262Y881D02*
X1364Y881D01*
X962Y880D02*
X1065Y880D01*
X1262Y880D02*
X1364Y880D01*
X961Y879D02*
X1065Y879D01*
X1261Y879D02*
X1365Y879D01*
X961Y878D02*
X1066Y878D01*
X1260Y878D02*
X1366Y878D01*
X960Y877D02*
X1066Y877D01*
X1260Y877D02*
X1366Y877D01*
X960Y876D02*
X1067Y876D01*
X1259Y876D02*
X1367Y876D01*
X959Y875D02*
X1067Y875D01*
X1259Y875D02*
X1367Y875D01*
X959Y874D02*
X1011Y874D01*
X1016Y874D02*
X1068Y874D01*
X1259Y874D02*
X1311Y874D01*
X1315Y874D02*
X1367Y874D01*
X958Y873D02*
X1008Y873D01*
X1019Y873D02*
X1068Y873D01*
X1258Y873D02*
X1308Y873D01*
X1319Y873D02*
X1368Y873D01*
X958Y872D02*
X1006Y872D01*
X1020Y872D02*
X1068Y872D01*
X1258Y872D02*
X1306Y872D01*
X1320Y872D02*
X1368Y872D01*
X958Y871D02*
X1005Y871D01*
X1021Y871D02*
X1068Y871D01*
X1258Y871D02*
X1305Y871D01*
X1321Y871D02*
X1368Y871D01*
X957Y870D02*
X1004Y870D01*
X1022Y870D02*
X1069Y870D01*
X1257Y870D02*
X1304Y870D01*
X1322Y870D02*
X1369Y870D01*
X957Y869D02*
X1003Y869D01*
X1023Y869D02*
X1069Y869D01*
X1257Y869D02*
X1303Y869D01*
X1323Y869D02*
X1369Y869D01*
X957Y868D02*
X1003Y868D01*
X1024Y868D02*
X1069Y868D01*
X1257Y868D02*
X1303Y868D01*
X1323Y868D02*
X1369Y868D01*
X957Y867D02*
X1002Y867D01*
X1024Y867D02*
X1069Y867D01*
X1257Y867D02*
X1302Y867D01*
X1324Y867D02*
X1369Y867D01*
X957Y866D02*
X1002Y866D01*
X1024Y866D02*
X1069Y866D01*
X1257Y866D02*
X1302Y866D01*
X1324Y866D02*
X1369Y866D01*
X957Y865D02*
X1002Y865D01*
X1024Y865D02*
X1069Y865D01*
X1257Y865D02*
X1302Y865D01*
X1324Y865D02*
X1369Y865D01*
X957Y864D02*
X1002Y864D01*
X1025Y864D02*
X1070Y864D01*
X1257Y864D02*
X1302Y864D01*
X1324Y864D02*
X1369Y864D01*
X957Y863D02*
X1002Y863D01*
X1025Y863D02*
X1070Y863D01*
X1257Y863D02*
X1302Y863D01*
X1325Y863D02*
X1370Y863D01*
X957Y862D02*
X1002Y862D01*
X1025Y862D02*
X1070Y862D01*
X1257Y862D02*
X1302Y862D01*
X1324Y862D02*
X1369Y862D01*
X957Y861D02*
X1002Y861D01*
X1024Y861D02*
X1069Y861D01*
X1257Y861D02*
X1302Y861D01*
X1324Y861D02*
X1369Y861D01*
X957Y860D02*
X1002Y860D01*
X1024Y860D02*
X1069Y860D01*
X1257Y860D02*
X1302Y860D01*
X1324Y860D02*
X1369Y860D01*
X957Y859D02*
X1002Y859D01*
X1024Y859D02*
X1069Y859D01*
X1257Y859D02*
X1302Y859D01*
X1324Y859D02*
X1369Y859D01*
X957Y858D02*
X1003Y858D01*
X1023Y858D02*
X1069Y858D01*
X1257Y858D02*
X1303Y858D01*
X1323Y858D02*
X1369Y858D01*
X957Y857D02*
X1003Y857D01*
X1023Y857D02*
X1069Y857D01*
X1257Y857D02*
X1303Y857D01*
X1323Y857D02*
X1369Y857D01*
X958Y856D02*
X1004Y856D01*
X1022Y856D02*
X1069Y856D01*
X1257Y856D02*
X1304Y856D01*
X1322Y856D02*
X1369Y856D01*
X958Y855D02*
X1005Y855D01*
X1021Y855D02*
X1068Y855D01*
X1258Y855D02*
X1305Y855D01*
X1321Y855D02*
X1368Y855D01*
X958Y854D02*
X1006Y854D01*
X1020Y854D02*
X1068Y854D01*
X1258Y854D02*
X1306Y854D01*
X1320Y854D02*
X1368Y854D01*
X958Y853D02*
X1008Y853D01*
X1018Y853D02*
X1068Y853D01*
X1258Y853D02*
X1308Y853D01*
X1318Y853D02*
X1368Y853D01*
X959Y852D02*
X1067Y852D01*
X1259Y852D02*
X1367Y852D01*
X959Y851D02*
X1067Y851D01*
X1259Y851D02*
X1367Y851D01*
X960Y850D02*
X1067Y850D01*
X1260Y850D02*
X1366Y850D01*
X960Y849D02*
X1066Y849D01*
X1260Y849D02*
X1366Y849D01*
X961Y848D02*
X1066Y848D01*
X1261Y848D02*
X1365Y848D01*
X961Y847D02*
X1065Y847D01*
X1261Y847D02*
X1365Y847D01*
X962Y846D02*
X1064Y846D01*
X1262Y846D02*
X1364Y846D01*
X963Y845D02*
X1064Y845D01*
X1263Y845D02*
X1364Y845D01*
X963Y844D02*
X1063Y844D01*
X1263Y844D02*
X1363Y844D01*
X964Y843D02*
X1062Y843D01*
X1264Y843D02*
X1362Y843D01*
X965Y842D02*
X1061Y842D01*
X1265Y842D02*
X1361Y842D01*
X966Y841D02*
X1060Y841D01*
X1266Y841D02*
X1360Y841D01*
X967Y840D02*
X1059Y840D01*
X1267Y840D02*
X1359Y840D01*
X968Y839D02*
X1058Y839D01*
X1268Y839D02*
X1358Y839D01*
X970Y838D02*
X1057Y838D01*
X1270Y838D02*
X1357Y838D01*
X971Y837D02*
X1055Y837D01*
X1271Y837D02*
X1355Y837D01*
X973Y836D02*
X1053Y836D01*
X1273Y836D02*
X1353Y836D01*
X975Y835D02*
X1051Y835D01*
X1275Y835D02*
X1351Y835D01*
X977Y834D02*
X1049Y834D01*
X1277Y834D02*
X1349Y834D01*
X981Y833D02*
X1045Y833D01*
X1281Y833D02*
X1345Y833D01*
D02*
G04 End of Mask0*
M02*