; NON-PLATED HOLES START AT T1
; THROUGH (PLATED) HOLES START AT T100
M48
INCH
T100C0.052000
T101C0.035000
T102C0.038000
T103C0.031497
T104C0.032000
%
T100
X023138Y004619
X023138Y007619
T101
X032138Y011619
X020138Y011619
X005138Y008619
X007138Y018619
X023138Y012619
X032138Y015619
X027138Y007619
X007138Y014619
X016138Y014619
X005138Y010619
X005138Y014619
X028138Y016619
X020138Y012619
X028138Y015619
X005138Y009619
X027138Y004619
X028138Y014619
X020138Y013619
X016138Y010619
X027138Y012619
T102
X020138Y018619
X004138Y018619
X003138Y018619
X020138Y017619
T103
X016138Y017635
X016138Y018619
T104
X010138Y013619
X010138Y014619
X010138Y011619
X010138Y012619
X013138Y013619
X013138Y008619
X013138Y011619
X010138Y009619
X013138Y010619
X013138Y009619
X010138Y008619
X010138Y010619
X013138Y012619
X013138Y014619
T00
M30
