<?xml version="1.0" standalone="no"?>
<!DOCTYPE svg PUBLIC "-//W3C//DTD SVG 1.1//EN"
"http://www.w3.org/Graphics/SVG/1.1/DTD/svg11.dtd">
<svg width="6567" height="4275" viewBox="0 0 6567 4275" version="1.1"
xmlns="http://www.w3.org/2000/svg"
xmlns:xlink="http://www.w3.org/1999/xlink">
<g fill-rule="evenodd"><path d="M 2003,2559 L 2107,2559 L 2108,2559 L 2119,2560 L 2121,2560 L 2131,2564 L 2132,2564 L 2132,2564 L 2142,2570 L 2142,2570 L 2143,2571 L 2151,2578 L 2152,2579 L 2159,2588 L 2159,2589 L 2159,2590 L 2164,2600 L 2164,2600 L 2164,2601 L 2167,2612 L 2167,2613 L 2167,2624 L 2167,2625 L 2167,2626 L 2164,2637 L 2164,2637 L 2164,2638 L 2159,2648 L 2159,2649 L 2152,2658 L 2152,2659 L 2151,2659 L 2143,2667 L 2142,2667 L 2142,2668 L 2132,2673 L 2132,2673 L 2131,2674 L 2121,2677 L 2119,2677 L 2108,2679 L 2107,2679 L 2003,2679 L 2002,2679 L 1992,2677 L 1990,2677 L 1980,2674 L 1979,2673 L 1978,2673 L 1969,2668 L 1968,2667 L 1967,2667 L 1959,2659 L 1959,2659 L 1958,2658 L 1952,2649 L 1951,2648 L 1947,2638 L 1946,2637 L 1946,2637 L 1944,2626 L 1944,2625 L 1944,2624 L 1944,2613 L 1944,2612 L 1946,2601 L 1946,2600 L 1947,2600 L 1951,2590 L 1951,2589 L 1952,2588 L 1958,2579 L 1959,2578 L 1967,2571 L 1968,2570 L 1969,2570 L 1978,2564 L 1979,2564 L 1980,2564 L 1990,2560 L 1992,2560 L 2002,2559 L 2003,2559 z " style="fill-opacity:1.000000;fill:rgb(41,35,190);stroke:rgb(0,0,0);stroke-width:2"/></g>
<g fill-rule="evenodd"><path d="M 1507,1879 L 1403,1879 L 1403,1879 L 1392,1878 L 1390,1877 L 1380,1874 L 1379,1874 L 1378,1873 L 1369,1868 L 1368,1867 L 1368,1867 L 1359,1860 L 1359,1859 L 1358,1858 L 1352,1850 L 1351,1848 L 1347,1838 L 1346,1837 L 1346,1837 L 1344,1826 L 1344,1825 L 1344,1824 L 1344,1813 L 1344,1812 L 1346,1801 L 1346,1800 L 1347,1800 L 1351,1790 L 1351,1789 L 1352,1788 L 1358,1779 L 1359,1778 L 1368,1771 L 1368,1770 L 1369,1770 L 1378,1765 L 1379,1764 L 1380,1764 L 1390,1761 L 1392,1760 L 1403,1759 L 1403,1759 L 1507,1759 L 1508,1759 L 1519,1760 L 1521,1761 L 1531,1764 L 1532,1764 L 1532,1765 L 1542,1770 L 1543,1770 L 1543,1771 L 1551,1778 L 1552,1779 L 1559,1788 L 1559,1789 L 1560,1790 L 1564,1800 L 1564,1800 L 1564,1801 L 1567,1812 L 1567,1813 L 1567,1824 L 1567,1825 L 1567,1826 L 1564,1837 L 1564,1837 L 1564,1838 L 1560,1848 L 1559,1850 L 1552,1858 L 1552,1859 L 1551,1860 L 1543,1867 L 1543,1867 L 1542,1868 L 1532,1873 L 1532,1874 L 1531,1874 L 1521,1877 L 1519,1878 L 1508,1879 L 1507,1879 z " style="fill-opacity:1.000000;fill:rgb(132,225,108);stroke:rgb(0,0,0);stroke-width:2"/></g>
<g fill-rule="evenodd"><path d="M 2003,2359 L 2107,2359 L 2108,2359 L 2119,2360 L 2121,2360 L 2131,2364 L 2132,2364 L 2132,2365 L 2142,2370 L 2142,2370 L 2143,2371 L 2151,2378 L 2152,2379 L 2159,2388 L 2159,2389 L 2159,2390 L 2164,2400 L 2164,2400 L 2164,2401 L 2167,2412 L 2167,2413 L 2167,2424 L 2167,2425 L 2167,2426 L 2164,2437 L 2164,2437 L 2164,2438 L 2159,2448 L 2159,2449 L 2152,2458 L 2152,2459 L 2151,2459 L 2143,2467 L 2142,2467 L 2142,2468 L 2132,2473 L 2132,2474 L 2131,2474 L 2121,2477 L 2119,2478 L 2108,2479 L 2107,2479 L 2003,2479 L 2002,2479 L 1992,2478 L 1990,2477 L 1980,2474 L 1979,2474 L 1978,2473 L 1969,2468 L 1968,2467 L 1967,2467 L 1959,2459 L 1959,2459 L 1958,2458 L 1952,2449 L 1951,2448 L 1947,2438 L 1946,2437 L 1946,2437 L 1944,2426 L 1944,2425 L 1944,2424 L 1944,2413 L 1944,2412 L 1946,2401 L 1946,2400 L 1947,2400 L 1951,2390 L 1951,2389 L 1952,2388 L 1958,2379 L 1959,2378 L 1967,2371 L 1968,2370 L 1969,2370 L 1978,2365 L 1979,2364 L 1980,2364 L 1990,2360 L 1992,2360 L 2002,2359 L 2003,2359 z " style="fill-opacity:1.000000;fill:rgb(214,174,82);stroke:rgb(0,0,0);stroke-width:2"/></g>
<g fill-rule="evenodd"><path d="M 2107,2279 L 2003,2279 L 2002,2279 L 1992,2278 L 1990,2277 L 1980,2274 L 1979,2274 L 1978,2273 L 1969,2268 L 1968,2267 L 1967,2267 L 1959,2259 L 1959,2259 L 1958,2258 L 1952,2249 L 1951,2248 L 1947,2238 L 1946,2237 L 1946,2237 L 1944,2226 L 1944,2225 L 1944,2224 L 1944,2213 L 1944,2212 L 1946,2201 L 1946,2200 L 1947,2200 L 1951,2190 L 1951,2189 L 1952,2188 L 1958,2179 L 1959,2178 L 1967,2171 L 1968,2170 L 1969,2170 L 1978,2165 L 1979,2164 L 1980,2164 L 1990,2160 L 1992,2160 L 2002,2159 L 2003,2159 L 2107,2159 L 2108,2159 L 2119,2160 L 2121,2160 L 2131,2164 L 2132,2164 L 2132,2165 L 2142,2170 L 2142,2170 L 2143,2171 L 2151,2178 L 2152,2179 L 2159,2188 L 2159,2189 L 2159,2190 L 2164,2200 L 2164,2200 L 2164,2201 L 2167,2212 L 2167,2213 L 2167,2224 L 2167,2225 L 2167,2226 L 2164,2237 L 2164,2237 L 2164,2238 L 2159,2248 L 2159,2249 L 2152,2258 L 2152,2259 L 2151,2259 L 2143,2267 L 2142,2267 L 2142,2268 L 2132,2273 L 2132,2274 L 2131,2274 L 2121,2277 L 2119,2278 L 2108,2279 L 2107,2279 z " style="fill-opacity:1.000000;fill:rgb(144,73,241);stroke:rgb(0,0,0);stroke-width:2"/></g>
<g fill-rule="evenodd"><path d="M 2003,1959 L 2107,1959 L 2108,1959 L 2119,1960 L 2121,1961 L 2131,1964 L 2132,1964 L 2132,1965 L 2142,1970 L 2142,1970 L 2143,1971 L 2151,1978 L 2152,1979 L 2159,1988 L 2159,1989 L 2159,1990 L 2164,2000 L 2164,2000 L 2164,2001 L 2167,2012 L 2167,2013 L 2167,2024 L 2167,2025 L 2167,2026 L 2164,2037 L 2164,2037 L 2164,2038 L 2159,2048 L 2159,2049 L 2152,2058 L 2152,2059 L 2151,2060 L 2143,2067 L 2142,2067 L 2142,2068 L 2132,2073 L 2132,2074 L 2131,2074 L 2121,2077 L 2119,2078 L 2108,2079 L 2107,2079 L 2003,2079 L 2002,2079 L 1992,2078 L 1990,2077 L 1980,2074 L 1979,2074 L 1978,2073 L 1969,2068 L 1968,2067 L 1967,2067 L 1959,2060 L 1959,2059 L 1958,2058 L 1952,2049 L 1951,2048 L 1947,2038 L 1946,2037 L 1946,2037 L 1944,2026 L 1944,2025 L 1944,2024 L 1944,2013 L 1944,2012 L 1946,2001 L 1946,2000 L 1947,2000 L 1951,1990 L 1951,1989 L 1952,1988 L 1958,1979 L 1959,1978 L 1967,1971 L 1968,1970 L 1969,1970 L 1978,1965 L 1979,1964 L 1980,1964 L 1990,1961 L 1992,1960 L 2002,1959 L 2003,1959 z " style="fill-opacity:1.000000;fill:rgb(241,187,233);stroke:rgb(0,0,0);stroke-width:2"/></g>
<g fill-rule="evenodd"><path d="M 2107,1879 L 2003,1879 L 2002,1879 L 1992,1878 L 1990,1877 L 1980,1874 L 1979,1874 L 1978,1873 L 1969,1868 L 1968,1867 L 1967,1867 L 1959,1860 L 1959,1859 L 1958,1858 L 1952,1850 L 1951,1848 L 1947,1838 L 1946,1837 L 1946,1837 L 1944,1826 L 1944,1825 L 1944,1824 L 1944,1813 L 1944,1812 L 1946,1801 L 1946,1800 L 1947,1800 L 1951,1790 L 1951,1789 L 1952,1788 L 1958,1779 L 1959,1778 L 1967,1771 L 1968,1770 L 1969,1770 L 1978,1765 L 1979,1764 L 1980,1764 L 1990,1761 L 1992,1760 L 2002,1759 L 2003,1759 L 2107,1759 L 2108,1759 L 2119,1760 L 2121,1761 L 2131,1764 L 2132,1764 L 2132,1765 L 2142,1770 L 2142,1770 L 2143,1771 L 2151,1778 L 2152,1779 L 2159,1788 L 2159,1789 L 2159,1790 L 2164,1800 L 2164,1800 L 2164,1801 L 2167,1812 L 2167,1813 L 2167,1824 L 2167,1825 L 2167,1826 L 2164,1837 L 2164,1837 L 2164,1838 L 2159,1848 L 2159,1850 L 2152,1858 L 2152,1859 L 2151,1860 L 2143,1867 L 2142,1867 L 2142,1868 L 2132,1873 L 2132,1874 L 2131,1874 L 2121,1877 L 2119,1878 L 2108,1879 L 2107,1879 z " style="fill-opacity:1.000000;fill:rgb(235,179,166);stroke:rgb(0,0,0);stroke-width:2"/></g>
<g fill-rule="evenodd"><path d="M 2003,1559 L 2107,1559 L 2108,1559 L 2119,1560 L 2121,1561 L 2131,1564 L 2132,1564 L 2132,1565 L 2142,1570 L 2142,1570 L 2143,1571 L 2151,1578 L 2152,1579 L 2159,1588 L 2159,1589 L 2159,1590 L 2164,1600 L 2164,1600 L 2164,1601 L 2167,1612 L 2167,1613 L 2167,1624 L 2167,1625 L 2167,1626 L 2164,1637 L 2164,1637 L 2164,1638 L 2159,1648 L 2159,1650 L 2152,1658 L 2152,1659 L 2151,1660 L 2143,1667 L 2142,1667 L 2142,1668 L 2132,1673 L 2132,1674 L 2131,1674 L 2121,1677 L 2119,1678 L 2108,1679 L 2107,1679 L 2003,1679 L 2002,1679 L 1992,1678 L 1990,1677 L 1980,1674 L 1979,1674 L 1978,1673 L 1969,1668 L 1968,1667 L 1967,1667 L 1959,1660 L 1959,1659 L 1958,1658 L 1952,1650 L 1951,1648 L 1947,1638 L 1946,1637 L 1946,1637 L 1944,1626 L 1944,1625 L 1944,1624 L 1944,1613 L 1944,1612 L 1946,1601 L 1946,1600 L 1947,1600 L 1951,1590 L 1951,1589 L 1952,1588 L 1958,1579 L 1959,1578 L 1967,1571 L 1968,1570 L 1969,1570 L 1978,1565 L 1979,1564 L 1980,1564 L 1990,1561 L 1992,1560 L 2002,1559 L 2003,1559 z " style="fill-opacity:1.000000;fill:rgb(219,60,135);stroke:rgb(0,0,0);stroke-width:2"/></g>
<g fill-rule="evenodd"><path d="M 1487,3863 L 3432,3863 L 3793,3501 L 3796,3495 L 3796,3494 L 3799,3487 L 3799,2781 L 3798,2779 L 3798,2778 L 3797,2777 L 3794,2767 L 3793,2765 L 3792,2753 L 3792,2753 L 3792,2752 L 3793,2740 L 3794,2739 L 3797,2728 L 3798,2727 L 3798,2726 L 3804,2716 L 3804,2716 L 3805,2715 L 3812,2706 L 3813,2706 L 3814,2705 L 3823,2699 L 3824,2698 L 3835,2693 L 3836,2693 L 3836,2693 L 3848,2690 L 3849,2690 L 3849,2690 L 3861,2690 L 3862,2690 L 3874,2693 L 3875,2693 L 3875,2693 L 3886,2698 L 3887,2699 L 3897,2705 L 3897,2706 L 3898,2706 L 3906,2715 L 3906,2716 L 3906,2716 L 3912,2726 L 3913,2727 L 3913,2728 L 3916,2739 L 3917,2740 L 3918,2752 L 3918,2753 L 3918,2753 L 3917,2765 L 3916,2767 L 3913,2777 L 3913,2778 L 3912,2779 L 3911,2781 L 3911,3487 L 3913,3491 L 3913,3492 L 3916,3498 L 3916,3498 L 3918,3504 L 3918,3505 L 3919,3512 L 3919,3512 L 3919,3519 L 3919,3520 L 3919,3526 L 3919,3527 L 3918,3533 L 3917,3534 L 3916,3540 L 3915,3540 L 3913,3546 L 3913,3547 L 3909,3553 L 3909,3553 L 3905,3559 L 3905,3559 L 3900,3564 L 3900,3565 L 3894,3570 L 3893,3570 L 3887,3575 L 3886,3575 L 3879,3578 L 3878,3579 L 3872,3580 L 3495,3958 L 3494,3959 L 3487,3965 L 3486,3966 L 3477,3970 L 3476,3971 L 3467,3973 L 3465,3974 L 3456,3974 L 3455,3975 L 1487,3975 L 1484,3976 L 1483,3977 L 1478,3979 L 1477,3979 L 1472,3981 L 1471,3981 L 1466,3982 L 1465,3982 L 1459,3983 L 1459,3983 L 1453,3983 L 1452,3983 L 1447,3982 L 1446,3982 L 1441,3981 L 1440,3981 L 1435,3979 L 1434,3979 L 1429,3977 L 1428,3977 L 1423,3974 L 1423,3974 L 1418,3971 L 1417,3970 L 1413,3967 L 1412,3966 L 1408,3962 L 1408,3962 L 1404,3958 L 1404,3957 L 1401,3952 L 1400,3952 L 1398,3947 L 1397,3946 L 1395,3941 L 1395,3940 L 1393,3935 L 1393,3934 L 1392,3929 L 1392,3928 L 1391,3923 L 1391,3922 L 1391,3916 L 1391,3916 L 1392,3910 L 1392,3909 L 1393,3904 L 1393,3903 L 1395,3898 L 1395,3897 L 1397,3892 L 1397,3891 L 1400,3887 L 1400,3886 L 1403,3881 L 1404,3881 L 1407,3876 L 1408,3876 L 1412,3872 L 1412,3871 L 1416,3868 L 1417,3867 L 1422,3864 L 1422,3864 L 1429,3860 L 1430,3860 L 1438,3857 L 1439,3857 L 1446,3855 L 1447,3855 L 1455,3855 L 1456,3855 L 1464,3855 L 1465,3855 L 1473,3857 L 1474,3857 L 1481,3860 L 1482,3860 L 1487,3863 z " style="fill-opacity:1.000000;fill:rgb(12,62,153);stroke:rgb(0,0,0);stroke-width:2"/></g>
<g fill-rule="evenodd"><path d="M 2999,3187 L 2999,550 L 2997,545 L 2996,544 L 2993,536 L 2993,535 L 2992,527 L 2991,526 L 2991,518 L 2991,517 L 2991,512 L 2992,511 L 2992,506 L 2993,505 L 2994,500 L 2994,499 L 2996,494 L 2997,493 L 2999,488 L 2999,487 L 3002,483 L 3003,482 L 3006,478 L 3007,477 L 3010,473 L 3011,473 L 3015,469 L 3016,468 L 3020,465 L 3021,465 L 3026,462 L 3026,462 L 3031,459 L 3032,459 L 3037,457 L 3038,457 L 3043,456 L 3044,456 L 3050,455 L 3051,455 L 3056,455 L 3057,455 L 3062,455 L 3063,455 L 3068,456 L 3069,456 L 3074,458 L 3075,458 L 3080,460 L 3081,460 L 3086,463 L 3086,463 L 3091,466 L 3092,466 L 3096,470 L 3097,470 L 3101,474 L 3101,474 L 3105,478 L 3105,479 L 3108,483 L 3109,484 L 3111,488 L 3112,489 L 3114,494 L 3114,494 L 3116,499 L 3116,500 L 3118,505 L 3118,506 L 3119,511 L 3119,512 L 3119,518 L 3119,518 L 3119,526 L 3119,528 L 3117,535 L 3117,536 L 3114,544 L 3114,545 L 3111,550 L 3111,3187 L 3114,3192 L 3114,3193 L 3117,3200 L 3117,3201 L 3119,3209 L 3119,3210 L 3119,3218 L 3119,3219 L 3119,3227 L 3119,3228 L 3117,3235 L 3117,3236 L 3114,3244 L 3114,3245 L 3110,3252 L 3110,3253 L 3107,3257 L 3106,3258 L 3103,3262 L 3102,3262 L 3098,3266 L 3098,3267 L 3093,3270 L 3093,3271 L 3088,3274 L 3087,3274 L 3082,3277 L 3082,3277 L 3077,3279 L 3076,3279 L 3071,3281 L 3070,3281 L 3064,3282 L 3064,3282 L 3058,3283 L 3057,3283 L 3052,3283 L 3051,3283 L 3046,3282 L 3045,3282 L 3039,3281 L 3039,3281 L 3033,3279 L 3033,3279 L 3028,3277 L 3027,3276 L 3022,3274 L 3021,3273 L 3017,3270 L 3016,3270 L 3012,3266 L 3011,3266 L 3008,3262 L 3007,3261 L 3004,3257 L 3003,3256 L 3000,3252 L 3000,3251 L 2997,3246 L 2997,3245 L 2995,3240 L 2994,3239 L 2993,3234 L 2993,3233 L 2992,3228 L 2992,3227 L 2991,3222 L 2991,3221 L 2991,3215 L 2991,3215 L 2992,3209 L 2992,3208 L 2993,3203 L 2993,3202 L 2995,3197 L 2995,3196 L 2997,3191 L 2998,3190 L 2999,3187 z " style="fill-opacity:1.000000;fill:rgb(36,94,13);stroke:rgb(0,0,0);stroke-width:2"/></g>
<g fill-rule="evenodd"><path d="M 3232,3563 L 3499,3296 L 3499,2119 L 3499,2118 L 3500,2109 L 3501,2107 L 3503,2098 L 3504,2097 L 3508,2088 L 3509,2087 L 3515,2080 L 3516,2079 L 3523,2073 L 3525,2072 L 3533,2068 L 3534,2067 L 3543,2064 L 3545,2064 L 3554,2063 L 3555,2063 L 3799,2063 L 3799,375 L 3086,375 L 3080,378 L 3079,379 L 3070,381 L 3069,382 L 3060,383 L 3059,383 L 3050,383 L 3049,383 L 3042,382 L 3041,382 L 3034,380 L 3033,379 L 3026,376 L 3026,376 L 3019,372 L 3019,372 L 3013,367 L 3012,367 L 3007,362 L 3007,361 L 3002,355 L 3002,354 L 2998,348 L 2998,347 L 2995,341 L 2995,340 L 2993,333 L 2992,332 L 2991,325 L 2991,324 L 2991,317 L 2991,316 L 2992,309 L 2992,308 L 2994,301 L 2994,300 L 2996,294 L 2997,293 L 3000,287 L 3000,286 L 3004,280 L 3005,279 L 3010,274 L 3011,273 L 3016,268 L 3017,268 L 3023,264 L 3024,263 L 3030,260 L 3031,260 L 3038,257 L 3039,257 L 3046,256 L 3047,255 L 3054,255 L 3055,255 L 3063,255 L 3064,256 L 3072,257 L 3073,257 L 3080,260 L 3081,260 L 3086,263 L 4632,263 L 4815,80 L 4816,79 L 4823,73 L 4825,72 L 4833,68 L 4834,67 L 4843,64 L 4845,64 L 4854,63 L 4855,63 L 5200,63 L 5202,61 L 5203,60 L 5215,52 L 5216,51 L 5217,51 L 5230,45 L 5231,45 L 5232,44 L 5246,41 L 5247,41 L 5248,41 L 5262,41 L 5264,41 L 5278,44 L 5279,45 L 5280,45 L 5293,51 L 5294,51 L 5295,52 L 5307,60 L 5308,61 L 5318,72 L 5318,73 L 5319,74 L 5326,86 L 5327,87 L 5327,88 L 5331,102 L 5332,103 L 5332,104 L 5333,118 L 5333,119 L 5333,120 L 5332,135 L 5331,136 L 5327,150 L 5327,151 L 5326,152 L 5319,164 L 5318,165 L 5318,166 L 5308,177 L 5307,178 L 5295,186 L 5294,187 L 5293,187 L 5280,193 L 5279,194 L 5278,194 L 5264,197 L 5262,197 L 5248,197 L 5247,197 L 5246,197 L 5232,194 L 5231,194 L 5230,193 L 5217,187 L 5215,186 L 5203,178 L 5203,177 L 5202,177 L 5200,175 L 4878,175 L 4695,359 L 4694,359 L 4687,365 L 4685,366 L 4677,370 L 4676,371 L 4667,374 L 4665,374 L 4656,375 L 4655,375 L 3911,375 L 3911,2063 L 4424,2063 L 4430,2060 L 4431,2059 L 4440,2057 L 4441,2056 L 4450,2055 L 4451,2055 L 4460,2055 L 4462,2055 L 4467,2056 L 4468,2056 L 4474,2057 L 4474,2058 L 4480,2060 L 4481,2060 L 4486,2063 L 4487,2063 L 4492,2066 L 4492,2067 L 4497,2070 L 4497,2071 L 4502,2075 L 4502,2075 L 4506,2080 L 4506,2081 L 4510,2085 L 4510,2086 L 4513,2091 L 4513,2092 L 4515,2097 L 4516,2098 L 4517,2104 L 4518,2105 L 4519,2110 L 4519,2111 L 4519,2117 L 4519,2118 L 4519,2124 L 4519,2124 L 4518,2130 L 4518,2131 L 4515,2140 L 4515,2141 L 4511,2150 L 4510,2151 L 4505,2159 L 4504,2160 L 4498,2167 L 4497,2167 L 4490,2173 L 4488,2174 L 4480,2178 L 4479,2178 L 4470,2181 L 4469,2181 L 4460,2183 L 4458,2183 L 4450,2183 L 4449,2183 L 4440,2181 L 4439,2181 L 4431,2178 L 4430,2178 L 4424,2175 L 3911,2175 L 3911,2456 L 3912,2459 L 3913,2459 L 3913,2460 L 3916,2471 L 3917,2473 L 3918,2484 L 3918,2485 L 3918,2486 L 3917,2497 L 3916,2499 L 3913,2510 L 3913,2511 L 3912,2511 L 3906,2521 L 3906,2522 L 3906,2523 L 3898,2531 L 3897,2532 L 3897,2532 L 3887,2539 L 3886,2540 L 3875,2545 L 3875,2545 L 3874,2545 L 3862,2547 L 3861,2548 L 3849,2548 L 3849,2548 L 3848,2547 L 3836,2545 L 3836,2545 L 3835,2545 L 3824,2540 L 3823,2539 L 3814,2532 L 3813,2532 L 3812,2531 L 3805,2523 L 3804,2522 L 3804,2521 L 3798,2511 L 3798,2511 L 3797,2510 L 3794,2499 L 3793,2497 L 3792,2486 L 3792,2485 L 3792,2484 L 3793,2473 L 3794,2471 L 3797,2460 L 3798,2459 L 3798,2459 L 3799,2456 L 3799,2175 L 3611,2175 L 3611,3319 L 3611,3319 L 3610,3329 L 3610,3330 L 3607,3339 L 3606,3341 L 3602,3349 L 3601,3350 L 3595,3358 L 3595,3358 L 3295,3658 L 3294,3659 L 3287,3665 L 3286,3666 L 3277,3670 L 3276,3671 L 3267,3673 L 3265,3674 L 3256,3675 L 3255,3675 L 2455,3675 L 2454,3675 L 2445,3674 L 2444,3673 L 2435,3671 L 2433,3670 L 2425,3666 L 2424,3665 L 2416,3659 L 2415,3658 L 2409,3650 L 2408,3649 L 2404,3641 L 2403,3639 L 2401,3630 L 2400,3629 L 2399,3619 L 2399,3619 L 2399,2975 L 1955,2975 L 1954,2975 L 1944,2974 L 1943,2973 L 1933,2970 L 1932,2970 L 1925,2966 L 1924,2965 L 1916,2959 L 1916,2958 L 1716,2758 L 1715,2758 L 1709,2750 L 1708,2749 L 1704,2741 L 1703,2739 L 1701,2730 L 1700,2729 L 1699,2720 L 1699,2719 L 1699,2342 L 1632,2275 L 1528,2275 L 1521,2277 L 1519,2278 L 1508,2279 L 1507,2279 L 1403,2279 L 1403,2279 L 1392,2278 L 1390,2277 L 1380,2274 L 1379,2274 L 1378,2273 L 1369,2268 L 1368,2267 L 1368,2267 L 1359,2259 L 1359,2259 L 1358,2258 L 1352,2249 L 1351,2248 L 1347,2238 L 1346,2237 L 1346,2237 L 1344,2226 L 1344,2225 L 1344,2224 L 1344,2213 L 1344,2212 L 1346,2201 L 1346,2200 L 1347,2200 L 1351,2190 L 1351,2189 L 1352,2188 L 1358,2179 L 1359,2178 L 1368,2171 L 1368,2170 L 1369,2170 L 1378,2165 L 1379,2164 L 1380,2164 L 1390,2160 L 1392,2160 L 1403,2159 L 1403,2159 L 1507,2159 L 1508,2159 L 1519,2160 L 1521,2160 L 1528,2163 L 1655,2163 L 1656,2163 L 1665,2164 L 1667,2164 L 1676,2167 L 1677,2168 L 1686,2172 L 1687,2173 L 1694,2179 L 1695,2179 L 1795,2279 L 1795,2280 L 1802,2288 L 1802,2289 L 1806,2296 L 1807,2297 L 1810,2306 L 1810,2308 L 1811,2318 L 1811,2319 L 1811,2696 L 1978,2863 L 2455,2863 L 2456,2863 L 2465,2864 L 2467,2864 L 2476,2867 L 2477,2867 L 2486,2872 L 2487,2873 L 2494,2879 L 2495,2880 L 2501,2887 L 2502,2888 L 2507,2897 L 2507,2898 L 2510,2907 L 2510,2909 L 2511,2918 L 2511,2919 L 2511,3563 L 3232,3563 z " style="fill-opacity:1.000000;fill:rgb(28,6,183);stroke:rgb(0,0,0);stroke-width:2"/></g>
<g fill-rule="evenodd"><path d="M 887,2475 L 882,2477 L 881,2478 L 874,2480 L 873,2481 L 865,2482 L 864,2482 L 856,2483 L 855,2483 L 848,2482 L 846,2482 L 839,2481 L 838,2480 L 830,2478 L 829,2477 L 824,2475 L 511,2475 L 511,3298 L 514,3305 L 514,3307 L 515,3318 L 515,3319 L 515,3320 L 514,3330 L 514,3332 L 510,3342 L 510,3343 L 510,3344 L 504,3353 L 504,3354 L 503,3355 L 496,3363 L 495,3364 L 486,3370 L 485,3371 L 485,3371 L 475,3375 L 474,3376 L 473,3376 L 463,3378 L 461,3378 L 450,3378 L 449,3378 L 448,3378 L 438,3376 L 437,3376 L 436,3375 L 426,3371 L 425,3370 L 416,3364 L 415,3363 L 415,3363 L 408,3355 L 407,3354 L 407,3353 L 401,3344 L 401,3343 L 400,3342 L 397,3332 L 397,3330 L 396,3320 L 396,3319 L 396,3318 L 397,3307 L 397,3305 L 400,3298 L 400,2419 L 400,2418 L 401,2409 L 401,2407 L 404,2398 L 404,2397 L 409,2388 L 409,2387 L 415,2380 L 417,2379 L 424,2373 L 425,2372 L 433,2368 L 435,2367 L 444,2364 L 445,2364 L 455,2363 L 455,2363 L 824,2363 L 829,2360 L 830,2360 L 837,2357 L 838,2357 L 846,2355 L 847,2355 L 854,2355 L 855,2355 L 863,2355 L 864,2355 L 872,2357 L 873,2357 L 880,2360 L 881,2360 L 887,2363 L 1099,2363 L 1099,1619 L 1100,1618 L 1100,1609 L 1101,1607 L 1103,1598 L 1104,1597 L 1109,1589 L 1109,1587 L 1115,1580 L 1116,1579 L 1124,1573 L 1125,1572 L 1133,1568 L 1135,1567 L 1144,1564 L 1145,1564 L 1155,1563 L 1155,1563 L 1382,1563 L 1390,1561 L 1392,1560 L 1403,1559 L 1403,1559 L 1507,1559 L 1508,1559 L 1519,1560 L 1521,1561 L 1531,1564 L 1532,1564 L 1532,1565 L 1542,1570 L 1543,1570 L 1543,1571 L 1551,1578 L 1552,1579 L 1559,1588 L 1559,1589 L 1560,1590 L 1564,1600 L 1564,1600 L 1564,1601 L 1567,1612 L 1567,1613 L 1567,1624 L 1567,1625 L 1567,1626 L 1564,1637 L 1564,1637 L 1564,1638 L 1560,1648 L 1559,1650 L 1552,1658 L 1552,1659 L 1551,1660 L 1543,1667 L 1543,1667 L 1542,1668 L 1532,1673 L 1532,1674 L 1531,1674 L 1521,1677 L 1519,1678 L 1508,1679 L 1507,1679 L 1403,1679 L 1403,1679 L 1392,1678 L 1390,1677 L 1382,1675 L 1211,1675 L 1211,2363 L 1382,2363 L 1390,2360 L 1392,2360 L 1403,2359 L 1403,2359 L 1507,2359 L 1508,2359 L 1519,2360 L 1521,2360 L 1531,2364 L 1532,2364 L 1532,2365 L 1542,2370 L 1543,2370 L 1543,2371 L 1551,2378 L 1552,2379 L 1559,2388 L 1559,2389 L 1560,2390 L 1564,2400 L 1564,2400 L 1564,2401 L 1567,2412 L 1567,2413 L 1567,2424 L 1567,2425 L 1567,2426 L 1564,2437 L 1564,2437 L 1564,2438 L 1560,2448 L 1559,2449 L 1552,2458 L 1552,2459 L 1551,2459 L 1543,2467 L 1543,2467 L 1542,2468 L 1532,2473 L 1532,2474 L 1531,2474 L 1521,2477 L 1519,2478 L 1508,2479 L 1507,2479 L 1403,2479 L 1403,2479 L 1392,2478 L 1390,2477 L 1382,2475 L 887,2475 z " style="fill-opacity:1.000000;fill:rgb(71,222,179);stroke:rgb(0,0,0);stroke-width:2"/></g>
<g fill-rule="evenodd"><path d="M 887,1475 L 882,1477 L 881,1478 L 874,1480 L 873,1481 L 865,1482 L 864,1482 L 856,1483 L 855,1483 L 848,1483 L 846,1482 L 839,1481 L 838,1481 L 830,1478 L 829,1478 L 824,1475 L 487,1475 L 481,1478 L 480,1478 L 472,1481 L 471,1481 L 462,1483 L 461,1483 L 453,1483 L 452,1483 L 446,1482 L 445,1482 L 440,1481 L 439,1481 L 434,1479 L 433,1479 L 428,1477 L 427,1477 L 422,1474 L 422,1473 L 417,1470 L 416,1470 L 412,1466 L 412,1466 L 408,1462 L 407,1461 L 404,1457 L 404,1457 L 400,1452 L 400,1451 L 398,1446 L 397,1446 L 395,1441 L 395,1440 L 393,1435 L 393,1434 L 392,1429 L 392,1428 L 391,1422 L 391,1421 L 391,1416 L 391,1415 L 392,1410 L 392,1409 L 393,1404 L 393,1403 L 395,1398 L 395,1398 L 397,1393 L 397,1392 L 400,1387 L 400,1387 L 403,1382 L 403,1382 L 407,1377 L 407,1377 L 411,1373 L 411,1372 L 415,1369 L 416,1368 L 420,1365 L 421,1365 L 425,1362 L 426,1362 L 431,1360 L 431,1359 L 436,1358 L 437,1357 L 442,1356 L 443,1356 L 448,1355 L 449,1355 L 454,1355 L 455,1355 L 463,1355 L 464,1355 L 472,1357 L 473,1357 L 480,1360 L 481,1360 L 487,1363 L 824,1363 L 829,1360 L 830,1360 L 837,1357 L 838,1357 L 846,1356 L 847,1355 L 854,1355 L 855,1355 L 863,1355 L 864,1355 L 872,1357 L 873,1357 L 880,1360 L 881,1360 L 887,1363 L 1382,1363 L 1390,1361 L 1392,1360 L 1403,1359 L 1403,1359 L 1507,1359 L 1508,1359 L 1519,1360 L 1521,1361 L 1531,1364 L 1532,1364 L 1532,1365 L 1542,1370 L 1543,1370 L 1543,1371 L 1551,1378 L 1552,1380 L 1559,1388 L 1559,1389 L 1560,1390 L 1564,1400 L 1564,1400 L 1564,1401 L 1567,1412 L 1567,1413 L 1567,1424 L 1567,1425 L 1567,1426 L 1564,1437 L 1564,1437 L 1564,1438 L 1560,1448 L 1559,1450 L 1552,1458 L 1552,1459 L 1551,1460 L 1543,1467 L 1543,1467 L 1542,1468 L 1532,1473 L 1532,1474 L 1531,1474 L 1521,1477 L 1519,1478 L 1508,1479 L 1507,1479 L 1403,1479 L 1403,1479 L 1392,1478 L 1390,1477 L 1382,1475 L 887,1475 z " style="fill-opacity:1.000000;fill:rgb(18,77,200);stroke:rgb(0,0,0);stroke-width:2"/></g>
<g fill-rule="evenodd"><path d="M 4911,1575 L 4911,3487 L 4914,3493 L 4914,3494 L 4917,3502 L 4917,3503 L 4919,3511 L 4919,3512 L 4919,3520 L 4919,3521 L 4919,3526 L 4919,3527 L 4918,3533 L 4917,3534 L 4916,3539 L 4916,3540 L 4913,3545 L 4913,3546 L 4911,3551 L 4910,3551 L 4907,3556 L 4907,3557 L 4903,3561 L 4902,3562 L 4899,3566 L 4898,3566 L 4894,3570 L 4893,3570 L 4888,3574 L 4887,3574 L 4883,3577 L 4882,3577 L 4877,3579 L 4876,3579 L 4870,3581 L 4870,3581 L 4864,3582 L 4863,3582 L 4858,3583 L 4857,3583 L 4851,3583 L 4850,3583 L 4845,3582 L 4845,3582 L 4839,3581 L 4839,3581 L 4834,3579 L 4833,3579 L 4828,3577 L 4828,3577 L 4823,3574 L 4822,3574 L 4818,3571 L 4817,3571 L 4813,3567 L 4813,3567 L 4809,3563 L 4808,3563 L 4805,3559 L 4804,3558 L 4801,3554 L 4801,3553 L 4798,3549 L 4798,3548 L 4796,3544 L 4796,3543 L 4794,3538 L 4794,3537 L 4792,3532 L 4792,3531 L 4791,3526 L 4791,3526 L 4791,3520 L 4791,3519 L 4791,3511 L 4791,3510 L 4793,3503 L 4793,3501 L 4796,3494 L 4796,3493 L 4799,3487 L 4799,1519 L 4799,1518 L 4800,1509 L 4800,1507 L 4803,1498 L 4804,1497 L 4808,1489 L 4809,1487 L 4815,1480 L 4816,1479 L 4823,1473 L 4825,1472 L 4833,1468 L 4834,1467 L 4843,1464 L 4845,1464 L 4854,1463 L 4855,1463 L 4982,1463 L 4990,1461 L 4991,1460 L 5002,1459 L 5003,1459 L 5107,1459 L 5108,1459 L 5119,1460 L 5120,1461 L 5131,1464 L 5131,1464 L 5132,1465 L 5141,1470 L 5142,1470 L 5143,1471 L 5151,1478 L 5152,1479 L 5158,1488 L 5159,1489 L 5159,1490 L 5164,1500 L 5164,1500 L 5164,1501 L 5166,1512 L 5167,1513 L 5167,1524 L 5166,1525 L 5166,1526 L 5164,1537 L 5164,1537 L 5164,1538 L 5159,1548 L 5158,1550 L 5152,1558 L 5151,1559 L 5151,1560 L 5143,1567 L 5142,1567 L 5141,1568 L 5132,1573 L 5131,1574 L 5131,1574 L 5120,1577 L 5119,1578 L 5108,1579 L 5107,1579 L 5003,1579 L 5002,1579 L 4991,1578 L 4990,1577 L 4982,1575 L 4911,1575 z " style="fill-opacity:1.000000;fill:rgb(67,187,139);stroke:rgb(0,0,0);stroke-width:2"/></g>
<g fill-rule="evenodd"><path d="M 6566,1913 L 6566,1924 L 6566,1925 L 6566,1926 L 6564,1937 L 6564,1937 L 6563,1938 L 6559,1948 L 6558,1949 L 6552,1958 L 6551,1959 L 6551,1960 L 6543,1967 L 6542,1967 L 6541,1968 L 6532,1973 L 6531,1974 L 6530,1974 L 6520,1977 L 6518,1978 L 6508,1979 L 6507,1979 L 6403,1979 L 6402,1979 L 6391,1978 L 6390,1977 L 6379,1974 L 6378,1974 L 6378,1973 L 6368,1968 L 6368,1967 L 6367,1967 L 6359,1960 L 6358,1959 L 6358,1958 L 6351,1949 L 6351,1948 L 6346,1938 L 6346,1937 L 6346,1937 L 6343,1926 L 6343,1925 L 6343,1924 L 6343,1913 L 6343,1912 L 6346,1901 L 6346,1900 L 6346,1900 L 6351,1890 L 6351,1889 L 6351,1888 L 6358,1879 L 6359,1878 L 6367,1871 L 6368,1870 L 6368,1870 L 6378,1865 L 6378,1864 L 6379,1864 L 6390,1861 L 6391,1860 L 6399,1859 L 6399,1375 L 5128,1375 L 5120,1377 L 5119,1378 L 5108,1379 L 5107,1379 L 5003,1379 L 5002,1379 L 4991,1378 L 4990,1377 L 4979,1374 L 4979,1374 L 4978,1373 L 4968,1368 L 4968,1367 L 4967,1367 L 4959,1360 L 4958,1359 L 4958,1358 L 4952,1350 L 4951,1348 L 4946,1338 L 4946,1337 L 4946,1337 L 4944,1326 L 4943,1325 L 4943,1324 L 4943,1313 L 4944,1312 L 4946,1301 L 4946,1300 L 4946,1300 L 4951,1290 L 4951,1289 L 4952,1288 L 4958,1280 L 4959,1278 L 4967,1271 L 4968,1270 L 4968,1270 L 4978,1265 L 4979,1264 L 4979,1264 L 4990,1261 L 4991,1260 L 5002,1259 L 5003,1259 L 5107,1259 L 5108,1259 L 5119,1260 L 5120,1261 L 5128,1263 L 6399,1263 L 6399,352 L 6222,175 L 5909,175 L 5908,177 L 5907,178 L 5895,186 L 5894,187 L 5893,187 L 5880,193 L 5879,194 L 5878,194 L 5864,197 L 5862,197 L 5848,197 L 5847,197 L 5846,197 L 5831,194 L 5831,194 L 5830,193 L 5816,187 L 5815,186 L 5803,178 L 5802,177 L 5792,166 L 5792,165 L 5791,164 L 5784,152 L 5783,151 L 5783,150 L 5778,136 L 5778,135 L 5777,120 L 5777,118 L 5778,104 L 5778,102 L 5783,88 L 5783,87 L 5784,86 L 5791,74 L 5792,73 L 5792,72 L 5802,61 L 5803,60 L 5815,52 L 5816,51 L 5816,51 L 5830,45 L 5831,45 L 5831,44 L 5846,41 L 5847,41 L 5848,41 L 5862,41 L 5864,41 L 5878,44 L 5879,45 L 5880,45 L 5893,51 L 5894,51 L 5895,52 L 5907,60 L 5907,61 L 5908,61 L 5909,63 L 6245,63 L 6246,63 L 6255,64 L 6256,64 L 6265,67 L 6267,68 L 6275,72 L 6276,73 L 6284,79 L 6284,80 L 6494,290 L 6495,290 L 6501,298 L 6502,299 L 6502,299 L 6507,308 L 6507,310 L 6509,317 L 6510,318 L 6511,328 L 6511,329 L 6511,1859 L 6518,1860 L 6520,1861 L 6530,1864 L 6531,1864 L 6532,1865 L 6541,1870 L 6542,1870 L 6543,1871 L 6551,1878 L 6552,1879 L 6558,1888 L 6559,1889 L 6559,1890 L 6563,1900 L 6564,1900 L 6564,1901 L 6566,1912 L 6566,1913 z " style="fill-opacity:1.000000;fill:rgb(166,31,3);stroke:rgb(0,0,0);stroke-width:2"/></g>
<g fill-rule="evenodd"><path d="M 450,0 L 461,0 L 463,0 L 474,2 L 475,2 L 476,3 L 487,7 L 487,8 L 488,8 L 498,15 L 499,16 L 507,25 L 507,26 L 508,26 L 513,36 L 514,37 L 514,38 L 518,49 L 518,50 L 518,51 L 519,62 L 519,63 L 519,63 L 1755,63 L 1756,63 L 1765,64 L 1767,64 L 1776,67 L 1777,68 L 1786,72 L 1787,73 L 1794,79 L 1795,80 L 1801,87 L 1802,89 L 1807,97 L 1807,98 L 1810,107 L 1810,109 L 1811,118 L 1811,119 L 1811,1363 L 1982,1363 L 1990,1361 L 1992,1360 L 2002,1359 L 2003,1359 L 2107,1359 L 2108,1359 L 2119,1360 L 2121,1361 L 2131,1364 L 2132,1364 L 2132,1365 L 2142,1370 L 2142,1370 L 2143,1371 L 2151,1378 L 2152,1380 L 2159,1388 L 2159,1389 L 2159,1390 L 2164,1400 L 2164,1400 L 2164,1401 L 2167,1412 L 2167,1413 L 2167,1424 L 2167,1425 L 2167,1426 L 2164,1437 L 2164,1437 L 2164,1438 L 2159,1448 L 2159,1450 L 2152,1458 L 2152,1459 L 2151,1460 L 2143,1467 L 2142,1467 L 2142,1468 L 2132,1473 L 2132,1474 L 2131,1474 L 2121,1477 L 2119,1478 L 2108,1479 L 2107,1479 L 2003,1479 L 2002,1479 L 1992,1478 L 1990,1477 L 1982,1475 L 1811,1475 L 1811,1919 L 1811,1920 L 1810,1929 L 1810,1931 L 1807,1940 L 1807,1941 L 1802,1949 L 1801,1951 L 1795,1958 L 1795,1958 L 1695,2058 L 1694,2059 L 1687,2065 L 1686,2066 L 1677,2070 L 1676,2071 L 1667,2073 L 1665,2074 L 1656,2075 L 1655,2075 L 1528,2075 L 1521,2077 L 1519,2078 L 1508,2079 L 1507,2079 L 1403,2079 L 1403,2079 L 1392,2078 L 1390,2077 L 1380,2074 L 1379,2074 L 1378,2073 L 1369,2068 L 1368,2067 L 1368,2067 L 1359,2060 L 1359,2059 L 1358,2058 L 1352,2049 L 1351,2048 L 1347,2038 L 1346,2037 L 1346,2037 L 1344,2026 L 1344,2025 L 1344,2024 L 1344,2013 L 1344,2012 L 1346,2001 L 1346,2000 L 1347,2000 L 1351,1990 L 1351,1989 L 1352,1988 L 1358,1979 L 1359,1978 L 1368,1971 L 1368,1970 L 1369,1970 L 1378,1965 L 1379,1964 L 1380,1964 L 1390,1961 L 1392,1960 L 1403,1959 L 1403,1959 L 1507,1959 L 1508,1959 L 1519,1960 L 1521,1961 L 1528,1963 L 1632,1963 L 1699,1896 L 1699,175 L 519,175 L 519,175 L 519,176 L 518,188 L 518,189 L 514,200 L 514,201 L 513,202 L 511,205 L 511,388 L 513,391 L 513,391 L 515,396 L 516,397 L 517,402 L 517,403 L 519,408 L 519,409 L 519,414 L 519,415 L 520,420 L 520,421 L 519,426 L 519,427 L 518,432 L 518,433 L 517,439 L 516,439 L 514,444 L 514,445 L 512,450 L 511,451 L 508,455 L 508,456 L 504,460 L 504,461 L 500,465 L 500,466 L 495,469 L 495,470 L 490,473 L 490,473 L 485,476 L 484,476 L 479,479 L 478,479 L 473,481 L 472,481 L 467,482 L 466,482 L 461,483 L 460,483 L 455,483 L 454,483 L 448,483 L 447,483 L 442,482 L 441,482 L 432,479 L 431,478 L 422,474 L 421,473 L 414,468 L 413,467 L 406,460 L 405,459 L 400,451 L 399,450 L 395,441 L 395,440 L 392,431 L 392,430 L 391,420 L 391,419 L 392,411 L 392,410 L 393,403 L 394,401 L 396,394 L 397,393 L 400,388 L 400,205 L 397,202 L 397,201 L 397,200 L 393,189 L 393,188 L 393,188 L 392,176 L 392,175 L 392,63 L 392,62 L 393,51 L 393,50 L 393,49 L 397,38 L 397,37 L 397,36 L 403,26 L 404,26 L 404,25 L 412,16 L 413,16 L 413,15 L 423,8 L 424,7 L 435,3 L 436,2 L 436,2 L 448,0 L 449,0 L 450,0 z " style="fill-opacity:1.000000;fill:rgb(90,125,9);stroke:rgb(0,0,0);stroke-width:2"/></g>
<g fill-rule="evenodd"><path d="M 6566,2313 L 6566,2324 L 6566,2325 L 6566,2326 L 6564,2337 L 6564,2337 L 6563,2338 L 6559,2348 L 6558,2349 L 6552,2358 L 6551,2359 L 6551,2359 L 6543,2367 L 6542,2367 L 6541,2368 L 6532,2373 L 6531,2374 L 6530,2374 L 6520,2377 L 6518,2378 L 6508,2379 L 6507,2379 L 6403,2379 L 6402,2379 L 6391,2378 L 6390,2377 L 6382,2375 L 5841,2375 L 5838,2377 L 5837,2377 L 5836,2377 L 5825,2381 L 5824,2381 L 5823,2381 L 5812,2383 L 5811,2383 L 5811,2383 L 5811,4219 L 5811,4219 L 5810,4229 L 5809,4230 L 5807,4239 L 5806,4241 L 5802,4249 L 5801,4250 L 5795,4258 L 5794,4259 L 5787,4265 L 5785,4265 L 5777,4270 L 5776,4271 L 5767,4273 L 5765,4274 L 5756,4274 L 5755,4275 L 1255,4275 L 1255,4274 L 1245,4274 L 1244,4273 L 1235,4271 L 1233,4270 L 1225,4265 L 1224,4265 L 1216,4259 L 1216,4258 L 1032,4075 L 55,4075 L 55,4075 L 50,4074 L 49,4074 L 44,4073 L 43,4073 L 39,4072 L 38,4072 L 33,4070 L 32,4070 L 28,4067 L 27,4067 L 23,4064 L 22,4064 L 18,4060 L 18,4060 L 14,4056 L 14,4056 L 11,4052 L 10,4051 L 7,4047 L 7,4046 L 5,4042 L 4,4041 L 2,4036 L 2,4036 L 1,4031 L 1,4030 L 0,4025 L 0,4024 L 0,4019 L 0,4019 L 0,119 L 0,118 L 1,109 L 1,107 L 4,98 L 4,97 L 9,89 L 9,87 L 15,80 L 17,79 L 24,73 L 25,72 L 33,68 L 35,67 L 44,64 L 45,64 L 55,63 L 55,63 L 192,63 L 192,63 L 192,62 L 193,51 L 193,50 L 193,49 L 197,38 L 197,37 L 197,36 L 203,26 L 204,26 L 204,25 L 212,16 L 213,16 L 213,15 L 223,8 L 224,7 L 235,3 L 236,2 L 237,2 L 248,0 L 249,0 L 250,0 L 261,0 L 263,0 L 274,2 L 275,2 L 276,3 L 287,7 L 287,8 L 288,8 L 298,15 L 299,16 L 307,25 L 307,26 L 308,26 L 313,36 L 314,37 L 314,38 L 318,49 L 318,50 L 318,51 L 319,62 L 319,63 L 319,175 L 319,176 L 318,188 L 318,189 L 314,200 L 314,201 L 313,202 L 308,212 L 307,213 L 307,213 L 299,222 L 298,223 L 288,230 L 287,231 L 276,235 L 275,236 L 274,236 L 263,238 L 261,239 L 250,239 L 249,239 L 248,238 L 237,236 L 236,236 L 235,235 L 224,231 L 223,230 L 213,223 L 213,223 L 212,222 L 204,213 L 204,213 L 203,212 L 197,202 L 197,201 L 197,200 L 193,189 L 193,188 L 193,188 L 192,176 L 192,175 L 192,175 L 111,175 L 111,3963 L 400,3963 L 400,3750 L 398,3747 L 398,3747 L 396,3742 L 396,3742 L 394,3737 L 394,3737 L 393,3732 L 393,3731 L 392,3726 L 392,3726 L 391,3721 L 391,3720 L 391,3715 L 391,3714 L 392,3709 L 392,3709 L 393,3704 L 393,3703 L 395,3698 L 395,3698 L 397,3693 L 397,3692 L 399,3688 L 399,3687 L 402,3683 L 402,3683 L 405,3678 L 406,3678 L 409,3674 L 410,3674 L 413,3670 L 414,3670 L 418,3667 L 418,3666 L 422,3664 L 423,3663 L 427,3661 L 428,3661 L 433,3659 L 433,3659 L 438,3657 L 439,3657 L 443,3656 L 444,3656 L 449,3655 L 450,3655 L 455,3655 L 455,3655 L 460,3655 L 461,3655 L 466,3655 L 467,3656 L 471,3657 L 472,3657 L 477,3658 L 478,3658 L 482,3660 L 483,3661 L 487,3663 L 488,3663 L 492,3666 L 493,3667 L 497,3670 L 497,3670 L 501,3673 L 501,3674 L 505,3678 L 505,3678 L 508,3682 L 509,3683 L 511,3687 L 512,3688 L 514,3692 L 514,3693 L 516,3697 L 516,3698 L 518,3703 L 518,3703 L 519,3708 L 519,3709 L 519,3714 L 519,3715 L 520,3720 L 520,3720 L 519,3725 L 519,3726 L 518,3731 L 518,3731 L 517,3736 L 517,3737 L 515,3742 L 515,3742 L 513,3747 L 513,3747 L 511,3750 L 511,3963 L 1000,3963 L 1000,2619 L 1000,2618 L 1000,2609 L 1001,2607 L 1003,2598 L 1004,2597 L 1009,2588 L 1009,2587 L 1015,2580 L 1016,2579 L 1024,2573 L 1025,2572 L 1033,2568 L 1035,2567 L 1044,2564 L 1045,2564 L 1055,2563 L 1055,2563 L 1382,2563 L 1390,2560 L 1392,2560 L 1403,2559 L 1403,2559 L 1507,2559 L 1508,2559 L 1519,2560 L 1521,2560 L 1531,2564 L 1532,2564 L 1532,2564 L 1542,2570 L 1543,2570 L 1543,2571 L 1551,2578 L 1552,2579 L 1559,2588 L 1559,2589 L 1560,2590 L 1564,2600 L 1564,2600 L 1564,2601 L 1567,2612 L 1567,2613 L 1567,2624 L 1567,2625 L 1567,2626 L 1564,2637 L 1564,2637 L 1564,2638 L 1560,2648 L 1559,2649 L 1552,2658 L 1552,2659 L 1551,2659 L 1543,2667 L 1543,2667 L 1542,2668 L 1532,2673 L 1532,2673 L 1531,2674 L 1521,2677 L 1519,2677 L 1508,2679 L 1507,2679 L 1403,2679 L 1403,2679 L 1392,2677 L 1390,2677 L 1382,2675 L 1111,2675 L 1111,2863 L 1424,2863 L 1429,2860 L 1430,2860 L 1438,2857 L 1439,2857 L 1446,2855 L 1447,2855 L 1455,2855 L 1456,2855 L 1464,2855 L 1465,2855 L 1473,2857 L 1474,2857 L 1481,2860 L 1482,2860 L 1487,2863 L 1555,2863 L 1556,2863 L 1565,2864 L 1567,2864 L 1576,2867 L 1577,2867 L 1586,2872 L 1587,2873 L 1594,2879 L 1595,2879 L 1878,3163 L 2024,3163 L 2027,3161 L 2028,3161 L 2033,3159 L 2033,3158 L 2039,3157 L 2039,3157 L 2045,3155 L 2046,3155 L 2051,3155 L 2052,3155 L 2057,3155 L 2058,3155 L 2063,3155 L 2064,3155 L 2070,3156 L 2070,3156 L 2075,3158 L 2076,3158 L 2081,3160 L 2082,3160 L 2086,3163 L 2087,3163 L 2091,3166 L 2092,3166 L 2096,3169 L 2097,3170 L 2101,3173 L 2101,3174 L 2105,3178 L 2105,3178 L 2108,3182 L 2109,3183 L 2111,3187 L 2112,3188 L 2114,3193 L 2114,3193 L 2116,3198 L 2116,3199 L 2118,3204 L 2118,3205 L 2119,3210 L 2119,3211 L 2119,3216 L 2119,3217 L 2119,3222 L 2119,3222 L 2119,3228 L 2119,3229 L 2117,3238 L 2116,3239 L 2113,3247 L 2112,3248 L 2107,3256 L 2107,3257 L 2101,3264 L 2100,3265 L 2093,3271 L 2092,3271 L 2084,3276 L 2083,3277 L 2074,3280 L 2073,3280 L 2064,3282 L 2063,3282 L 2059,3283 L 2058,3283 L 2053,3283 L 2052,3283 L 2048,3282 L 2047,3282 L 2042,3282 L 2042,3281 L 2037,3280 L 2036,3280 L 2032,3278 L 2031,3278 L 2027,3276 L 2026,3276 L 2024,3275 L 1855,3275 L 1855,3275 L 1845,3274 L 1844,3273 L 1835,3271 L 1833,3270 L 1825,3266 L 1824,3265 L 1816,3259 L 1816,3258 L 1532,2975 L 1487,2975 L 1482,2977 L 1481,2978 L 1474,2980 L 1473,2981 L 1465,2982 L 1464,2982 L 1456,2983 L 1455,2983 L 1447,2982 L 1446,2982 L 1439,2981 L 1438,2980 L 1430,2978 L 1429,2977 L 1424,2975 L 1111,2975 L 1111,3996 L 1278,4163 L 5699,4163 L 5699,2575 L 5255,2575 L 5254,2575 L 5245,2574 L 5243,2573 L 5234,2571 L 5233,2570 L 5225,2566 L 5223,2565 L 5216,2559 L 5215,2558 L 5015,2358 L 5015,2358 L 5009,2350 L 5008,2349 L 5004,2342 L 5004,2341 L 5001,2331 L 5000,2330 L 4999,2320 L 4999,2319 L 4999,1778 L 4991,1778 L 4990,1777 L 4979,1774 L 4979,1774 L 4978,1773 L 4968,1768 L 4968,1767 L 4967,1767 L 4959,1760 L 4958,1759 L 4958,1758 L 4952,1750 L 4951,1748 L 4946,1738 L 4946,1737 L 4946,1737 L 4944,1726 L 4943,1725 L 4943,1724 L 4943,1713 L 4944,1712 L 4946,1701 L 4946,1700 L 4946,1700 L 4951,1690 L 4951,1689 L 4952,1688 L 4958,1679 L 4959,1678 L 4967,1671 L 4968,1670 L 4968,1670 L 4978,1665 L 4979,1664 L 4979,1664 L 4990,1661 L 4991,1660 L 5002,1659 L 5003,1659 L 5107,1659 L 5108,1659 L 5119,1660 L 5120,1661 L 5131,1664 L 5131,1664 L 5132,1665 L 5141,1670 L 5142,1670 L 5143,1671 L 5151,1678 L 5152,1679 L 5158,1688 L 5159,1689 L 5159,1690 L 5164,1700 L 5164,1700 L 5164,1701 L 5166,1712 L 5167,1713 L 5167,1724 L 5166,1725 L 5166,1726 L 5164,1737 L 5164,1737 L 5164,1738 L 5159,1748 L 5158,1750 L 5152,1758 L 5151,1759 L 5151,1760 L 5143,1767 L 5142,1767 L 5141,1768 L 5132,1773 L 5131,1774 L 5131,1774 L 5120,1777 L 5119,1778 L 5111,1778 L 5111,2296 L 5278,2463 L 5699,2463 L 5699,2383 L 5699,2383 L 5698,2383 L 5686,2381 L 5686,2381 L 5685,2381 L 5674,2377 L 5673,2377 L 5672,2377 L 5662,2371 L 5661,2370 L 5661,2370 L 5652,2362 L 5651,2362 L 5651,2361 L 5644,2351 L 5643,2350 L 5638,2339 L 5638,2339 L 5638,2338 L 5636,2326 L 5635,2326 L 5635,2325 L 5635,2313 L 5636,2311 L 5638,2300 L 5638,2299 L 5638,2298 L 5643,2288 L 5644,2286 L 5651,2277 L 5652,2276 L 5661,2268 L 5661,2267 L 5662,2267 L 5672,2261 L 5673,2260 L 5674,2260 L 5685,2257 L 5686,2256 L 5698,2255 L 5699,2255 L 5811,2255 L 5812,2255 L 5823,2256 L 5824,2256 L 5825,2257 L 5836,2260 L 5837,2260 L 5838,2261 L 5841,2263 L 6382,2263 L 6390,2260 L 6391,2260 L 6402,2259 L 6403,2259 L 6507,2259 L 6508,2259 L 6518,2260 L 6520,2260 L 6530,2264 L 6531,2264 L 6532,2265 L 6541,2270 L 6542,2270 L 6543,2271 L 6551,2278 L 6552,2279 L 6558,2288 L 6559,2289 L 6559,2290 L 6563,2300 L 6564,2300 L 6564,2301 L 6566,2312 L 6566,2313 z " style="fill-opacity:1.000000;fill:rgb(56,37,31);stroke:rgb(0,0,0);stroke-width:2"/></g>
<g fill-rule="evenodd"><path d="M 6566,2113 L 6566,2124 L 6566,2125 L 6566,2126 L 6564,2137 L 6564,2137 L 6563,2138 L 6559,2148 L 6558,2149 L 6552,2158 L 6551,2159 L 6551,2159 L 6543,2167 L 6542,2167 L 6541,2168 L 6532,2173 L 6531,2174 L 6530,2174 L 6520,2177 L 6518,2178 L 6508,2179 L 6507,2179 L 6403,2179 L 6402,2179 L 6391,2178 L 6390,2177 L 6382,2175 L 5841,2175 L 5838,2177 L 5837,2177 L 5836,2177 L 5825,2181 L 5824,2181 L 5823,2181 L 5812,2183 L 5811,2183 L 5699,2183 L 5698,2183 L 5686,2181 L 5686,2181 L 5685,2181 L 5674,2177 L 5673,2177 L 5672,2177 L 5669,2175 L 5486,2175 L 5483,2176 L 5483,2177 L 5478,2179 L 5477,2179 L 5472,2181 L 5471,2181 L 5466,2182 L 5465,2182 L 5460,2183 L 5459,2183 L 5454,2183 L 5453,2183 L 5447,2183 L 5447,2182 L 5441,2182 L 5441,2181 L 5435,2180 L 5435,2180 L 5429,2178 L 5429,2177 L 5424,2175 L 5423,2174 L 5418,2172 L 5418,2171 L 5413,2168 L 5413,2167 L 5409,2163 L 5408,2163 L 5405,2159 L 5404,2158 L 5401,2154 L 5401,2153 L 5398,2148 L 5397,2147 L 5395,2142 L 5395,2142 L 5393,2136 L 5393,2136 L 5392,2130 L 5392,2129 L 5391,2124 L 5391,2123 L 5391,2118 L 5391,2117 L 5391,2111 L 5391,2111 L 5392,2105 L 5392,2104 L 5395,2095 L 5396,2094 L 5400,2086 L 5401,2085 L 5406,2077 L 5407,2076 L 5413,2070 L 5414,2069 L 5422,2064 L 5423,2063 L 5431,2059 L 5433,2059 L 5442,2056 L 5443,2056 L 5452,2055 L 5453,2055 L 5461,2055 L 5462,2055 L 5471,2057 L 5472,2057 L 5479,2060 L 5481,2060 L 5486,2063 L 5669,2063 L 5672,2061 L 5673,2061 L 5674,2060 L 5685,2057 L 5686,2056 L 5698,2055 L 5699,2055 L 5811,2055 L 5812,2055 L 5823,2056 L 5824,2056 L 5825,2057 L 5836,2060 L 5837,2061 L 5838,2061 L 5841,2063 L 6382,2063 L 6390,2061 L 6391,2060 L 6402,2059 L 6403,2059 L 6507,2059 L 6508,2059 L 6518,2060 L 6520,2061 L 6530,2064 L 6531,2064 L 6532,2065 L 6541,2070 L 6542,2070 L 6543,2071 L 6551,2078 L 6552,2079 L 6558,2088 L 6559,2089 L 6559,2090 L 6563,2100 L 6564,2100 L 6564,2101 L 6566,2112 L 6566,2113 z " style="fill-opacity:1.000000;fill:rgb(93,212,203);stroke:rgb(0,0,0);stroke-width:2"/></g>
</svg>
