<?xml version="1.0" standalone="no"?>
<!DOCTYPE svg PUBLIC "-//W3C//DTD SVG 1.1//EN"
"http://www.w3.org/Graphics/SVG/1.1/DTD/svg11.dtd">
<svg width="6560" height="4268" viewBox="0 0 6560 4268" version="1.1"
xmlns="http://www.w3.org/2000/svg"
xmlns:xlink="http://www.w3.org/1999/xlink">
<circle cx="108" cy="2315" r="46" style=""/>
<circle cx="108" cy="2115" r="46" style=""/>
<circle cx="108" cy="1915" r="46" style=""/>
<circle cx="808" cy="2115" r="46" style=""/>
<circle cx="808" cy="2315" r="46" style=""/>
<circle cx="1108" cy="2115" r="46" style=""/>
<circle cx="1508" cy="1715" r="46" style=""/>
<circle cx="1508" cy="1515" r="46" style=""/>
<circle cx="1508" cy="1315" r="46" style=""/>
<circle cx="2108" cy="2115" r="46" style=""/>
<circle cx="2708" cy="2481" r="46" style=""/>
<circle cx="2708" cy="2749" r="46" style=""/>
<circle cx="2708" cy="3515" r="46" style=""/>
<circle cx="3507" cy="3215" r="46" style=""/>
<circle cx="4507" cy="3215" r="46" style=""/>
<circle cx="4507" cy="2615" r="46" style=""/>
<circle cx="4507" cy="2415" r="46" style=""/>
<circle cx="4507" cy="2215" r="46" style=""/>
<circle cx="4507" cy="2015" r="46" style=""/>
<circle cx="4507" cy="1815" r="46" style=""/>
<circle cx="4507" cy="1615" r="46" style=""/>
<circle cx="4507" cy="1415" r="46" style=""/>
<circle cx="5107" cy="1415" r="46" style=""/>
<circle cx="5107" cy="1615" r="46" style=""/>
<circle cx="5107" cy="1815" r="46" style=""/>
<circle cx="5107" cy="2015" r="46" style=""/>
<circle cx="5107" cy="2215" r="46" style=""/>
<circle cx="5107" cy="2415" r="46" style=""/>
<circle cx="5107" cy="2615" r="46" style=""/>
<circle cx="5107" cy="2915" r="46" style=""/>
<circle cx="5707" cy="2415" r="46" style=""/>
<circle cx="6107" cy="3315" r="46" style=""/>
<circle cx="6107" cy="3715" r="46" style=""/>
<circle cx="5107" cy="3915" r="46" style=""/>
<circle cx="5707" cy="1415" r="46" style=""/>
<circle cx="6107" cy="1415" r="46" style=""/>
<circle cx="6107" cy="415" r="46" style=""/>
<circle cx="6107" cy="115" r="46" style=""/>
<circle cx="6307" cy="115" r="46" style=""/>
<circle cx="3507" cy="315" r="46" style=""/>
<circle cx="3507" cy="515" r="46" style=""/>
<circle cx="1308" cy="115" r="46" style=""/>
<circle cx="708" cy="115" r="46" style=""/>
<circle cx="1708" cy="3515" r="46" style=""/>
</svg>
