<?xml version="1.0" standalone="no"?>
<!DOCTYPE svg PUBLIC "-//W3C//DTD SVG 1.1//EN"
"http://www.w3.org/Graphics/SVG/1.1/DTD/svg11.dtd">
<svg width="6583" height="4291" viewBox="0 0 6583 4291" version="1.1"
xmlns="http://www.w3.org/2000/svg"
xmlns:xlink="http://www.w3.org/1999/xlink">
<g fill-rule="evenodd"><path d="M 4571,2695 L 4467,2695 L 4465,2694 L 4454,2693 L 4451,2693 L 4441,2689 L 4439,2689 L 4438,2688 L 4428,2683 L 4426,2681 L 4418,2673 L 4416,2672 L 4415,2671 L 4409,2662 L 4407,2659 L 4403,2649 L 4402,2648 L 4402,2646 L 4400,2636 L 4399,2634 L 4399,2632 L 4399,2621 L 4400,2618 L 4402,2607 L 4402,2606 L 4403,2604 L 4407,2594 L 4408,2593 L 4409,2592 L 4415,2583 L 4418,2580 L 4426,2573 L 4428,2571 L 4438,2566 L 4439,2565 L 4441,2564 L 4451,2561 L 4454,2560 L 4465,2559 L 4467,2559 L 4571,2559 L 4572,2559 L 4583,2560 L 4586,2561 L 4597,2564 L 4598,2565 L 4600,2566 L 4609,2571 L 4612,2573 L 4620,2580 L 4622,2583 L 4629,2592 L 4629,2593 L 4630,2594 L 4635,2604 L 4635,2606 L 4636,2607 L 4638,2618 L 4638,2621 L 4638,2632 L 4638,2636 L 4636,2646 L 4635,2648 L 4635,2649 L 4630,2659 L 4629,2662 L 4622,2671 L 4621,2672 L 4620,2673 L 4612,2681 L 4609,2683 L 4600,2688 L 4598,2689 L 4597,2689 L 4586,2693 L 4583,2693 L 4572,2694 L 4571,2695 z " style="fill-opacity:1.000000;fill:rgb(41,35,190);stroke:rgb(0,0,0);stroke-width:2"/></g>
<g fill-rule="evenodd"><path d="M 4571,2687 L 4467,2687 L 4466,2687 L 4455,2686 L 4454,2685 L 4443,2682 L 4442,2682 L 4442,2681 L 4432,2676 L 4432,2675 L 4431,2675 L 4423,2667 L 4422,2667 L 4422,2666 L 4415,2657 L 4415,2656 L 4410,2646 L 4410,2645 L 4410,2645 L 4407,2634 L 4407,2633 L 4407,2632 L 4407,2621 L 4407,2620 L 4410,2609 L 4410,2608 L 4410,2608 L 4415,2598 L 4415,2597 L 4415,2596 L 4422,2587 L 4423,2586 L 4431,2579 L 4432,2578 L 4432,2578 L 4442,2573 L 4442,2572 L 4443,2572 L 4454,2568 L 4455,2568 L 4466,2567 L 4467,2567 L 4571,2567 L 4572,2567 L 4582,2568 L 4584,2568 L 4594,2572 L 4595,2572 L 4596,2573 L 4605,2578 L 4606,2578 L 4607,2579 L 4615,2586 L 4616,2587 L 4622,2596 L 4623,2597 L 4623,2598 L 4627,2608 L 4628,2608 L 4628,2609 L 4630,2620 L 4630,2621 L 4630,2632 L 4630,2633 L 4630,2634 L 4628,2645 L 4628,2645 L 4627,2646 L 4623,2656 L 4622,2657 L 4616,2666 L 4615,2667 L 4615,2667 L 4607,2675 L 4606,2675 L 4605,2676 L 4596,2681 L 4595,2682 L 4594,2682 L 4584,2685 L 4582,2686 L 4572,2687 L 4571,2687 z " style="fill:none;stroke:rgb(0,0,0);stroke-width:1"/></g>
<g fill-rule="evenodd"><path d="M 5067,1759 L 5171,1759 L 5172,1759 L 5183,1760 L 5186,1761 L 5197,1764 L 5198,1765 L 5200,1766 L 5209,1771 L 5212,1773 L 5220,1780 L 5222,1783 L 5229,1792 L 5229,1793 L 5230,1794 L 5235,1804 L 5235,1806 L 5236,1808 L 5238,1818 L 5238,1821 L 5238,1832 L 5238,1836 L 5236,1846 L 5235,1848 L 5235,1849 L 5230,1859 L 5229,1862 L 5222,1871 L 5221,1872 L 5220,1873 L 5212,1881 L 5209,1883 L 5200,1888 L 5198,1889 L 5197,1889 L 5186,1893 L 5183,1893 L 5172,1895 L 5171,1895 L 5067,1895 L 5065,1895 L 5054,1893 L 5051,1893 L 5041,1889 L 5039,1889 L 5038,1888 L 5028,1883 L 5026,1881 L 5018,1873 L 5016,1872 L 5015,1871 L 5009,1862 L 5007,1859 L 5003,1849 L 5002,1848 L 5002,1846 L 5000,1836 L 4999,1834 L 4999,1832 L 4999,1821 L 5000,1818 L 5002,1808 L 5002,1806 L 5003,1804 L 5007,1794 L 5008,1793 L 5009,1792 L 5015,1783 L 5018,1780 L 5026,1773 L 5028,1771 L 5038,1766 L 5039,1765 L 5041,1764 L 5051,1761 L 5054,1760 L 5065,1759 L 5067,1759 z " style="fill-opacity:1.000000;fill:rgb(132,225,108);stroke:rgb(0,0,0);stroke-width:2"/></g>
<g fill-rule="evenodd"><path d="M 5067,1767 L 5171,1767 L 5172,1767 L 5182,1768 L 5184,1769 L 5194,1772 L 5195,1772 L 5196,1773 L 5205,1778 L 5206,1778 L 5207,1779 L 5215,1786 L 5216,1787 L 5222,1796 L 5223,1797 L 5223,1798 L 5227,1808 L 5228,1808 L 5228,1809 L 5230,1820 L 5230,1821 L 5230,1832 L 5230,1833 L 5230,1834 L 5228,1845 L 5228,1845 L 5227,1846 L 5223,1856 L 5222,1857 L 5216,1866 L 5215,1867 L 5215,1868 L 5207,1875 L 5206,1875 L 5205,1876 L 5196,1881 L 5195,1882 L 5194,1882 L 5184,1885 L 5182,1886 L 5172,1887 L 5171,1887 L 5067,1887 L 5066,1887 L 5055,1886 L 5054,1885 L 5043,1882 L 5042,1882 L 5042,1881 L 5032,1876 L 5032,1875 L 5031,1875 L 5023,1868 L 5022,1867 L 5022,1866 L 5015,1857 L 5015,1856 L 5010,1846 L 5010,1845 L 5010,1845 L 5007,1834 L 5007,1833 L 5007,1832 L 5007,1821 L 5007,1820 L 5010,1809 L 5010,1808 L 5010,1808 L 5015,1798 L 5015,1797 L 5015,1796 L 5022,1787 L 5023,1786 L 5031,1779 L 5032,1778 L 5032,1778 L 5042,1773 L 5042,1772 L 5043,1772 L 5054,1769 L 5055,1768 L 5066,1767 L 5067,1767 z " style="fill:none;stroke:rgb(0,0,0);stroke-width:1"/></g>
<g fill-rule="evenodd"><path d="M 4571,2495 L 4467,2495 L 4465,2494 L 4454,2493 L 4451,2493 L 4441,2489 L 4439,2489 L 4438,2488 L 4428,2483 L 4426,2481 L 4418,2473 L 4416,2472 L 4415,2471 L 4409,2462 L 4407,2459 L 4403,2449 L 4402,2448 L 4402,2446 L 4400,2436 L 4399,2434 L 4399,2432 L 4399,2421 L 4400,2418 L 4402,2407 L 4402,2406 L 4403,2404 L 4407,2394 L 4408,2393 L 4409,2392 L 4415,2383 L 4418,2380 L 4426,2373 L 4428,2371 L 4438,2366 L 4439,2365 L 4441,2364 L 4451,2361 L 4454,2360 L 4465,2359 L 4467,2359 L 4571,2359 L 4572,2359 L 4583,2360 L 4586,2361 L 4597,2364 L 4598,2365 L 4600,2366 L 4609,2371 L 4612,2373 L 4620,2380 L 4622,2383 L 4629,2392 L 4629,2393 L 4630,2394 L 4635,2404 L 4635,2406 L 4636,2407 L 4638,2418 L 4638,2421 L 4638,2432 L 4638,2436 L 4636,2446 L 4635,2448 L 4635,2449 L 4630,2459 L 4629,2462 L 4622,2471 L 4621,2472 L 4620,2473 L 4612,2481 L 4609,2483 L 4600,2488 L 4598,2489 L 4597,2489 L 4586,2493 L 4583,2493 L 4572,2494 L 4571,2495 z " style="fill-opacity:1.000000;fill:rgb(214,174,82);stroke:rgb(0,0,0);stroke-width:2"/></g>
<g fill-rule="evenodd"><path d="M 4571,2487 L 4467,2487 L 4466,2487 L 4455,2486 L 4454,2485 L 4443,2482 L 4442,2482 L 4442,2481 L 4432,2476 L 4432,2475 L 4431,2475 L 4423,2467 L 4422,2467 L 4422,2466 L 4415,2457 L 4415,2456 L 4410,2446 L 4410,2445 L 4410,2445 L 4407,2434 L 4407,2433 L 4407,2432 L 4407,2421 L 4407,2420 L 4410,2409 L 4410,2408 L 4410,2408 L 4415,2398 L 4415,2397 L 4415,2396 L 4422,2387 L 4423,2386 L 4431,2379 L 4432,2378 L 4432,2378 L 4442,2373 L 4442,2372 L 4443,2372 L 4454,2368 L 4455,2368 L 4466,2367 L 4467,2367 L 4571,2367 L 4572,2367 L 4582,2368 L 4584,2368 L 4594,2372 L 4595,2372 L 4596,2373 L 4605,2378 L 4606,2378 L 4607,2379 L 4615,2386 L 4616,2387 L 4622,2396 L 4623,2397 L 4623,2398 L 4627,2408 L 4628,2408 L 4628,2409 L 4630,2420 L 4630,2421 L 4630,2432 L 4630,2433 L 4630,2434 L 4628,2445 L 4628,2445 L 4627,2446 L 4623,2456 L 4622,2457 L 4616,2466 L 4615,2467 L 4615,2467 L 4607,2475 L 4606,2475 L 4605,2476 L 4596,2481 L 4595,2482 L 4594,2482 L 4584,2485 L 4582,2486 L 4572,2487 L 4571,2487 z " style="fill:none;stroke:rgb(0,0,0);stroke-width:1"/></g>
<g fill-rule="evenodd"><path d="M 4467,2159 L 4571,2159 L 4572,2159 L 4583,2160 L 4586,2161 L 4597,2164 L 4598,2165 L 4600,2166 L 4609,2171 L 4612,2173 L 4620,2180 L 4622,2183 L 4629,2192 L 4629,2193 L 4630,2194 L 4635,2204 L 4635,2206 L 4636,2208 L 4638,2218 L 4638,2221 L 4638,2232 L 4638,2236 L 4636,2246 L 4635,2248 L 4635,2249 L 4630,2259 L 4629,2262 L 4622,2271 L 4621,2272 L 4620,2273 L 4612,2281 L 4609,2283 L 4600,2288 L 4598,2289 L 4597,2289 L 4586,2293 L 4583,2293 L 4572,2295 L 4571,2295 L 4467,2295 L 4465,2295 L 4454,2293 L 4451,2293 L 4441,2289 L 4439,2289 L 4438,2288 L 4428,2283 L 4426,2281 L 4418,2273 L 4416,2272 L 4415,2271 L 4409,2262 L 4407,2259 L 4403,2249 L 4402,2248 L 4402,2246 L 4400,2236 L 4399,2234 L 4399,2232 L 4399,2221 L 4400,2218 L 4402,2208 L 4402,2206 L 4403,2204 L 4407,2194 L 4408,2193 L 4409,2192 L 4415,2183 L 4418,2180 L 4426,2173 L 4428,2171 L 4438,2166 L 4439,2165 L 4441,2164 L 4451,2161 L 4454,2160 L 4465,2159 L 4467,2159 z " style="fill-opacity:1.000000;fill:rgb(144,73,241);stroke:rgb(0,0,0);stroke-width:2"/></g>
<g fill-rule="evenodd"><path d="M 4467,2167 L 4571,2167 L 4572,2167 L 4582,2168 L 4584,2168 L 4594,2172 L 4595,2172 L 4596,2173 L 4605,2178 L 4606,2178 L 4607,2179 L 4615,2186 L 4616,2187 L 4622,2196 L 4623,2197 L 4623,2198 L 4627,2208 L 4628,2208 L 4628,2209 L 4630,2220 L 4630,2221 L 4630,2232 L 4630,2233 L 4630,2234 L 4628,2245 L 4628,2245 L 4627,2246 L 4623,2256 L 4622,2257 L 4616,2266 L 4615,2267 L 4615,2267 L 4607,2275 L 4606,2275 L 4605,2276 L 4596,2281 L 4595,2282 L 4594,2282 L 4584,2285 L 4582,2286 L 4572,2287 L 4571,2287 L 4467,2287 L 4466,2287 L 4455,2286 L 4454,2285 L 4443,2282 L 4442,2282 L 4442,2281 L 4432,2276 L 4432,2275 L 4431,2275 L 4423,2267 L 4422,2267 L 4422,2266 L 4415,2257 L 4415,2256 L 4410,2246 L 4410,2245 L 4410,2245 L 4407,2234 L 4407,2233 L 4407,2232 L 4407,2221 L 4407,2220 L 4410,2209 L 4410,2208 L 4410,2208 L 4415,2198 L 4415,2197 L 4415,2196 L 4422,2187 L 4423,2186 L 4431,2179 L 4432,2178 L 4432,2178 L 4442,2173 L 4442,2172 L 4443,2172 L 4454,2168 L 4455,2168 L 4466,2167 L 4467,2167 z " style="fill:none;stroke:rgb(0,0,0);stroke-width:1"/></g>
<g fill-rule="evenodd"><path d="M 4571,2095 L 4467,2095 L 4465,2095 L 4454,2093 L 4451,2093 L 4441,2089 L 4439,2089 L 4438,2088 L 4428,2083 L 4426,2081 L 4418,2073 L 4416,2072 L 4415,2071 L 4409,2062 L 4407,2059 L 4403,2049 L 4402,2048 L 4402,2046 L 4400,2036 L 4399,2034 L 4399,2032 L 4399,2021 L 4400,2018 L 4402,2008 L 4402,2006 L 4403,2004 L 4407,1994 L 4408,1993 L 4409,1992 L 4415,1983 L 4418,1980 L 4426,1973 L 4428,1971 L 4438,1966 L 4439,1965 L 4441,1964 L 4451,1961 L 4454,1960 L 4465,1959 L 4467,1959 L 4571,1959 L 4572,1959 L 4583,1960 L 4586,1961 L 4597,1964 L 4598,1965 L 4600,1966 L 4609,1971 L 4612,1973 L 4620,1980 L 4622,1983 L 4629,1992 L 4629,1993 L 4630,1994 L 4635,2004 L 4635,2006 L 4636,2008 L 4638,2018 L 4638,2021 L 4638,2032 L 4638,2036 L 4636,2046 L 4635,2048 L 4635,2049 L 4630,2059 L 4629,2062 L 4622,2071 L 4621,2072 L 4620,2073 L 4612,2081 L 4609,2083 L 4600,2088 L 4598,2089 L 4597,2089 L 4586,2093 L 4583,2093 L 4572,2095 L 4571,2095 z " style="fill-opacity:1.000000;fill:rgb(241,187,233);stroke:rgb(0,0,0);stroke-width:2"/></g>
<g fill-rule="evenodd"><path d="M 4571,2087 L 4467,2087 L 4466,2087 L 4455,2086 L 4454,2085 L 4443,2082 L 4442,2082 L 4442,2081 L 4432,2076 L 4432,2075 L 4431,2075 L 4423,2067 L 4422,2067 L 4422,2066 L 4415,2057 L 4415,2056 L 4410,2046 L 4410,2045 L 4410,2045 L 4407,2034 L 4407,2033 L 4407,2032 L 4407,2021 L 4407,2020 L 4410,2009 L 4410,2008 L 4410,2008 L 4415,1998 L 4415,1997 L 4415,1996 L 4422,1987 L 4423,1986 L 4431,1979 L 4432,1978 L 4432,1978 L 4442,1973 L 4442,1972 L 4443,1972 L 4454,1969 L 4455,1968 L 4466,1967 L 4467,1967 L 4571,1967 L 4572,1967 L 4582,1968 L 4584,1969 L 4594,1972 L 4595,1972 L 4596,1973 L 4605,1978 L 4606,1978 L 4607,1979 L 4615,1986 L 4616,1987 L 4622,1996 L 4623,1997 L 4623,1998 L 4627,2008 L 4628,2008 L 4628,2009 L 4630,2020 L 4630,2021 L 4630,2032 L 4630,2033 L 4630,2034 L 4628,2045 L 4628,2045 L 4627,2046 L 4623,2056 L 4622,2057 L 4616,2066 L 4615,2067 L 4615,2067 L 4607,2075 L 4606,2075 L 4605,2076 L 4596,2081 L 4595,2082 L 4594,2082 L 4584,2085 L 4582,2086 L 4572,2087 L 4571,2087 z " style="fill:none;stroke:rgb(0,0,0);stroke-width:1"/></g>
<g fill-rule="evenodd"><path d="M 4467,1759 L 4571,1759 L 4572,1759 L 4583,1760 L 4586,1761 L 4597,1764 L 4598,1765 L 4600,1766 L 4609,1771 L 4612,1773 L 4620,1780 L 4622,1783 L 4629,1792 L 4629,1793 L 4630,1794 L 4635,1804 L 4635,1806 L 4636,1808 L 4638,1818 L 4638,1821 L 4638,1832 L 4638,1836 L 4636,1846 L 4635,1848 L 4635,1849 L 4630,1859 L 4629,1862 L 4622,1871 L 4621,1872 L 4620,1873 L 4612,1881 L 4609,1883 L 4600,1888 L 4598,1889 L 4597,1889 L 4586,1893 L 4583,1893 L 4572,1895 L 4571,1895 L 4467,1895 L 4465,1895 L 4454,1893 L 4451,1893 L 4441,1889 L 4439,1889 L 4438,1888 L 4428,1883 L 4426,1881 L 4418,1873 L 4416,1872 L 4415,1871 L 4409,1862 L 4407,1859 L 4403,1849 L 4402,1848 L 4402,1846 L 4400,1836 L 4399,1834 L 4399,1832 L 4399,1821 L 4400,1818 L 4402,1808 L 4402,1806 L 4403,1804 L 4407,1794 L 4408,1793 L 4409,1792 L 4415,1783 L 4418,1780 L 4426,1773 L 4428,1771 L 4438,1766 L 4439,1765 L 4441,1764 L 4451,1761 L 4454,1760 L 4465,1759 L 4467,1759 z " style="fill-opacity:1.000000;fill:rgb(235,179,166);stroke:rgb(0,0,0);stroke-width:2"/></g>
<g fill-rule="evenodd"><path d="M 4467,1767 L 4571,1767 L 4572,1767 L 4582,1768 L 4584,1769 L 4594,1772 L 4595,1772 L 4596,1773 L 4605,1778 L 4606,1778 L 4607,1779 L 4615,1786 L 4616,1787 L 4622,1796 L 4623,1797 L 4623,1798 L 4627,1808 L 4628,1808 L 4628,1809 L 4630,1820 L 4630,1821 L 4630,1832 L 4630,1833 L 4630,1834 L 4628,1845 L 4628,1845 L 4627,1846 L 4623,1856 L 4622,1857 L 4616,1866 L 4615,1867 L 4615,1868 L 4607,1875 L 4606,1875 L 4605,1876 L 4596,1881 L 4595,1882 L 4594,1882 L 4584,1885 L 4582,1886 L 4572,1887 L 4571,1887 L 4467,1887 L 4466,1887 L 4455,1886 L 4454,1885 L 4443,1882 L 4442,1882 L 4442,1881 L 4432,1876 L 4432,1875 L 4431,1875 L 4423,1868 L 4422,1867 L 4422,1866 L 4415,1857 L 4415,1856 L 4410,1846 L 4410,1845 L 4410,1845 L 4407,1834 L 4407,1833 L 4407,1832 L 4407,1821 L 4407,1820 L 4410,1809 L 4410,1808 L 4410,1808 L 4415,1798 L 4415,1797 L 4415,1796 L 4422,1787 L 4423,1786 L 4431,1779 L 4432,1778 L 4432,1778 L 4442,1773 L 4442,1772 L 4443,1772 L 4454,1769 L 4455,1768 L 4466,1767 L 4467,1767 z " style="fill:none;stroke:rgb(0,0,0);stroke-width:1"/></g>
<g fill-rule="evenodd"><path d="M 4571,1695 L 4467,1695 L 4465,1695 L 4454,1693 L 4451,1693 L 4441,1689 L 4439,1689 L 4438,1688 L 4428,1683 L 4426,1681 L 4418,1673 L 4416,1672 L 4415,1671 L 4409,1662 L 4407,1659 L 4403,1649 L 4402,1648 L 4402,1646 L 4400,1636 L 4399,1634 L 4399,1632 L 4399,1621 L 4400,1618 L 4402,1608 L 4402,1606 L 4403,1604 L 4407,1594 L 4408,1593 L 4409,1592 L 4415,1583 L 4418,1580 L 4426,1573 L 4428,1571 L 4438,1566 L 4439,1565 L 4441,1564 L 4451,1561 L 4454,1560 L 4465,1559 L 4467,1559 L 4571,1559 L 4572,1559 L 4583,1560 L 4586,1561 L 4597,1564 L 4598,1565 L 4600,1566 L 4609,1571 L 4612,1573 L 4620,1580 L 4622,1583 L 4629,1592 L 4629,1593 L 4630,1594 L 4635,1604 L 4635,1606 L 4636,1608 L 4638,1618 L 4638,1621 L 4638,1632 L 4638,1636 L 4636,1646 L 4635,1648 L 4635,1649 L 4630,1659 L 4629,1662 L 4622,1671 L 4621,1672 L 4620,1673 L 4612,1681 L 4609,1683 L 4600,1688 L 4598,1689 L 4597,1689 L 4586,1693 L 4583,1693 L 4572,1695 L 4571,1695 z " style="fill-opacity:1.000000;fill:rgb(219,60,135);stroke:rgb(0,0,0);stroke-width:2"/></g>
<g fill-rule="evenodd"><path d="M 4571,1687 L 4467,1687 L 4466,1687 L 4455,1686 L 4454,1685 L 4443,1682 L 4442,1682 L 4442,1681 L 4432,1676 L 4432,1675 L 4431,1675 L 4423,1668 L 4422,1667 L 4422,1666 L 4415,1657 L 4415,1656 L 4410,1646 L 4410,1645 L 4410,1645 L 4407,1634 L 4407,1633 L 4407,1632 L 4407,1621 L 4407,1620 L 4410,1609 L 4410,1608 L 4410,1608 L 4415,1598 L 4415,1597 L 4415,1596 L 4422,1587 L 4423,1586 L 4431,1579 L 4432,1578 L 4432,1578 L 4442,1573 L 4442,1572 L 4443,1572 L 4454,1569 L 4455,1568 L 4466,1567 L 4467,1567 L 4571,1567 L 4572,1567 L 4582,1568 L 4584,1569 L 4594,1572 L 4595,1572 L 4596,1573 L 4605,1578 L 4606,1578 L 4607,1579 L 4615,1586 L 4616,1587 L 4622,1596 L 4623,1597 L 4623,1598 L 4627,1608 L 4628,1608 L 4628,1609 L 4630,1620 L 4630,1621 L 4630,1632 L 4630,1633 L 4630,1634 L 4628,1645 L 4628,1645 L 4627,1646 L 4623,1656 L 4622,1657 L 4616,1666 L 4615,1667 L 4615,1668 L 4607,1675 L 4606,1675 L 4605,1676 L 4596,1681 L 4595,1682 L 4594,1682 L 4584,1685 L 4582,1686 L 4572,1687 L 4571,1687 z " style="fill:none;stroke:rgb(0,0,0);stroke-width:1"/></g>
<g fill-rule="evenodd"><path d="M 3145,3863 L 5085,3863 L 5087,3862 L 5088,3862 L 5093,3859 L 5095,3859 L 5100,3857 L 5101,3857 L 5107,3856 L 5108,3856 L 5114,3855 L 5115,3855 L 5121,3855 L 5122,3855 L 5128,3855 L 5130,3856 L 5135,3857 L 5136,3857 L 5142,3858 L 5143,3859 L 5148,3861 L 5150,3862 L 5155,3864 L 5156,3865 L 5161,3868 L 5162,3869 L 5166,3873 L 5167,3874 L 5171,3877 L 5172,3879 L 5176,3883 L 5177,3884 L 5180,3889 L 5181,3890 L 5183,3895 L 5184,3896 L 5186,3901 L 5187,3903 L 5188,3908 L 5189,3909 L 5190,3915 L 5190,3916 L 5191,3922 L 5191,3923 L 5191,3929 L 5191,3930 L 5190,3936 L 5190,3937 L 5189,3943 L 5189,3944 L 5187,3950 L 5187,3951 L 5184,3956 L 5184,3958 L 5181,3963 L 5181,3964 L 5177,3969 L 5177,3970 L 5173,3974 L 5172,3975 L 5168,3979 L 5167,3980 L 5163,3984 L 5162,3985 L 5157,3988 L 5155,3989 L 5148,3992 L 5146,3993 L 5139,3996 L 5137,3996 L 5129,3998 L 5127,3998 L 5119,3999 L 5117,3999 L 5109,3998 L 5107,3998 L 5100,3996 L 5098,3996 L 5091,3993 L 5089,3992 L 5086,3991 L 3119,3991 L 3117,3990 L 3108,3990 L 3105,3989 L 3096,3986 L 3093,3985 L 3085,3981 L 3082,3979 L 3075,3973 L 3074,3972 L 2697,3595 L 2694,3594 L 2692,3594 L 2685,3590 L 2683,3589 L 2677,3585 L 2675,3584 L 2669,3579 L 2668,3578 L 2663,3573 L 2662,3571 L 2659,3566 L 2658,3565 L 2654,3559 L 2654,3557 L 2651,3551 L 2651,3550 L 2649,3544 L 2649,3542 L 2647,3536 L 2647,3534 L 2647,3528 L 2647,3526 L 2647,3520 L 2647,3518 L 2648,3512 L 2649,3510 L 2650,3504 L 2651,3503 L 2653,3497 L 2654,3495 L 2655,3493 L 2655,2791 L 2655,2791 L 2654,2790 L 2654,2788 L 2650,2777 L 2649,2774 L 2648,2762 L 2648,2761 L 2648,2759 L 2649,2748 L 2650,2744 L 2654,2733 L 2654,2732 L 2655,2730 L 2661,2720 L 2663,2718 L 2670,2709 L 2671,2708 L 2673,2707 L 2682,2700 L 2685,2699 L 2695,2694 L 2697,2693 L 2699,2693 L 2710,2690 L 2711,2690 L 2713,2690 L 2725,2690 L 2726,2690 L 2728,2690 L 2739,2693 L 2741,2693 L 2742,2694 L 2753,2699 L 2756,2700 L 2765,2707 L 2766,2708 L 2767,2709 L 2775,2718 L 2777,2720 L 2783,2730 L 2784,2732 L 2784,2733 L 2788,2744 L 2788,2748 L 2790,2759 L 2790,2761 L 2790,2762 L 2788,2774 L 2788,2777 L 2784,2788 L 2784,2790 L 2783,2791 L 2783,2791 L 2783,3494 L 2785,3498 L 2786,3500 L 2787,3505 L 3145,3863 z " style="fill-opacity:1.000000;fill:rgb(12,62,153);stroke:rgb(0,0,0);stroke-width:2"/></g>
<g fill-rule="evenodd"><path d="M 3142,3871 L 5087,3871 L 5090,3869 L 5091,3869 L 5096,3867 L 5097,3866 L 5102,3865 L 5103,3865 L 5108,3863 L 5109,3863 L 5115,3863 L 5115,3863 L 5121,3863 L 5122,3863 L 5127,3863 L 5128,3863 L 5133,3864 L 5134,3864 L 5139,3866 L 5140,3866 L 5145,3868 L 5146,3869 L 5151,3871 L 5152,3872 L 5156,3875 L 5157,3875 L 5161,3879 L 5162,3879 L 5166,3883 L 5166,3884 L 5170,3888 L 5170,3888 L 5173,3893 L 5174,3894 L 5176,3898 L 5177,3899 L 5179,3904 L 5179,3905 L 5181,3910 L 5181,3911 L 5182,3916 L 5182,3917 L 5183,3923 L 5183,3923 L 5183,3929 L 5183,3930 L 5182,3935 L 5182,3936 L 5181,3941 L 5181,3942 L 5180,3947 L 5179,3948 L 5177,3953 L 5177,3954 L 5174,3959 L 5174,3960 L 5171,3964 L 5170,3965 L 5167,3969 L 5166,3970 L 5163,3974 L 5162,3974 L 5158,3978 L 5157,3978 L 5153,3981 L 5152,3982 L 5145,3985 L 5144,3986 L 5136,3988 L 5135,3989 L 5128,3990 L 5127,3990 L 5119,3991 L 5118,3991 L 5110,3990 L 5109,3990 L 5102,3989 L 5100,3988 L 5093,3986 L 5092,3985 L 5087,3983 L 3119,3983 L 3118,3983 L 3109,3982 L 3107,3981 L 3098,3979 L 3097,3978 L 3088,3974 L 3087,3973 L 3080,3967 L 3079,3966 L 2702,3588 L 2696,3587 L 2695,3586 L 2688,3583 L 2687,3583 L 2681,3579 L 2680,3578 L 2674,3573 L 2674,3572 L 2669,3567 L 2669,3567 L 2665,3561 L 2664,3561 L 2661,3555 L 2661,3554 L 2659,3548 L 2658,3548 L 2656,3542 L 2656,3541 L 2655,3535 L 2655,3534 L 2655,3528 L 2655,3527 L 2655,3520 L 2655,3520 L 2656,3513 L 2656,3513 L 2658,3507 L 2658,3506 L 2661,3500 L 2661,3499 L 2663,3495 L 2663,2789 L 2662,2787 L 2661,2786 L 2661,2786 L 2657,2775 L 2657,2773 L 2656,2762 L 2656,2761 L 2656,2760 L 2657,2748 L 2657,2747 L 2661,2736 L 2661,2735 L 2662,2734 L 2667,2724 L 2668,2724 L 2668,2723 L 2676,2714 L 2677,2714 L 2677,2713 L 2687,2707 L 2688,2706 L 2699,2701 L 2699,2701 L 2700,2701 L 2711,2698 L 2713,2698 L 2725,2698 L 2725,2698 L 2726,2698 L 2738,2701 L 2738,2701 L 2739,2701 L 2750,2706 L 2751,2707 L 2760,2713 L 2761,2714 L 2762,2714 L 2769,2723 L 2770,2724 L 2770,2724 L 2776,2734 L 2776,2735 L 2777,2736 L 2780,2747 L 2781,2748 L 2782,2760 L 2782,2761 L 2782,2762 L 2781,2773 L 2780,2775 L 2777,2786 L 2776,2786 L 2776,2787 L 2775,2789 L 2775,3496 L 2778,3502 L 2778,3503 L 2781,3509 L 3142,3871 z " style="fill:none;stroke:rgb(0,0,0);stroke-width:1"/></g>
<g fill-rule="evenodd"><path d="M 3455,3193 L 3455,560 L 3453,557 L 3452,554 L 3450,547 L 3449,545 L 3448,537 L 3447,535 L 3447,527 L 3447,525 L 3447,519 L 3447,518 L 3448,512 L 3449,511 L 3450,506 L 3451,504 L 3453,499 L 3453,497 L 3456,493 L 3456,491 L 3459,486 L 3460,485 L 3464,481 L 3465,480 L 3468,476 L 3469,475 L 3474,471 L 3475,470 L 3479,467 L 3481,466 L 3485,463 L 3487,462 L 3492,460 L 3493,460 L 3499,458 L 3500,457 L 3505,456 L 3507,456 L 3512,455 L 3514,455 L 3519,455 L 3521,455 L 3526,455 L 3528,455 L 3533,456 L 3535,457 L 3540,458 L 3541,459 L 3547,460 L 3548,461 L 3553,463 L 3554,464 L 3559,467 L 3560,468 L 3564,471 L 3566,472 L 3570,476 L 3571,477 L 3574,481 L 3575,482 L 3578,486 L 3579,487 L 3582,492 L 3583,493 L 3585,498 L 3585,500 L 3587,505 L 3588,506 L 3589,511 L 3589,513 L 3590,518 L 3590,520 L 3591,525 L 3591,527 L 3590,535 L 3590,537 L 3589,545 L 3588,547 L 3585,554 L 3584,557 L 3583,560 L 3583,3194 L 3584,3197 L 3585,3199 L 3588,3206 L 3588,3208 L 3590,3215 L 3590,3217 L 3591,3225 L 3591,3227 L 3590,3235 L 3590,3237 L 3589,3245 L 3588,3247 L 3585,3254 L 3584,3256 L 3581,3263 L 3580,3265 L 3577,3270 L 3576,3271 L 3572,3275 L 3571,3276 L 3567,3280 L 3566,3281 L 3562,3285 L 3561,3285 L 3556,3288 L 3555,3289 L 3550,3292 L 3548,3292 L 3543,3295 L 3542,3295 L 3537,3297 L 3535,3297 L 3530,3298 L 3528,3298 L 3523,3299 L 3521,3299 L 3516,3299 L 3514,3299 L 3508,3298 L 3507,3298 L 3501,3297 L 3500,3296 L 3495,3295 L 3493,3294 L 3488,3292 L 3487,3291 L 3482,3289 L 3481,3288 L 3476,3285 L 3475,3284 L 3471,3280 L 3469,3279 L 3466,3275 L 3465,3274 L 3461,3270 L 3460,3269 L 3457,3264 L 3456,3263 L 3454,3258 L 3453,3256 L 3451,3251 L 3451,3250 L 3449,3244 L 3449,3243 L 3448,3238 L 3447,3236 L 3447,3230 L 3447,3229 L 3447,3223 L 3447,3222 L 3448,3216 L 3448,3215 L 3449,3209 L 3449,3208 L 3451,3203 L 3452,3201 L 3454,3196 L 3454,3195 L 3455,3193 z " style="fill-opacity:1.000000;fill:rgb(36,94,13);stroke:rgb(0,0,0);stroke-width:2"/></g>
<g fill-rule="evenodd"><path d="M 3463,3195 L 3463,558 L 3460,553 L 3460,552 L 3457,544 L 3457,543 L 3455,535 L 3455,534 L 3455,526 L 3455,525 L 3455,520 L 3455,519 L 3456,514 L 3456,513 L 3458,508 L 3458,507 L 3460,502 L 3460,501 L 3463,496 L 3463,495 L 3466,491 L 3466,490 L 3470,486 L 3470,485 L 3474,481 L 3475,480 L 3479,477 L 3479,476 L 3484,473 L 3485,473 L 3489,470 L 3490,470 L 3495,467 L 3496,467 L 3501,465 L 3502,465 L 3507,464 L 3508,464 L 3513,463 L 3514,463 L 3520,463 L 3520,463 L 3526,463 L 3527,463 L 3532,464 L 3533,464 L 3538,466 L 3539,466 L 3544,468 L 3544,468 L 3549,470 L 3550,471 L 3555,474 L 3555,474 L 3560,477 L 3560,478 L 3564,482 L 3565,482 L 3568,486 L 3569,487 L 3572,491 L 3572,492 L 3575,496 L 3575,497 L 3578,502 L 3578,502 L 3580,507 L 3580,508 L 3582,513 L 3582,514 L 3583,519 L 3583,520 L 3583,525 L 3583,526 L 3583,534 L 3582,535 L 3581,543 L 3581,544 L 3578,552 L 3577,553 L 3575,558 L 3575,3195 L 3577,3200 L 3578,3201 L 3580,3209 L 3581,3210 L 3582,3217 L 3582,3218 L 3583,3226 L 3583,3227 L 3583,3235 L 3582,3236 L 3581,3243 L 3581,3244 L 3578,3252 L 3577,3253 L 3574,3260 L 3573,3261 L 3570,3265 L 3570,3266 L 3566,3270 L 3566,3271 L 3562,3274 L 3561,3275 L 3557,3278 L 3556,3279 L 3552,3282 L 3551,3282 L 3546,3285 L 3546,3285 L 3540,3287 L 3540,3287 L 3534,3289 L 3534,3289 L 3528,3290 L 3527,3290 L 3522,3291 L 3521,3291 L 3516,3291 L 3515,3291 L 3509,3290 L 3508,3290 L 3503,3289 L 3502,3289 L 3497,3287 L 3496,3287 L 3491,3285 L 3491,3284 L 3486,3282 L 3485,3281 L 3480,3278 L 3480,3278 L 3476,3274 L 3475,3274 L 3471,3270 L 3471,3269 L 3467,3265 L 3467,3264 L 3464,3260 L 3463,3259 L 3461,3254 L 3460,3253 L 3458,3248 L 3458,3247 L 3457,3242 L 3456,3241 L 3455,3236 L 3455,3235 L 3455,3230 L 3455,3229 L 3455,3224 L 3455,3223 L 3455,3217 L 3456,3216 L 3457,3211 L 3457,3210 L 3458,3205 L 3459,3204 L 3461,3199 L 3461,3198 L 3463,3195 z " style="fill:none;stroke:rgb(0,0,0);stroke-width:1"/></g>
<g fill-rule="evenodd"><path d="M 1593,1463 L 1719,1463 L 1720,1463 L 1730,1464 L 1733,1465 L 1742,1467 L 1745,1469 L 1753,1473 L 1756,1475 L 1763,1481 L 1765,1483 L 1771,1490 L 1773,1493 L 1777,1501 L 1778,1504 L 1781,1513 L 1782,1516 L 1783,1525 L 1783,1527 L 1783,3494 L 1785,3497 L 1786,3499 L 1788,3507 L 1789,3509 L 1790,3517 L 1791,3519 L 1791,3527 L 1791,3529 L 1791,3534 L 1790,3536 L 1790,3541 L 1789,3542 L 1788,3547 L 1788,3549 L 1786,3554 L 1785,3555 L 1783,3560 L 1782,3561 L 1780,3566 L 1779,3567 L 1776,3571 L 1775,3572 L 1771,3576 L 1770,3577 L 1767,3581 L 1766,3582 L 1761,3585 L 1760,3586 L 1756,3589 L 1755,3589 L 1750,3592 L 1749,3592 L 1744,3594 L 1742,3595 L 1737,3596 L 1736,3597 L 1731,3598 L 1729,3598 L 1724,3599 L 1723,3599 L 1717,3599 L 1716,3599 L 1710,3598 L 1708,3598 L 1703,3597 L 1701,3597 L 1696,3595 L 1694,3594 L 1689,3592 L 1688,3592 L 1683,3589 L 1681,3588 L 1677,3585 L 1675,3584 L 1671,3580 L 1670,3579 L 1666,3575 L 1665,3574 L 1661,3570 L 1660,3569 L 1657,3564 L 1656,3562 L 1654,3557 L 1653,3556 L 1651,3551 L 1651,3549 L 1649,3544 L 1649,3542 L 1648,3537 L 1647,3535 L 1647,3529 L 1647,3528 L 1647,3519 L 1648,3517 L 1649,3509 L 1650,3507 L 1652,3499 L 1653,3497 L 1655,3494 L 1655,1591 L 1593,1591 L 1587,1593 L 1583,1593 L 1573,1595 L 1571,1595 L 1467,1595 L 1465,1595 L 1454,1593 L 1451,1593 L 1441,1589 L 1439,1589 L 1438,1588 L 1428,1583 L 1426,1581 L 1418,1573 L 1417,1572 L 1416,1571 L 1409,1562 L 1408,1559 L 1403,1549 L 1403,1548 L 1402,1546 L 1400,1536 L 1400,1534 L 1399,1532 L 1399,1521 L 1400,1518 L 1402,1508 L 1403,1506 L 1403,1504 L 1408,1494 L 1408,1493 L 1409,1492 L 1416,1483 L 1418,1480 L 1426,1473 L 1428,1471 L 1438,1466 L 1439,1465 L 1441,1464 L 1451,1461 L 1454,1460 L 1465,1459 L 1467,1459 L 1571,1459 L 1573,1459 L 1583,1460 L 1587,1461 L 1593,1463 z " style="fill-opacity:1.000000;fill:rgb(28,6,183);stroke:rgb(0,0,0);stroke-width:2"/></g>
<g fill-rule="evenodd"><path d="M 1592,1471 L 1719,1471 L 1720,1471 L 1729,1472 L 1731,1472 L 1740,1475 L 1741,1476 L 1749,1480 L 1751,1481 L 1758,1487 L 1759,1488 L 1765,1495 L 1766,1496 L 1770,1505 L 1771,1506 L 1774,1515 L 1774,1517 L 1775,1526 L 1775,1527 L 1775,3495 L 1778,3501 L 1778,3502 L 1781,3510 L 1781,3511 L 1783,3518 L 1783,3520 L 1783,3528 L 1783,3528 L 1783,3534 L 1783,3534 L 1782,3540 L 1782,3540 L 1780,3545 L 1780,3546 L 1778,3551 L 1778,3552 L 1776,3556 L 1775,3557 L 1773,3562 L 1772,3562 L 1769,3566 L 1769,3567 L 1765,3571 L 1765,3571 L 1761,3575 L 1761,3575 L 1757,3579 L 1756,3579 L 1752,3582 L 1751,3582 L 1746,3585 L 1746,3585 L 1741,3587 L 1740,3587 L 1735,3589 L 1734,3589 L 1729,3590 L 1729,3590 L 1723,3591 L 1723,3591 L 1717,3591 L 1716,3591 L 1711,3590 L 1710,3590 L 1704,3589 L 1703,3589 L 1698,3587 L 1697,3587 L 1692,3585 L 1691,3585 L 1686,3582 L 1686,3582 L 1681,3578 L 1680,3578 L 1676,3574 L 1675,3574 L 1671,3570 L 1671,3569 L 1667,3565 L 1667,3564 L 1664,3559 L 1663,3559 L 1661,3554 L 1660,3553 L 1658,3548 L 1658,3547 L 1657,3542 L 1656,3541 L 1655,3535 L 1655,3535 L 1655,3529 L 1655,3528 L 1655,3520 L 1655,3519 L 1657,3511 L 1657,3510 L 1660,3502 L 1660,3501 L 1663,3495 L 1663,1583 L 1592,1583 L 1584,1585 L 1583,1586 L 1572,1587 L 1571,1587 L 1467,1587 L 1466,1587 L 1455,1586 L 1454,1585 L 1443,1582 L 1443,1582 L 1442,1581 L 1432,1576 L 1432,1575 L 1431,1575 L 1423,1568 L 1422,1567 L 1422,1566 L 1416,1557 L 1415,1556 L 1410,1546 L 1410,1545 L 1410,1545 L 1408,1534 L 1407,1533 L 1407,1532 L 1407,1521 L 1408,1520 L 1410,1509 L 1410,1508 L 1410,1508 L 1415,1498 L 1415,1497 L 1416,1496 L 1422,1487 L 1423,1486 L 1431,1479 L 1432,1478 L 1432,1478 L 1442,1473 L 1443,1472 L 1443,1472 L 1454,1469 L 1455,1468 L 1466,1467 L 1467,1467 L 1571,1467 L 1572,1467 L 1583,1468 L 1584,1469 L 1592,1471 z " style="fill:none;stroke:rgb(0,0,0);stroke-width:1"/></g>
<g fill-rule="evenodd"><path d="M 0,1932 L 0,1921 L 0,1918 L 2,1908 L 3,1906 L 3,1904 L 8,1894 L 8,1893 L 9,1892 L 16,1883 L 18,1880 L 26,1873 L 29,1871 L 38,1866 L 39,1865 L 41,1864 L 51,1861 L 55,1860 L 55,1860 L 55,337 L 55,335 L 56,325 L 57,322 L 59,315 L 60,313 L 65,304 L 66,302 L 67,301 L 73,293 L 74,292 L 284,82 L 285,81 L 292,75 L 295,73 L 303,69 L 306,68 L 315,65 L 318,64 L 327,63 L 329,63 L 661,63 L 663,62 L 674,53 L 676,52 L 677,52 L 691,46 L 692,45 L 694,45 L 708,41 L 712,41 L 726,41 L 730,41 L 744,45 L 746,45 L 747,46 L 761,52 L 762,52 L 763,53 L 775,62 L 777,63 L 778,64 L 788,75 L 789,76 L 790,78 L 797,90 L 798,93 L 803,107 L 804,111 L 805,125 L 805,127 L 805,129 L 804,143 L 803,146 L 798,160 L 797,163 L 790,176 L 789,178 L 788,179 L 778,190 L 775,192 L 763,201 L 762,202 L 761,202 L 747,208 L 746,209 L 744,209 L 730,212 L 726,213 L 712,213 L 708,212 L 694,209 L 692,209 L 691,208 L 677,202 L 676,202 L 674,201 L 663,192 L 661,191 L 661,191 L 355,191 L 183,363 L 183,1263 L 1445,1263 L 1451,1261 L 1454,1260 L 1465,1259 L 1467,1259 L 1571,1259 L 1573,1259 L 1583,1260 L 1587,1261 L 1597,1264 L 1598,1265 L 1600,1266 L 1609,1271 L 1612,1273 L 1620,1280 L 1622,1283 L 1629,1292 L 1630,1293 L 1630,1294 L 1635,1304 L 1635,1306 L 1636,1308 L 1638,1318 L 1638,1321 L 1638,1332 L 1638,1336 L 1636,1346 L 1635,1348 L 1635,1349 L 1630,1359 L 1629,1362 L 1622,1371 L 1621,1372 L 1620,1373 L 1612,1381 L 1609,1383 L 1600,1388 L 1598,1389 L 1597,1389 L 1587,1393 L 1583,1393 L 1573,1395 L 1571,1395 L 1467,1395 L 1465,1395 L 1454,1393 L 1451,1393 L 1445,1391 L 183,1391 L 183,1860 L 183,1860 L 187,1861 L 197,1864 L 199,1865 L 200,1866 L 209,1871 L 212,1873 L 220,1880 L 222,1883 L 229,1892 L 230,1893 L 230,1894 L 235,1904 L 235,1906 L 236,1908 L 238,1918 L 238,1921 L 238,1932 L 238,1936 L 236,1946 L 235,1948 L 235,1949 L 230,1959 L 229,1962 L 222,1971 L 221,1972 L 220,1973 L 212,1981 L 209,1983 L 200,1988 L 199,1989 L 197,1989 L 187,1993 L 183,1993 L 173,1995 L 171,1995 L 67,1995 L 65,1995 L 55,1993 L 51,1993 L 41,1989 L 39,1989 L 38,1988 L 29,1983 L 26,1981 L 18,1973 L 17,1972 L 16,1971 L 9,1962 L 8,1959 L 3,1949 L 3,1948 L 2,1946 L 0,1936 L 0,1934 L 0,1932 z " style="fill-opacity:1.000000;fill:rgb(71,222,179);stroke:rgb(0,0,0);stroke-width:2"/></g>
<g fill-rule="evenodd"><path d="M 175,1271 L 1446,1271 L 1454,1269 L 1455,1268 L 1466,1267 L 1467,1267 L 1571,1267 L 1572,1267 L 1583,1268 L 1584,1269 L 1595,1272 L 1595,1272 L 1596,1273 L 1605,1278 L 1606,1278 L 1607,1279 L 1615,1286 L 1616,1287 L 1622,1296 L 1623,1297 L 1623,1298 L 1628,1308 L 1628,1308 L 1628,1309 L 1630,1320 L 1631,1321 L 1631,1332 L 1630,1333 L 1630,1334 L 1628,1345 L 1628,1345 L 1628,1346 L 1623,1356 L 1622,1358 L 1616,1366 L 1615,1367 L 1615,1368 L 1607,1375 L 1606,1375 L 1605,1376 L 1596,1381 L 1595,1382 L 1595,1382 L 1584,1385 L 1583,1386 L 1572,1387 L 1571,1387 L 1467,1387 L 1466,1387 L 1455,1386 L 1454,1385 L 1446,1383 L 175,1383 L 175,1867 L 183,1868 L 184,1869 L 195,1872 L 195,1872 L 196,1873 L 205,1878 L 206,1878 L 207,1879 L 215,1886 L 216,1887 L 222,1896 L 223,1897 L 223,1898 L 228,1908 L 228,1908 L 228,1909 L 230,1920 L 231,1921 L 231,1932 L 231,1933 L 230,1934 L 228,1945 L 228,1945 L 228,1946 L 223,1956 L 222,1957 L 216,1966 L 215,1967 L 215,1968 L 207,1975 L 206,1975 L 205,1976 L 196,1981 L 195,1982 L 195,1982 L 184,1985 L 183,1986 L 172,1987 L 171,1987 L 67,1987 L 66,1987 L 55,1986 L 54,1985 L 43,1982 L 43,1982 L 42,1981 L 32,1976 L 32,1975 L 31,1975 L 23,1968 L 23,1967 L 22,1966 L 16,1957 L 15,1956 L 10,1946 L 10,1945 L 10,1945 L 8,1934 L 7,1933 L 7,1932 L 7,1921 L 8,1920 L 10,1909 L 10,1908 L 10,1908 L 15,1898 L 15,1897 L 16,1896 L 22,1887 L 23,1886 L 31,1879 L 32,1878 L 32,1878 L 42,1873 L 43,1872 L 43,1872 L 54,1869 L 55,1868 L 63,1867 L 63,337 L 63,336 L 64,326 L 64,325 L 67,317 L 67,316 L 72,307 L 72,306 L 73,306 L 79,298 L 79,297 L 289,87 L 290,87 L 297,81 L 299,80 L 307,76 L 308,75 L 317,72 L 319,72 L 328,71 L 329,71 L 664,71 L 666,69 L 667,68 L 679,60 L 680,59 L 681,59 L 694,53 L 695,52 L 696,52 L 710,49 L 712,49 L 726,49 L 727,49 L 728,49 L 742,52 L 743,52 L 744,53 L 757,59 L 759,60 L 771,68 L 772,69 L 782,80 L 782,81 L 783,82 L 790,94 L 791,95 L 791,96 L 795,110 L 796,111 L 797,126 L 797,128 L 796,142 L 795,144 L 791,158 L 791,159 L 790,160 L 783,172 L 782,173 L 782,174 L 772,185 L 771,186 L 759,194 L 758,195 L 757,195 L 744,201 L 743,201 L 742,202 L 728,205 L 727,205 L 726,205 L 712,205 L 710,205 L 696,202 L 695,201 L 694,201 L 681,195 L 679,194 L 667,186 L 667,185 L 666,185 L 664,183 L 352,183 L 175,360 L 175,1271 z " style="fill:none;stroke:rgb(0,0,0);stroke-width:1"/></g>
<g fill-rule="evenodd"><path d="M 1945,263 L 3486,263 L 3489,261 L 3491,260 L 3499,258 L 3501,257 L 3509,256 L 3511,255 L 3519,255 L 3521,255 L 3528,255 L 3530,256 L 3537,257 L 3539,258 L 3545,260 L 3547,261 L 3554,264 L 3556,265 L 3562,269 L 3563,270 L 3569,275 L 3570,276 L 3575,282 L 3576,283 L 3580,289 L 3581,291 L 3584,297 L 3585,299 L 3588,306 L 3588,307 L 3590,314 L 3590,316 L 3591,323 L 3591,325 L 3591,333 L 3590,335 L 3589,341 L 3589,343 L 3587,350 L 3586,352 L 3584,358 L 3583,360 L 3579,366 L 3578,368 L 3574,374 L 3572,375 L 3567,380 L 3566,382 L 3560,386 L 3559,387 L 3552,391 L 3551,391 L 3544,394 L 3542,395 L 3536,397 L 3534,397 L 3527,399 L 3524,399 L 3515,399 L 3513,399 L 3504,397 L 3501,397 L 3493,394 L 3490,393 L 3486,391 L 2783,391 L 2783,2063 L 3019,2063 L 3020,2063 L 3030,2064 L 3033,2065 L 3042,2067 L 3045,2069 L 3053,2073 L 3056,2075 L 3063,2081 L 3065,2083 L 3071,2090 L 3073,2093 L 3077,2101 L 3078,2104 L 3081,2113 L 3082,2116 L 3083,2125 L 3083,2127 L 3083,3300 L 3345,3563 L 4055,3563 L 4055,2927 L 4055,2925 L 4056,2916 L 4057,2913 L 4059,2904 L 4061,2901 L 4065,2893 L 4067,2890 L 4073,2883 L 4075,2881 L 4082,2875 L 4085,2873 L 4093,2869 L 4096,2867 L 4105,2865 L 4108,2864 L 4117,2863 L 4119,2863 L 4592,2863 L 4755,2700 L 4755,2327 L 4755,2325 L 4756,2315 L 4757,2312 L 4760,2302 L 4761,2300 L 4765,2293 L 4766,2291 L 4773,2283 L 4774,2282 L 4874,2182 L 4875,2181 L 4882,2175 L 4885,2173 L 4893,2169 L 4896,2167 L 4905,2165 L 4908,2164 L 4917,2163 L 4919,2163 L 5045,2163 L 5051,2161 L 5054,2160 L 5065,2159 L 5067,2159 L 5171,2159 L 5172,2159 L 5183,2160 L 5186,2161 L 5197,2164 L 5198,2165 L 5200,2166 L 5209,2171 L 5212,2173 L 5220,2180 L 5222,2183 L 5229,2192 L 5229,2193 L 5230,2194 L 5235,2204 L 5235,2206 L 5236,2208 L 5238,2218 L 5238,2221 L 5238,2232 L 5238,2236 L 5236,2246 L 5235,2248 L 5235,2249 L 5230,2259 L 5229,2262 L 5222,2271 L 5221,2272 L 5220,2273 L 5212,2281 L 5209,2283 L 5200,2288 L 5198,2289 L 5197,2289 L 5186,2293 L 5183,2293 L 5172,2295 L 5171,2295 L 5067,2295 L 5065,2295 L 5054,2293 L 5051,2293 L 5045,2291 L 4945,2291 L 4883,2353 L 4883,2727 L 4882,2728 L 4882,2738 L 4881,2741 L 4878,2750 L 4877,2753 L 4873,2761 L 4871,2763 L 4865,2771 L 4864,2772 L 4664,2972 L 4663,2973 L 4655,2979 L 4652,2981 L 4646,2985 L 4643,2986 L 4634,2989 L 4630,2989 L 4620,2990 L 4619,2991 L 4183,2991 L 4183,3627 L 4182,3628 L 4182,3638 L 4181,3641 L 4178,3650 L 4177,3653 L 4173,3661 L 4171,3663 L 4165,3671 L 4163,3673 L 4155,3679 L 4153,3681 L 4145,3685 L 4142,3686 L 4133,3689 L 4130,3690 L 4120,3690 L 4119,3691 L 3319,3691 L 3317,3690 L 3308,3690 L 3305,3689 L 3296,3686 L 3293,3685 L 3285,3681 L 3282,3679 L 3275,3673 L 3274,3672 L 2974,3372 L 2973,3371 L 2967,3363 L 2965,3361 L 2961,3353 L 2959,3350 L 2957,3341 L 2956,3338 L 2955,3328 L 2955,3327 L 2955,2191 L 2783,2191 L 2783,2462 L 2783,2463 L 2784,2466 L 2788,2477 L 2788,2480 L 2790,2491 L 2790,2493 L 2790,2495 L 2788,2506 L 2788,2509 L 2784,2520 L 2784,2522 L 2783,2523 L 2777,2533 L 2775,2536 L 2767,2544 L 2766,2546 L 2765,2547 L 2756,2553 L 2753,2555 L 2742,2560 L 2741,2560 L 2739,2561 L 2728,2563 L 2726,2563 L 2725,2564 L 2713,2564 L 2710,2563 L 2699,2561 L 2697,2560 L 2695,2560 L 2685,2555 L 2682,2553 L 2673,2547 L 2671,2546 L 2670,2544 L 2663,2536 L 2661,2533 L 2655,2523 L 2654,2522 L 2654,2520 L 2650,2509 L 2649,2506 L 2648,2495 L 2648,2493 L 2648,2491 L 2649,2480 L 2650,2477 L 2654,2466 L 2654,2464 L 2655,2463 L 2655,2462 L 2655,2191 L 2152,2191 L 2148,2193 L 2146,2194 L 2137,2196 L 2135,2197 L 2126,2198 L 2124,2199 L 2116,2199 L 2113,2199 L 2104,2197 L 2101,2197 L 2093,2194 L 2090,2193 L 2082,2189 L 2080,2187 L 2072,2182 L 2070,2180 L 2064,2173 L 2062,2171 L 2057,2164 L 2056,2161 L 2052,2153 L 2051,2150 L 2048,2141 L 2048,2139 L 2047,2134 L 2047,2132 L 2047,2126 L 2047,2125 L 2047,2119 L 2048,2117 L 2049,2111 L 2049,2110 L 2051,2104 L 2051,2102 L 2053,2097 L 2054,2096 L 2057,2090 L 2058,2089 L 2061,2084 L 2062,2083 L 2066,2078 L 2067,2077 L 2071,2073 L 2072,2072 L 2077,2068 L 2078,2067 L 2083,2064 L 2085,2064 L 2090,2061 L 2091,2060 L 2097,2058 L 2098,2058 L 2104,2056 L 2105,2056 L 2111,2055 L 2113,2055 L 2122,2055 L 2125,2055 L 2134,2056 L 2136,2057 L 2145,2060 L 2147,2061 L 2152,2063 L 2655,2063 L 2655,391 L 1919,391 L 1917,391 L 1908,390 L 1905,389 L 1896,386 L 1893,385 L 1885,381 L 1882,379 L 1875,373 L 1874,372 L 1693,191 L 1377,191 L 1375,192 L 1363,201 L 1362,202 L 1361,202 L 1347,208 L 1346,209 L 1344,209 L 1330,212 L 1326,213 L 1312,213 L 1308,212 L 1294,209 L 1292,209 L 1291,208 L 1277,202 L 1276,202 L 1274,201 L 1263,192 L 1261,191 L 1260,190 L 1250,179 L 1249,178 L 1248,176 L 1241,163 L 1240,160 L 1235,146 L 1234,143 L 1233,129 L 1233,127 L 1233,125 L 1234,111 L 1235,107 L 1240,93 L 1241,90 L 1248,78 L 1249,76 L 1250,75 L 1260,64 L 1263,62 L 1274,53 L 1276,52 L 1277,52 L 1291,46 L 1292,45 L 1294,45 L 1308,41 L 1312,41 L 1326,41 L 1330,41 L 1344,45 L 1346,45 L 1347,46 L 1361,52 L 1362,52 L 1363,53 L 1375,62 L 1377,63 L 1377,63 L 1719,63 L 1720,63 L 1730,64 L 1733,65 L 1742,68 L 1745,69 L 1753,73 L 1756,75 L 1763,81 L 1764,82 L 1945,263 z " style="fill-opacity:1.000000;fill:rgb(18,77,200);stroke:rgb(0,0,0);stroke-width:2"/></g>
<g fill-rule="evenodd"><path d="M 1942,271 L 3488,271 L 3493,268 L 3494,268 L 3501,265 L 3502,265 L 3510,263 L 3511,263 L 3519,263 L 3520,263 L 3527,263 L 3528,263 L 3535,265 L 3536,265 L 3543,267 L 3544,268 L 3550,271 L 3551,272 L 3557,276 L 3558,276 L 3563,281 L 3564,281 L 3569,287 L 3570,288 L 3574,294 L 3574,294 L 3577,301 L 3578,302 L 3580,308 L 3581,309 L 3582,316 L 3582,317 L 3583,324 L 3583,325 L 3583,332 L 3583,333 L 3582,340 L 3581,341 L 3579,348 L 3579,349 L 3576,355 L 3576,356 L 3572,362 L 3572,363 L 3567,369 L 3567,370 L 3562,375 L 3561,375 L 3555,380 L 3555,380 L 3548,384 L 3548,384 L 3541,387 L 3540,387 L 3533,389 L 3532,390 L 3525,391 L 3524,391 L 3515,391 L 3514,391 L 3505,390 L 3504,389 L 3495,386 L 3494,386 L 3488,383 L 2775,383 L 2775,2071 L 3019,2071 L 3020,2071 L 3029,2072 L 3031,2072 L 3040,2075 L 3041,2076 L 3049,2080 L 3051,2081 L 3058,2087 L 3059,2088 L 3065,2095 L 3066,2096 L 3070,2105 L 3071,2106 L 3073,2115 L 3074,2117 L 3075,2126 L 3075,2127 L 3075,3304 L 3342,3571 L 4063,3571 L 4063,2927 L 4063,2926 L 4064,2917 L 4064,2915 L 4067,2906 L 4068,2905 L 4072,2896 L 4073,2895 L 4079,2888 L 4080,2887 L 4087,2881 L 4088,2880 L 4097,2876 L 4098,2875 L 4107,2872 L 4109,2872 L 4118,2871 L 4119,2871 L 4596,2871 L 4763,2704 L 4763,2327 L 4763,2326 L 4764,2316 L 4764,2314 L 4767,2305 L 4768,2304 L 4772,2297 L 4772,2296 L 4779,2288 L 4779,2287 L 4879,2187 L 4880,2187 L 4887,2181 L 4888,2180 L 4897,2176 L 4898,2175 L 4907,2172 L 4909,2172 L 4918,2171 L 4919,2171 L 5046,2171 L 5054,2168 L 5055,2168 L 5066,2167 L 5067,2167 L 5171,2167 L 5172,2167 L 5182,2168 L 5184,2168 L 5194,2172 L 5195,2172 L 5196,2173 L 5205,2178 L 5206,2178 L 5207,2179 L 5215,2186 L 5216,2187 L 5222,2196 L 5223,2197 L 5223,2198 L 5227,2208 L 5228,2208 L 5228,2209 L 5230,2220 L 5230,2221 L 5230,2232 L 5230,2233 L 5230,2234 L 5228,2245 L 5228,2245 L 5227,2246 L 5223,2256 L 5222,2257 L 5216,2266 L 5215,2267 L 5215,2267 L 5207,2275 L 5206,2275 L 5205,2276 L 5196,2281 L 5195,2282 L 5194,2282 L 5184,2285 L 5182,2286 L 5172,2287 L 5171,2287 L 5067,2287 L 5066,2287 L 5055,2286 L 5054,2285 L 5046,2283 L 4942,2283 L 4875,2350 L 4875,2727 L 4875,2728 L 4874,2737 L 4873,2738 L 4871,2747 L 4870,2749 L 4866,2757 L 4865,2758 L 4859,2766 L 4858,2766 L 4658,2966 L 4658,2967 L 4650,2973 L 4649,2974 L 4642,2978 L 4641,2978 L 4631,2981 L 4630,2982 L 4620,2983 L 4619,2983 L 4175,2983 L 4175,3627 L 4175,3628 L 4174,3637 L 4173,3638 L 4171,3647 L 4170,3649 L 4166,3657 L 4165,3658 L 4159,3666 L 4158,3667 L 4150,3673 L 4149,3674 L 4141,3678 L 4139,3679 L 4130,3681 L 4129,3682 L 4120,3683 L 4119,3683 L 3319,3683 L 3318,3683 L 3309,3682 L 3307,3681 L 3298,3679 L 3297,3678 L 3288,3674 L 3287,3673 L 3280,3667 L 3279,3666 L 2979,3366 L 2979,3366 L 2973,3358 L 2972,3357 L 2968,3349 L 2967,3347 L 2964,3338 L 2964,3337 L 2963,3328 L 2963,3327 L 2963,2183 L 2775,2183 L 2775,2464 L 2776,2467 L 2776,2467 L 2777,2468 L 2780,2479 L 2781,2481 L 2782,2492 L 2782,2493 L 2782,2494 L 2781,2505 L 2780,2507 L 2777,2518 L 2776,2519 L 2776,2519 L 2770,2529 L 2770,2530 L 2769,2531 L 2762,2539 L 2761,2540 L 2760,2540 L 2751,2547 L 2750,2548 L 2739,2553 L 2738,2553 L 2738,2553 L 2726,2555 L 2725,2556 L 2725,2556 L 2713,2556 L 2711,2555 L 2700,2553 L 2699,2553 L 2699,2553 L 2688,2548 L 2687,2547 L 2677,2540 L 2677,2540 L 2676,2539 L 2668,2531 L 2668,2530 L 2667,2529 L 2662,2519 L 2661,2519 L 2661,2518 L 2657,2507 L 2657,2505 L 2656,2494 L 2656,2493 L 2656,2492 L 2657,2481 L 2657,2479 L 2661,2468 L 2661,2467 L 2662,2467 L 2663,2464 L 2663,2183 L 2150,2183 L 2144,2186 L 2143,2186 L 2135,2189 L 2134,2189 L 2125,2191 L 2124,2191 L 2116,2191 L 2114,2191 L 2105,2189 L 2104,2189 L 2095,2186 L 2094,2186 L 2085,2182 L 2084,2181 L 2077,2175 L 2076,2175 L 2070,2168 L 2069,2167 L 2063,2159 L 2063,2158 L 2059,2149 L 2058,2148 L 2056,2139 L 2056,2138 L 2055,2132 L 2055,2132 L 2055,2126 L 2055,2125 L 2055,2119 L 2055,2118 L 2056,2113 L 2057,2112 L 2058,2106 L 2058,2105 L 2061,2100 L 2061,2099 L 2064,2094 L 2064,2093 L 2067,2089 L 2068,2088 L 2072,2083 L 2072,2083 L 2076,2079 L 2077,2078 L 2082,2075 L 2082,2074 L 2087,2071 L 2088,2071 L 2093,2068 L 2094,2068 L 2099,2066 L 2100,2065 L 2106,2064 L 2107,2064 L 2112,2063 L 2113,2063 L 2123,2063 L 2124,2063 L 2133,2064 L 2134,2065 L 2143,2067 L 2144,2068 L 2150,2071 L 2663,2071 L 2663,383 L 1919,383 L 1918,383 L 1909,382 L 1907,382 L 1898,379 L 1897,378 L 1889,374 L 1887,373 L 1880,367 L 1879,366 L 1696,183 L 1374,183 L 1372,185 L 1371,186 L 1359,194 L 1358,195 L 1357,195 L 1344,201 L 1343,201 L 1342,202 L 1328,205 L 1327,205 L 1326,205 L 1312,205 L 1310,205 L 1296,202 L 1295,201 L 1294,201 L 1281,195 L 1279,194 L 1267,186 L 1266,185 L 1256,174 L 1256,173 L 1255,172 L 1248,160 L 1247,159 L 1247,158 L 1243,144 L 1242,142 L 1241,128 L 1241,127 L 1241,126 L 1242,111 L 1242,111 L 1243,110 L 1247,96 L 1247,95 L 1248,94 L 1255,82 L 1256,81 L 1256,80 L 1266,69 L 1267,68 L 1279,60 L 1280,59 L 1281,59 L 1294,53 L 1295,52 L 1296,52 L 1310,49 L 1312,49 L 1326,49 L 1327,49 L 1328,49 L 1342,52 L 1343,52 L 1344,53 L 1357,59 L 1359,60 L 1371,68 L 1371,69 L 1372,69 L 1374,71 L 1719,71 L 1720,71 L 1729,72 L 1731,72 L 1740,75 L 1741,76 L 1749,80 L 1751,81 L 1758,87 L 1758,87 L 1942,271 z " style="fill:none;stroke:rgb(0,0,0);stroke-width:1"/></g>
<g fill-rule="evenodd"><path d="M 5483,2363 L 5685,2363 L 5689,2361 L 5691,2361 L 5698,2358 L 5700,2357 L 5707,2356 L 5709,2355 L 5717,2355 L 5719,2355 L 5727,2355 L 5729,2356 L 5737,2357 L 5739,2358 L 5746,2360 L 5748,2361 L 5752,2363 L 6119,2363 L 6120,2363 L 6130,2364 L 6133,2365 L 6142,2367 L 6145,2369 L 6153,2373 L 6155,2375 L 6163,2381 L 6165,2383 L 6171,2390 L 6173,2393 L 6177,2401 L 6178,2404 L 6181,2413 L 6181,2416 L 6182,2425 L 6182,2427 L 6182,3305 L 6185,3311 L 6185,3314 L 6186,3325 L 6186,3327 L 6186,3328 L 6185,3339 L 6185,3342 L 6181,3353 L 6181,3354 L 6180,3356 L 6174,3365 L 6173,3368 L 6165,3376 L 6163,3378 L 6154,3385 L 6153,3385 L 6151,3386 L 6141,3391 L 6140,3391 L 6138,3392 L 6127,3394 L 6124,3394 L 6113,3394 L 6110,3394 L 6099,3392 L 6098,3391 L 6096,3391 L 6086,3386 L 6083,3385 L 6075,3378 L 6073,3377 L 6072,3376 L 6065,3368 L 6063,3365 L 6058,3356 L 6057,3354 L 6056,3353 L 6053,3342 L 6052,3339 L 6051,3328 L 6051,3327 L 6051,3325 L 6052,3314 L 6053,3311 L 6055,3305 L 6055,2491 L 5752,2491 L 5749,2492 L 5747,2493 L 5740,2496 L 5738,2496 L 5730,2498 L 5728,2498 L 5720,2499 L 5718,2499 L 5710,2498 L 5708,2498 L 5701,2497 L 5699,2496 L 5691,2493 L 5689,2492 L 5686,2491 L 5193,2491 L 5186,2493 L 5183,2493 L 5172,2494 L 5171,2495 L 5067,2495 L 5065,2494 L 5054,2493 L 5051,2493 L 5041,2489 L 5039,2489 L 5038,2488 L 5028,2483 L 5026,2481 L 5018,2473 L 5016,2472 L 5015,2471 L 5009,2462 L 5007,2459 L 5003,2449 L 5002,2448 L 5002,2446 L 5000,2436 L 4999,2434 L 4999,2432 L 4999,2421 L 5000,2418 L 5002,2407 L 5002,2406 L 5003,2404 L 5007,2394 L 5008,2393 L 5009,2392 L 5015,2383 L 5018,2380 L 5026,2373 L 5028,2371 L 5038,2366 L 5039,2365 L 5041,2364 L 5051,2361 L 5054,2360 L 5065,2359 L 5067,2359 L 5171,2359 L 5172,2359 L 5183,2360 L 5186,2361 L 5193,2363 L 5355,2363 L 5355,1691 L 5193,1691 L 5186,1693 L 5183,1693 L 5172,1695 L 5171,1695 L 5067,1695 L 5065,1695 L 5054,1693 L 5051,1693 L 5041,1689 L 5039,1689 L 5038,1688 L 5028,1683 L 5026,1681 L 5018,1673 L 5016,1672 L 5015,1671 L 5009,1662 L 5007,1659 L 5003,1649 L 5002,1648 L 5002,1646 L 5000,1636 L 4999,1634 L 4999,1632 L 4999,1621 L 5000,1618 L 5002,1608 L 5002,1606 L 5003,1604 L 5007,1594 L 5008,1593 L 5009,1592 L 5015,1583 L 5018,1580 L 5026,1573 L 5028,1571 L 5038,1566 L 5039,1565 L 5041,1564 L 5051,1561 L 5054,1560 L 5065,1559 L 5067,1559 L 5171,1559 L 5172,1559 L 5183,1560 L 5186,1561 L 5193,1563 L 5419,1563 L 5420,1563 L 5430,1564 L 5433,1565 L 5442,1567 L 5445,1569 L 5453,1573 L 5455,1575 L 5463,1581 L 5465,1583 L 5471,1590 L 5473,1593 L 5477,1601 L 5478,1604 L 5481,1613 L 5482,1616 L 5482,1625 L 5483,1627 L 5483,2363 z " style="fill-opacity:1.000000;fill:rgb(67,187,139);stroke:rgb(0,0,0);stroke-width:2"/></g>
<g fill-rule="evenodd"><path d="M 5475,2371 L 5687,2371 L 5692,2368 L 5693,2368 L 5700,2365 L 5701,2365 L 5709,2363 L 5710,2363 L 5718,2363 L 5719,2363 L 5727,2363 L 5728,2363 L 5735,2365 L 5736,2365 L 5744,2368 L 5745,2368 L 5750,2371 L 6119,2371 L 6120,2371 L 6129,2372 L 6130,2372 L 6139,2375 L 6141,2376 L 6149,2380 L 6150,2381 L 6158,2387 L 6159,2388 L 6165,2395 L 6166,2396 L 6170,2405 L 6171,2406 L 6173,2415 L 6174,2417 L 6175,2426 L 6175,2427 L 6175,3306 L 6177,3314 L 6177,3315 L 6179,3326 L 6179,3327 L 6179,3328 L 6177,3338 L 6177,3340 L 6174,3350 L 6173,3351 L 6173,3352 L 6168,3361 L 6167,3362 L 6167,3363 L 6159,3371 L 6158,3372 L 6149,3378 L 6149,3379 L 6148,3379 L 6138,3383 L 6137,3384 L 6136,3384 L 6126,3386 L 6125,3386 L 6124,3386 L 6113,3386 L 6112,3386 L 6101,3384 L 6100,3384 L 6099,3383 L 6090,3379 L 6088,3378 L 6079,3372 L 6079,3371 L 6078,3371 L 6071,3363 L 6070,3362 L 6070,3361 L 6064,3352 L 6064,3351 L 6064,3350 L 6060,3340 L 6060,3338 L 6059,3328 L 6059,3327 L 6059,3326 L 6060,3315 L 6060,3314 L 6063,3306 L 6063,2483 L 5750,2483 L 5745,2485 L 5744,2486 L 5737,2488 L 5736,2489 L 5729,2490 L 5727,2490 L 5720,2491 L 5719,2491 L 5711,2490 L 5710,2490 L 5702,2489 L 5701,2489 L 5694,2486 L 5693,2485 L 5687,2483 L 5192,2483 L 5184,2485 L 5182,2486 L 5172,2487 L 5171,2487 L 5067,2487 L 5066,2487 L 5055,2486 L 5054,2485 L 5043,2482 L 5042,2482 L 5042,2481 L 5032,2476 L 5032,2475 L 5031,2475 L 5023,2467 L 5022,2467 L 5022,2466 L 5015,2457 L 5015,2456 L 5010,2446 L 5010,2445 L 5010,2445 L 5007,2434 L 5007,2433 L 5007,2432 L 5007,2421 L 5007,2420 L 5010,2409 L 5010,2408 L 5010,2408 L 5015,2398 L 5015,2397 L 5015,2396 L 5022,2387 L 5023,2386 L 5031,2379 L 5032,2378 L 5032,2378 L 5042,2373 L 5042,2372 L 5043,2372 L 5054,2368 L 5055,2368 L 5066,2367 L 5067,2367 L 5171,2367 L 5172,2367 L 5182,2368 L 5184,2368 L 5192,2371 L 5363,2371 L 5363,1683 L 5192,1683 L 5184,1685 L 5182,1686 L 5172,1687 L 5171,1687 L 5067,1687 L 5066,1687 L 5055,1686 L 5054,1685 L 5043,1682 L 5042,1682 L 5042,1681 L 5032,1676 L 5032,1675 L 5031,1675 L 5023,1668 L 5022,1667 L 5022,1666 L 5015,1657 L 5015,1656 L 5010,1646 L 5010,1645 L 5010,1645 L 5007,1634 L 5007,1633 L 5007,1632 L 5007,1621 L 5007,1620 L 5010,1609 L 5010,1608 L 5010,1608 L 5015,1598 L 5015,1597 L 5015,1596 L 5022,1587 L 5023,1586 L 5031,1579 L 5032,1578 L 5032,1578 L 5042,1573 L 5042,1572 L 5043,1572 L 5054,1569 L 5055,1568 L 5066,1567 L 5067,1567 L 5171,1567 L 5172,1567 L 5182,1568 L 5184,1569 L 5192,1571 L 5419,1571 L 5420,1571 L 5429,1572 L 5430,1572 L 5439,1575 L 5441,1576 L 5449,1580 L 5450,1581 L 5458,1587 L 5459,1588 L 5465,1595 L 5466,1596 L 5470,1605 L 5471,1606 L 5473,1615 L 5474,1617 L 5475,1626 L 5475,1627 L 5475,2371 z " style="fill:none;stroke:rgb(0,0,0);stroke-width:1"/></g>
<g fill-rule="evenodd"><path d="M 5193,1363 L 5685,1363 L 5689,1361 L 5691,1361 L 5698,1358 L 5700,1357 L 5707,1356 L 5709,1355 L 5717,1355 L 5719,1355 L 5727,1355 L 5729,1356 L 5737,1357 L 5739,1358 L 5746,1360 L 5748,1361 L 5752,1363 L 6086,1363 L 6090,1361 L 6092,1360 L 6100,1357 L 6102,1357 L 6111,1355 L 6113,1355 L 6121,1355 L 6123,1355 L 6129,1356 L 6130,1356 L 6136,1357 L 6137,1357 L 6143,1359 L 6144,1359 L 6149,1362 L 6151,1362 L 6156,1365 L 6157,1366 L 6162,1369 L 6163,1370 L 6167,1373 L 6168,1374 L 6172,1378 L 6173,1379 L 6176,1384 L 6177,1385 L 6180,1390 L 6181,1391 L 6184,1396 L 6184,1397 L 6186,1402 L 6187,1404 L 6188,1409 L 6189,1410 L 6190,1416 L 6190,1417 L 6191,1423 L 6191,1424 L 6191,1430 L 6191,1431 L 6190,1437 L 6190,1438 L 6189,1443 L 6189,1445 L 6187,1450 L 6187,1451 L 6185,1456 L 6184,1457 L 6182,1462 L 6181,1463 L 6178,1468 L 6177,1469 L 6174,1473 L 6173,1474 L 6169,1478 L 6168,1479 L 6164,1483 L 6163,1484 L 6159,1487 L 6157,1488 L 6153,1490 L 6152,1491 L 6147,1493 L 6145,1494 L 6140,1496 L 6139,1496 L 6134,1497 L 6132,1498 L 6127,1498 L 6126,1499 L 6120,1499 L 6118,1499 L 6111,1498 L 6108,1498 L 6101,1497 L 6099,1496 L 6091,1493 L 6089,1492 L 6085,1491 L 5752,1491 L 5749,1492 L 5747,1493 L 5740,1496 L 5738,1496 L 5730,1498 L 5728,1498 L 5720,1499 L 5718,1499 L 5710,1498 L 5708,1498 L 5701,1497 L 5699,1496 L 5691,1493 L 5689,1492 L 5686,1491 L 5193,1491 L 5186,1493 L 5183,1493 L 5172,1495 L 5171,1495 L 5067,1495 L 5065,1495 L 5054,1493 L 5051,1493 L 5041,1489 L 5039,1489 L 5038,1488 L 5028,1483 L 5026,1481 L 5018,1473 L 5016,1472 L 5015,1471 L 5009,1462 L 5007,1459 L 5003,1449 L 5002,1448 L 5002,1446 L 5000,1436 L 4999,1434 L 4999,1432 L 4999,1421 L 5000,1418 L 5002,1408 L 5002,1406 L 5003,1404 L 5007,1394 L 5008,1393 L 5009,1392 L 5015,1383 L 5018,1380 L 5026,1373 L 5028,1371 L 5038,1366 L 5039,1365 L 5041,1364 L 5051,1361 L 5054,1360 L 5065,1359 L 5067,1359 L 5171,1359 L 5172,1359 L 5183,1360 L 5186,1361 L 5193,1363 z " style="fill-opacity:1.000000;fill:rgb(166,31,3);stroke:rgb(0,0,0);stroke-width:2"/></g>
<g fill-rule="evenodd"><path d="M 5192,1371 L 5687,1371 L 5692,1368 L 5693,1368 L 5700,1365 L 5701,1365 L 5709,1363 L 5710,1363 L 5718,1363 L 5719,1363 L 5727,1363 L 5728,1363 L 5735,1365 L 5736,1365 L 5744,1368 L 5745,1368 L 5750,1371 L 6087,1371 L 6093,1368 L 6094,1368 L 6102,1365 L 6104,1365 L 6112,1363 L 6113,1363 L 6122,1363 L 6122,1363 L 6128,1363 L 6129,1364 L 6134,1365 L 6135,1365 L 6140,1366 L 6141,1367 L 6146,1369 L 6147,1369 L 6152,1372 L 6152,1372 L 6157,1375 L 6158,1376 L 6162,1379 L 6162,1380 L 6166,1384 L 6167,1384 L 6170,1389 L 6171,1389 L 6174,1394 L 6174,1395 L 6177,1399 L 6177,1400 L 6179,1405 L 6179,1406 L 6181,1411 L 6181,1412 L 6182,1417 L 6182,1418 L 6183,1424 L 6183,1424 L 6183,1430 L 6183,1431 L 6182,1436 L 6182,1437 L 6181,1442 L 6181,1442 L 6179,1448 L 6179,1448 L 6177,1453 L 6177,1454 L 6175,1459 L 6174,1459 L 6171,1464 L 6171,1464 L 6168,1468 L 6167,1469 L 6163,1473 L 6163,1473 L 6159,1477 L 6158,1477 L 6154,1480 L 6153,1481 L 6149,1484 L 6148,1484 L 6143,1486 L 6143,1486 L 6138,1488 L 6137,1488 L 6132,1490 L 6131,1490 L 6126,1491 L 6125,1491 L 6120,1491 L 6119,1491 L 6111,1491 L 6110,1490 L 6102,1489 L 6101,1489 L 6094,1486 L 6093,1485 L 6087,1483 L 5750,1483 L 5745,1485 L 5744,1486 L 5737,1488 L 5736,1489 L 5729,1490 L 5727,1490 L 5720,1491 L 5719,1491 L 5711,1491 L 5710,1490 L 5702,1489 L 5701,1489 L 5694,1486 L 5693,1485 L 5687,1483 L 5192,1483 L 5184,1485 L 5182,1486 L 5172,1487 L 5171,1487 L 5067,1487 L 5066,1487 L 5055,1486 L 5054,1485 L 5043,1482 L 5042,1482 L 5042,1481 L 5032,1476 L 5032,1475 L 5031,1475 L 5023,1468 L 5022,1467 L 5022,1466 L 5015,1458 L 5015,1456 L 5010,1446 L 5010,1445 L 5010,1445 L 5007,1434 L 5007,1433 L 5007,1432 L 5007,1421 L 5007,1420 L 5010,1409 L 5010,1408 L 5010,1408 L 5015,1398 L 5015,1397 L 5015,1396 L 5022,1387 L 5023,1386 L 5031,1379 L 5032,1378 L 5032,1378 L 5042,1373 L 5042,1372 L 5043,1372 L 5054,1369 L 5055,1368 L 5066,1367 L 5067,1367 L 5171,1367 L 5172,1367 L 5182,1368 L 5184,1369 L 5192,1371 z " style="fill:none;stroke:rgb(0,0,0);stroke-width:1"/></g>
<g fill-rule="evenodd"><path d="M 0,2132 L 0,2121 L 0,2118 L 2,2108 L 3,2106 L 3,2104 L 8,2094 L 8,2093 L 9,2092 L 16,2083 L 18,2080 L 26,2073 L 29,2071 L 38,2066 L 39,2065 L 41,2064 L 51,2061 L 55,2060 L 65,2059 L 67,2059 L 171,2059 L 173,2059 L 183,2060 L 187,2061 L 193,2063 L 731,2063 L 732,2062 L 735,2061 L 746,2057 L 750,2056 L 761,2055 L 763,2055 L 875,2055 L 877,2055 L 888,2056 L 891,2057 L 903,2061 L 904,2061 L 906,2062 L 907,2063 L 1086,2063 L 1090,2061 L 1092,2060 L 1100,2058 L 1102,2057 L 1110,2055 L 1112,2055 L 1120,2055 L 1123,2055 L 1132,2056 L 1135,2057 L 1143,2059 L 1146,2060 L 1154,2064 L 1156,2065 L 1164,2071 L 1166,2072 L 1173,2079 L 1174,2081 L 1180,2088 L 1181,2090 L 1185,2099 L 1186,2101 L 1189,2110 L 1189,2112 L 1190,2117 L 1191,2119 L 1191,2124 L 1191,2126 L 1191,2131 L 1191,2133 L 1190,2138 L 1190,2140 L 1189,2145 L 1188,2147 L 1186,2152 L 1186,2154 L 1184,2159 L 1183,2160 L 1180,2165 L 1179,2166 L 1176,2171 L 1175,2172 L 1172,2176 L 1171,2177 L 1166,2181 L 1165,2182 L 1161,2185 L 1160,2186 L 1155,2189 L 1154,2190 L 1149,2192 L 1147,2193 L 1142,2195 L 1141,2195 L 1135,2197 L 1134,2197 L 1129,2198 L 1127,2198 L 1122,2199 L 1120,2199 L 1115,2199 L 1113,2199 L 1108,2198 L 1106,2198 L 1101,2197 L 1100,2196 L 1094,2195 L 1093,2194 L 1088,2192 L 1087,2191 L 1086,2191 L 907,2191 L 906,2192 L 903,2193 L 891,2197 L 890,2197 L 888,2197 L 877,2199 L 875,2199 L 763,2199 L 761,2199 L 750,2197 L 748,2197 L 746,2197 L 735,2193 L 734,2192 L 732,2192 L 731,2191 L 193,2191 L 187,2193 L 183,2193 L 173,2195 L 171,2195 L 67,2195 L 65,2195 L 55,2193 L 51,2193 L 41,2189 L 39,2189 L 38,2188 L 29,2183 L 26,2181 L 18,2173 L 17,2172 L 16,2171 L 9,2162 L 8,2159 L 3,2149 L 3,2148 L 2,2146 L 0,2136 L 0,2134 L 0,2132 z " style="fill-opacity:1.000000;fill:rgb(90,125,9);stroke:rgb(0,0,0);stroke-width:2"/></g>
<g fill-rule="evenodd"><path d="M 192,2183 L 184,2185 L 183,2186 L 172,2187 L 171,2187 L 67,2187 L 66,2187 L 55,2186 L 54,2185 L 43,2182 L 43,2182 L 42,2181 L 32,2176 L 32,2175 L 31,2175 L 23,2167 L 23,2167 L 22,2166 L 16,2157 L 15,2156 L 10,2146 L 10,2145 L 10,2145 L 8,2134 L 7,2133 L 7,2132 L 7,2121 L 8,2120 L 10,2109 L 10,2108 L 10,2108 L 15,2098 L 15,2097 L 16,2096 L 22,2087 L 23,2086 L 31,2079 L 32,2078 L 32,2078 L 42,2073 L 43,2072 L 43,2072 L 54,2068 L 55,2068 L 66,2067 L 67,2067 L 171,2067 L 172,2067 L 183,2068 L 184,2068 L 192,2071 L 733,2071 L 736,2069 L 737,2068 L 738,2068 L 749,2065 L 750,2064 L 751,2064 L 762,2063 L 763,2063 L 875,2063 L 876,2063 L 887,2064 L 889,2065 L 900,2068 L 901,2068 L 902,2069 L 905,2071 L 1088,2071 L 1093,2068 L 1094,2068 L 1102,2065 L 1103,2065 L 1111,2063 L 1113,2063 L 1121,2063 L 1122,2063 L 1131,2064 L 1132,2064 L 1141,2067 L 1142,2067 L 1151,2071 L 1152,2072 L 1159,2077 L 1160,2078 L 1167,2084 L 1168,2085 L 1173,2093 L 1174,2094 L 1178,2102 L 1179,2103 L 1181,2112 L 1182,2113 L 1183,2119 L 1183,2119 L 1183,2125 L 1183,2126 L 1183,2131 L 1183,2132 L 1182,2137 L 1182,2138 L 1181,2144 L 1181,2144 L 1179,2150 L 1179,2150 L 1176,2155 L 1176,2156 L 1173,2161 L 1173,2162 L 1170,2166 L 1169,2167 L 1166,2171 L 1165,2171 L 1161,2175 L 1160,2176 L 1156,2179 L 1156,2180 L 1151,2182 L 1150,2183 L 1145,2185 L 1145,2186 L 1139,2188 L 1139,2188 L 1133,2189 L 1133,2190 L 1127,2190 L 1127,2191 L 1121,2191 L 1120,2191 L 1115,2191 L 1114,2191 L 1109,2190 L 1108,2190 L 1103,2189 L 1102,2189 L 1097,2187 L 1096,2187 L 1091,2185 L 1091,2184 L 1088,2183 L 905,2183 L 902,2185 L 901,2185 L 900,2185 L 889,2189 L 888,2189 L 887,2189 L 876,2191 L 875,2191 L 763,2191 L 762,2191 L 751,2189 L 750,2189 L 749,2189 L 738,2185 L 737,2185 L 736,2185 L 733,2183 L 192,2183 z " style="fill:none;stroke:rgb(0,0,0);stroke-width:1"/></g>
<g fill-rule="evenodd"><path d="M 6313,0 L 6325,0 L 6326,0 L 6328,0 L 6339,2 L 6341,3 L 6342,3 L 6353,8 L 6356,10 L 6365,17 L 6367,18 L 6368,19 L 6376,27 L 6378,30 L 6384,40 L 6384,42 L 6385,43 L 6388,54 L 6389,56 L 6389,58 L 6390,63 L 6519,63 L 6520,63 L 6530,64 L 6533,65 L 6542,68 L 6545,69 L 6553,73 L 6555,75 L 6563,81 L 6565,83 L 6571,90 L 6573,93 L 6577,101 L 6578,104 L 6581,113 L 6581,116 L 6582,125 L 6582,127 L 6582,4027 L 6582,4028 L 6582,4033 L 6582,4034 L 6581,4039 L 6581,4041 L 6580,4046 L 6579,4047 L 6577,4052 L 6577,4053 L 6574,4058 L 6573,4059 L 6571,4064 L 6570,4065 L 6567,4069 L 6566,4070 L 6562,4074 L 6561,4075 L 6557,4078 L 6556,4079 L 6551,4082 L 6550,4082 L 6545,4085 L 6544,4085 L 6539,4087 L 6538,4088 L 6533,4089 L 6531,4089 L 6526,4090 L 6525,4090 L 6520,4090 L 6519,4091 L 5545,4091 L 5364,4272 L 5363,4273 L 5355,4279 L 5353,4281 L 5345,4285 L 5342,4286 L 5333,4289 L 5330,4290 L 5320,4290 L 5319,4291 L 819,4291 L 817,4290 L 808,4290 L 805,4289 L 796,4286 L 793,4285 L 785,4281 L 782,4279 L 775,4273 L 773,4271 L 767,4263 L 765,4261 L 761,4253 L 760,4250 L 757,4241 L 756,4238 L 755,4228 L 755,4227 L 755,2398 L 750,2397 L 748,2397 L 746,2397 L 735,2393 L 734,2392 L 732,2392 L 731,2391 L 193,2391 L 187,2393 L 183,2393 L 173,2394 L 171,2395 L 67,2395 L 65,2394 L 55,2393 L 51,2393 L 41,2389 L 39,2389 L 38,2388 L 29,2383 L 26,2381 L 18,2373 L 17,2372 L 16,2371 L 9,2362 L 8,2359 L 3,2349 L 3,2348 L 2,2346 L 0,2336 L 0,2334 L 0,2332 L 0,2321 L 0,2318 L 2,2307 L 3,2306 L 3,2304 L 8,2294 L 8,2293 L 9,2292 L 16,2283 L 18,2280 L 26,2273 L 29,2271 L 38,2266 L 39,2265 L 41,2264 L 51,2261 L 55,2260 L 65,2259 L 67,2259 L 171,2259 L 173,2259 L 183,2260 L 187,2261 L 193,2263 L 731,2263 L 732,2262 L 735,2261 L 746,2257 L 750,2256 L 761,2255 L 763,2255 L 875,2255 L 877,2255 L 888,2256 L 891,2257 L 903,2261 L 904,2261 L 906,2262 L 916,2268 L 918,2270 L 927,2278 L 928,2279 L 929,2280 L 936,2290 L 937,2291 L 938,2292 L 943,2303 L 943,2305 L 944,2306 L 946,2318 L 946,2321 L 946,2333 L 946,2336 L 944,2347 L 943,2349 L 943,2351 L 938,2361 L 936,2364 L 929,2374 L 928,2375 L 927,2376 L 918,2384 L 916,2386 L 906,2392 L 904,2392 L 903,2393 L 891,2397 L 890,2397 L 888,2397 L 883,2398 L 883,2463 L 1293,2463 L 1455,2300 L 1455,1793 L 1454,1793 L 1451,1793 L 1441,1789 L 1439,1789 L 1438,1788 L 1428,1783 L 1426,1781 L 1418,1773 L 1417,1772 L 1416,1771 L 1409,1762 L 1408,1759 L 1403,1749 L 1403,1748 L 1402,1746 L 1400,1736 L 1400,1734 L 1399,1732 L 1399,1721 L 1400,1718 L 1402,1708 L 1403,1706 L 1403,1704 L 1408,1694 L 1408,1693 L 1409,1692 L 1416,1683 L 1418,1680 L 1426,1673 L 1428,1671 L 1438,1666 L 1439,1665 L 1441,1664 L 1451,1661 L 1454,1660 L 1465,1659 L 1467,1659 L 1571,1659 L 1573,1659 L 1583,1660 L 1587,1661 L 1597,1664 L 1598,1665 L 1600,1666 L 1609,1671 L 1612,1673 L 1620,1680 L 1622,1683 L 1629,1692 L 1630,1693 L 1630,1694 L 1635,1704 L 1635,1706 L 1636,1708 L 1638,1718 L 1638,1721 L 1638,1732 L 1638,1736 L 1636,1746 L 1635,1748 L 1635,1749 L 1630,1759 L 1629,1762 L 1622,1771 L 1621,1772 L 1620,1773 L 1612,1781 L 1609,1783 L 1600,1788 L 1598,1789 L 1597,1789 L 1587,1793 L 1583,1793 L 1583,1793 L 1583,2327 L 1583,2328 L 1582,2336 L 1582,2338 L 1579,2348 L 1578,2350 L 1577,2352 L 1576,2354 L 1571,2363 L 1570,2365 L 1565,2371 L 1564,2372 L 1364,2572 L 1363,2573 L 1356,2579 L 1353,2581 L 1345,2585 L 1342,2586 L 1333,2589 L 1330,2590 L 1320,2591 L 1319,2591 L 883,2591 L 883,4163 L 5292,4163 L 5455,4000 L 5455,2991 L 5152,2991 L 5149,2992 L 5147,2993 L 5140,2996 L 5138,2996 L 5130,2998 L 5128,2998 L 5120,2999 L 5118,2999 L 5110,2998 L 5108,2998 L 5101,2996 L 5099,2996 L 5091,2993 L 5089,2992 L 5086,2991 L 5045,2991 L 4764,3272 L 4763,3273 L 4755,3279 L 4753,3281 L 4745,3285 L 4742,3286 L 4733,3289 L 4730,3290 L 4720,3290 L 4719,3291 L 4552,3291 L 4552,3291 L 4551,3291 L 4546,3293 L 4545,3294 L 4540,3296 L 4539,3296 L 4534,3297 L 4533,3297 L 4528,3298 L 4527,3298 L 4522,3299 L 4521,3299 L 4516,3299 L 4515,3299 L 4510,3298 L 4508,3298 L 4499,3296 L 4497,3295 L 4488,3292 L 4486,3291 L 4478,3286 L 4476,3285 L 4469,3279 L 4467,3277 L 4461,3270 L 4460,3268 L 4455,3260 L 4454,3258 L 4451,3250 L 4450,3247 L 4448,3238 L 4447,3236 L 4447,3231 L 4447,3230 L 4447,3225 L 4447,3223 L 4447,3218 L 4448,3216 L 4448,3211 L 4449,3210 L 4450,3205 L 4451,3204 L 4452,3199 L 4453,3197 L 4455,3193 L 4456,3191 L 4459,3187 L 4460,3186 L 4463,3182 L 4464,3181 L 4467,3177 L 4468,3176 L 4472,3172 L 4473,3171 L 4477,3168 L 4479,3167 L 4483,3164 L 4484,3164 L 4489,3161 L 4490,3161 L 4495,3159 L 4496,3158 L 4501,3157 L 4503,3157 L 4508,3156 L 4510,3155 L 4515,3155 L 4517,3155 L 4522,3155 L 4524,3155 L 4529,3156 L 4531,3156 L 4536,3157 L 4538,3157 L 4543,3159 L 4545,3160 L 4550,3162 L 4551,3162 L 4552,3163 L 4692,3163 L 4974,2882 L 4975,2881 L 4982,2875 L 4985,2873 L 4993,2869 L 4996,2867 L 5005,2865 L 5008,2864 L 5017,2863 L 5019,2863 L 5086,2863 L 5089,2861 L 5091,2861 L 5098,2858 L 5100,2857 L 5107,2856 L 5109,2855 L 5117,2855 L 5119,2855 L 5127,2855 L 5129,2856 L 5137,2857 L 5139,2858 L 5146,2860 L 5148,2861 L 5152,2863 L 5455,2863 L 5455,2691 L 5193,2691 L 5186,2693 L 5183,2693 L 5172,2694 L 5171,2695 L 5067,2695 L 5065,2694 L 5054,2693 L 5051,2693 L 5041,2689 L 5039,2689 L 5038,2688 L 5028,2683 L 5026,2681 L 5018,2673 L 5016,2672 L 5015,2671 L 5009,2662 L 5007,2659 L 5003,2649 L 5002,2648 L 5002,2646 L 5000,2636 L 4999,2634 L 4999,2632 L 4999,2621 L 5000,2618 L 5002,2607 L 5002,2606 L 5003,2604 L 5007,2594 L 5008,2593 L 5009,2592 L 5015,2583 L 5018,2580 L 5026,2573 L 5028,2571 L 5038,2566 L 5039,2565 L 5041,2564 L 5051,2561 L 5054,2560 L 5065,2559 L 5067,2559 L 5171,2559 L 5172,2559 L 5183,2560 L 5186,2561 L 5193,2563 L 5519,2563 L 5520,2563 L 5530,2564 L 5533,2565 L 5542,2567 L 5545,2569 L 5553,2573 L 5555,2575 L 5563,2581 L 5565,2583 L 5571,2590 L 5573,2593 L 5577,2601 L 5578,2604 L 5581,2613 L 5582,2616 L 5582,2625 L 5583,2627 L 5583,3963 L 6055,3963 L 6055,3760 L 6055,3759 L 6054,3758 L 6052,3754 L 6051,3753 L 6050,3748 L 6049,3747 L 6048,3742 L 6048,3740 L 6047,3736 L 6047,3734 L 6047,3729 L 6047,3728 L 6047,3723 L 6047,3721 L 6047,3716 L 6048,3715 L 6049,3710 L 6049,3709 L 6050,3704 L 6051,3703 L 6053,3698 L 6053,3697 L 6055,3693 L 6056,3691 L 6059,3687 L 6059,3686 L 6062,3682 L 6063,3681 L 6067,3677 L 6068,3676 L 6071,3673 L 6072,3672 L 6076,3669 L 6077,3668 L 6081,3665 L 6083,3665 L 6087,3662 L 6088,3662 L 6093,3660 L 6094,3659 L 6099,3658 L 6100,3657 L 6105,3656 L 6106,3656 L 6111,3655 L 6113,3655 L 6117,3655 L 6119,3655 L 6124,3655 L 6125,3655 L 6130,3656 L 6132,3656 L 6136,3657 L 6138,3657 L 6143,3659 L 6144,3659 L 6148,3661 L 6150,3662 L 6154,3664 L 6155,3665 L 6160,3668 L 6161,3668 L 6165,3671 L 6166,3672 L 6169,3676 L 6170,3677 L 6174,3680 L 6175,3682 L 6178,3685 L 6179,3687 L 6181,3691 L 6182,3692 L 6184,3697 L 6185,3698 L 6187,3703 L 6187,3704 L 6188,3708 L 6189,3710 L 6190,3715 L 6190,3716 L 6191,3721 L 6191,3723 L 6191,3727 L 6191,3729 L 6190,3734 L 6190,3735 L 6190,3740 L 6189,3741 L 6188,3746 L 6188,3748 L 6186,3752 L 6186,3754 L 6184,3758 L 6183,3759 L 6182,3760 L 6182,3963 L 6455,3963 L 6455,191 L 6390,191 L 6389,196 L 6389,198 L 6388,199 L 6385,211 L 6384,212 L 6384,214 L 6378,224 L 6376,226 L 6368,235 L 6367,236 L 6365,237 L 6356,244 L 6353,246 L 6342,251 L 6341,251 L 6339,252 L 6328,254 L 6325,254 L 6313,254 L 6310,254 L 6298,252 L 6297,251 L 6295,251 L 6284,246 L 6283,245 L 6281,244 L 6272,237 L 6271,236 L 6270,235 L 6262,226 L 6260,224 L 6254,214 L 6253,212 L 6253,211 L 6249,199 L 6248,196 L 6247,185 L 6247,183 L 6247,71 L 6247,69 L 6248,58 L 6249,54 L 6253,43 L 6253,42 L 6254,40 L 6260,30 L 6262,27 L 6270,19 L 6271,18 L 6272,17 L 6281,10 L 6283,9 L 6284,8 L 6295,3 L 6297,3 L 6298,2 L 6310,0 L 6313,0 z " style="fill-opacity:1.000000;fill:rgb(56,37,31);stroke:rgb(0,0,0);stroke-width:2"/></g>
<g fill-rule="evenodd"><path d="M 875,4171 L 5296,4171 L 5463,4004 L 5463,2983 L 5150,2983 L 5145,2985 L 5144,2986 L 5137,2988 L 5136,2989 L 5129,2990 L 5128,2990 L 5120,2991 L 5119,2991 L 5111,2990 L 5110,2990 L 5102,2989 L 5101,2988 L 5094,2986 L 5093,2985 L 5087,2983 L 5042,2983 L 4758,3266 L 4758,3267 L 4750,3273 L 4749,3274 L 4741,3278 L 4739,3279 L 4730,3281 L 4729,3282 L 4720,3283 L 4719,3283 L 4550,3283 L 4548,3284 L 4547,3284 L 4543,3286 L 4542,3287 L 4538,3288 L 4537,3288 L 4532,3289 L 4532,3290 L 4527,3290 L 4526,3290 L 4522,3291 L 4521,3291 L 4516,3291 L 4516,3291 L 4511,3290 L 4510,3290 L 4501,3288 L 4500,3288 L 4491,3285 L 4490,3284 L 4482,3279 L 4481,3279 L 4474,3273 L 4473,3272 L 4467,3265 L 4467,3264 L 4462,3256 L 4461,3255 L 4458,3247 L 4457,3246 L 4455,3237 L 4455,3236 L 4455,3231 L 4455,3230 L 4455,3225 L 4455,3224 L 4455,3219 L 4455,3218 L 4456,3213 L 4456,3212 L 4458,3207 L 4458,3206 L 4460,3202 L 4460,3201 L 4462,3196 L 4463,3196 L 4466,3191 L 4466,3190 L 4469,3186 L 4469,3186 L 4473,3182 L 4473,3181 L 4477,3178 L 4478,3177 L 4482,3174 L 4483,3174 L 4487,3171 L 4488,3171 L 4492,3168 L 4493,3168 L 4498,3166 L 4499,3166 L 4504,3164 L 4504,3164 L 4510,3163 L 4510,3163 L 4516,3163 L 4517,3163 L 4522,3163 L 4523,3163 L 4529,3163 L 4529,3164 L 4535,3165 L 4535,3165 L 4541,3167 L 4541,3167 L 4546,3169 L 4547,3169 L 4550,3171 L 4696,3171 L 4979,2887 L 4980,2887 L 4987,2881 L 4988,2880 L 4997,2876 L 4998,2875 L 5007,2872 L 5009,2872 L 5018,2871 L 5019,2871 L 5087,2871 L 5092,2868 L 5093,2868 L 5100,2865 L 5102,2865 L 5109,2863 L 5110,2863 L 5118,2863 L 5119,2863 L 5127,2863 L 5128,2863 L 5135,2865 L 5136,2865 L 5144,2868 L 5145,2868 L 5150,2871 L 5463,2871 L 5463,2683 L 5192,2683 L 5184,2685 L 5182,2686 L 5172,2687 L 5171,2687 L 5067,2687 L 5066,2687 L 5055,2686 L 5054,2685 L 5043,2682 L 5042,2682 L 5042,2681 L 5032,2676 L 5032,2675 L 5031,2675 L 5023,2667 L 5022,2667 L 5022,2666 L 5015,2657 L 5015,2656 L 5010,2646 L 5010,2645 L 5010,2645 L 5007,2634 L 5007,2633 L 5007,2632 L 5007,2621 L 5007,2620 L 5010,2609 L 5010,2608 L 5010,2608 L 5015,2598 L 5015,2597 L 5015,2596 L 5022,2587 L 5023,2586 L 5031,2579 L 5032,2578 L 5032,2578 L 5042,2573 L 5042,2572 L 5043,2572 L 5054,2568 L 5055,2568 L 5066,2567 L 5067,2567 L 5171,2567 L 5172,2567 L 5182,2568 L 5184,2568 L 5192,2571 L 5519,2571 L 5520,2571 L 5529,2572 L 5530,2572 L 5539,2575 L 5541,2576 L 5549,2580 L 5550,2581 L 5558,2587 L 5559,2588 L 5565,2595 L 5566,2596 L 5570,2605 L 5571,2606 L 5573,2615 L 5574,2617 L 5575,2626 L 5575,2627 L 5575,3971 L 6063,3971 L 6063,3758 L 6061,3756 L 6061,3755 L 6059,3751 L 6059,3750 L 6057,3745 L 6057,3745 L 6056,3740 L 6056,3739 L 6055,3734 L 6055,3734 L 6055,3729 L 6055,3728 L 6055,3723 L 6055,3722 L 6055,3717 L 6055,3717 L 6056,3712 L 6057,3711 L 6058,3706 L 6058,3706 L 6060,3701 L 6060,3700 L 6062,3696 L 6063,3695 L 6065,3691 L 6066,3691 L 6069,3687 L 6069,3686 L 6072,3682 L 6073,3682 L 6077,3678 L 6077,3678 L 6081,3675 L 6081,3675 L 6086,3672 L 6086,3671 L 6091,3669 L 6091,3669 L 6096,3667 L 6096,3667 L 6101,3665 L 6102,3665 L 6107,3664 L 6107,3664 L 6112,3663 L 6113,3663 L 6118,3663 L 6119,3663 L 6124,3663 L 6124,3663 L 6129,3663 L 6130,3664 L 6135,3665 L 6135,3665 L 6140,3666 L 6141,3667 L 6145,3668 L 6146,3669 L 6151,3671 L 6151,3671 L 6155,3674 L 6156,3675 L 6160,3678 L 6161,3678 L 6164,3681 L 6165,3682 L 6168,3686 L 6168,3686 L 6171,3690 L 6172,3691 L 6175,3695 L 6175,3696 L 6177,3700 L 6177,3701 L 6179,3705 L 6179,3706 L 6181,3711 L 6181,3711 L 6182,3716 L 6182,3717 L 6183,3722 L 6183,3723 L 6183,3728 L 6183,3728 L 6183,3733 L 6182,3734 L 6182,3739 L 6182,3740 L 6180,3744 L 6180,3745 L 6179,3750 L 6178,3750 L 6176,3755 L 6176,3756 L 6175,3758 L 6175,3971 L 6463,3971 L 6463,183 L 6383,183 L 6383,183 L 6383,184 L 6381,195 L 6381,196 L 6381,197 L 6377,208 L 6377,209 L 6377,210 L 6371,220 L 6370,220 L 6370,221 L 6362,230 L 6361,230 L 6361,231 L 6351,238 L 6350,239 L 6339,243 L 6338,244 L 6338,244 L 6326,246 L 6325,246 L 6325,246 L 6313,246 L 6311,246 L 6300,244 L 6299,244 L 6298,243 L 6288,239 L 6286,238 L 6277,231 L 6275,230 L 6268,221 L 6267,220 L 6267,220 L 6261,210 L 6260,209 L 6260,208 L 6256,197 L 6256,195 L 6255,184 L 6255,183 L 6255,71 L 6255,70 L 6256,58 L 6256,58 L 6256,57 L 6260,46 L 6260,45 L 6261,44 L 6267,34 L 6267,33 L 6268,33 L 6275,24 L 6277,23 L 6286,16 L 6287,16 L 6288,15 L 6298,10 L 6299,10 L 6300,10 L 6311,8 L 6313,7 L 6325,7 L 6325,7 L 6326,8 L 6338,10 L 6338,10 L 6339,10 L 6350,15 L 6351,16 L 6361,23 L 6361,23 L 6362,24 L 6370,33 L 6370,33 L 6371,34 L 6377,44 L 6377,45 L 6377,46 L 6381,57 L 6381,58 L 6381,58 L 6383,70 L 6383,71 L 6383,71 L 6519,71 L 6519,71 L 6529,72 L 6530,72 L 6539,75 L 6541,76 L 6549,80 L 6550,81 L 6558,87 L 6559,88 L 6565,95 L 6566,97 L 6570,105 L 6571,106 L 6573,115 L 6574,117 L 6575,126 L 6575,127 L 6575,4027 L 6575,4027 L 6574,4032 L 6574,4033 L 6573,4038 L 6573,4039 L 6572,4044 L 6572,4044 L 6570,4049 L 6570,4050 L 6567,4054 L 6567,4055 L 6564,4059 L 6564,4060 L 6561,4064 L 6560,4064 L 6556,4068 L 6556,4069 L 6552,4072 L 6551,4072 L 6547,4075 L 6546,4075 L 6542,4078 L 6541,4078 L 6536,4080 L 6536,4080 L 6531,4081 L 6530,4081 L 6525,4082 L 6524,4082 L 6519,4083 L 6519,4083 L 5542,4083 L 5358,4266 L 5358,4267 L 5350,4273 L 5349,4274 L 5341,4278 L 5339,4279 L 5330,4281 L 5329,4282 L 5320,4283 L 5319,4283 L 819,4283 L 818,4283 L 809,4282 L 807,4281 L 798,4279 L 797,4278 L 789,4274 L 787,4273 L 780,4267 L 779,4266 L 773,4258 L 772,4257 L 768,4249 L 767,4247 L 764,4238 L 764,4237 L 763,4228 L 763,4227 L 763,2391 L 763,2391 L 762,2391 L 751,2389 L 750,2389 L 749,2389 L 738,2385 L 737,2385 L 736,2385 L 733,2383 L 192,2383 L 184,2385 L 183,2386 L 172,2387 L 171,2387 L 67,2387 L 66,2387 L 55,2386 L 54,2385 L 43,2382 L 43,2382 L 42,2381 L 32,2376 L 32,2375 L 31,2375 L 23,2367 L 23,2367 L 22,2366 L 16,2357 L 15,2356 L 10,2346 L 10,2345 L 10,2345 L 8,2334 L 7,2333 L 7,2332 L 7,2321 L 8,2320 L 10,2309 L 10,2308 L 10,2308 L 15,2298 L 15,2297 L 16,2296 L 22,2287 L 23,2286 L 31,2279 L 32,2278 L 32,2278 L 42,2273 L 43,2272 L 43,2272 L 54,2268 L 55,2268 L 66,2267 L 67,2267 L 171,2267 L 172,2267 L 183,2268 L 184,2268 L 192,2271 L 733,2271 L 736,2269 L 737,2268 L 738,2268 L 749,2265 L 750,2264 L 751,2264 L 762,2263 L 763,2263 L 875,2263 L 876,2263 L 887,2264 L 889,2265 L 900,2268 L 901,2268 L 902,2269 L 912,2275 L 913,2275 L 913,2276 L 922,2284 L 923,2285 L 930,2294 L 931,2296 L 935,2306 L 936,2307 L 936,2308 L 938,2319 L 939,2321 L 939,2333 L 938,2334 L 938,2334 L 936,2346 L 936,2347 L 935,2347 L 931,2358 L 930,2359 L 923,2369 L 922,2370 L 922,2370 L 913,2378 L 913,2379 L 912,2379 L 902,2385 L 901,2385 L 900,2385 L 889,2389 L 888,2389 L 887,2389 L 876,2391 L 875,2391 L 875,2391 L 875,2471 L 1296,2471 L 1463,2304 L 1463,1786 L 1455,1786 L 1454,1785 L 1443,1782 L 1443,1782 L 1442,1781 L 1432,1776 L 1432,1775 L 1431,1775 L 1423,1768 L 1422,1767 L 1422,1766 L 1416,1757 L 1415,1756 L 1410,1746 L 1410,1745 L 1410,1745 L 1408,1734 L 1407,1733 L 1407,1732 L 1407,1721 L 1408,1720 L 1410,1709 L 1410,1708 L 1410,1708 L 1415,1698 L 1415,1697 L 1416,1696 L 1422,1687 L 1423,1686 L 1431,1679 L 1432,1678 L 1432,1678 L 1442,1673 L 1443,1672 L 1443,1672 L 1454,1669 L 1455,1668 L 1466,1667 L 1467,1667 L 1571,1667 L 1572,1667 L 1583,1668 L 1584,1669 L 1595,1672 L 1595,1672 L 1596,1673 L 1605,1678 L 1606,1678 L 1607,1679 L 1615,1686 L 1616,1687 L 1622,1696 L 1623,1697 L 1623,1698 L 1628,1708 L 1628,1708 L 1628,1709 L 1630,1720 L 1631,1721 L 1631,1732 L 1630,1733 L 1630,1734 L 1628,1745 L 1628,1745 L 1628,1746 L 1623,1756 L 1622,1757 L 1616,1766 L 1615,1767 L 1615,1768 L 1607,1775 L 1606,1775 L 1605,1776 L 1596,1781 L 1595,1782 L 1595,1782 L 1584,1785 L 1583,1786 L 1575,1786 L 1575,2327 L 1575,2327 L 1574,2335 L 1574,2336 L 1571,2346 L 1571,2347 L 1570,2349 L 1570,2350 L 1565,2359 L 1564,2360 L 1559,2366 L 1558,2366 L 1358,2566 L 1358,2567 L 1351,2573 L 1349,2574 L 1341,2578 L 1340,2579 L 1331,2581 L 1329,2582 L 1320,2583 L 1319,2583 L 875,2583 L 875,4171 z " style="fill:none;stroke:rgb(0,0,0);stroke-width:1"/></g>
<g fill-rule="evenodd"><path d="M 6113,0 L 6125,0 L 6126,0 L 6128,0 L 6139,2 L 6141,3 L 6142,3 L 6153,8 L 6156,10 L 6165,17 L 6167,18 L 6168,19 L 6176,27 L 6178,30 L 6184,40 L 6184,42 L 6185,43 L 6188,54 L 6189,56 L 6189,58 L 6190,69 L 6190,71 L 6190,183 L 6190,185 L 6189,196 L 6189,198 L 6188,199 L 6185,211 L 6184,212 L 6184,214 L 6182,215 L 6182,394 L 6185,399 L 6186,401 L 6189,410 L 6189,412 L 6191,422 L 6191,424 L 6190,433 L 6190,436 L 6188,445 L 6188,448 L 6185,456 L 6183,458 L 6179,466 L 6178,468 L 6172,476 L 6170,477 L 6163,484 L 6161,485 L 6153,490 L 6151,491 L 6143,495 L 6141,496 L 6131,498 L 6129,498 L 6124,499 L 6123,499 L 6117,499 L 6116,499 L 6111,498 L 6109,498 L 6104,497 L 6102,497 L 6097,496 L 6096,495 L 6091,493 L 6089,493 L 6085,490 L 6083,490 L 6079,487 L 6077,486 L 6073,483 L 6072,482 L 6068,478 L 6067,477 L 6063,473 L 6062,472 L 6059,468 L 6059,466 L 6056,462 L 6055,460 L 6053,456 L 6052,454 L 6050,449 L 6050,448 L 6048,443 L 6048,441 L 6047,436 L 6047,434 L 6047,429 L 6047,428 L 6047,422 L 6047,421 L 6048,415 L 6048,414 L 6049,409 L 6049,407 L 6051,402 L 6052,401 L 6054,396 L 6054,395 L 6055,393 L 6055,215 L 6054,214 L 6053,211 L 6049,199 L 6048,196 L 6048,191 L 4883,191 L 4883,1900 L 4945,1963 L 5045,1963 L 5051,1961 L 5054,1960 L 5065,1959 L 5067,1959 L 5171,1959 L 5172,1959 L 5183,1960 L 5186,1961 L 5197,1964 L 5198,1965 L 5200,1966 L 5209,1971 L 5212,1973 L 5220,1980 L 5222,1983 L 5229,1992 L 5229,1993 L 5230,1994 L 5235,2004 L 5235,2006 L 5236,2008 L 5238,2018 L 5238,2021 L 5238,2032 L 5238,2036 L 5236,2046 L 5235,2048 L 5235,2049 L 5230,2059 L 5229,2062 L 5222,2071 L 5221,2072 L 5220,2073 L 5212,2081 L 5209,2083 L 5200,2088 L 5198,2089 L 5197,2089 L 5186,2093 L 5183,2093 L 5172,2095 L 5171,2095 L 5067,2095 L 5065,2095 L 5054,2093 L 5051,2093 L 5045,2091 L 4919,2091 L 4917,2091 L 4908,2090 L 4905,2089 L 4896,2086 L 4893,2085 L 4885,2081 L 4882,2079 L 4875,2073 L 4874,2072 L 4774,1972 L 4773,1971 L 4767,1964 L 4765,1961 L 4761,1953 L 4759,1950 L 4757,1941 L 4756,1938 L 4755,1928 L 4755,1927 L 4755,1491 L 4593,1491 L 4586,1493 L 4583,1493 L 4572,1495 L 4571,1495 L 4467,1495 L 4465,1495 L 4454,1493 L 4451,1493 L 4441,1489 L 4439,1489 L 4438,1488 L 4428,1483 L 4426,1481 L 4418,1473 L 4416,1472 L 4415,1471 L 4409,1462 L 4407,1459 L 4403,1449 L 4402,1448 L 4402,1446 L 4400,1436 L 4399,1434 L 4399,1432 L 4399,1421 L 4400,1418 L 4402,1408 L 4402,1406 L 4403,1404 L 4407,1394 L 4408,1393 L 4409,1392 L 4415,1383 L 4418,1380 L 4426,1373 L 4428,1371 L 4438,1366 L 4439,1365 L 4441,1364 L 4451,1361 L 4454,1360 L 4465,1359 L 4467,1359 L 4571,1359 L 4572,1359 L 4583,1360 L 4586,1361 L 4593,1363 L 4755,1363 L 4755,127 L 4755,125 L 4756,116 L 4757,113 L 4759,104 L 4761,101 L 4765,93 L 4767,90 L 4773,83 L 4775,81 L 4782,75 L 4785,73 L 4793,69 L 4796,68 L 4805,65 L 4808,64 L 4817,63 L 4819,63 L 6048,63 L 6048,58 L 6049,54 L 6053,43 L 6053,42 L 6054,40 L 6060,30 L 6062,27 L 6070,19 L 6071,18 L 6072,17 L 6081,10 L 6083,9 L 6084,8 L 6095,3 L 6097,3 L 6098,2 L 6110,0 L 6113,0 z " style="fill-opacity:1.000000;fill:rgb(93,212,203);stroke:rgb(0,0,0);stroke-width:2"/></g>
<g fill-rule="evenodd"><path d="M 4875,183 L 4875,1904 L 4942,1971 L 5046,1971 L 5054,1969 L 5055,1968 L 5066,1967 L 5067,1967 L 5171,1967 L 5172,1967 L 5182,1968 L 5184,1969 L 5194,1972 L 5195,1972 L 5196,1973 L 5205,1978 L 5206,1978 L 5207,1979 L 5215,1986 L 5216,1987 L 5222,1996 L 5223,1997 L 5223,1998 L 5227,2008 L 5228,2008 L 5228,2009 L 5230,2020 L 5230,2021 L 5230,2032 L 5230,2033 L 5230,2034 L 5228,2045 L 5228,2045 L 5227,2046 L 5223,2056 L 5222,2057 L 5216,2066 L 5215,2067 L 5215,2067 L 5207,2075 L 5206,2075 L 5205,2076 L 5196,2081 L 5195,2082 L 5194,2082 L 5184,2085 L 5182,2086 L 5172,2087 L 5171,2087 L 5067,2087 L 5066,2087 L 5055,2086 L 5054,2085 L 5046,2083 L 4919,2083 L 4918,2083 L 4909,2082 L 4907,2081 L 4898,2079 L 4897,2078 L 4888,2074 L 4887,2073 L 4880,2067 L 4879,2066 L 4779,1966 L 4779,1966 L 4773,1959 L 4772,1957 L 4768,1949 L 4767,1948 L 4764,1939 L 4764,1937 L 4763,1928 L 4763,1927 L 4763,1483 L 4592,1483 L 4584,1485 L 4582,1486 L 4572,1487 L 4571,1487 L 4467,1487 L 4466,1487 L 4455,1486 L 4454,1485 L 4443,1482 L 4442,1482 L 4442,1481 L 4432,1476 L 4432,1475 L 4431,1475 L 4423,1468 L 4422,1467 L 4422,1466 L 4415,1458 L 4415,1456 L 4410,1446 L 4410,1445 L 4410,1445 L 4407,1434 L 4407,1433 L 4407,1432 L 4407,1421 L 4407,1420 L 4410,1409 L 4410,1408 L 4410,1408 L 4415,1398 L 4415,1397 L 4415,1396 L 4422,1387 L 4423,1386 L 4431,1379 L 4432,1378 L 4432,1378 L 4442,1373 L 4442,1372 L 4443,1372 L 4454,1369 L 4455,1368 L 4466,1367 L 4467,1367 L 4571,1367 L 4572,1367 L 4582,1368 L 4584,1369 L 4592,1371 L 4763,1371 L 4763,127 L 4763,126 L 4764,117 L 4764,115 L 4767,106 L 4768,105 L 4772,97 L 4773,95 L 4779,88 L 4780,87 L 4787,81 L 4788,80 L 4797,76 L 4798,75 L 4807,72 L 4809,72 L 4818,71 L 4819,71 L 6055,71 L 6055,71 L 6055,70 L 6056,58 L 6056,58 L 6056,57 L 6060,46 L 6060,45 L 6061,44 L 6067,34 L 6067,33 L 6068,33 L 6075,24 L 6077,23 L 6086,16 L 6087,16 L 6088,15 L 6098,10 L 6099,10 L 6100,10 L 6111,8 L 6113,7 L 6125,7 L 6125,7 L 6126,8 L 6138,10 L 6138,10 L 6139,10 L 6150,15 L 6151,16 L 6161,23 L 6161,23 L 6162,24 L 6170,33 L 6170,33 L 6171,34 L 6177,44 L 6177,45 L 6177,46 L 6181,57 L 6181,58 L 6181,58 L 6183,70 L 6183,71 L 6183,183 L 6183,184 L 6181,195 L 6181,196 L 6181,197 L 6177,208 L 6177,209 L 6177,210 L 6175,213 L 6175,396 L 6178,402 L 6178,403 L 6181,412 L 6181,414 L 6183,423 L 6183,424 L 6183,433 L 6182,435 L 6181,444 L 6180,445 L 6177,453 L 6177,455 L 6172,462 L 6171,464 L 6166,471 L 6165,472 L 6158,478 L 6157,478 L 6149,483 L 6148,484 L 6140,487 L 6139,488 L 6130,490 L 6129,490 L 6123,491 L 6122,491 L 6117,491 L 6116,491 L 6111,491 L 6110,491 L 6105,490 L 6104,489 L 6099,488 L 6098,488 L 6093,486 L 6093,486 L 6088,483 L 6087,483 L 6083,480 L 6082,480 L 6078,476 L 6077,476 L 6073,472 L 6073,472 L 6069,468 L 6069,467 L 6066,463 L 6065,462 L 6062,458 L 6062,457 L 6060,452 L 6059,451 L 6058,447 L 6057,446 L 6056,441 L 6056,440 L 6055,435 L 6055,434 L 6055,429 L 6055,428 L 6055,422 L 6055,422 L 6055,416 L 6056,416 L 6057,410 L 6057,410 L 6059,405 L 6059,404 L 6061,399 L 6061,398 L 6063,396 L 6063,213 L 6061,210 L 6060,209 L 6060,208 L 6056,197 L 6056,195 L 6055,184 L 6055,183 L 6055,183 L 4875,183 z " style="fill:none;stroke:rgb(0,0,0);stroke-width:1"/></g>
</svg>
