<?xml version="1.0" standalone="no"?>
<!DOCTYPE svg PUBLIC "-//W3C//DTD SVG 1.1//EN"
"http://www.w3.org/Graphics/SVG/1.1/DTD/svg11.dtd">
<svg width="6551" height="4259" viewBox="0 0 6551 4259" version="1.1"
xmlns="http://www.w3.org/2000/svg"
xmlns:xlink="http://www.w3.org/1999/xlink">
<g fill-rule="evenodd"><path d="M 4555,2663 L 4451,2663 L 4440,2662 L 4430,2658 L 4420,2653 L 4412,2646 L 4406,2637 L 4401,2627 L 4399,2616 L 4399,2605 L 4401,2595 L 4406,2585 L 4412,2576 L 4420,2569 L 4430,2563 L 4440,2560 L 4451,2559 L 4555,2559 L 4565,2560 L 4576,2563 L 4585,2569 L 4593,2576 L 4600,2585 L 4604,2595 L 4606,2605 L 4606,2616 L 4604,2627 L 4600,2637 L 4593,2646 L 4585,2653 L 4576,2658 L 4565,2662 L 4555,2663 z " style="fill-opacity:1.000000;fill:rgb(41,35,190);stroke:rgb(0,0,0);stroke-width:2"/></g>
<g fill-rule="evenodd"><path d="M 5051,1759 L 5155,1759 L 5165,1760 L 5176,1763 L 5185,1769 L 5193,1776 L 5200,1785 L 5204,1795 L 5206,1805 L 5206,1816 L 5204,1827 L 5200,1837 L 5193,1846 L 5185,1853 L 5176,1858 L 5165,1862 L 5155,1863 L 5051,1863 L 5040,1862 L 5029,1858 L 5020,1853 L 5012,1846 L 5006,1837 L 5001,1827 L 4999,1816 L 4999,1805 L 5001,1795 L 5006,1785 L 5012,1776 L 5020,1769 L 5029,1763 L 5040,1760 L 5051,1759 z " style="fill-opacity:1.000000;fill:rgb(132,225,108);stroke:rgb(0,0,0);stroke-width:2"/></g>
<g fill-rule="evenodd"><path d="M 4555,2463 L 4451,2463 L 4440,2462 L 4430,2458 L 4420,2453 L 4412,2446 L 4406,2437 L 4401,2427 L 4399,2416 L 4399,2405 L 4401,2395 L 4406,2385 L 4412,2376 L 4420,2369 L 4430,2363 L 4440,2360 L 4451,2359 L 4555,2359 L 4565,2360 L 4576,2363 L 4585,2369 L 4593,2376 L 4600,2385 L 4604,2395 L 4606,2405 L 4606,2416 L 4604,2427 L 4600,2437 L 4593,2446 L 4585,2453 L 4576,2458 L 4565,2462 L 4555,2463 z " style="fill-opacity:1.000000;fill:rgb(214,174,82);stroke:rgb(0,0,0);stroke-width:2"/></g>
<g fill-rule="evenodd"><path d="M 4451,2159 L 4555,2159 L 4565,2160 L 4576,2163 L 4585,2169 L 4593,2176 L 4600,2185 L 4604,2195 L 4606,2205 L 4606,2216 L 4604,2227 L 4600,2237 L 4593,2246 L 4585,2253 L 4576,2258 L 4565,2262 L 4555,2263 L 4451,2263 L 4440,2262 L 4430,2258 L 4420,2253 L 4412,2246 L 4406,2237 L 4401,2227 L 4399,2216 L 4399,2205 L 4401,2195 L 4406,2185 L 4412,2176 L 4420,2169 L 4430,2163 L 4440,2160 L 4451,2159 z " style="fill-opacity:1.000000;fill:rgb(144,73,241);stroke:rgb(0,0,0);stroke-width:2"/></g>
<g fill-rule="evenodd"><path d="M 4555,2063 L 4451,2063 L 4440,2062 L 4430,2058 L 4420,2053 L 4412,2046 L 4406,2037 L 4401,2027 L 4399,2016 L 4399,2005 L 4401,1995 L 4406,1985 L 4412,1976 L 4420,1969 L 4430,1963 L 4440,1960 L 4451,1959 L 4555,1959 L 4565,1960 L 4576,1963 L 4585,1969 L 4593,1976 L 4600,1985 L 4604,1995 L 4606,2005 L 4606,2016 L 4604,2027 L 4600,2037 L 4593,2046 L 4585,2053 L 4576,2058 L 4565,2062 L 4555,2063 z " style="fill-opacity:1.000000;fill:rgb(241,187,233);stroke:rgb(0,0,0);stroke-width:2"/></g>
<g fill-rule="evenodd"><path d="M 4451,1759 L 4555,1759 L 4565,1760 L 4576,1763 L 4585,1769 L 4593,1776 L 4600,1785 L 4604,1795 L 4606,1805 L 4606,1816 L 4604,1827 L 4600,1837 L 4593,1846 L 4585,1853 L 4576,1858 L 4565,1862 L 4555,1863 L 4451,1863 L 4440,1862 L 4430,1858 L 4420,1853 L 4412,1846 L 4406,1837 L 4401,1827 L 4399,1816 L 4399,1805 L 4401,1795 L 4406,1785 L 4412,1776 L 4420,1769 L 4430,1763 L 4440,1760 L 4451,1759 z " style="fill-opacity:1.000000;fill:rgb(235,179,166);stroke:rgb(0,0,0);stroke-width:2"/></g>
<g fill-rule="evenodd"><path d="M 4555,1663 L 4451,1663 L 4440,1662 L 4430,1658 L 4420,1653 L 4412,1646 L 4406,1637 L 4401,1627 L 4399,1616 L 4399,1605 L 4401,1595 L 4406,1585 L 4412,1576 L 4420,1569 L 4430,1563 L 4440,1560 L 4451,1559 L 4555,1559 L 4565,1560 L 4576,1563 L 4585,1569 L 4593,1576 L 4600,1585 L 4604,1595 L 4606,1605 L 4606,1616 L 4604,1627 L 4600,1637 L 4593,1646 L 4585,1653 L 4576,1658 L 4565,1662 L 4555,1663 z " style="fill-opacity:1.000000;fill:rgb(219,60,135);stroke:rgb(0,0,0);stroke-width:2"/></g>
<g fill-rule="evenodd"><path d="M 5073,3863 L 5078,3860 L 5083,3858 L 5088,3856 L 5094,3855 L 5099,3854 L 5105,3854 L 5110,3855 L 5116,3856 L 5121,3857 L 5126,3859 L 5131,3862 L 5136,3865 L 5140,3869 L 5144,3872 L 5147,3877 L 5151,3881 L 5153,3886 L 5155,3891 L 5157,3896 L 5158,3902 L 5159,3907 L 5159,3913 L 5158,3918 L 5157,3924 L 5156,3929 L 5154,3934 L 5151,3939 L 5148,3944 L 5145,3948 L 5141,3952 L 5136,3955 L 5132,3959 L 5125,3962 L 5118,3965 L 5110,3966 L 5102,3967 L 5094,3966 L 5087,3965 L 5080,3962 L 5073,3959 L 3103,3959 L 3094,3958 L 3085,3955 L 3076,3950 L 3069,3944 L 2690,3565 L 2683,3563 L 2676,3560 L 2669,3556 L 2664,3551 L 2659,3546 L 2655,3541 L 2652,3535 L 2650,3529 L 2648,3523 L 2647,3517 L 2647,3511 L 2647,3505 L 2648,3499 L 2650,3492 L 2652,3487 L 2655,3481 L 2655,2771 L 2653,2767 L 2649,2756 L 2648,2745 L 2649,2733 L 2653,2722 L 2658,2712 L 2666,2704 L 2675,2697 L 2686,2692 L 2697,2690 L 2709,2690 L 2720,2692 L 2731,2697 L 2740,2704 L 2748,2712 L 2753,2722 L 2757,2733 L 2758,2745 L 2757,2756 L 2753,2767 L 2751,2771 L 2751,3481 L 2755,3489 L 2758,3497 L 3123,3863 L 5073,3863 z " style="fill-opacity:1.000000;fill:rgb(12,62,153);stroke:rgb(0,0,0);stroke-width:2"/></g>
<g fill-rule="evenodd"><path d="M 3455,3181 L 3455,540 L 3451,533 L 3449,526 L 3447,518 L 3447,510 L 3447,504 L 3448,499 L 3449,494 L 3451,489 L 3454,484 L 3457,479 L 3460,475 L 3464,471 L 3468,467 L 3472,464 L 3477,461 L 3482,459 L 3488,457 L 3493,456 L 3498,455 L 3504,455 L 3509,455 L 3515,456 L 3520,457 L 3525,459 L 3530,462 L 3535,465 L 3539,468 L 3543,472 L 3546,476 L 3550,480 L 3552,484 L 3555,489 L 3557,494 L 3558,499 L 3559,505 L 3559,510 L 3559,518 L 3557,526 L 3554,533 L 3551,540 L 3551,3181 L 3554,3188 L 3557,3195 L 3559,3203 L 3559,3210 L 3559,3218 L 3557,3226 L 3554,3233 L 3551,3240 L 3548,3245 L 3544,3249 L 3540,3253 L 3536,3256 L 3531,3259 L 3527,3262 L 3521,3264 L 3516,3265 L 3511,3266 L 3505,3267 L 3500,3267 L 3494,3266 L 3489,3265 L 3483,3264 L 3478,3261 L 3474,3259 L 3469,3256 L 3465,3252 L 3461,3248 L 3457,3244 L 3454,3239 L 3452,3234 L 3450,3229 L 3448,3224 L 3447,3218 L 3447,3213 L 3447,3207 L 3447,3202 L 3448,3196 L 3450,3191 L 3452,3186 L 3455,3181 z " style="fill-opacity:1.000000;fill:rgb(36,94,13);stroke:rgb(0,0,0);stroke-width:2"/></g>
<g fill-rule="evenodd"><path d="M 1575,1463 L 1703,1463 L 1712,1464 L 1721,1467 L 1730,1471 L 1737,1477 L 1743,1484 L 1747,1493 L 1750,1502 L 1751,1511 L 1751,3481 L 1755,3488 L 1757,3496 L 1759,3504 L 1759,3512 L 1759,3517 L 1758,3522 L 1757,3527 L 1755,3532 L 1753,3537 L 1750,3541 L 1747,3546 L 1744,3550 L 1740,3553 L 1736,3556 L 1731,3559 L 1727,3562 L 1722,3564 L 1717,3565 L 1712,3566 L 1707,3567 L 1701,3567 L 1695,3566 L 1690,3565 L 1684,3564 L 1679,3562 L 1674,3559 L 1670,3556 L 1665,3552 L 1661,3548 L 1658,3544 L 1655,3539 L 1652,3534 L 1650,3529 L 1648,3523 L 1647,3518 L 1647,3512 L 1647,3504 L 1649,3496 L 1651,3488 L 1655,3481 L 1655,1559 L 1575,1559 L 1566,1562 L 1555,1563 L 1451,1563 L 1440,1562 L 1430,1558 L 1421,1553 L 1413,1546 L 1406,1537 L 1402,1527 L 1399,1516 L 1399,1506 L 1402,1495 L 1406,1485 L 1413,1476 L 1421,1469 L 1430,1463 L 1440,1460 L 1451,1459 L 1555,1459 L 1566,1460 L 1575,1463 z " style="fill-opacity:1.000000;fill:rgb(28,6,183);stroke:rgb(0,0,0);stroke-width:2"/></g>
<g fill-rule="evenodd"><path d="M 0,1916 L 0,1905 L 2,1895 L 6,1885 L 13,1876 L 21,1869 L 30,1863 L 41,1860 L 51,1859 L 55,1859 L 55,321 L 56,311 L 59,304 L 63,295 L 69,287 L 279,77 L 287,71 L 295,67 L 304,64 L 313,63 L 652,63 L 656,59 L 668,50 L 682,44 L 696,41 L 711,41 L 725,44 L 739,50 L 750,59 L 760,70 L 768,83 L 772,97 L 774,111 L 772,126 L 768,140 L 760,153 L 750,164 L 739,172 L 725,178 L 711,181 L 696,181 L 682,178 L 668,172 L 656,164 L 652,159 L 333,159 L 151,341 L 151,1263 L 1432,1263 L 1440,1260 L 1451,1259 L 1555,1259 L 1566,1260 L 1576,1263 L 1586,1269 L 1594,1276 L 1600,1285 L 1605,1295 L 1607,1306 L 1607,1316 L 1605,1327 L 1600,1337 L 1594,1346 L 1586,1353 L 1576,1358 L 1566,1362 L 1555,1363 L 1451,1363 L 1440,1362 L 1432,1359 L 151,1359 L 151,1859 L 155,1859 L 166,1860 L 177,1863 L 186,1869 L 194,1876 L 200,1885 L 205,1895 L 207,1905 L 207,1916 L 205,1927 L 200,1937 L 194,1946 L 186,1953 L 177,1958 L 166,1962 L 155,1963 L 51,1963 L 41,1962 L 30,1958 L 21,1953 L 13,1946 L 6,1937 L 2,1927 L 0,1916 z " style="fill-opacity:1.000000;fill:rgb(71,222,179);stroke:rgb(0,0,0);stroke-width:2"/></g>
<g fill-rule="evenodd"><path d="M 5031,2163 L 5040,2160 L 5051,2159 L 5155,2159 L 5165,2160 L 5176,2163 L 5185,2169 L 5193,2176 L 5200,2185 L 5204,2195 L 5206,2205 L 5206,2216 L 5204,2227 L 5200,2237 L 5193,2246 L 5185,2253 L 5176,2258 L 5165,2262 L 5155,2263 L 5051,2263 L 5040,2262 L 5031,2259 L 4922,2259 L 4851,2331 L 4851,2711 L 4850,2720 L 4847,2729 L 4843,2737 L 4837,2745 L 4637,2945 L 4629,2951 L 4622,2955 L 4613,2958 L 4603,2959 L 4151,2959 L 4151,3611 L 4150,3620 L 4147,3629 L 4143,3637 L 4137,3645 L 4129,3651 L 4121,3655 L 4112,3658 L 4103,3659 L 3303,3659 L 3293,3658 L 3284,3655 L 3276,3651 L 3269,3645 L 2969,3345 L 2963,3337 L 2959,3329 L 2956,3320 L 2955,3311 L 2955,2159 L 2751,2159 L 2751,2450 L 2753,2455 L 2757,2465 L 2758,2477 L 2757,2488 L 2753,2499 L 2748,2509 L 2740,2518 L 2731,2525 L 2720,2529 L 2709,2532 L 2697,2532 L 2686,2529 L 2675,2525 L 2666,2518 L 2658,2509 L 2653,2499 L 2649,2488 L 2648,2477 L 2649,2465 L 2653,2455 L 2655,2450 L 2655,2159 L 2132,2159 L 2125,2163 L 2117,2165 L 2108,2167 L 2100,2167 L 2090,2166 L 2082,2163 L 2073,2159 L 2066,2153 L 2059,2146 L 2054,2139 L 2050,2130 L 2048,2121 L 2047,2115 L 2047,2110 L 2047,2104 L 2048,2098 L 2050,2092 L 2052,2087 L 2055,2082 L 2058,2077 L 2062,2072 L 2066,2068 L 2071,2065 L 2076,2062 L 2081,2059 L 2086,2057 L 2092,2056 L 2098,2055 L 2107,2055 L 2116,2056 L 2124,2059 L 2132,2063 L 2655,2063 L 2655,359 L 1903,359 L 1894,358 L 1885,355 L 1876,351 L 1869,345 L 1683,159 L 1354,159 L 1350,164 L 1338,172 L 1325,178 L 1311,181 L 1296,181 L 1281,178 L 1268,172 L 1256,164 L 1246,153 L 1239,140 L 1234,126 L 1233,111 L 1234,97 L 1239,83 L 1246,70 L 1256,59 L 1268,50 L 1281,44 L 1296,41 L 1311,41 L 1325,44 L 1338,50 L 1350,59 L 1354,63 L 1703,63 L 1712,64 L 1721,67 L 1730,71 L 1737,77 L 1923,263 L 3473,263 L 3480,260 L 3488,257 L 3496,255 L 3503,255 L 3511,255 L 3518,257 L 3524,259 L 3531,262 L 3537,266 L 3542,271 L 3547,276 L 3551,282 L 3554,289 L 3557,295 L 3558,302 L 3559,309 L 3559,316 L 3558,323 L 3556,330 L 3553,336 L 3549,343 L 3545,348 L 3540,353 L 3535,358 L 3528,361 L 3522,364 L 3515,366 L 3508,367 L 3499,367 L 3490,366 L 3481,363 L 3473,359 L 2751,359 L 2751,2063 L 3003,2063 L 3012,2064 L 3021,2067 L 3030,2071 L 3037,2077 L 3043,2084 L 3047,2092 L 3050,2101 L 3051,2111 L 3051,3291 L 3323,3563 L 4055,3563 L 4055,2911 L 4056,2901 L 4058,2892 L 4063,2884 L 4069,2877 L 4076,2871 L 4084,2866 L 4093,2864 L 4103,2863 L 4583,2863 L 4755,2691 L 4755,2311 L 4756,2301 L 4759,2291 L 4762,2285 L 4769,2277 L 4869,2177 L 4876,2171 L 4884,2166 L 4893,2164 L 4903,2163 L 5031,2163 z " style="fill-opacity:1.000000;fill:rgb(18,77,200);stroke:rgb(0,0,0);stroke-width:2"/></g>
<g fill-rule="evenodd"><path d="M 5174,2363 L 5355,2363 L 5355,1659 L 5174,1659 L 5165,1662 L 5155,1663 L 5051,1663 L 5040,1662 L 5029,1658 L 5020,1653 L 5012,1646 L 5006,1637 L 5001,1627 L 4999,1616 L 4999,1605 L 5001,1595 L 5006,1585 L 5012,1576 L 5020,1569 L 5029,1563 L 5040,1560 L 5051,1559 L 5155,1559 L 5165,1560 L 5174,1563 L 5403,1563 L 5412,1564 L 5421,1567 L 5429,1571 L 5436,1577 L 5442,1584 L 5447,1593 L 5450,1602 L 5451,1611 L 5451,2363 L 5673,2363 L 5680,2359 L 5687,2357 L 5694,2355 L 5702,2355 L 5710,2355 L 5717,2357 L 5725,2359 L 5732,2363 L 6102,2363 L 6112,2364 L 6121,2366 L 6129,2371 L 6136,2377 L 6142,2384 L 6147,2392 L 6149,2401 L 6150,2411 L 6150,3291 L 6153,3300 L 6154,3311 L 6153,3321 L 6150,3332 L 6144,3341 L 6137,3349 L 6128,3356 L 6118,3360 L 6108,3362 L 6097,3362 L 6086,3360 L 6076,3356 L 6068,3349 L 6060,3341 L 6055,3332 L 6052,3321 L 6050,3311 L 6052,3300 L 6054,3291 L 6054,2459 L 5732,2459 L 5725,2462 L 5718,2465 L 5711,2466 L 5703,2467 L 5695,2467 L 5687,2465 L 5680,2462 L 5673,2459 L 5174,2459 L 5165,2462 L 5155,2463 L 5051,2463 L 5040,2462 L 5029,2458 L 5020,2453 L 5012,2446 L 5006,2437 L 5001,2427 L 4999,2416 L 4999,2405 L 5001,2395 L 5006,2385 L 5012,2376 L 5020,2369 L 5029,2363 L 5040,2360 L 5051,2359 L 5155,2359 L 5165,2360 L 5174,2363 z " style="fill-opacity:1.000000;fill:rgb(67,187,139);stroke:rgb(0,0,0);stroke-width:2"/></g>
<g fill-rule="evenodd"><path d="M 5174,1363 L 5673,1363 L 5680,1359 L 5687,1357 L 5694,1355 L 5702,1355 L 5710,1355 L 5717,1357 L 5725,1359 L 5732,1363 L 6073,1363 L 6081,1359 L 6089,1356 L 6097,1355 L 6105,1355 L 6111,1355 L 6116,1356 L 6122,1358 L 6127,1360 L 6132,1363 L 6136,1366 L 6140,1370 L 6144,1373 L 6148,1378 L 6151,1382 L 6153,1387 L 6155,1392 L 6157,1397 L 6158,1403 L 6159,1408 L 6159,1414 L 6158,1419 L 6157,1424 L 6156,1429 L 6154,1434 L 6151,1439 L 6148,1444 L 6145,1448 L 6141,1452 L 6137,1455 L 6133,1458 L 6129,1461 L 6124,1463 L 6119,1465 L 6114,1466 L 6108,1467 L 6103,1467 L 6095,1467 L 6087,1465 L 6080,1463 L 6073,1459 L 5732,1459 L 5725,1462 L 5718,1465 L 5711,1467 L 5703,1467 L 5695,1467 L 5687,1465 L 5680,1463 L 5673,1459 L 5174,1459 L 5165,1462 L 5155,1463 L 5051,1463 L 5040,1462 L 5029,1458 L 5020,1453 L 5012,1446 L 5006,1437 L 5001,1427 L 4999,1416 L 4999,1406 L 5001,1395 L 5006,1385 L 5012,1376 L 5020,1369 L 5029,1363 L 5040,1360 L 5051,1359 L 5155,1359 L 5165,1360 L 5174,1363 z " style="fill-opacity:1.000000;fill:rgb(166,31,3);stroke:rgb(0,0,0);stroke-width:2"/></g>
<g fill-rule="evenodd"><path d="M 0,2116 L 0,2105 L 2,2095 L 6,2085 L 13,2076 L 21,2069 L 30,2063 L 41,2060 L 51,2059 L 155,2059 L 166,2060 L 175,2063 L 719,2063 L 724,2060 L 736,2056 L 747,2055 L 859,2055 L 871,2056 L 882,2060 L 887,2063 L 1074,2063 L 1081,2059 L 1089,2056 L 1097,2055 L 1105,2055 L 1114,2056 L 1123,2058 L 1132,2062 L 1139,2068 L 1146,2074 L 1151,2081 L 1155,2090 L 1158,2099 L 1159,2104 L 1159,2110 L 1159,2115 L 1159,2121 L 1157,2126 L 1156,2131 L 1153,2136 L 1151,2141 L 1148,2146 L 1144,2150 L 1140,2154 L 1136,2157 L 1131,2160 L 1126,2162 L 1121,2164 L 1116,2166 L 1110,2167 L 1105,2167 L 1099,2167 L 1094,2166 L 1089,2165 L 1084,2164 L 1079,2161 L 1074,2159 L 887,2159 L 882,2162 L 871,2166 L 859,2167 L 747,2167 L 736,2166 L 724,2162 L 719,2159 L 175,2159 L 166,2162 L 155,2163 L 51,2163 L 41,2162 L 30,2158 L 21,2153 L 13,2146 L 6,2137 L 2,2127 L 0,2116 z " style="fill-opacity:1.000000;fill:rgb(90,125,9);stroke:rgb(0,0,0);stroke-width:2"/></g>
<g fill-rule="evenodd"><path d="M 0,2316 L 0,2305 L 2,2295 L 6,2285 L 13,2276 L 21,2269 L 30,2263 L 41,2260 L 51,2259 L 155,2259 L 166,2260 L 175,2263 L 719,2263 L 724,2260 L 736,2256 L 747,2255 L 859,2255 L 871,2256 L 882,2260 L 892,2266 L 901,2273 L 908,2283 L 912,2294 L 915,2305 L 915,2317 L 912,2328 L 908,2339 L 901,2348 L 892,2356 L 882,2362 L 871,2366 L 859,2367 L 851,2367 L 851,2463 L 1283,2463 L 1455,2291 L 1455,1763 L 1451,1763 L 1440,1762 L 1430,1758 L 1421,1753 L 1413,1746 L 1406,1737 L 1402,1727 L 1399,1716 L 1399,1705 L 1402,1695 L 1406,1685 L 1413,1676 L 1421,1669 L 1430,1663 L 1440,1660 L 1451,1659 L 1555,1659 L 1566,1660 L 1576,1663 L 1586,1669 L 1594,1676 L 1600,1685 L 1605,1695 L 1607,1705 L 1607,1716 L 1605,1727 L 1600,1737 L 1594,1746 L 1586,1753 L 1576,1758 L 1566,1762 L 1555,1763 L 1551,1763 L 1551,2311 L 1551,2318 L 1548,2328 L 1547,2330 L 1542,2339 L 1537,2345 L 1337,2545 L 1330,2551 L 1322,2555 L 1313,2558 L 1303,2559 L 851,2559 L 851,4163 L 5283,4163 L 5455,3991 L 5455,2959 L 5132,2959 L 5125,2962 L 5118,2965 L 5111,2966 L 5103,2967 L 5095,2967 L 5088,2965 L 5080,2962 L 5073,2959 L 5022,2959 L 4737,3245 L 4729,3251 L 4721,3255 L 4712,3258 L 4703,3259 L 4532,3259 L 4528,3261 L 4523,3263 L 4519,3265 L 4514,3266 L 4510,3267 L 4505,3267 L 4500,3267 L 4495,3266 L 4486,3265 L 4478,3261 L 4470,3257 L 4463,3251 L 4457,3244 L 4452,3236 L 4449,3228 L 4447,3219 L 4446,3214 L 4446,3208 L 4447,3203 L 4448,3198 L 4449,3193 L 4451,3188 L 4453,3184 L 4456,3179 L 4459,3175 L 4463,3171 L 4467,3168 L 4471,3164 L 4475,3162 L 4480,3159 L 4485,3157 L 4490,3156 L 4495,3155 L 4501,3154 L 4506,3154 L 4512,3155 L 4517,3156 L 4522,3158 L 4527,3160 L 4532,3163 L 4683,3163 L 4969,2877 L 4976,2871 L 4984,2866 L 4993,2864 L 5003,2863 L 5073,2863 L 5080,2859 L 5087,2857 L 5094,2855 L 5102,2854 L 5110,2855 L 5118,2856 L 5125,2859 L 5132,2863 L 5455,2863 L 5455,2659 L 5174,2659 L 5165,2662 L 5155,2663 L 5051,2663 L 5040,2662 L 5029,2658 L 5020,2653 L 5012,2646 L 5006,2637 L 5001,2627 L 4999,2616 L 4999,2605 L 5001,2595 L 5006,2585 L 5012,2576 L 5020,2569 L 5029,2563 L 5040,2560 L 5051,2559 L 5155,2559 L 5165,2560 L 5174,2563 L 5502,2563 L 5512,2564 L 5521,2566 L 5529,2571 L 5536,2577 L 5542,2584 L 5547,2592 L 5550,2601 L 5550,2611 L 5550,3963 L 6054,3963 L 6054,3740 L 6052,3736 L 6050,3731 L 6048,3727 L 6047,3722 L 6046,3717 L 6046,3712 L 6046,3707 L 6047,3702 L 6048,3697 L 6049,3692 L 6051,3688 L 6053,3683 L 6056,3679 L 6059,3675 L 6062,3671 L 6066,3668 L 6069,3665 L 6074,3662 L 6078,3660 L 6083,3658 L 6087,3656 L 6092,3655 L 6097,3655 L 6102,3654 L 6107,3654 L 6112,3655 L 6117,3656 L 6122,3658 L 6126,3660 L 6131,3662 L 6135,3665 L 6139,3668 L 6142,3671 L 6146,3675 L 6149,3679 L 6151,3683 L 6154,3688 L 6156,3692 L 6157,3697 L 6158,3702 L 6159,3707 L 6159,3712 L 6158,3717 L 6158,3721 L 6156,3726 L 6155,3731 L 6153,3736 L 6150,3740 L 6150,3963 L 6454,3963 L 6454,159 L 6358,159 L 6358,167 L 6357,179 L 6354,190 L 6348,200 L 6340,209 L 6330,216 L 6320,220 L 6308,223 L 6297,223 L 6285,220 L 6274,216 L 6265,209 L 6257,200 L 6251,190 L 6248,179 L 6246,167 L 6246,55 L 6248,44 L 6251,32 L 6257,22 L 6265,14 L 6274,7 L 6285,2 L 6297,0 L 6308,0 L 6320,2 L 6330,7 L 6340,14 L 6348,22 L 6354,32 L 6357,44 L 6358,55 L 6358,63 L 6502,63 L 6512,64 L 6521,67 L 6529,71 L 6536,77 L 6542,85 L 6547,93 L 6549,102 L 6550,111 L 6550,4011 L 6550,4016 L 6549,4021 L 6548,4025 L 6546,4030 L 6544,4035 L 6541,4039 L 6538,4043 L 6534,4046 L 6531,4049 L 6526,4052 L 6522,4054 L 6517,4056 L 6512,4057 L 6507,4058 L 6502,4059 L 5522,4059 L 5336,4244 L 5329,4250 L 5321,4255 L 5312,4258 L 5303,4258 L 803,4258 L 794,4258 L 785,4255 L 777,4250 L 769,4244 L 763,4237 L 759,4229 L 756,4220 L 755,4211 L 755,2367 L 747,2367 L 736,2366 L 724,2362 L 719,2359 L 175,2359 L 166,2362 L 155,2363 L 51,2363 L 41,2362 L 30,2358 L 21,2353 L 13,2346 L 6,2337 L 2,2327 L 0,2316 z " style="fill-opacity:1.000000;fill:rgb(56,37,31);stroke:rgb(0,0,0);stroke-width:2"/></g>
<g fill-rule="evenodd"><path d="M 6097,0 L 6108,0 L 6120,2 L 6130,7 L 6140,14 L 6148,22 L 6154,32 L 6157,44 L 6158,55 L 6158,167 L 6157,179 L 6154,190 L 6150,195 L 6150,382 L 6155,390 L 6157,399 L 6159,408 L 6158,417 L 6157,426 L 6153,435 L 6149,443 L 6143,450 L 6136,456 L 6129,461 L 6120,464 L 6111,467 L 6106,467 L 6101,467 L 6095,467 L 6090,466 L 6085,465 L 6080,463 L 6075,460 L 6071,458 L 6066,454 L 6062,451 L 6059,447 L 6056,442 L 6053,438 L 6051,433 L 6049,428 L 6047,423 L 6046,418 L 6046,412 L 6046,407 L 6047,402 L 6048,396 L 6050,391 L 6052,386 L 6054,382 L 6054,195 L 6051,190 L 6048,179 L 6046,167 L 6046,159 L 4851,159 L 4851,1891 L 4922,1963 L 5031,1963 L 5040,1960 L 5051,1959 L 5155,1959 L 5165,1960 L 5176,1963 L 5185,1969 L 5193,1976 L 5200,1985 L 5204,1995 L 5206,2005 L 5206,2016 L 5204,2027 L 5200,2037 L 5193,2046 L 5185,2053 L 5176,2058 L 5165,2062 L 5155,2063 L 5051,2063 L 5040,2062 L 5031,2059 L 4903,2059 L 4893,2058 L 4884,2055 L 4876,2051 L 4869,2045 L 4769,1945 L 4763,1938 L 4758,1929 L 4756,1920 L 4755,1911 L 4755,1459 L 4574,1459 L 4565,1462 L 4555,1463 L 4451,1463 L 4440,1462 L 4430,1458 L 4420,1453 L 4412,1446 L 4406,1437 L 4401,1427 L 4399,1416 L 4399,1406 L 4401,1395 L 4406,1385 L 4412,1376 L 4420,1369 L 4430,1363 L 4440,1360 L 4451,1359 L 4555,1359 L 4565,1360 L 4574,1363 L 4755,1363 L 4755,111 L 4756,102 L 4758,93 L 4763,85 L 4769,77 L 4776,71 L 4784,67 L 4793,64 L 4803,63 L 6046,63 L 6046,55 L 6048,44 L 6051,32 L 6057,22 L 6065,14 L 6074,7 L 6085,2 L 6097,0 z " style="fill-opacity:1.000000;fill:rgb(93,212,203);stroke:rgb(0,0,0);stroke-width:2"/></g>
</svg>
