<?xml version="1.0" standalone="no"?>
<!DOCTYPE svg PUBLIC "-//W3C//DTD SVG 1.1//EN"
"http://www.w3.org/Graphics/SVG/1.1/DTD/svg11.dtd">
<svg width="6551" height="4259" viewBox="0 0 6551 4259" version="1.1"
xmlns="http://www.w3.org/2000/svg"
xmlns:xlink="http://www.w3.org/1999/xlink">
<g fill-rule="evenodd"><path d="M 1995,2559 L 2099,2559 L 2110,2560 L 2120,2563 L 2130,2569 L 2138,2576 L 2144,2585 L 2149,2595 L 2151,2605 L 2151,2616 L 2149,2627 L 2144,2637 L 2138,2646 L 2130,2653 L 2120,2658 L 2110,2662 L 2099,2663 L 1995,2663 L 1985,2662 L 1974,2658 L 1965,2653 L 1957,2646 L 1950,2637 L 1946,2627 L 1944,2616 L 1944,2605 L 1946,2595 L 1950,2585 L 1957,2576 L 1965,2569 L 1974,2563 L 1985,2560 L 1995,2559 z " style="fill-opacity:1.000000;fill:rgb(41,35,190);stroke:rgb(0,0,0);stroke-width:2"/></g>
<g fill-rule="evenodd"><path d="M 1499,1863 L 1395,1863 L 1385,1862 L 1374,1858 L 1365,1853 L 1357,1846 L 1350,1837 L 1346,1827 L 1344,1816 L 1344,1805 L 1346,1795 L 1350,1785 L 1357,1776 L 1365,1769 L 1374,1763 L 1385,1760 L 1395,1759 L 1499,1759 L 1510,1760 L 1521,1763 L 1530,1769 L 1538,1776 L 1544,1785 L 1549,1795 L 1551,1805 L 1551,1816 L 1549,1827 L 1544,1837 L 1538,1846 L 1530,1853 L 1521,1858 L 1510,1862 L 1499,1863 z " style="fill-opacity:1.000000;fill:rgb(132,225,108);stroke:rgb(0,0,0);stroke-width:2"/></g>
<g fill-rule="evenodd"><path d="M 1995,2359 L 2099,2359 L 2110,2360 L 2120,2363 L 2130,2369 L 2138,2376 L 2144,2385 L 2149,2395 L 2151,2405 L 2151,2416 L 2149,2427 L 2144,2437 L 2138,2446 L 2130,2453 L 2120,2458 L 2110,2462 L 2099,2463 L 1995,2463 L 1985,2462 L 1974,2458 L 1965,2453 L 1957,2446 L 1950,2437 L 1946,2427 L 1944,2416 L 1944,2405 L 1946,2395 L 1950,2385 L 1957,2376 L 1965,2369 L 1974,2363 L 1985,2360 L 1995,2359 z " style="fill-opacity:1.000000;fill:rgb(214,174,82);stroke:rgb(0,0,0);stroke-width:2"/></g>
<g fill-rule="evenodd"><path d="M 2099,2263 L 1995,2263 L 1985,2262 L 1974,2258 L 1965,2253 L 1957,2246 L 1950,2237 L 1946,2227 L 1944,2216 L 1944,2205 L 1946,2195 L 1950,2185 L 1957,2176 L 1965,2169 L 1974,2163 L 1985,2160 L 1995,2159 L 2099,2159 L 2110,2160 L 2120,2163 L 2130,2169 L 2138,2176 L 2144,2185 L 2149,2195 L 2151,2205 L 2151,2216 L 2149,2227 L 2144,2237 L 2138,2246 L 2130,2253 L 2120,2258 L 2110,2262 L 2099,2263 z " style="fill-opacity:1.000000;fill:rgb(144,73,241);stroke:rgb(0,0,0);stroke-width:2"/></g>
<g fill-rule="evenodd"><path d="M 1995,1959 L 2099,1959 L 2110,1960 L 2120,1963 L 2130,1969 L 2138,1976 L 2144,1985 L 2149,1995 L 2151,2005 L 2151,2016 L 2149,2027 L 2144,2037 L 2138,2046 L 2130,2053 L 2120,2058 L 2110,2062 L 2099,2063 L 1995,2063 L 1985,2062 L 1974,2058 L 1965,2053 L 1957,2046 L 1950,2037 L 1946,2027 L 1944,2016 L 1944,2005 L 1946,1995 L 1950,1985 L 1957,1976 L 1965,1969 L 1974,1963 L 1985,1960 L 1995,1959 z " style="fill-opacity:1.000000;fill:rgb(241,187,233);stroke:rgb(0,0,0);stroke-width:2"/></g>
<g fill-rule="evenodd"><path d="M 2099,1863 L 1995,1863 L 1985,1862 L 1974,1858 L 1965,1853 L 1957,1846 L 1950,1837 L 1946,1827 L 1944,1816 L 1944,1805 L 1946,1795 L 1950,1785 L 1957,1776 L 1965,1769 L 1974,1763 L 1985,1760 L 1995,1759 L 2099,1759 L 2110,1760 L 2120,1763 L 2130,1769 L 2138,1776 L 2144,1785 L 2149,1795 L 2151,1805 L 2151,1816 L 2149,1827 L 2144,1837 L 2138,1846 L 2130,1853 L 2120,1858 L 2110,1862 L 2099,1863 z " style="fill-opacity:1.000000;fill:rgb(235,179,166);stroke:rgb(0,0,0);stroke-width:2"/></g>
<g fill-rule="evenodd"><path d="M 1995,1559 L 2099,1559 L 2110,1560 L 2120,1563 L 2130,1569 L 2138,1576 L 2144,1585 L 2149,1595 L 2151,1605 L 2151,1616 L 2149,1627 L 2144,1637 L 2138,1646 L 2130,1653 L 2120,1658 L 2110,1662 L 2099,1663 L 1995,1663 L 1985,1662 L 1974,1658 L 1965,1653 L 1957,1646 L 1950,1637 L 1946,1627 L 1944,1616 L 1944,1605 L 1946,1595 L 1950,1585 L 1957,1576 L 1965,1569 L 1974,1563 L 1985,1560 L 1995,1559 z " style="fill-opacity:1.000000;fill:rgb(219,60,135);stroke:rgb(0,0,0);stroke-width:2"/></g>
<g fill-rule="evenodd"><path d="M 1477,3959 L 1472,3961 L 1467,3963 L 1462,3965 L 1456,3966 L 1451,3967 L 1445,3967 L 1440,3966 L 1434,3965 L 1429,3964 L 1424,3962 L 1419,3959 L 1414,3956 L 1410,3953 L 1406,3949 L 1403,3944 L 1399,3940 L 1397,3935 L 1395,3930 L 1393,3925 L 1392,3919 L 1391,3914 L 1391,3908 L 1392,3903 L 1393,3897 L 1394,3892 L 1396,3887 L 1399,3882 L 1402,3877 L 1405,3873 L 1409,3869 L 1414,3866 L 1418,3863 L 1425,3859 L 1432,3856 L 1440,3855 L 1448,3854 L 1456,3855 L 1463,3856 L 1470,3859 L 1477,3863 L 3427,3863 L 3792,3497 L 3795,3489 L 3799,3481 L 3799,2771 L 3797,2767 L 3793,2756 L 3792,2745 L 3793,2733 L 3797,2722 L 3802,2712 L 3810,2704 L 3819,2697 L 3830,2692 L 3841,2690 L 3853,2690 L 3864,2692 L 3875,2697 L 3884,2704 L 3892,2712 L 3897,2722 L 3901,2733 L 3902,2745 L 3901,2756 L 3897,2767 L 3895,2771 L 3895,3481 L 3898,3487 L 3900,3492 L 3902,3499 L 3903,3505 L 3903,3511 L 3903,3517 L 3902,3523 L 3900,3529 L 3898,3535 L 3895,3541 L 3891,3546 L 3886,3551 L 3881,3556 L 3874,3560 L 3867,3563 L 3860,3565 L 3481,3944 L 3474,3950 L 3465,3955 L 3456,3958 L 3447,3959 L 1477,3959 z " style="fill-opacity:1.000000;fill:rgb(12,62,153);stroke:rgb(0,0,0);stroke-width:2"/></g>
<g fill-rule="evenodd"><path d="M 2999,3181 L 2999,540 L 2996,533 L 2993,526 L 2991,518 L 2991,510 L 2991,504 L 2992,499 L 2994,494 L 2996,489 L 2998,484 L 3001,479 L 3004,475 L 3008,471 L 3012,467 L 3017,464 L 3022,461 L 3027,459 L 3032,457 L 3037,456 L 3043,455 L 3048,455 L 3054,455 L 3059,456 L 3064,457 L 3069,459 L 3074,462 L 3079,465 L 3083,468 L 3087,472 L 3091,476 L 3094,480 L 3097,484 L 3099,489 L 3101,494 L 3102,499 L 3103,505 L 3103,510 L 3103,518 L 3101,526 L 3099,533 L 3095,540 L 3095,3181 L 3099,3188 L 3101,3195 L 3103,3203 L 3103,3210 L 3103,3218 L 3101,3226 L 3099,3233 L 3095,3240 L 3092,3245 L 3089,3249 L 3085,3253 L 3080,3256 L 3076,3259 L 3071,3262 L 3066,3264 L 3060,3265 L 3055,3266 L 3049,3267 L 3044,3267 L 3038,3266 L 3033,3265 L 3028,3263 L 3023,3261 L 3018,3259 L 3013,3256 L 3009,3252 L 3005,3248 L 3002,3244 L 2999,3239 L 2996,3234 L 2994,3229 L 2992,3224 L 2991,3218 L 2991,3213 L 2991,3207 L 2992,3202 L 2993,3196 L 2994,3191 L 2997,3186 L 2999,3181 z " style="fill-opacity:1.000000;fill:rgb(36,94,13);stroke:rgb(0,0,0);stroke-width:2"/></g>
<g fill-rule="evenodd"><path d="M 1519,2163 L 1647,2163 L 1657,2164 L 1666,2166 L 1674,2171 L 1681,2177 L 1781,2277 L 1788,2285 L 1791,2291 L 1794,2301 L 1795,2311 L 1795,2691 L 1967,2863 L 2447,2863 L 2457,2864 L 2466,2866 L 2474,2871 L 2481,2877 L 2487,2884 L 2492,2892 L 2494,2901 L 2495,2911 L 2495,3563 L 3227,3563 L 3499,3291 L 3499,2111 L 3500,2101 L 3503,2092 L 3507,2084 L 3513,2077 L 3520,2071 L 3529,2067 L 3538,2064 L 3547,2063 L 3799,2063 L 3799,359 L 3077,359 L 3069,363 L 3060,366 L 3051,367 L 3042,367 L 3035,366 L 3028,364 L 3022,361 L 3015,358 L 3010,353 L 3005,348 L 3001,343 L 2997,336 L 2994,330 L 2992,323 L 2991,316 L 2991,309 L 2992,302 L 2993,295 L 2996,289 L 2999,282 L 3003,276 L 3008,271 L 3013,266 L 3019,262 L 3026,259 L 3032,257 L 3039,255 L 3047,255 L 3054,255 L 3062,257 L 3070,260 L 3077,263 L 4627,263 L 4813,77 L 4820,71 L 4829,67 L 4838,64 L 4847,63 L 5196,63 L 5200,59 L 5212,50 L 5225,44 L 5239,41 L 5254,41 L 5269,44 L 5282,50 L 5294,59 L 5304,70 L 5311,83 L 5316,97 L 5317,111 L 5316,126 L 5311,140 L 5304,153 L 5294,164 L 5282,172 L 5269,178 L 5254,181 L 5239,181 L 5225,178 L 5212,172 L 5200,164 L 5196,159 L 4867,159 L 4681,345 L 4674,351 L 4665,355 L 4656,358 L 4647,359 L 3895,359 L 3895,2063 L 4418,2063 L 4426,2059 L 4434,2056 L 4443,2055 L 4452,2055 L 4458,2056 L 4464,2057 L 4469,2059 L 4474,2062 L 4479,2065 L 4484,2068 L 4488,2072 L 4492,2077 L 4495,2082 L 4498,2087 L 4500,2092 L 4502,2098 L 4503,2104 L 4503,2110 L 4503,2115 L 4502,2121 L 4500,2130 L 4496,2139 L 4491,2146 L 4484,2153 L 4477,2159 L 4468,2163 L 4460,2166 L 4450,2167 L 4442,2167 L 4433,2165 L 4425,2163 L 4418,2159 L 3895,2159 L 3895,2450 L 3897,2455 L 3901,2465 L 3902,2477 L 3901,2488 L 3897,2499 L 3892,2509 L 3884,2518 L 3875,2525 L 3864,2529 L 3853,2532 L 3841,2532 L 3830,2529 L 3819,2525 L 3810,2518 L 3802,2509 L 3797,2499 L 3793,2488 L 3792,2477 L 3793,2465 L 3797,2455 L 3799,2450 L 3799,2159 L 3595,2159 L 3595,3311 L 3594,3320 L 3591,3329 L 3587,3337 L 3581,3345 L 3281,3645 L 3274,3651 L 3266,3655 L 3257,3658 L 3247,3659 L 2447,3659 L 2438,3658 L 2429,3655 L 2421,3651 L 2413,3645 L 2407,3637 L 2403,3629 L 2400,3620 L 2399,3611 L 2399,2959 L 1947,2959 L 1937,2958 L 1928,2955 L 1921,2951 L 1913,2945 L 1713,2745 L 1707,2737 L 1703,2729 L 1700,2720 L 1699,2711 L 1699,2331 L 1628,2259 L 1519,2259 L 1510,2262 L 1499,2263 L 1395,2263 L 1385,2262 L 1374,2258 L 1365,2253 L 1357,2246 L 1350,2237 L 1346,2227 L 1344,2216 L 1344,2205 L 1346,2195 L 1350,2185 L 1357,2176 L 1365,2169 L 1374,2163 L 1385,2160 L 1395,2159 L 1499,2159 L 1510,2160 L 1519,2163 z " style="fill-opacity:1.000000;fill:rgb(28,6,183);stroke:rgb(0,0,0);stroke-width:2"/></g>
<g fill-rule="evenodd"><path d="M 1376,2459 L 877,2459 L 870,2462 L 863,2465 L 856,2466 L 848,2467 L 840,2467 L 833,2465 L 825,2462 L 818,2459 L 496,2459 L 496,3291 L 498,3300 L 500,3311 L 498,3321 L 495,3332 L 490,3341 L 482,3349 L 474,3356 L 464,3360 L 453,3362 L 442,3362 L 432,3360 L 422,3356 L 413,3349 L 406,3341 L 400,3332 L 397,3321 L 396,3311 L 397,3300 L 400,3291 L 400,2411 L 401,2401 L 403,2392 L 408,2384 L 414,2377 L 421,2371 L 429,2366 L 438,2364 L 448,2363 L 818,2363 L 825,2359 L 832,2357 L 839,2355 L 847,2355 L 855,2355 L 863,2357 L 870,2359 L 877,2363 L 1099,2363 L 1099,1611 L 1100,1602 L 1103,1593 L 1108,1584 L 1114,1577 L 1121,1571 L 1129,1567 L 1138,1564 L 1147,1563 L 1376,1563 L 1385,1560 L 1395,1559 L 1499,1559 L 1510,1560 L 1521,1563 L 1530,1569 L 1538,1576 L 1544,1585 L 1549,1595 L 1551,1605 L 1551,1616 L 1549,1627 L 1544,1637 L 1538,1646 L 1530,1653 L 1521,1658 L 1510,1662 L 1499,1663 L 1395,1663 L 1385,1662 L 1376,1659 L 1195,1659 L 1195,2363 L 1376,2363 L 1385,2360 L 1395,2359 L 1499,2359 L 1510,2360 L 1521,2363 L 1530,2369 L 1538,2376 L 1544,2385 L 1549,2395 L 1551,2405 L 1551,2416 L 1549,2427 L 1544,2437 L 1538,2446 L 1530,2453 L 1521,2458 L 1510,2462 L 1499,2463 L 1395,2463 L 1385,2462 L 1376,2459 z " style="fill-opacity:1.000000;fill:rgb(71,222,179);stroke:rgb(0,0,0);stroke-width:2"/></g>
<g fill-rule="evenodd"><path d="M 1376,1459 L 877,1459 L 870,1462 L 863,1465 L 856,1467 L 848,1467 L 840,1467 L 833,1465 L 825,1463 L 818,1459 L 477,1459 L 469,1463 L 461,1466 L 453,1467 L 445,1467 L 439,1467 L 434,1465 L 428,1464 L 423,1462 L 418,1459 L 414,1456 L 410,1452 L 406,1449 L 402,1444 L 399,1440 L 397,1435 L 395,1430 L 393,1424 L 392,1419 L 391,1414 L 391,1408 L 392,1403 L 393,1398 L 394,1393 L 396,1388 L 399,1383 L 402,1378 L 405,1374 L 409,1370 L 413,1367 L 417,1364 L 421,1361 L 426,1359 L 431,1357 L 436,1356 L 442,1355 L 447,1355 L 455,1355 L 463,1357 L 470,1359 L 477,1363 L 818,1363 L 825,1359 L 832,1357 L 839,1355 L 847,1355 L 855,1355 L 863,1357 L 870,1359 L 877,1363 L 1376,1363 L 1385,1360 L 1395,1359 L 1499,1359 L 1510,1360 L 1521,1363 L 1530,1369 L 1538,1376 L 1544,1385 L 1549,1395 L 1551,1406 L 1551,1416 L 1549,1427 L 1544,1437 L 1538,1446 L 1530,1453 L 1521,1458 L 1510,1462 L 1499,1463 L 1395,1463 L 1385,1462 L 1376,1459 z " style="fill-opacity:1.000000;fill:rgb(18,77,200);stroke:rgb(0,0,0);stroke-width:2"/></g>
<g fill-rule="evenodd"><path d="M 4975,1559 L 4895,1559 L 4895,3481 L 4899,3488 L 4901,3496 L 4903,3504 L 4903,3512 L 4903,3518 L 4902,3523 L 4900,3529 L 4898,3534 L 4895,3539 L 4892,3544 L 4889,3548 L 4885,3552 L 4880,3556 L 4876,3559 L 4871,3562 L 4866,3564 L 4860,3565 L 4855,3566 L 4849,3567 L 4843,3567 L 4838,3566 L 4833,3565 L 4828,3564 L 4823,3562 L 4819,3559 L 4814,3556 L 4810,3553 L 4806,3550 L 4803,3546 L 4800,3541 L 4797,3537 L 4795,3532 L 4793,3527 L 4792,3522 L 4791,3517 L 4791,3512 L 4791,3504 L 4793,3496 L 4795,3488 L 4799,3481 L 4799,1511 L 4800,1502 L 4803,1493 L 4807,1484 L 4813,1477 L 4820,1471 L 4829,1467 L 4838,1464 L 4847,1463 L 4975,1463 L 4984,1460 L 4995,1459 L 5099,1459 L 5110,1460 L 5120,1463 L 5129,1469 L 5137,1476 L 5144,1485 L 5148,1495 L 5151,1506 L 5151,1516 L 5148,1527 L 5144,1537 L 5137,1546 L 5129,1553 L 5120,1558 L 5110,1562 L 5099,1563 L 4995,1563 L 4984,1562 L 4975,1559 z " style="fill-opacity:1.000000;fill:rgb(67,187,139);stroke:rgb(0,0,0);stroke-width:2"/></g>
<g fill-rule="evenodd"><path d="M 6550,1905 L 6550,1916 L 6548,1927 L 6544,1937 L 6537,1946 L 6529,1953 L 6520,1958 L 6509,1962 L 6499,1963 L 6395,1963 L 6384,1962 L 6373,1958 L 6364,1953 L 6356,1946 L 6350,1937 L 6345,1927 L 6343,1916 L 6343,1905 L 6345,1895 L 6350,1885 L 6356,1876 L 6364,1869 L 6373,1863 L 6384,1860 L 6395,1859 L 6399,1859 L 6399,1359 L 5118,1359 L 5110,1362 L 5099,1363 L 4995,1363 L 4984,1362 L 4974,1358 L 4964,1353 L 4956,1346 L 4950,1337 L 4945,1327 L 4943,1316 L 4943,1306 L 4945,1295 L 4950,1285 L 4956,1276 L 4964,1269 L 4974,1263 L 4984,1260 L 4995,1259 L 5099,1259 L 5110,1260 L 5118,1263 L 6399,1263 L 6399,341 L 6217,159 L 5898,159 L 5894,164 L 5882,172 L 5868,178 L 5854,181 L 5839,181 L 5825,178 L 5811,172 L 5800,164 L 5790,153 L 5782,140 L 5778,126 L 5776,111 L 5778,97 L 5782,83 L 5790,70 L 5800,59 L 5811,50 L 5825,44 L 5839,41 L 5854,41 L 5868,44 L 5882,50 L 5894,59 L 5898,63 L 6237,63 L 6246,64 L 6255,67 L 6263,71 L 6271,77 L 6481,287 L 6487,295 L 6491,304 L 6494,311 L 6495,321 L 6495,1859 L 6499,1859 L 6509,1860 L 6520,1863 L 6529,1869 L 6537,1876 L 6544,1885 L 6548,1895 L 6550,1905 z " style="fill-opacity:1.000000;fill:rgb(166,31,3);stroke:rgb(0,0,0);stroke-width:2"/></g>
<g fill-rule="evenodd"><path d="M 442,0 L 453,0 L 465,2 L 476,7 L 485,14 L 493,22 L 499,32 L 502,44 L 504,55 L 504,63 L 1747,63 L 1757,64 L 1766,67 L 1774,71 L 1781,77 L 1787,85 L 1792,93 L 1794,102 L 1795,111 L 1795,1363 L 1976,1363 L 1985,1360 L 1995,1359 L 2099,1359 L 2110,1360 L 2120,1363 L 2130,1369 L 2138,1376 L 2144,1385 L 2149,1395 L 2151,1406 L 2151,1416 L 2149,1427 L 2144,1437 L 2138,1446 L 2130,1453 L 2120,1458 L 2110,1462 L 2099,1463 L 1995,1463 L 1985,1462 L 1976,1459 L 1795,1459 L 1795,1911 L 1794,1920 L 1792,1929 L 1787,1938 L 1781,1945 L 1681,2045 L 1674,2051 L 1666,2055 L 1657,2058 L 1647,2059 L 1519,2059 L 1510,2062 L 1499,2063 L 1395,2063 L 1385,2062 L 1374,2058 L 1365,2053 L 1357,2046 L 1350,2037 L 1346,2027 L 1344,2016 L 1344,2005 L 1346,1995 L 1350,1985 L 1357,1976 L 1365,1969 L 1374,1963 L 1385,1960 L 1395,1959 L 1499,1959 L 1510,1960 L 1519,1963 L 1628,1963 L 1699,1891 L 1699,159 L 504,159 L 504,167 L 502,179 L 499,190 L 496,195 L 496,382 L 498,386 L 500,391 L 502,397 L 503,402 L 504,407 L 504,413 L 503,418 L 503,423 L 501,429 L 499,434 L 497,439 L 494,443 L 490,448 L 487,452 L 482,455 L 478,459 L 473,461 L 468,464 L 463,465 L 457,467 L 452,467 L 446,467 L 441,467 L 435,466 L 426,463 L 418,459 L 410,453 L 404,447 L 399,439 L 395,430 L 392,421 L 391,412 L 392,404 L 393,396 L 396,389 L 400,382 L 400,195 L 396,190 L 393,179 L 392,167 L 392,55 L 393,44 L 396,32 L 402,22 L 410,14 L 420,7 L 430,2 L 442,0 z " style="fill-opacity:1.000000;fill:rgb(90,125,9);stroke:rgb(0,0,0);stroke-width:2"/></g>
<g fill-rule="evenodd"><path d="M 242,0 L 253,0 L 265,2 L 276,7 L 285,14 L 293,22 L 299,32 L 302,44 L 304,55 L 304,167 L 302,179 L 299,190 L 293,200 L 285,209 L 276,216 L 265,220 L 253,223 L 242,223 L 230,220 L 220,216 L 210,209 L 202,200 L 196,190 L 193,179 L 192,167 L 192,159 L 96,159 L 96,3963 L 400,3963 L 400,3740 L 397,3736 L 395,3731 L 394,3727 L 392,3722 L 392,3717 L 391,3712 L 391,3707 L 392,3702 L 393,3697 L 394,3692 L 396,3688 L 398,3683 L 401,3679 L 404,3675 L 407,3671 L 411,3668 L 415,3665 L 419,3662 L 423,3660 L 428,3658 L 432,3656 L 437,3655 L 442,3655 L 447,3654 L 452,3654 L 457,3655 L 462,3656 L 467,3658 L 471,3660 L 476,3662 L 480,3665 L 484,3668 L 488,3671 L 491,3675 L 494,3679 L 497,3683 L 499,3688 L 501,3692 L 502,3697 L 503,3702 L 504,3707 L 504,3712 L 504,3717 L 503,3721 L 502,3726 L 500,3731 L 498,3736 L 496,3740 L 496,3963 L 1000,3963 L 1000,2611 L 1000,2601 L 1003,2592 L 1008,2584 L 1014,2577 L 1021,2571 L 1029,2566 L 1038,2564 L 1048,2563 L 1376,2563 L 1385,2560 L 1395,2559 L 1499,2559 L 1510,2560 L 1521,2563 L 1530,2569 L 1538,2576 L 1544,2585 L 1549,2595 L 1551,2605 L 1551,2616 L 1549,2627 L 1544,2637 L 1538,2646 L 1530,2653 L 1521,2658 L 1510,2662 L 1499,2663 L 1395,2663 L 1385,2662 L 1376,2659 L 1095,2659 L 1095,2863 L 1418,2863 L 1425,2859 L 1432,2856 L 1440,2855 L 1448,2854 L 1456,2855 L 1463,2857 L 1470,2859 L 1477,2863 L 1547,2863 L 1557,2864 L 1566,2866 L 1574,2871 L 1581,2877 L 1867,3163 L 2018,3163 L 2023,3160 L 2028,3158 L 2033,3156 L 2038,3155 L 2044,3154 L 2049,3154 L 2055,3155 L 2060,3156 L 2065,3157 L 2070,3159 L 2075,3162 L 2079,3164 L 2083,3168 L 2087,3171 L 2091,3175 L 2094,3179 L 2097,3183 L 2099,3188 L 2101,3193 L 2102,3198 L 2103,3203 L 2104,3208 L 2104,3214 L 2103,3219 L 2101,3228 L 2098,3236 L 2093,3244 L 2087,3251 L 2080,3257 L 2072,3261 L 2064,3265 L 2055,3266 L 2050,3267 L 2045,3267 L 2040,3267 L 2036,3266 L 2031,3265 L 2027,3263 L 2022,3261 L 2018,3259 L 1847,3259 L 1838,3258 L 1829,3255 L 1821,3251 L 1813,3245 L 1528,2959 L 1477,2959 L 1470,2962 L 1463,2965 L 1456,2966 L 1448,2967 L 1440,2967 L 1432,2965 L 1425,2962 L 1418,2959 L 1095,2959 L 1095,3991 L 1267,4163 L 5699,4163 L 5699,2559 L 5247,2559 L 5237,2558 L 5228,2555 L 5220,2551 L 5213,2545 L 5013,2345 L 5007,2337 L 5003,2330 L 5000,2321 L 4999,2311 L 4999,1763 L 4995,1763 L 4984,1762 L 4974,1758 L 4964,1753 L 4956,1746 L 4950,1737 L 4945,1727 L 4943,1716 L 4943,1705 L 4945,1695 L 4950,1685 L 4956,1676 L 4964,1669 L 4974,1663 L 4984,1660 L 4995,1659 L 5099,1659 L 5110,1660 L 5120,1663 L 5129,1669 L 5137,1676 L 5144,1685 L 5148,1695 L 5151,1705 L 5151,1716 L 5148,1727 L 5144,1737 L 5137,1746 L 5129,1753 L 5120,1758 L 5110,1762 L 5099,1763 L 5095,1763 L 5095,2291 L 5267,2463 L 5699,2463 L 5699,2367 L 5691,2367 L 5679,2366 L 5668,2362 L 5658,2356 L 5649,2348 L 5642,2339 L 5638,2328 L 5635,2317 L 5635,2305 L 5638,2294 L 5642,2283 L 5649,2273 L 5658,2266 L 5668,2260 L 5679,2256 L 5691,2255 L 5803,2255 L 5814,2256 L 5826,2260 L 5831,2263 L 6375,2263 L 6384,2260 L 6395,2259 L 6499,2259 L 6509,2260 L 6520,2263 L 6529,2269 L 6537,2276 L 6544,2285 L 6548,2295 L 6550,2305 L 6550,2316 L 6548,2327 L 6544,2337 L 6537,2346 L 6529,2353 L 6520,2358 L 6509,2362 L 6499,2363 L 6395,2363 L 6384,2362 L 6375,2359 L 5831,2359 L 5826,2362 L 5814,2366 L 5803,2367 L 5795,2367 L 5795,4211 L 5794,4220 L 5791,4229 L 5787,4237 L 5781,4244 L 5773,4250 L 5765,4255 L 5756,4258 L 5747,4258 L 1247,4258 L 1238,4258 L 1229,4255 L 1221,4250 L 1214,4244 L 1028,4059 L 48,4059 L 43,4058 L 38,4057 L 33,4056 L 28,4054 L 24,4052 L 19,4049 L 16,4046 L 12,4043 L 9,4039 L 6,4035 L 4,4030 L 2,4025 L 1,4021 L 0,4016 L 0,4011 L 0,111 L 1,102 L 3,93 L 8,85 L 14,77 L 21,71 L 29,67 L 38,64 L 48,63 L 192,63 L 192,55 L 193,44 L 196,32 L 202,22 L 210,14 L 220,7 L 230,2 L 242,0 z " style="fill-opacity:1.000000;fill:rgb(56,37,31);stroke:rgb(0,0,0);stroke-width:2"/></g>
<g fill-rule="evenodd"><path d="M 6550,2105 L 6550,2116 L 6548,2127 L 6544,2137 L 6537,2146 L 6529,2153 L 6520,2158 L 6509,2162 L 6499,2163 L 6395,2163 L 6384,2162 L 6375,2159 L 5831,2159 L 5826,2162 L 5814,2166 L 5803,2167 L 5691,2167 L 5679,2166 L 5668,2162 L 5663,2159 L 5476,2159 L 5471,2161 L 5466,2164 L 5461,2165 L 5456,2166 L 5451,2167 L 5445,2167 L 5440,2167 L 5434,2166 L 5429,2164 L 5424,2162 L 5419,2160 L 5414,2157 L 5410,2154 L 5406,2150 L 5402,2146 L 5399,2141 L 5397,2136 L 5394,2131 L 5393,2126 L 5391,2121 L 5391,2115 L 5391,2110 L 5391,2104 L 5392,2099 L 5395,2090 L 5399,2082 L 5404,2074 L 5411,2068 L 5418,2062 L 5427,2058 L 5436,2056 L 5445,2055 L 5453,2055 L 5461,2056 L 5469,2059 L 5476,2063 L 5663,2063 L 5668,2060 L 5679,2056 L 5691,2055 L 5803,2055 L 5814,2056 L 5826,2060 L 5831,2063 L 6375,2063 L 6384,2060 L 6395,2059 L 6499,2059 L 6509,2060 L 6520,2063 L 6529,2069 L 6537,2076 L 6544,2085 L 6548,2095 L 6550,2105 z " style="fill-opacity:1.000000;fill:rgb(93,212,203);stroke:rgb(0,0,0);stroke-width:2"/></g>
</svg>
