<?xml version="1.0" standalone="no"?>
<!DOCTYPE svg PUBLIC "-//W3C//DTD SVG 1.1//EN"
"http://www.w3.org/Graphics/SVG/1.1/DTD/svg11.dtd">
<svg width="6583" height="4291" viewBox="0 0 6583 4291" version="1.1"
xmlns="http://www.w3.org/2000/svg"
xmlns:xlink="http://www.w3.org/1999/xlink">
<g fill-rule="evenodd"><path d="M 2011,2559 L 2115,2559 L 2117,2559 L 2128,2560 L 2131,2561 L 2141,2564 L 2143,2565 L 2144,2566 L 2154,2571 L 2156,2573 L 2164,2580 L 2167,2583 L 2173,2592 L 2174,2593 L 2175,2594 L 2179,2604 L 2180,2606 L 2180,2607 L 2182,2618 L 2183,2621 L 2183,2632 L 2183,2634 L 2182,2636 L 2180,2646 L 2180,2648 L 2179,2649 L 2175,2659 L 2173,2662 L 2167,2671 L 2166,2672 L 2164,2673 L 2156,2681 L 2154,2683 L 2144,2688 L 2143,2689 L 2141,2689 L 2131,2693 L 2128,2693 L 2117,2694 L 2115,2695 L 2011,2695 L 2010,2694 L 1999,2693 L 1996,2693 L 1985,2689 L 1984,2689 L 1982,2688 L 1973,2683 L 1970,2681 L 1962,2673 L 1961,2672 L 1960,2671 L 1953,2662 L 1952,2659 L 1947,2649 L 1947,2648 L 1946,2646 L 1944,2636 L 1944,2632 L 1944,2621 L 1944,2618 L 1946,2607 L 1947,2606 L 1947,2604 L 1952,2594 L 1953,2593 L 1953,2592 L 1960,2583 L 1962,2580 L 1970,2573 L 1973,2571 L 1982,2566 L 1984,2565 L 1985,2564 L 1996,2561 L 1999,2560 L 2010,2559 L 2011,2559 z " style="fill-opacity:1.000000;fill:rgb(41,35,190);stroke:rgb(0,0,0);stroke-width:2"/></g>
<g fill-rule="evenodd"><path d="M 1515,1895 L 1411,1895 L 1410,1895 L 1399,1893 L 1396,1893 L 1385,1889 L 1384,1889 L 1382,1888 L 1373,1883 L 1370,1881 L 1362,1873 L 1361,1872 L 1360,1871 L 1353,1862 L 1352,1859 L 1347,1849 L 1347,1848 L 1346,1846 L 1344,1836 L 1344,1832 L 1344,1821 L 1344,1818 L 1346,1808 L 1347,1806 L 1347,1804 L 1352,1794 L 1353,1793 L 1353,1792 L 1360,1783 L 1362,1780 L 1370,1773 L 1373,1771 L 1382,1766 L 1384,1765 L 1385,1764 L 1396,1761 L 1399,1760 L 1410,1759 L 1411,1759 L 1515,1759 L 1517,1759 L 1528,1760 L 1531,1761 L 1541,1764 L 1543,1765 L 1544,1766 L 1554,1771 L 1556,1773 L 1564,1780 L 1567,1783 L 1573,1792 L 1574,1793 L 1575,1794 L 1579,1804 L 1580,1806 L 1580,1808 L 1582,1818 L 1583,1821 L 1583,1832 L 1583,1834 L 1582,1836 L 1580,1846 L 1580,1848 L 1579,1849 L 1575,1859 L 1573,1862 L 1567,1871 L 1566,1872 L 1564,1873 L 1556,1881 L 1554,1883 L 1544,1888 L 1543,1889 L 1541,1889 L 1531,1893 L 1528,1893 L 1517,1895 L 1515,1895 z " style="fill-opacity:1.000000;fill:rgb(132,225,108);stroke:rgb(0,0,0);stroke-width:2"/></g>
<g fill-rule="evenodd"><path d="M 2011,2359 L 2115,2359 L 2117,2359 L 2128,2360 L 2131,2361 L 2141,2364 L 2143,2365 L 2144,2366 L 2154,2371 L 2156,2373 L 2164,2380 L 2167,2383 L 2173,2392 L 2174,2393 L 2175,2394 L 2179,2404 L 2180,2406 L 2180,2407 L 2182,2418 L 2183,2421 L 2183,2432 L 2183,2434 L 2182,2436 L 2180,2446 L 2180,2448 L 2179,2449 L 2175,2459 L 2173,2462 L 2167,2471 L 2166,2472 L 2164,2473 L 2156,2481 L 2154,2483 L 2144,2488 L 2143,2489 L 2141,2489 L 2131,2493 L 2128,2493 L 2117,2494 L 2115,2495 L 2011,2495 L 2010,2494 L 1999,2493 L 1996,2493 L 1985,2489 L 1984,2489 L 1982,2488 L 1973,2483 L 1970,2481 L 1962,2473 L 1961,2472 L 1960,2471 L 1953,2462 L 1952,2459 L 1947,2449 L 1947,2448 L 1946,2446 L 1944,2436 L 1944,2432 L 1944,2421 L 1944,2418 L 1946,2407 L 1947,2406 L 1947,2404 L 1952,2394 L 1953,2393 L 1953,2392 L 1960,2383 L 1962,2380 L 1970,2373 L 1973,2371 L 1982,2366 L 1984,2365 L 1985,2364 L 1996,2361 L 1999,2360 L 2010,2359 L 2011,2359 z " style="fill-opacity:1.000000;fill:rgb(214,174,82);stroke:rgb(0,0,0);stroke-width:2"/></g>
<g fill-rule="evenodd"><path d="M 2115,2295 L 2011,2295 L 2010,2295 L 1999,2293 L 1996,2293 L 1985,2289 L 1984,2289 L 1982,2288 L 1973,2283 L 1970,2281 L 1962,2273 L 1961,2272 L 1960,2271 L 1953,2262 L 1952,2259 L 1947,2249 L 1947,2248 L 1946,2246 L 1944,2236 L 1944,2232 L 1944,2221 L 1944,2218 L 1946,2208 L 1947,2206 L 1947,2204 L 1952,2194 L 1953,2193 L 1953,2192 L 1960,2183 L 1962,2180 L 1970,2173 L 1973,2171 L 1982,2166 L 1984,2165 L 1985,2164 L 1996,2161 L 1999,2160 L 2010,2159 L 2011,2159 L 2115,2159 L 2117,2159 L 2128,2160 L 2131,2161 L 2141,2164 L 2143,2165 L 2144,2166 L 2154,2171 L 2156,2173 L 2164,2180 L 2167,2183 L 2173,2192 L 2174,2193 L 2175,2194 L 2179,2204 L 2180,2206 L 2180,2208 L 2182,2218 L 2183,2221 L 2183,2232 L 2183,2234 L 2182,2236 L 2180,2246 L 2180,2248 L 2179,2249 L 2175,2259 L 2173,2262 L 2167,2271 L 2166,2272 L 2164,2273 L 2156,2281 L 2154,2283 L 2144,2288 L 2143,2289 L 2141,2289 L 2131,2293 L 2128,2293 L 2117,2295 L 2115,2295 z " style="fill-opacity:1.000000;fill:rgb(144,73,241);stroke:rgb(0,0,0);stroke-width:2"/></g>
<g fill-rule="evenodd"><path d="M 2011,1959 L 2115,1959 L 2117,1959 L 2128,1960 L 2131,1961 L 2141,1964 L 2143,1965 L 2144,1966 L 2154,1971 L 2156,1973 L 2164,1980 L 2167,1983 L 2173,1992 L 2174,1993 L 2175,1994 L 2179,2004 L 2180,2006 L 2180,2008 L 2182,2018 L 2183,2021 L 2183,2032 L 2183,2034 L 2182,2036 L 2180,2046 L 2180,2048 L 2179,2049 L 2175,2059 L 2173,2062 L 2167,2071 L 2166,2072 L 2164,2073 L 2156,2081 L 2154,2083 L 2144,2088 L 2143,2089 L 2141,2089 L 2131,2093 L 2128,2093 L 2117,2095 L 2115,2095 L 2011,2095 L 2010,2095 L 1999,2093 L 1996,2093 L 1985,2089 L 1984,2089 L 1982,2088 L 1973,2083 L 1970,2081 L 1962,2073 L 1961,2072 L 1960,2071 L 1953,2062 L 1952,2059 L 1947,2049 L 1947,2048 L 1946,2046 L 1944,2036 L 1944,2032 L 1944,2021 L 1944,2018 L 1946,2008 L 1947,2006 L 1947,2004 L 1952,1994 L 1953,1993 L 1953,1992 L 1960,1983 L 1962,1980 L 1970,1973 L 1973,1971 L 1982,1966 L 1984,1965 L 1985,1964 L 1996,1961 L 1999,1960 L 2010,1959 L 2011,1959 z " style="fill-opacity:1.000000;fill:rgb(241,187,233);stroke:rgb(0,0,0);stroke-width:2"/></g>
<g fill-rule="evenodd"><path d="M 2115,1895 L 2011,1895 L 2010,1895 L 1999,1893 L 1996,1893 L 1985,1889 L 1984,1889 L 1982,1888 L 1973,1883 L 1970,1881 L 1962,1873 L 1961,1872 L 1960,1871 L 1953,1862 L 1952,1859 L 1947,1849 L 1947,1848 L 1946,1846 L 1944,1836 L 1944,1832 L 1944,1821 L 1944,1818 L 1946,1808 L 1947,1806 L 1947,1804 L 1952,1794 L 1953,1793 L 1953,1792 L 1960,1783 L 1962,1780 L 1970,1773 L 1973,1771 L 1982,1766 L 1984,1765 L 1985,1764 L 1996,1761 L 1999,1760 L 2010,1759 L 2011,1759 L 2115,1759 L 2117,1759 L 2128,1760 L 2131,1761 L 2141,1764 L 2143,1765 L 2144,1766 L 2154,1771 L 2156,1773 L 2164,1780 L 2167,1783 L 2173,1792 L 2174,1793 L 2175,1794 L 2179,1804 L 2180,1806 L 2180,1808 L 2182,1818 L 2183,1821 L 2183,1832 L 2183,1834 L 2182,1836 L 2180,1846 L 2180,1848 L 2179,1849 L 2175,1859 L 2173,1862 L 2167,1871 L 2166,1872 L 2164,1873 L 2156,1881 L 2154,1883 L 2144,1888 L 2143,1889 L 2141,1889 L 2131,1893 L 2128,1893 L 2117,1895 L 2115,1895 z " style="fill-opacity:1.000000;fill:rgb(235,179,166);stroke:rgb(0,0,0);stroke-width:2"/></g>
<g fill-rule="evenodd"><path d="M 2011,1559 L 2115,1559 L 2117,1559 L 2128,1560 L 2131,1561 L 2141,1564 L 2143,1565 L 2144,1566 L 2154,1571 L 2156,1573 L 2164,1580 L 2167,1583 L 2173,1592 L 2174,1593 L 2175,1594 L 2179,1604 L 2180,1606 L 2180,1608 L 2182,1618 L 2183,1621 L 2183,1632 L 2183,1634 L 2182,1636 L 2180,1646 L 2180,1648 L 2179,1649 L 2175,1659 L 2173,1662 L 2167,1671 L 2166,1672 L 2164,1673 L 2156,1681 L 2154,1683 L 2144,1688 L 2143,1689 L 2141,1689 L 2131,1693 L 2128,1693 L 2117,1695 L 2115,1695 L 2011,1695 L 2010,1695 L 1999,1693 L 1996,1693 L 1985,1689 L 1984,1689 L 1982,1688 L 1973,1683 L 1970,1681 L 1962,1673 L 1961,1672 L 1960,1671 L 1953,1662 L 1952,1659 L 1947,1649 L 1947,1648 L 1946,1646 L 1944,1636 L 1944,1632 L 1944,1621 L 1944,1618 L 1946,1608 L 1947,1606 L 1947,1604 L 1952,1594 L 1953,1593 L 1953,1592 L 1960,1583 L 1962,1580 L 1970,1573 L 1973,1571 L 1982,1566 L 1984,1565 L 1985,1564 L 1996,1561 L 1999,1560 L 2010,1559 L 2011,1559 z " style="fill-opacity:1.000000;fill:rgb(219,60,135);stroke:rgb(0,0,0);stroke-width:2"/></g>
<g fill-rule="evenodd"><path d="M 1496,3863 L 3437,3863 L 3795,3505 L 3796,3500 L 3797,3498 L 3799,3494 L 3799,2791 L 3799,2791 L 3798,2788 L 3794,2777 L 3794,2774 L 3792,2762 L 3792,2761 L 3792,2759 L 3794,2748 L 3794,2744 L 3798,2733 L 3798,2732 L 3799,2730 L 3805,2720 L 3807,2718 L 3815,2709 L 3816,2708 L 3817,2707 L 3826,2700 L 3829,2699 L 3840,2694 L 3841,2693 L 3843,2693 L 3854,2690 L 3856,2690 L 3857,2690 L 3869,2690 L 3871,2690 L 3872,2690 L 3883,2693 L 3885,2693 L 3887,2694 L 3897,2699 L 3900,2700 L 3909,2707 L 3911,2708 L 3912,2709 L 3919,2718 L 3921,2720 L 3927,2730 L 3928,2732 L 3928,2733 L 3932,2744 L 3933,2748 L 3934,2759 L 3934,2761 L 3934,2762 L 3933,2774 L 3932,2777 L 3928,2788 L 3928,2790 L 3927,2791 L 3927,2791 L 3927,3493 L 3928,3495 L 3929,3497 L 3931,3503 L 3932,3504 L 3933,3510 L 3934,3512 L 3935,3518 L 3935,3520 L 3935,3526 L 3935,3528 L 3935,3534 L 3935,3536 L 3933,3542 L 3933,3544 L 3931,3550 L 3931,3551 L 3928,3557 L 3928,3559 L 3924,3565 L 3923,3566 L 3920,3571 L 3919,3573 L 3914,3578 L 3913,3579 L 3907,3584 L 3905,3585 L 3899,3589 L 3897,3590 L 3890,3594 L 3888,3594 L 3885,3595 L 3508,3972 L 3507,3973 L 3500,3979 L 3497,3981 L 3489,3985 L 3486,3986 L 3477,3989 L 3474,3990 L 3465,3990 L 3463,3991 L 1497,3991 L 1495,3991 L 1494,3992 L 1489,3994 L 1487,3995 L 1482,3996 L 1481,3997 L 1475,3998 L 1474,3998 L 1468,3999 L 1467,3999 L 1461,3999 L 1460,3999 L 1454,3998 L 1452,3998 L 1447,3997 L 1446,3997 L 1440,3995 L 1439,3995 L 1434,3992 L 1432,3992 L 1427,3989 L 1426,3988 L 1421,3985 L 1420,3984 L 1416,3981 L 1415,3980 L 1411,3976 L 1410,3975 L 1406,3971 L 1405,3970 L 1402,3965 L 1401,3964 L 1399,3959 L 1398,3958 L 1396,3952 L 1395,3951 L 1394,3946 L 1393,3944 L 1392,3939 L 1392,3937 L 1391,3932 L 1391,3930 L 1391,3925 L 1391,3923 L 1392,3918 L 1392,3916 L 1393,3911 L 1393,3909 L 1395,3904 L 1395,3902 L 1398,3897 L 1398,3896 L 1401,3891 L 1401,3890 L 1405,3885 L 1405,3884 L 1409,3879 L 1410,3878 L 1414,3874 L 1415,3873 L 1419,3870 L 1420,3869 L 1425,3866 L 1427,3865 L 1434,3861 L 1436,3860 L 1443,3858 L 1445,3857 L 1453,3856 L 1455,3855 L 1463,3855 L 1465,3855 L 1473,3855 L 1475,3856 L 1482,3857 L 1484,3858 L 1491,3860 L 1493,3861 L 1496,3863 z " style="fill-opacity:1.000000;fill:rgb(12,62,153);stroke:rgb(0,0,0);stroke-width:2"/></g>
<g fill-rule="evenodd"><path d="M 2999,3193 L 2999,560 L 2998,557 L 2997,554 L 2994,547 L 2993,545 L 2992,537 L 2992,535 L 2991,527 L 2991,525 L 2992,519 L 2992,518 L 2993,512 L 2993,511 L 2994,506 L 2995,504 L 2997,499 L 2997,497 L 3000,493 L 3001,491 L 3004,486 L 3004,485 L 3008,481 L 3009,480 L 3013,476 L 3014,475 L 3018,471 L 3019,470 L 3024,467 L 3025,466 L 3030,463 L 3031,462 L 3036,460 L 3038,460 L 3043,458 L 3044,457 L 3050,456 L 3051,456 L 3057,455 L 3058,455 L 3064,455 L 3065,455 L 3071,455 L 3072,455 L 3078,456 L 3079,457 L 3084,458 L 3086,459 L 3091,460 L 3092,461 L 3097,463 L 3098,464 L 3103,467 L 3104,468 L 3109,471 L 3110,472 L 3114,476 L 3115,477 L 3118,481 L 3119,482 L 3123,486 L 3123,487 L 3126,492 L 3127,493 L 3129,498 L 3130,500 L 3132,505 L 3132,506 L 3133,511 L 3134,513 L 3135,518 L 3135,520 L 3135,525 L 3135,527 L 3135,535 L 3134,537 L 3133,545 L 3132,547 L 3130,554 L 3129,557 L 3127,560 L 3127,3194 L 3129,3197 L 3129,3199 L 3132,3206 L 3133,3208 L 3134,3215 L 3135,3217 L 3135,3225 L 3135,3227 L 3135,3235 L 3134,3237 L 3133,3245 L 3132,3247 L 3130,3254 L 3129,3256 L 3125,3263 L 3124,3265 L 3121,3270 L 3120,3271 L 3117,3275 L 3116,3276 L 3112,3280 L 3111,3281 L 3106,3285 L 3105,3285 L 3100,3289 L 3099,3289 L 3094,3292 L 3093,3293 L 3087,3295 L 3086,3295 L 3081,3297 L 3079,3297 L 3074,3298 L 3072,3298 L 3067,3299 L 3065,3299 L 3060,3299 L 3058,3299 L 3053,3298 L 3051,3298 L 3046,3297 L 3044,3296 L 3039,3295 L 3038,3294 L 3032,3292 L 3031,3291 L 3026,3289 L 3025,3288 L 3020,3285 L 3019,3284 L 3015,3280 L 3014,3279 L 3010,3275 L 3009,3274 L 3005,3270 L 3005,3269 L 3001,3264 L 3001,3263 L 2998,3258 L 2997,3256 L 2995,3251 L 2995,3250 L 2993,3244 L 2993,3243 L 2992,3238 L 2992,3236 L 2991,3230 L 2991,3229 L 2991,3223 L 2991,3222 L 2992,3216 L 2992,3215 L 2993,3209 L 2994,3208 L 2995,3203 L 2996,3201 L 2998,3196 L 2999,3195 L 2999,3193 z " style="fill-opacity:1.000000;fill:rgb(36,94,13);stroke:rgb(0,0,0);stroke-width:2"/></g>
<g fill-rule="evenodd"><path d="M 3237,3563 L 3499,3300 L 3499,2127 L 3499,2125 L 3500,2116 L 3501,2113 L 3504,2104 L 3505,2101 L 3509,2093 L 3511,2090 L 3517,2083 L 3519,2081 L 3526,2075 L 3529,2073 L 3537,2069 L 3540,2067 L 3549,2065 L 3552,2064 L 3562,2063 L 3563,2063 L 3799,2063 L 3799,391 L 3096,391 L 3092,393 L 3089,394 L 3081,397 L 3078,397 L 3069,399 L 3067,399 L 3058,399 L 3055,399 L 3048,397 L 3046,397 L 3040,395 L 3038,394 L 3031,391 L 3030,391 L 3023,387 L 3022,386 L 3016,382 L 3015,380 L 3010,375 L 3008,374 L 3004,368 L 3003,366 L 2999,360 L 2998,358 L 2996,352 L 2995,350 L 2993,343 L 2993,341 L 2992,335 L 2991,333 L 2991,325 L 2991,323 L 2992,316 L 2992,314 L 2994,307 L 2994,306 L 2997,299 L 2998,297 L 3001,291 L 3002,289 L 3006,283 L 3007,282 L 3012,276 L 3013,275 L 3019,270 L 3020,269 L 3026,265 L 3028,264 L 3035,261 L 3037,260 L 3043,258 L 3045,257 L 3052,256 L 3054,255 L 3061,255 L 3063,255 L 3071,255 L 3073,256 L 3081,257 L 3083,258 L 3091,260 L 3093,261 L 3096,263 L 4637,263 L 4818,82 L 4819,81 L 4826,75 L 4829,73 L 4837,69 L 4840,68 L 4849,65 L 4852,64 L 4862,63 L 4863,63 L 5205,63 L 5207,62 L 5219,53 L 5220,52 L 5221,52 L 5235,46 L 5236,45 L 5238,45 L 5252,41 L 5256,41 L 5270,41 L 5274,41 L 5288,45 L 5290,45 L 5291,46 L 5305,52 L 5306,52 L 5308,53 L 5319,62 L 5321,63 L 5322,64 L 5332,75 L 5333,76 L 5334,78 L 5341,90 L 5342,93 L 5347,107 L 5348,111 L 5349,125 L 5349,127 L 5349,129 L 5348,143 L 5347,146 L 5342,160 L 5341,163 L 5334,176 L 5333,178 L 5332,179 L 5322,190 L 5319,192 L 5308,201 L 5306,202 L 5305,202 L 5291,208 L 5290,209 L 5288,209 L 5274,212 L 5270,213 L 5256,213 L 5252,212 L 5238,209 L 5236,209 L 5235,208 L 5221,202 L 5220,202 L 5219,201 L 5207,192 L 5205,191 L 5205,191 L 4889,191 L 4708,372 L 4707,373 L 4700,379 L 4697,381 L 4689,385 L 4686,386 L 4677,389 L 4674,390 L 4665,391 L 4663,391 L 3927,391 L 3927,2063 L 4430,2063 L 4435,2061 L 4437,2060 L 4446,2057 L 4448,2056 L 4457,2055 L 4460,2055 L 4469,2055 L 4471,2055 L 4477,2056 L 4478,2056 L 4484,2058 L 4485,2058 L 4491,2060 L 4492,2061 L 4497,2064 L 4499,2064 L 4504,2067 L 4505,2068 L 4510,2072 L 4511,2073 L 4515,2077 L 4516,2078 L 4520,2083 L 4521,2084 L 4524,2089 L 4525,2090 L 4528,2095 L 4529,2097 L 4531,2102 L 4531,2104 L 4533,2110 L 4533,2111 L 4534,2117 L 4535,2119 L 4535,2125 L 4535,2126 L 4535,2132 L 4535,2134 L 4534,2139 L 4534,2141 L 4531,2150 L 4530,2153 L 4526,2161 L 4525,2164 L 4520,2171 L 4518,2173 L 4512,2180 L 4510,2182 L 4502,2187 L 4500,2189 L 4492,2193 L 4489,2194 L 4481,2197 L 4478,2197 L 4469,2199 L 4466,2199 L 4458,2199 L 4456,2198 L 4447,2197 L 4445,2196 L 4436,2194 L 4434,2193 L 4430,2191 L 3927,2191 L 3927,2462 L 3927,2463 L 3928,2464 L 3928,2466 L 3932,2477 L 3933,2480 L 3934,2491 L 3934,2493 L 3934,2495 L 3933,2506 L 3932,2509 L 3928,2520 L 3928,2522 L 3927,2523 L 3921,2533 L 3919,2536 L 3912,2544 L 3911,2546 L 3909,2547 L 3900,2553 L 3897,2555 L 3887,2560 L 3885,2560 L 3883,2561 L 3872,2563 L 3869,2564 L 3857,2564 L 3856,2563 L 3854,2563 L 3843,2561 L 3841,2560 L 3840,2560 L 3829,2555 L 3826,2553 L 3817,2547 L 3816,2546 L 3815,2544 L 3807,2536 L 3805,2533 L 3799,2523 L 3798,2522 L 3798,2520 L 3794,2509 L 3794,2506 L 3792,2495 L 3792,2493 L 3792,2491 L 3794,2480 L 3794,2477 L 3798,2466 L 3798,2464 L 3799,2463 L 3799,2462 L 3799,2191 L 3627,2191 L 3627,3327 L 3627,3328 L 3626,3338 L 3625,3341 L 3623,3350 L 3621,3353 L 3617,3361 L 3615,3363 L 3609,3371 L 3608,3372 L 3308,3672 L 3307,3673 L 3300,3679 L 3297,3681 L 3289,3685 L 3286,3686 L 3277,3689 L 3274,3690 L 3265,3690 L 3263,3691 L 2463,3691 L 2462,3690 L 2452,3690 L 2449,3689 L 2440,3686 L 2437,3685 L 2429,3681 L 2427,3679 L 2419,3673 L 2417,3671 L 2411,3663 L 2409,3661 L 2405,3653 L 2404,3650 L 2401,3641 L 2400,3638 L 2400,3628 L 2399,3627 L 2399,2991 L 1963,2991 L 1962,2990 L 1952,2989 L 1948,2989 L 1939,2986 L 1936,2985 L 1930,2981 L 1927,2979 L 1919,2973 L 1918,2972 L 1718,2772 L 1717,2771 L 1711,2763 L 1709,2761 L 1705,2753 L 1704,2750 L 1701,2741 L 1700,2738 L 1700,2728 L 1699,2727 L 1699,2353 L 1637,2291 L 1537,2291 L 1531,2293 L 1528,2293 L 1517,2295 L 1515,2295 L 1411,2295 L 1410,2295 L 1399,2293 L 1396,2293 L 1385,2289 L 1384,2289 L 1382,2288 L 1373,2283 L 1370,2281 L 1362,2273 L 1361,2272 L 1360,2271 L 1353,2262 L 1352,2259 L 1347,2249 L 1347,2248 L 1346,2246 L 1344,2236 L 1344,2232 L 1344,2221 L 1344,2218 L 1346,2208 L 1347,2206 L 1347,2204 L 1352,2194 L 1353,2193 L 1353,2192 L 1360,2183 L 1362,2180 L 1370,2173 L 1373,2171 L 1382,2166 L 1384,2165 L 1385,2164 L 1396,2161 L 1399,2160 L 1410,2159 L 1411,2159 L 1515,2159 L 1517,2159 L 1528,2160 L 1531,2161 L 1537,2163 L 1663,2163 L 1665,2163 L 1674,2164 L 1677,2165 L 1686,2167 L 1689,2169 L 1697,2173 L 1700,2175 L 1707,2181 L 1708,2182 L 1808,2282 L 1809,2283 L 1816,2291 L 1817,2293 L 1821,2300 L 1822,2302 L 1825,2312 L 1826,2315 L 1827,2325 L 1827,2327 L 1827,2700 L 1990,2863 L 2463,2863 L 2465,2863 L 2474,2864 L 2477,2865 L 2486,2867 L 2489,2869 L 2497,2873 L 2500,2875 L 2507,2881 L 2509,2883 L 2515,2890 L 2517,2893 L 2521,2901 L 2523,2904 L 2525,2913 L 2526,2916 L 2527,2925 L 2527,2927 L 2527,3563 L 3237,3563 z " style="fill-opacity:1.000000;fill:rgb(28,6,183);stroke:rgb(0,0,0);stroke-width:2"/></g>
<g fill-rule="evenodd"><path d="M 897,2491 L 893,2492 L 891,2493 L 884,2496 L 882,2496 L 875,2498 L 873,2498 L 865,2499 L 863,2499 L 855,2498 L 853,2498 L 845,2497 L 843,2496 L 836,2493 L 834,2492 L 830,2491 L 527,2491 L 527,3305 L 529,3311 L 530,3314 L 531,3325 L 531,3327 L 531,3328 L 530,3339 L 529,3342 L 526,3353 L 525,3354 L 524,3356 L 519,3365 L 517,3368 L 510,3376 L 507,3378 L 499,3385 L 497,3385 L 496,3386 L 486,3391 L 484,3391 L 483,3392 L 472,3394 L 469,3394 L 458,3394 L 455,3394 L 444,3392 L 442,3391 L 441,3391 L 431,3386 L 428,3385 L 419,3378 L 418,3377 L 417,3376 L 409,3368 L 408,3365 L 402,3356 L 401,3354 L 401,3353 L 397,3342 L 397,3339 L 396,3328 L 396,3327 L 396,3325 L 397,3314 L 397,3311 L 400,3305 L 400,2427 L 400,2425 L 401,2416 L 401,2413 L 404,2404 L 405,2401 L 409,2393 L 411,2390 L 417,2383 L 419,2381 L 427,2375 L 429,2373 L 437,2369 L 440,2367 L 449,2365 L 452,2364 L 462,2363 L 463,2363 L 830,2363 L 833,2361 L 835,2361 L 842,2358 L 844,2357 L 852,2356 L 854,2355 L 862,2355 L 864,2355 L 872,2355 L 874,2356 L 881,2357 L 883,2358 L 891,2360 L 893,2361 L 896,2363 L 1099,2363 L 1099,1627 L 1100,1625 L 1100,1616 L 1101,1613 L 1104,1604 L 1105,1601 L 1109,1593 L 1111,1590 L 1117,1583 L 1119,1581 L 1127,1575 L 1129,1573 L 1137,1569 L 1140,1567 L 1149,1565 L 1152,1564 L 1162,1563 L 1163,1563 L 1389,1563 L 1396,1561 L 1399,1560 L 1410,1559 L 1411,1559 L 1515,1559 L 1517,1559 L 1528,1560 L 1531,1561 L 1541,1564 L 1543,1565 L 1544,1566 L 1554,1571 L 1556,1573 L 1564,1580 L 1567,1583 L 1573,1592 L 1574,1593 L 1575,1594 L 1579,1604 L 1580,1606 L 1580,1608 L 1582,1618 L 1583,1621 L 1583,1632 L 1583,1634 L 1582,1636 L 1580,1646 L 1580,1648 L 1579,1649 L 1575,1659 L 1573,1662 L 1567,1671 L 1566,1672 L 1564,1673 L 1556,1681 L 1554,1683 L 1544,1688 L 1543,1689 L 1541,1689 L 1531,1693 L 1528,1693 L 1517,1695 L 1515,1695 L 1411,1695 L 1410,1695 L 1399,1693 L 1396,1693 L 1389,1691 L 1227,1691 L 1227,2363 L 1389,2363 L 1396,2361 L 1399,2360 L 1410,2359 L 1411,2359 L 1515,2359 L 1517,2359 L 1528,2360 L 1531,2361 L 1541,2364 L 1543,2365 L 1544,2366 L 1554,2371 L 1556,2373 L 1564,2380 L 1567,2383 L 1573,2392 L 1574,2393 L 1575,2394 L 1579,2404 L 1580,2406 L 1580,2407 L 1582,2418 L 1583,2421 L 1583,2432 L 1583,2434 L 1582,2436 L 1580,2446 L 1580,2448 L 1579,2449 L 1575,2459 L 1573,2462 L 1567,2471 L 1566,2472 L 1564,2473 L 1556,2481 L 1554,2483 L 1544,2488 L 1543,2489 L 1541,2489 L 1531,2493 L 1528,2493 L 1517,2494 L 1515,2495 L 1411,2495 L 1410,2494 L 1399,2493 L 1396,2493 L 1389,2491 L 897,2491 z " style="fill-opacity:1.000000;fill:rgb(71,222,179);stroke:rgb(0,0,0);stroke-width:2"/></g>
<g fill-rule="evenodd"><path d="M 897,1491 L 893,1492 L 891,1493 L 884,1496 L 882,1496 L 875,1498 L 873,1498 L 865,1499 L 863,1499 L 855,1498 L 853,1498 L 845,1497 L 843,1496 L 836,1493 L 834,1492 L 830,1491 L 496,1491 L 492,1493 L 490,1494 L 482,1496 L 480,1497 L 471,1498 L 469,1499 L 461,1499 L 459,1499 L 453,1498 L 452,1498 L 446,1497 L 445,1496 L 439,1495 L 438,1494 L 433,1492 L 431,1491 L 426,1489 L 425,1488 L 420,1485 L 419,1484 L 415,1480 L 414,1479 L 410,1476 L 409,1474 L 406,1470 L 405,1469 L 402,1464 L 401,1463 L 398,1458 L 398,1457 L 396,1452 L 395,1450 L 394,1445 L 393,1443 L 392,1438 L 392,1437 L 391,1431 L 391,1429 L 391,1424 L 391,1422 L 392,1417 L 392,1416 L 393,1410 L 393,1409 L 395,1404 L 395,1403 L 397,1398 L 398,1396 L 400,1392 L 401,1390 L 404,1386 L 405,1385 L 408,1380 L 409,1379 L 413,1375 L 414,1374 L 418,1371 L 419,1370 L 423,1367 L 425,1366 L 429,1363 L 430,1363 L 435,1361 L 437,1360 L 442,1358 L 443,1358 L 448,1356 L 450,1356 L 455,1355 L 456,1355 L 462,1355 L 464,1355 L 471,1355 L 474,1356 L 481,1357 L 483,1358 L 491,1360 L 493,1361 L 496,1363 L 830,1363 L 833,1361 L 835,1361 L 842,1358 L 844,1357 L 852,1356 L 854,1355 L 862,1355 L 864,1355 L 872,1355 L 874,1356 L 881,1357 L 883,1358 L 891,1360 L 893,1361 L 896,1363 L 1389,1363 L 1396,1361 L 1399,1360 L 1410,1359 L 1411,1359 L 1515,1359 L 1517,1359 L 1528,1360 L 1531,1361 L 1541,1364 L 1543,1365 L 1544,1366 L 1554,1371 L 1556,1373 L 1564,1380 L 1567,1383 L 1573,1392 L 1574,1393 L 1575,1394 L 1579,1404 L 1580,1406 L 1580,1408 L 1582,1418 L 1583,1421 L 1583,1432 L 1583,1434 L 1582,1436 L 1580,1446 L 1580,1448 L 1579,1449 L 1575,1459 L 1573,1462 L 1567,1471 L 1566,1472 L 1564,1473 L 1556,1481 L 1554,1483 L 1544,1488 L 1543,1489 L 1541,1489 L 1531,1493 L 1528,1493 L 1517,1495 L 1515,1495 L 1411,1495 L 1410,1495 L 1399,1493 L 1396,1493 L 1389,1491 L 897,1491 z " style="fill-opacity:1.000000;fill:rgb(18,77,200);stroke:rgb(0,0,0);stroke-width:2"/></g>
<g fill-rule="evenodd"><path d="M 4989,1591 L 4927,1591 L 4927,3494 L 4929,3497 L 4930,3499 L 4932,3507 L 4933,3509 L 4934,3517 L 4935,3519 L 4935,3528 L 4935,3529 L 4935,3535 L 4934,3537 L 4933,3542 L 4933,3544 L 4931,3549 L 4931,3551 L 4929,3556 L 4928,3557 L 4926,3562 L 4925,3564 L 4922,3569 L 4921,3570 L 4917,3574 L 4916,3575 L 4912,3579 L 4911,3581 L 4907,3584 L 4905,3585 L 4901,3588 L 4899,3589 L 4894,3592 L 4893,3592 L 4888,3594 L 4886,3595 L 4881,3597 L 4879,3597 L 4874,3598 L 4872,3598 L 4866,3599 L 4865,3599 L 4859,3599 L 4858,3599 L 4853,3598 L 4851,3598 L 4846,3597 L 4845,3596 L 4840,3595 L 4838,3594 L 4833,3592 L 4832,3592 L 4827,3589 L 4826,3589 L 4822,3586 L 4820,3585 L 4816,3582 L 4815,3581 L 4812,3577 L 4811,3576 L 4807,3572 L 4806,3571 L 4803,3567 L 4802,3566 L 4800,3561 L 4799,3560 L 4797,3555 L 4796,3554 L 4794,3549 L 4794,3547 L 4793,3542 L 4792,3541 L 4792,3536 L 4791,3534 L 4791,3529 L 4791,3527 L 4791,3519 L 4792,3517 L 4793,3509 L 4794,3507 L 4797,3499 L 4797,3497 L 4799,3494 L 4799,1527 L 4799,1525 L 4800,1516 L 4801,1513 L 4804,1504 L 4805,1501 L 4809,1493 L 4811,1490 L 4817,1483 L 4819,1481 L 4826,1475 L 4829,1473 L 4837,1469 L 4840,1467 L 4849,1465 L 4852,1464 L 4862,1463 L 4863,1463 L 4989,1463 L 4995,1461 L 4999,1460 L 5009,1459 L 5011,1459 L 5115,1459 L 5117,1459 L 5128,1460 L 5131,1461 L 5141,1464 L 5143,1465 L 5144,1466 L 5154,1471 L 5156,1473 L 5164,1480 L 5166,1483 L 5173,1492 L 5174,1493 L 5174,1494 L 5179,1504 L 5179,1506 L 5180,1508 L 5182,1518 L 5183,1521 L 5183,1532 L 5182,1534 L 5182,1536 L 5180,1546 L 5179,1548 L 5179,1549 L 5174,1559 L 5173,1562 L 5166,1571 L 5165,1572 L 5164,1573 L 5156,1581 L 5154,1583 L 5144,1588 L 5143,1589 L 5141,1589 L 5131,1593 L 5128,1593 L 5117,1595 L 5115,1595 L 5011,1595 L 5009,1595 L 4999,1593 L 4995,1593 L 4989,1591 z " style="fill-opacity:1.000000;fill:rgb(67,187,139);stroke:rgb(0,0,0);stroke-width:2"/></g>
<g fill-rule="evenodd"><path d="M 6582,1921 L 6582,1932 L 6582,1934 L 6582,1936 L 6580,1946 L 6579,1948 L 6579,1949 L 6574,1959 L 6573,1962 L 6566,1971 L 6565,1972 L 6564,1973 L 6556,1981 L 6553,1983 L 6544,1988 L 6543,1989 L 6541,1989 L 6531,1993 L 6527,1993 L 6517,1995 L 6515,1995 L 6411,1995 L 6409,1995 L 6399,1993 L 6395,1993 L 6385,1989 L 6383,1989 L 6382,1988 L 6373,1983 L 6370,1981 L 6362,1973 L 6361,1972 L 6360,1971 L 6353,1962 L 6352,1959 L 6347,1949 L 6347,1948 L 6346,1946 L 6344,1936 L 6344,1932 L 6344,1921 L 6344,1918 L 6346,1908 L 6347,1906 L 6347,1904 L 6352,1894 L 6352,1893 L 6353,1892 L 6360,1883 L 6362,1880 L 6370,1873 L 6373,1871 L 6382,1866 L 6383,1865 L 6385,1864 L 6395,1861 L 6399,1860 L 6399,1860 L 6399,1391 L 5137,1391 L 5131,1393 L 5128,1393 L 5117,1395 L 5115,1395 L 5011,1395 L 5009,1395 L 4999,1393 L 4995,1393 L 4985,1389 L 4984,1389 L 4982,1388 L 4973,1383 L 4970,1381 L 4962,1373 L 4961,1372 L 4960,1371 L 4953,1362 L 4952,1359 L 4947,1349 L 4947,1348 L 4946,1346 L 4944,1336 L 4944,1332 L 4944,1321 L 4944,1318 L 4946,1308 L 4947,1306 L 4947,1304 L 4952,1294 L 4952,1293 L 4953,1292 L 4960,1283 L 4962,1280 L 4970,1273 L 4973,1271 L 4982,1266 L 4984,1265 L 4985,1264 L 4995,1261 L 4999,1260 L 5009,1259 L 5011,1259 L 5115,1259 L 5117,1259 L 5128,1260 L 5131,1261 L 5137,1263 L 6399,1263 L 6399,363 L 6227,191 L 5921,191 L 5919,192 L 5908,201 L 5906,202 L 5905,202 L 5891,208 L 5890,209 L 5888,209 L 5874,212 L 5870,213 L 5856,213 L 5852,212 L 5838,209 L 5836,209 L 5835,208 L 5821,202 L 5820,202 L 5819,201 L 5807,192 L 5804,190 L 5794,179 L 5793,178 L 5792,176 L 5785,163 L 5784,160 L 5779,146 L 5778,143 L 5777,129 L 5777,127 L 5777,125 L 5778,111 L 5779,107 L 5784,93 L 5785,90 L 5792,78 L 5793,76 L 5794,75 L 5804,64 L 5807,62 L 5819,53 L 5820,52 L 5821,52 L 5835,46 L 5836,45 L 5838,45 L 5852,41 L 5856,41 L 5870,41 L 5874,41 L 5888,45 L 5890,45 L 5891,46 L 5905,52 L 5906,52 L 5908,53 L 5919,62 L 5921,63 L 5921,63 L 6253,63 L 6255,63 L 6264,64 L 6267,65 L 6276,68 L 6279,69 L 6287,73 L 6290,75 L 6297,81 L 6298,82 L 6508,292 L 6509,293 L 6515,301 L 6516,302 L 6517,304 L 6522,313 L 6523,315 L 6525,322 L 6526,325 L 6527,335 L 6527,337 L 6527,1860 L 6527,1860 L 6531,1861 L 6541,1864 L 6543,1865 L 6544,1866 L 6553,1871 L 6556,1873 L 6564,1880 L 6566,1883 L 6573,1892 L 6574,1893 L 6574,1894 L 6579,1904 L 6579,1906 L 6580,1908 L 6582,1918 L 6582,1921 z " style="fill-opacity:1.000000;fill:rgb(166,31,3);stroke:rgb(0,0,0);stroke-width:2"/></g>
<g fill-rule="evenodd"><path d="M 457,0 L 469,0 L 472,0 L 484,2 L 485,3 L 487,3 L 498,8 L 499,9 L 501,10 L 510,17 L 511,18 L 512,19 L 520,27 L 522,30 L 528,40 L 529,42 L 529,43 L 533,54 L 534,58 L 534,63 L 1763,63 L 1765,63 L 1774,64 L 1777,65 L 1786,68 L 1789,69 L 1797,73 L 1800,75 L 1807,81 L 1809,83 L 1815,90 L 1817,93 L 1821,101 L 1823,104 L 1825,113 L 1826,116 L 1827,125 L 1827,127 L 1827,1363 L 1989,1363 L 1996,1361 L 1999,1360 L 2010,1359 L 2011,1359 L 2115,1359 L 2117,1359 L 2128,1360 L 2131,1361 L 2141,1364 L 2143,1365 L 2144,1366 L 2154,1371 L 2156,1373 L 2164,1380 L 2167,1383 L 2173,1392 L 2174,1393 L 2175,1394 L 2179,1404 L 2180,1406 L 2180,1408 L 2182,1418 L 2183,1421 L 2183,1432 L 2183,1434 L 2182,1436 L 2180,1446 L 2180,1448 L 2179,1449 L 2175,1459 L 2173,1462 L 2167,1471 L 2166,1472 L 2164,1473 L 2156,1481 L 2154,1483 L 2144,1488 L 2143,1489 L 2141,1489 L 2131,1493 L 2128,1493 L 2117,1495 L 2115,1495 L 2011,1495 L 2010,1495 L 1999,1493 L 1996,1493 L 1989,1491 L 1827,1491 L 1827,1927 L 1827,1928 L 1826,1938 L 1825,1941 L 1823,1950 L 1821,1953 L 1817,1961 L 1815,1964 L 1809,1971 L 1808,1972 L 1708,2072 L 1707,2073 L 1700,2079 L 1697,2081 L 1689,2085 L 1686,2086 L 1677,2089 L 1674,2090 L 1665,2091 L 1663,2091 L 1537,2091 L 1531,2093 L 1528,2093 L 1517,2095 L 1515,2095 L 1411,2095 L 1410,2095 L 1399,2093 L 1396,2093 L 1385,2089 L 1384,2089 L 1382,2088 L 1373,2083 L 1370,2081 L 1362,2073 L 1361,2072 L 1360,2071 L 1353,2062 L 1352,2059 L 1347,2049 L 1347,2048 L 1346,2046 L 1344,2036 L 1344,2032 L 1344,2021 L 1344,2018 L 1346,2008 L 1347,2006 L 1347,2004 L 1352,1994 L 1353,1993 L 1353,1992 L 1360,1983 L 1362,1980 L 1370,1973 L 1373,1971 L 1382,1966 L 1384,1965 L 1385,1964 L 1396,1961 L 1399,1960 L 1410,1959 L 1411,1959 L 1515,1959 L 1517,1959 L 1528,1960 L 1531,1961 L 1537,1963 L 1637,1963 L 1699,1900 L 1699,191 L 534,191 L 534,196 L 533,199 L 529,211 L 529,212 L 528,214 L 527,215 L 527,394 L 528,395 L 528,396 L 530,401 L 531,402 L 533,408 L 533,409 L 534,414 L 534,416 L 535,421 L 535,423 L 535,428 L 535,429 L 535,435 L 535,436 L 534,442 L 533,443 L 532,449 L 531,450 L 530,455 L 529,457 L 526,461 L 526,463 L 523,467 L 522,469 L 519,473 L 518,474 L 514,478 L 513,479 L 508,483 L 507,484 L 503,487 L 501,488 L 497,491 L 495,491 L 490,494 L 489,494 L 483,496 L 482,496 L 477,498 L 475,498 L 470,499 L 468,499 L 463,499 L 461,499 L 456,499 L 454,498 L 449,497 L 446,497 L 437,494 L 435,493 L 427,489 L 424,487 L 417,482 L 415,480 L 408,473 L 407,471 L 401,464 L 400,461 L 396,453 L 395,450 L 393,441 L 392,438 L 391,429 L 391,427 L 392,419 L 392,417 L 394,409 L 394,407 L 397,399 L 398,397 L 400,394 L 400,215 L 398,214 L 397,211 L 394,199 L 393,198 L 393,196 L 392,185 L 392,183 L 392,71 L 392,69 L 393,58 L 393,56 L 394,54 L 397,43 L 398,42 L 398,40 L 404,30 L 406,27 L 414,19 L 415,18 L 417,17 L 426,10 L 429,8 L 440,3 L 441,3 L 443,2 L 454,0 L 456,0 L 457,0 z " style="fill-opacity:1.000000;fill:rgb(90,125,9);stroke:rgb(0,0,0);stroke-width:2"/></g>
<g fill-rule="evenodd"><path d="M 6582,2321 L 6582,2332 L 6582,2334 L 6582,2336 L 6580,2346 L 6579,2348 L 6579,2349 L 6574,2359 L 6573,2362 L 6566,2371 L 6565,2372 L 6564,2373 L 6556,2381 L 6553,2383 L 6544,2388 L 6543,2389 L 6541,2389 L 6531,2393 L 6527,2393 L 6517,2394 L 6515,2395 L 6411,2395 L 6409,2394 L 6399,2393 L 6395,2393 L 6389,2391 L 5852,2391 L 5850,2392 L 5847,2393 L 5836,2397 L 5834,2397 L 5832,2397 L 5827,2398 L 5827,4227 L 5827,4228 L 5826,4238 L 5825,4241 L 5822,4250 L 5821,4253 L 5817,4261 L 5815,4263 L 5809,4271 L 5807,4273 L 5800,4279 L 5797,4281 L 5789,4285 L 5786,4286 L 5777,4289 L 5774,4290 L 5765,4290 L 5763,4291 L 1263,4291 L 1262,4290 L 1252,4290 L 1249,4289 L 1240,4286 L 1237,4285 L 1229,4281 L 1227,4279 L 1219,4273 L 1218,4272 L 1037,4091 L 63,4091 L 62,4090 L 57,4090 L 56,4090 L 51,4089 L 49,4089 L 44,4088 L 43,4087 L 38,4085 L 37,4085 L 32,4082 L 31,4082 L 26,4079 L 25,4078 L 21,4075 L 20,4074 L 16,4070 L 15,4069 L 12,4065 L 11,4064 L 9,4059 L 8,4058 L 5,4053 L 5,4052 L 3,4047 L 2,4046 L 1,4041 L 1,4039 L 0,4034 L 0,4033 L 0,4028 L 0,4027 L 0,127 L 0,125 L 1,116 L 1,113 L 4,104 L 5,101 L 9,93 L 11,90 L 17,83 L 19,81 L 27,75 L 29,73 L 37,69 L 40,68 L 49,65 L 52,64 L 62,63 L 63,63 L 192,63 L 193,58 L 193,56 L 194,54 L 197,43 L 198,42 L 198,40 L 204,30 L 206,27 L 214,19 L 215,18 L 217,17 L 226,10 L 229,8 L 240,3 L 241,3 L 243,2 L 254,0 L 256,0 L 257,0 L 269,0 L 272,0 L 284,2 L 285,3 L 287,3 L 298,8 L 299,9 L 301,10 L 310,17 L 311,18 L 312,19 L 320,27 L 322,30 L 328,40 L 329,42 L 329,43 L 333,54 L 334,58 L 335,69 L 335,71 L 335,183 L 335,185 L 334,196 L 333,199 L 329,211 L 329,212 L 328,214 L 322,224 L 320,226 L 312,235 L 311,236 L 310,237 L 301,244 L 299,245 L 298,246 L 287,251 L 285,251 L 284,252 L 272,254 L 269,254 L 257,254 L 254,254 L 243,252 L 241,251 L 240,251 L 229,246 L 226,244 L 217,237 L 215,236 L 214,235 L 206,226 L 204,224 L 198,214 L 198,212 L 197,211 L 194,199 L 193,198 L 193,196 L 192,191 L 127,191 L 127,3963 L 400,3963 L 400,3760 L 399,3759 L 398,3758 L 397,3754 L 396,3753 L 394,3748 L 394,3747 L 393,3742 L 393,3740 L 392,3736 L 392,3734 L 391,3729 L 391,3728 L 391,3723 L 391,3721 L 392,3716 L 392,3715 L 393,3710 L 394,3709 L 395,3704 L 395,3703 L 397,3698 L 398,3697 L 400,3693 L 401,3691 L 403,3687 L 404,3686 L 407,3682 L 408,3681 L 411,3677 L 412,3676 L 416,3673 L 417,3672 L 421,3669 L 422,3668 L 426,3665 L 427,3665 L 431,3662 L 433,3662 L 437,3660 L 439,3659 L 443,3658 L 445,3657 L 449,3656 L 451,3656 L 456,3655 L 457,3655 L 462,3655 L 463,3655 L 468,3655 L 470,3655 L 475,3656 L 476,3656 L 481,3657 L 482,3657 L 487,3659 L 488,3659 L 493,3661 L 494,3662 L 499,3664 L 500,3665 L 504,3668 L 505,3668 L 509,3671 L 510,3672 L 514,3676 L 515,3677 L 518,3680 L 519,3682 L 522,3685 L 523,3687 L 526,3691 L 526,3692 L 529,3697 L 529,3698 L 531,3703 L 532,3704 L 533,3708 L 533,3710 L 534,3715 L 535,3716 L 535,3721 L 535,3723 L 535,3727 L 535,3729 L 535,3734 L 535,3735 L 534,3740 L 534,3741 L 533,3746 L 532,3748 L 531,3752 L 530,3754 L 528,3758 L 527,3759 L 527,3760 L 527,3963 L 999,3963 L 999,2627 L 1000,2625 L 1000,2616 L 1001,2613 L 1004,2604 L 1005,2601 L 1009,2593 L 1011,2590 L 1017,2583 L 1019,2581 L 1027,2575 L 1029,2573 L 1037,2569 L 1040,2567 L 1049,2565 L 1052,2564 L 1062,2563 L 1063,2563 L 1389,2563 L 1396,2561 L 1399,2560 L 1410,2559 L 1411,2559 L 1515,2559 L 1517,2559 L 1528,2560 L 1531,2561 L 1541,2564 L 1543,2565 L 1544,2566 L 1554,2571 L 1556,2573 L 1564,2580 L 1567,2583 L 1573,2592 L 1574,2593 L 1575,2594 L 1579,2604 L 1580,2606 L 1580,2607 L 1582,2618 L 1583,2621 L 1583,2632 L 1583,2634 L 1582,2636 L 1580,2646 L 1580,2648 L 1579,2649 L 1575,2659 L 1573,2662 L 1567,2671 L 1566,2672 L 1564,2673 L 1556,2681 L 1554,2683 L 1544,2688 L 1543,2689 L 1541,2689 L 1531,2693 L 1528,2693 L 1517,2694 L 1515,2695 L 1411,2695 L 1410,2694 L 1399,2693 L 1396,2693 L 1389,2691 L 1127,2691 L 1127,2863 L 1430,2863 L 1434,2861 L 1436,2860 L 1443,2858 L 1445,2857 L 1453,2856 L 1455,2855 L 1463,2855 L 1465,2855 L 1473,2855 L 1475,2856 L 1482,2857 L 1484,2858 L 1491,2861 L 1493,2861 L 1496,2863 L 1563,2863 L 1565,2863 L 1574,2864 L 1577,2865 L 1586,2867 L 1589,2869 L 1597,2873 L 1600,2875 L 1607,2881 L 1608,2882 L 1890,3163 L 2030,3163 L 2031,3162 L 2032,3162 L 2038,3159 L 2039,3159 L 2044,3157 L 2046,3157 L 2051,3156 L 2053,3156 L 2058,3155 L 2060,3155 L 2065,3155 L 2067,3155 L 2072,3155 L 2074,3156 L 2079,3157 L 2081,3157 L 2086,3158 L 2087,3159 L 2092,3161 L 2093,3161 L 2098,3164 L 2099,3164 L 2103,3167 L 2105,3168 L 2109,3171 L 2110,3172 L 2114,3176 L 2115,3177 L 2118,3180 L 2119,3182 L 2122,3186 L 2123,3187 L 2126,3191 L 2127,3193 L 2129,3197 L 2130,3199 L 2131,3204 L 2132,3205 L 2133,3210 L 2134,3211 L 2134,3216 L 2135,3218 L 2135,3223 L 2135,3225 L 2135,3230 L 2135,3231 L 2135,3236 L 2134,3238 L 2132,3247 L 2131,3250 L 2128,3258 L 2127,3260 L 2122,3268 L 2121,3270 L 2115,3277 L 2113,3279 L 2106,3285 L 2104,3286 L 2096,3291 L 2094,3292 L 2085,3295 L 2083,3296 L 2074,3298 L 2072,3298 L 2067,3299 L 2066,3299 L 2061,3299 L 2060,3299 L 2055,3298 L 2054,3298 L 2049,3297 L 2048,3297 L 2043,3296 L 2042,3296 L 2037,3294 L 2036,3293 L 2031,3291 L 2030,3291 L 2030,3291 L 1863,3291 L 1862,3290 L 1852,3290 L 1849,3289 L 1840,3286 L 1837,3285 L 1829,3281 L 1827,3279 L 1819,3273 L 1818,3272 L 1537,2991 L 1496,2991 L 1493,2992 L 1491,2993 L 1484,2996 L 1482,2996 L 1475,2998 L 1473,2998 L 1465,2999 L 1463,2999 L 1455,2998 L 1453,2998 L 1445,2996 L 1443,2996 L 1436,2993 L 1434,2992 L 1430,2991 L 1127,2991 L 1127,4000 L 1290,4163 L 5699,4163 L 5699,2591 L 5263,2591 L 5262,2591 L 5252,2590 L 5249,2589 L 5240,2586 L 5237,2585 L 5229,2581 L 5226,2579 L 5219,2573 L 5218,2572 L 5018,2372 L 5017,2371 L 5011,2363 L 5009,2360 L 5005,2354 L 5004,2351 L 5001,2342 L 5000,2338 L 4999,2328 L 4999,2327 L 4999,1793 L 4999,1793 L 4995,1793 L 4985,1789 L 4984,1789 L 4982,1788 L 4973,1783 L 4970,1781 L 4962,1773 L 4961,1772 L 4960,1771 L 4953,1762 L 4952,1759 L 4947,1749 L 4947,1748 L 4946,1746 L 4944,1736 L 4944,1732 L 4944,1721 L 4944,1718 L 4946,1708 L 4947,1706 L 4947,1704 L 4952,1694 L 4952,1693 L 4953,1692 L 4960,1683 L 4962,1680 L 4970,1673 L 4973,1671 L 4982,1666 L 4984,1665 L 4985,1664 L 4995,1661 L 4999,1660 L 5009,1659 L 5011,1659 L 5115,1659 L 5117,1659 L 5128,1660 L 5131,1661 L 5141,1664 L 5143,1665 L 5144,1666 L 5154,1671 L 5156,1673 L 5164,1680 L 5166,1683 L 5173,1692 L 5174,1693 L 5174,1694 L 5179,1704 L 5179,1706 L 5180,1708 L 5182,1718 L 5183,1721 L 5183,1732 L 5182,1734 L 5182,1736 L 5180,1746 L 5179,1748 L 5179,1749 L 5174,1759 L 5173,1762 L 5166,1771 L 5165,1772 L 5164,1773 L 5156,1781 L 5154,1783 L 5144,1788 L 5143,1789 L 5141,1789 L 5131,1793 L 5128,1793 L 5127,1793 L 5127,2300 L 5289,2463 L 5699,2463 L 5699,2398 L 5694,2397 L 5692,2397 L 5691,2397 L 5679,2393 L 5678,2392 L 5676,2392 L 5666,2386 L 5664,2384 L 5655,2376 L 5654,2375 L 5653,2374 L 5646,2364 L 5644,2361 L 5639,2351 L 5639,2349 L 5638,2347 L 5636,2336 L 5636,2333 L 5636,2321 L 5636,2318 L 5638,2306 L 5639,2305 L 5639,2303 L 5644,2292 L 5645,2291 L 5646,2290 L 5653,2280 L 5654,2279 L 5655,2278 L 5664,2270 L 5666,2268 L 5676,2262 L 5678,2261 L 5679,2261 L 5691,2257 L 5694,2256 L 5705,2255 L 5707,2255 L 5819,2255 L 5821,2255 L 5832,2256 L 5836,2257 L 5847,2261 L 5848,2261 L 5850,2262 L 5851,2263 L 6389,2263 L 6395,2261 L 6399,2260 L 6409,2259 L 6411,2259 L 6515,2259 L 6517,2259 L 6527,2260 L 6531,2261 L 6541,2264 L 6543,2265 L 6544,2266 L 6553,2271 L 6556,2273 L 6564,2280 L 6566,2283 L 6573,2292 L 6574,2293 L 6574,2294 L 6579,2304 L 6579,2306 L 6580,2307 L 6582,2318 L 6582,2321 z " style="fill-opacity:1.000000;fill:rgb(56,37,31);stroke:rgb(0,0,0);stroke-width:2"/></g>
<g fill-rule="evenodd"><path d="M 6582,2121 L 6582,2132 L 6582,2134 L 6582,2136 L 6580,2146 L 6579,2148 L 6579,2149 L 6574,2159 L 6573,2162 L 6566,2171 L 6565,2172 L 6564,2173 L 6556,2181 L 6553,2183 L 6544,2188 L 6543,2189 L 6541,2189 L 6531,2193 L 6527,2193 L 6517,2195 L 6515,2195 L 6411,2195 L 6409,2195 L 6399,2193 L 6395,2193 L 6389,2191 L 5852,2191 L 5850,2192 L 5847,2193 L 5836,2197 L 5834,2197 L 5832,2197 L 5821,2199 L 5819,2199 L 5707,2199 L 5705,2199 L 5694,2197 L 5692,2197 L 5691,2197 L 5679,2193 L 5678,2192 L 5676,2192 L 5675,2191 L 5496,2191 L 5495,2191 L 5494,2192 L 5489,2194 L 5488,2195 L 5482,2196 L 5481,2197 L 5476,2198 L 5474,2198 L 5469,2199 L 5467,2199 L 5462,2199 L 5460,2199 L 5455,2198 L 5453,2198 L 5448,2197 L 5447,2197 L 5441,2195 L 5440,2195 L 5435,2193 L 5433,2192 L 5428,2190 L 5427,2189 L 5422,2186 L 5421,2185 L 5417,2182 L 5416,2181 L 5411,2177 L 5410,2176 L 5407,2172 L 5406,2171 L 5403,2166 L 5402,2165 L 5399,2160 L 5398,2159 L 5396,2154 L 5396,2152 L 5394,2147 L 5393,2145 L 5392,2140 L 5392,2138 L 5391,2133 L 5391,2131 L 5391,2126 L 5391,2124 L 5391,2119 L 5392,2117 L 5393,2112 L 5393,2110 L 5396,2101 L 5397,2099 L 5401,2090 L 5402,2088 L 5408,2081 L 5409,2079 L 5416,2072 L 5418,2071 L 5426,2065 L 5428,2064 L 5436,2060 L 5439,2059 L 5447,2057 L 5450,2056 L 5459,2055 L 5462,2055 L 5470,2055 L 5472,2055 L 5480,2057 L 5482,2058 L 5490,2060 L 5492,2061 L 5496,2063 L 5675,2063 L 5676,2062 L 5679,2061 L 5691,2057 L 5694,2056 L 5705,2055 L 5707,2055 L 5819,2055 L 5821,2055 L 5832,2056 L 5836,2057 L 5847,2061 L 5848,2061 L 5850,2062 L 5851,2063 L 6389,2063 L 6395,2061 L 6399,2060 L 6409,2059 L 6411,2059 L 6515,2059 L 6517,2059 L 6527,2060 L 6531,2061 L 6541,2064 L 6543,2065 L 6544,2066 L 6553,2071 L 6556,2073 L 6564,2080 L 6566,2083 L 6573,2092 L 6574,2093 L 6574,2094 L 6579,2104 L 6579,2106 L 6580,2108 L 6582,2118 L 6582,2121 z " style="fill-opacity:1.000000;fill:rgb(93,212,203);stroke:rgb(0,0,0);stroke-width:2"/></g>
</svg>
