<?xml version="1.0" standalone="no"?>
<!DOCTYPE svg PUBLIC "-//W3C//DTD SVG 1.1//EN"
"http://www.w3.org/Graphics/SVG/1.1/DTD/svg11.dtd">
<svg width="6560" height="4268" viewBox="0 0 6560 4268" version="1.1"
xmlns="http://www.w3.org/2000/svg"
xmlns:xlink="http://www.w3.org/1999/xlink">
<circle cx="6451" cy="2315" r="46" style=""/>
<circle cx="6451" cy="2115" r="46" style=""/>
<circle cx="6451" cy="1915" r="46" style=""/>
<circle cx="5751" cy="2115" r="46" style=""/>
<circle cx="5751" cy="2315" r="46" style=""/>
<circle cx="5451" cy="2115" r="46" style=""/>
<circle cx="5051" cy="1715" r="46" style=""/>
<circle cx="5051" cy="1515" r="46" style=""/>
<circle cx="5051" cy="1315" r="46" style=""/>
<circle cx="4451" cy="2115" r="46" style=""/>
<circle cx="3851" cy="2481" r="46" style=""/>
<circle cx="3851" cy="2749" r="46" style=""/>
<circle cx="3851" cy="3515" r="46" style=""/>
<circle cx="3052" cy="3215" r="46" style=""/>
<circle cx="2052" cy="3215" r="46" style=""/>
<circle cx="2052" cy="2615" r="46" style=""/>
<circle cx="2052" cy="2415" r="46" style=""/>
<circle cx="2052" cy="2215" r="46" style=""/>
<circle cx="2052" cy="2015" r="46" style=""/>
<circle cx="2052" cy="1815" r="46" style=""/>
<circle cx="2052" cy="1615" r="46" style=""/>
<circle cx="2052" cy="1415" r="46" style=""/>
<circle cx="1452" cy="1415" r="46" style=""/>
<circle cx="1452" cy="1615" r="46" style=""/>
<circle cx="1452" cy="1815" r="46" style=""/>
<circle cx="1452" cy="2015" r="46" style=""/>
<circle cx="1452" cy="2215" r="46" style=""/>
<circle cx="1452" cy="2415" r="46" style=""/>
<circle cx="1452" cy="2615" r="46" style=""/>
<circle cx="1452" cy="2915" r="46" style=""/>
<circle cx="852" cy="2415" r="46" style=""/>
<circle cx="452" cy="3315" r="46" style=""/>
<circle cx="452" cy="3715" r="46" style=""/>
<circle cx="1452" cy="3915" r="46" style=""/>
<circle cx="852" cy="1415" r="46" style=""/>
<circle cx="452" cy="1415" r="46" style=""/>
<circle cx="452" cy="415" r="46" style=""/>
<circle cx="452" cy="115" r="46" style=""/>
<circle cx="252" cy="115" r="46" style=""/>
<circle cx="3052" cy="315" r="46" style=""/>
<circle cx="3052" cy="515" r="46" style=""/>
<circle cx="5251" cy="115" r="46" style=""/>
<circle cx="5851" cy="115" r="46" style=""/>
<circle cx="4851" cy="3515" r="46" style=""/>
</svg>
