<?xml version="1.0" standalone="no"?>
<!DOCTYPE svg PUBLIC "-//W3C//DTD SVG 1.1//EN"
"http://www.w3.org/Graphics/SVG/1.1/DTD/svg11.dtd">
<svg width="6614" height="4322" viewBox="0 0 6614 4322" version="1.1"
xmlns="http://www.w3.org/2000/svg"
xmlns:xlink="http://www.w3.org/1999/xlink">
<g fill-rule="evenodd"><path d="M 2027,2559 L 2131,2559 L 2134,2559 L 2145,2560 L 2151,2561 L 2162,2565 L 2165,2566 L 2168,2568 L 2177,2573 L 2182,2577 L 2191,2584 L 2195,2589 L 2201,2598 L 2203,2601 L 2205,2603 L 2209,2613 L 2210,2616 L 2211,2620 L 2213,2630 L 2214,2637 L 2214,2648 L 2213,2654 L 2211,2665 L 2210,2668 L 2209,2671 L 2205,2681 L 2201,2687 L 2195,2696 L 2193,2698 L 2191,2700 L 2182,2708 L 2177,2712 L 2168,2717 L 2165,2719 L 2162,2720 L 2151,2723 L 2145,2724 L 2134,2726 L 2131,2726 L 2027,2726 L 2024,2726 L 2013,2724 L 2006,2723 L 1996,2720 L 1993,2719 L 1990,2717 L 1981,2712 L 1975,2708 L 1967,2700 L 1965,2698 L 1963,2696 L 1956,2687 L 1953,2681 L 1949,2671 L 1947,2668 L 1947,2665 L 1944,2654 L 1944,2648 L 1944,2637 L 1944,2630 L 1947,2620 L 1947,2616 L 1949,2613 L 1953,2603 L 1955,2601 L 1956,2598 L 1963,2589 L 1967,2584 L 1975,2577 L 1981,2573 L 1990,2568 L 1993,2566 L 1996,2565 L 2006,2561 L 2013,2560 L 2024,2559 L 2027,2559 z " style="fill-opacity:1.000000;fill:rgb(41,35,190);stroke:rgb(0,0,0);stroke-width:2"/></g>
<g fill-rule="evenodd"><path d="M 1531,1926 L 1427,1926 L 1424,1926 L 1413,1925 L 1406,1923 L 1396,1920 L 1393,1919 L 1390,1917 L 1381,1912 L 1375,1908 L 1367,1901 L 1365,1898 L 1363,1896 L 1356,1887 L 1353,1881 L 1349,1871 L 1348,1868 L 1347,1865 L 1344,1854 L 1344,1848 L 1344,1837 L 1344,1830 L 1347,1820 L 1348,1817 L 1349,1814 L 1353,1804 L 1355,1801 L 1356,1798 L 1363,1789 L 1367,1784 L 1375,1777 L 1381,1773 L 1390,1768 L 1393,1766 L 1396,1765 L 1406,1762 L 1413,1760 L 1424,1759 L 1427,1759 L 1531,1759 L 1534,1759 L 1545,1760 L 1551,1762 L 1562,1765 L 1565,1766 L 1568,1768 L 1577,1773 L 1583,1777 L 1591,1784 L 1595,1789 L 1601,1798 L 1603,1801 L 1605,1804 L 1609,1814 L 1610,1817 L 1611,1820 L 1613,1830 L 1614,1837 L 1614,1848 L 1613,1854 L 1611,1865 L 1610,1868 L 1609,1871 L 1605,1881 L 1601,1887 L 1595,1896 L 1593,1898 L 1591,1901 L 1583,1908 L 1577,1912 L 1568,1917 L 1565,1919 L 1562,1920 L 1551,1923 L 1545,1925 L 1534,1926 L 1531,1926 z " style="fill-opacity:1.000000;fill:rgb(132,225,108);stroke:rgb(0,0,0);stroke-width:2"/></g>
<g fill-rule="evenodd"><path d="M 2027,2359 L 2131,2359 L 2134,2359 L 2145,2360 L 2151,2361 L 2162,2365 L 2165,2366 L 2168,2368 L 2177,2373 L 2182,2377 L 2191,2384 L 2195,2389 L 2201,2398 L 2203,2401 L 2205,2403 L 2209,2413 L 2210,2417 L 2211,2420 L 2213,2430 L 2214,2437 L 2214,2448 L 2213,2454 L 2211,2465 L 2210,2468 L 2209,2471 L 2205,2481 L 2201,2487 L 2195,2496 L 2193,2498 L 2191,2500 L 2182,2508 L 2177,2512 L 2168,2517 L 2165,2519 L 2162,2520 L 2151,2523 L 2145,2524 L 2134,2526 L 2131,2526 L 2027,2526 L 2024,2526 L 2013,2524 L 2006,2523 L 1996,2520 L 1993,2519 L 1990,2517 L 1981,2512 L 1975,2508 L 1967,2500 L 1965,2498 L 1963,2496 L 1956,2487 L 1953,2481 L 1949,2471 L 1947,2468 L 1947,2465 L 1944,2454 L 1944,2448 L 1944,2437 L 1944,2430 L 1947,2420 L 1947,2417 L 1949,2413 L 1953,2403 L 1955,2401 L 1956,2398 L 1963,2389 L 1967,2384 L 1975,2377 L 1981,2373 L 1990,2368 L 1993,2366 L 1996,2365 L 2006,2361 L 2013,2360 L 2024,2359 L 2027,2359 z " style="fill-opacity:1.000000;fill:rgb(214,174,82);stroke:rgb(0,0,0);stroke-width:2"/></g>
<g fill-rule="evenodd"><path d="M 2131,2326 L 2027,2326 L 2024,2326 L 2013,2325 L 2006,2323 L 1996,2320 L 1993,2319 L 1990,2317 L 1981,2312 L 1975,2308 L 1967,2301 L 1965,2298 L 1963,2296 L 1956,2287 L 1953,2281 L 1949,2271 L 1947,2268 L 1947,2265 L 1944,2254 L 1944,2248 L 1944,2237 L 1944,2230 L 1947,2220 L 1947,2217 L 1949,2213 L 1953,2204 L 1955,2201 L 1956,2198 L 1963,2189 L 1967,2184 L 1975,2177 L 1981,2173 L 1990,2168 L 1993,2166 L 1996,2165 L 2006,2162 L 2013,2160 L 2024,2159 L 2027,2159 L 2131,2159 L 2134,2159 L 2145,2160 L 2151,2162 L 2162,2165 L 2165,2166 L 2168,2168 L 2177,2173 L 2182,2177 L 2191,2184 L 2195,2189 L 2201,2198 L 2203,2201 L 2205,2204 L 2209,2213 L 2210,2217 L 2211,2220 L 2213,2230 L 2214,2237 L 2214,2248 L 2213,2254 L 2211,2265 L 2210,2268 L 2209,2271 L 2205,2281 L 2201,2287 L 2195,2296 L 2193,2298 L 2191,2301 L 2182,2308 L 2177,2312 L 2168,2317 L 2165,2319 L 2162,2320 L 2151,2323 L 2145,2325 L 2134,2326 L 2131,2326 z " style="fill-opacity:1.000000;fill:rgb(144,73,241);stroke:rgb(0,0,0);stroke-width:2"/></g>
<g fill-rule="evenodd"><path d="M 2027,1959 L 2131,1959 L 2134,1959 L 2145,1960 L 2151,1962 L 2162,1965 L 2165,1966 L 2168,1968 L 2177,1973 L 2182,1977 L 2191,1984 L 2195,1989 L 2201,1998 L 2203,2001 L 2205,2004 L 2209,2013 L 2210,2017 L 2211,2020 L 2213,2030 L 2214,2037 L 2214,2048 L 2213,2054 L 2211,2065 L 2210,2068 L 2209,2071 L 2205,2081 L 2201,2087 L 2195,2096 L 2193,2098 L 2191,2101 L 2182,2108 L 2177,2112 L 2168,2117 L 2165,2119 L 2162,2120 L 2151,2123 L 2145,2125 L 2134,2126 L 2131,2126 L 2027,2126 L 2024,2126 L 2013,2125 L 2006,2123 L 1996,2120 L 1993,2119 L 1990,2117 L 1981,2112 L 1975,2108 L 1967,2101 L 1965,2098 L 1963,2096 L 1956,2087 L 1953,2081 L 1949,2071 L 1947,2068 L 1947,2065 L 1944,2054 L 1944,2048 L 1944,2037 L 1944,2030 L 1947,2020 L 1947,2017 L 1949,2013 L 1953,2004 L 1955,2001 L 1956,1998 L 1963,1989 L 1967,1984 L 1975,1977 L 1981,1973 L 1990,1968 L 1993,1966 L 1996,1965 L 2006,1962 L 2013,1960 L 2024,1959 L 2027,1959 z " style="fill-opacity:1.000000;fill:rgb(241,187,233);stroke:rgb(0,0,0);stroke-width:2"/></g>
<g fill-rule="evenodd"><path d="M 2131,1926 L 2027,1926 L 2024,1926 L 2013,1925 L 2006,1923 L 1996,1920 L 1993,1919 L 1990,1917 L 1981,1912 L 1975,1908 L 1967,1901 L 1965,1898 L 1963,1896 L 1956,1887 L 1953,1881 L 1949,1871 L 1947,1868 L 1947,1865 L 1944,1854 L 1944,1848 L 1944,1837 L 1944,1830 L 1947,1820 L 1947,1817 L 1949,1814 L 1953,1804 L 1955,1801 L 1956,1798 L 1963,1789 L 1967,1784 L 1975,1777 L 1981,1773 L 1990,1768 L 1993,1766 L 1996,1765 L 2006,1762 L 2013,1760 L 2024,1759 L 2027,1759 L 2131,1759 L 2134,1759 L 2145,1760 L 2151,1762 L 2162,1765 L 2165,1766 L 2168,1768 L 2177,1773 L 2182,1777 L 2191,1784 L 2195,1789 L 2201,1798 L 2203,1801 L 2205,1804 L 2209,1814 L 2210,1817 L 2211,1820 L 2213,1830 L 2214,1837 L 2214,1848 L 2213,1854 L 2211,1865 L 2210,1868 L 2209,1871 L 2205,1881 L 2201,1887 L 2195,1896 L 2193,1898 L 2191,1901 L 2182,1908 L 2177,1912 L 2168,1917 L 2165,1919 L 2162,1920 L 2151,1923 L 2145,1925 L 2134,1926 L 2131,1926 z " style="fill-opacity:1.000000;fill:rgb(235,179,166);stroke:rgb(0,0,0);stroke-width:2"/></g>
<g fill-rule="evenodd"><path d="M 2027,1559 L 2131,1559 L 2134,1559 L 2145,1560 L 2151,1562 L 2162,1565 L 2165,1566 L 2168,1568 L 2177,1573 L 2182,1577 L 2191,1584 L 2195,1589 L 2201,1598 L 2203,1601 L 2205,1604 L 2209,1614 L 2210,1617 L 2211,1620 L 2213,1630 L 2214,1637 L 2214,1648 L 2213,1654 L 2211,1665 L 2210,1668 L 2209,1671 L 2205,1681 L 2201,1687 L 2195,1696 L 2193,1698 L 2191,1701 L 2182,1708 L 2177,1712 L 2168,1717 L 2165,1719 L 2162,1720 L 2151,1723 L 2145,1725 L 2134,1726 L 2131,1726 L 2027,1726 L 2024,1726 L 2013,1725 L 2006,1723 L 1996,1720 L 1993,1719 L 1990,1717 L 1981,1712 L 1975,1708 L 1967,1701 L 1965,1698 L 1963,1696 L 1956,1687 L 1953,1681 L 1949,1671 L 1947,1668 L 1947,1665 L 1944,1654 L 1944,1648 L 1944,1637 L 1944,1630 L 1947,1620 L 1947,1617 L 1949,1614 L 1953,1604 L 1955,1601 L 1956,1598 L 1963,1589 L 1967,1584 L 1975,1577 L 1981,1573 L 1990,1568 L 1993,1566 L 1996,1565 L 2006,1562 L 2013,1560 L 2024,1559 L 2027,1559 z " style="fill-opacity:1.000000;fill:rgb(219,60,135);stroke:rgb(0,0,0);stroke-width:2"/></g>
<g fill-rule="evenodd"><path d="M 1516,3863 L 3446,3863 L 3796,3512 L 3797,3511 L 3799,3506 L 3799,3505 L 3799,2810 L 3798,2808 L 3795,2797 L 3793,2791 L 3792,2779 L 3792,2776 L 3792,2773 L 3793,2761 L 3795,2755 L 3798,2744 L 3799,2741 L 3801,2738 L 3807,2728 L 3811,2723 L 3818,2714 L 3821,2712 L 3823,2710 L 3832,2703 L 3838,2700 L 3849,2695 L 3852,2694 L 3855,2693 L 3866,2691 L 3870,2690 L 3873,2690 L 3884,2690 L 3891,2691 L 3902,2693 L 3905,2694 L 3908,2695 L 3919,2700 L 3925,2703 L 3934,2710 L 3936,2712 L 3939,2714 L 3947,2723 L 3950,2728 L 3956,2738 L 3958,2741 L 3959,2744 L 3962,2755 L 3964,2761 L 3965,2773 L 3965,2776 L 3965,2779 L 3964,2791 L 3962,2797 L 3959,2808 L 3958,2810 L 3958,3505 L 3959,3506 L 3961,3512 L 3962,3516 L 3964,3522 L 3965,3525 L 3966,3531 L 3966,3535 L 3966,3541 L 3966,3545 L 3966,3551 L 3965,3554 L 3964,3560 L 3964,3564 L 3962,3570 L 3961,3573 L 3958,3579 L 3957,3582 L 3954,3588 L 3952,3591 L 3948,3596 L 3946,3599 L 3941,3603 L 3938,3606 L 3933,3611 L 3929,3614 L 3923,3618 L 3919,3620 L 3912,3623 L 3909,3625 L 3535,3998 L 3533,4000 L 3525,4006 L 3520,4010 L 3512,4014 L 3506,4017 L 3497,4019 L 3491,4020 L 3482,4021 L 3479,4022 L 1516,4022 L 1516,4022 L 1511,4024 L 1508,4025 L 1503,4027 L 1500,4027 L 1494,4028 L 1491,4029 L 1485,4030 L 1482,4030 L 1477,4030 L 1474,4030 L 1468,4029 L 1465,4029 L 1460,4028 L 1457,4027 L 1452,4025 L 1449,4024 L 1444,4022 L 1441,4021 L 1436,4019 L 1433,4017 L 1429,4014 L 1426,4012 L 1422,4009 L 1419,4007 L 1415,4003 L 1413,4000 L 1410,3996 L 1408,3994 L 1405,3989 L 1403,3987 L 1401,3982 L 1399,3979 L 1397,3974 L 1396,3971 L 1394,3966 L 1394,3963 L 1393,3957 L 1392,3954 L 1391,3949 L 1391,3946 L 1391,3940 L 1391,3937 L 1392,3931 L 1392,3928 L 1393,3923 L 1394,3920 L 1396,3915 L 1397,3912 L 1399,3907 L 1400,3904 L 1402,3899 L 1404,3896 L 1407,3892 L 1409,3889 L 1412,3885 L 1414,3883 L 1418,3879 L 1421,3876 L 1425,3873 L 1427,3871 L 1432,3868 L 1435,3866 L 1442,3862 L 1446,3861 L 1453,3858 L 1458,3857 L 1465,3855 L 1470,3855 L 1477,3854 L 1482,3854 L 1489,3855 L 1494,3856 L 1501,3857 L 1505,3858 L 1512,3861 L 1516,3863 z " style="fill-opacity:1.000000;fill:rgb(12,62,153);stroke:rgb(0,0,0);stroke-width:2"/></g>
<g fill-rule="evenodd"><path d="M 2999,3205 L 2999,580 L 2999,579 L 2997,575 L 2995,568 L 2993,563 L 2992,556 L 2991,551 L 2991,543 L 2991,539 L 2991,534 L 2992,531 L 2993,525 L 2993,522 L 2995,517 L 2996,514 L 2998,509 L 2999,506 L 3001,501 L 3003,499 L 3006,494 L 3008,491 L 3011,487 L 3013,485 L 3017,481 L 3019,478 L 3023,475 L 3025,473 L 3030,470 L 3033,468 L 3037,465 L 3040,464 L 3045,461 L 3048,460 L 3053,459 L 3056,458 L 3062,457 L 3065,456 L 3070,455 L 3073,455 L 3079,455 L 3082,455 L 3087,455 L 3090,456 L 3096,457 L 3099,457 L 3104,459 L 3107,459 L 3112,461 L 3115,463 L 3120,465 L 3122,466 L 3127,469 L 3129,471 L 3134,474 L 3136,476 L 3140,480 L 3142,482 L 3146,486 L 3148,488 L 3151,493 L 3152,495 L 3155,500 L 3157,502 L 3159,507 L 3160,510 L 3162,515 L 3163,518 L 3164,523 L 3165,526 L 3166,531 L 3166,534 L 3166,540 L 3166,543 L 3166,551 L 3165,556 L 3164,564 L 3163,568 L 3160,575 L 3158,579 L 3158,580 L 3158,3205 L 3160,3209 L 3162,3216 L 3164,3220 L 3165,3227 L 3166,3232 L 3166,3239 L 3166,3244 L 3166,3251 L 3165,3256 L 3164,3263 L 3163,3268 L 3160,3275 L 3158,3279 L 3155,3286 L 3153,3289 L 3150,3294 L 3148,3296 L 3144,3300 L 3142,3303 L 3138,3307 L 3136,3309 L 3132,3312 L 3129,3314 L 3124,3317 L 3122,3319 L 3117,3321 L 3114,3322 L 3109,3325 L 3106,3326 L 3101,3327 L 3098,3328 L 3092,3329 L 3089,3329 L 3084,3330 L 3081,3330 L 3075,3330 L 3072,3330 L 3067,3329 L 3064,3329 L 3058,3327 L 3055,3327 L 3050,3325 L 3047,3324 L 3042,3322 L 3039,3320 L 3034,3318 L 3032,3316 L 3027,3313 L 3025,3311 L 3020,3308 L 3018,3306 L 3014,3302 L 3012,3299 L 3009,3295 L 3007,3293 L 3004,3288 L 3002,3285 L 3000,3280 L 2998,3278 L 2996,3272 L 2995,3269 L 2994,3264 L 2993,3261 L 2992,3256 L 2992,3253 L 2991,3247 L 2991,3244 L 2991,3239 L 2991,3236 L 2992,3230 L 2992,3227 L 2993,3222 L 2994,3219 L 2996,3213 L 2997,3210 L 2999,3205 L 2999,3205 z " style="fill-opacity:1.000000;fill:rgb(36,94,13);stroke:rgb(0,0,0);stroke-width:2"/></g>
<g fill-rule="evenodd"><path d="M 3246,3563 L 3499,3309 L 3499,2142 L 3499,2139 L 3500,2130 L 3501,2124 L 3504,2115 L 3506,2109 L 3511,2101 L 3514,2096 L 3520,2088 L 3525,2084 L 3532,2078 L 3537,2075 L 3545,2070 L 3551,2068 L 3560,2065 L 3566,2064 L 3576,2063 L 3579,2063 L 3799,2063 L 3799,422 L 3116,422 L 3114,423 L 3110,425 L 3101,427 L 3096,429 L 3087,430 L 3082,430 L 3073,430 L 3068,430 L 3061,429 L 3058,428 L 3051,426 L 3047,424 L 3041,422 L 3037,420 L 3031,416 L 3028,414 L 3022,410 L 3019,407 L 3014,402 L 3011,399 L 3007,393 L 3005,390 L 3001,384 L 2999,380 L 2997,374 L 2995,370 L 2993,363 L 2993,360 L 2992,353 L 2991,349 L 2991,342 L 2991,338 L 2992,330 L 2992,327 L 2994,320 L 2995,316 L 2998,309 L 2999,306 L 3002,299 L 3004,296 L 3009,290 L 3011,287 L 3016,281 L 3019,279 L 3024,274 L 3027,272 L 3033,268 L 3037,266 L 3043,262 L 3047,261 L 3054,259 L 3057,258 L 3065,256 L 3069,255 L 3076,255 L 3080,255 L 3088,255 L 3092,256 L 3100,258 L 3104,259 L 3112,261 L 3116,263 L 3116,263 L 4646,263 L 4822,86 L 4824,84 L 4832,78 L 4837,75 L 4845,71 L 4851,68 L 4860,65 L 4866,64 L 4875,63 L 4878,63 L 5215,63 L 5225,56 L 5227,54 L 5230,53 L 5244,47 L 5247,46 L 5250,45 L 5264,42 L 5271,41 L 5286,41 L 5292,42 L 5307,45 L 5310,46 L 5313,47 L 5326,53 L 5332,56 L 5344,65 L 5349,69 L 5359,80 L 5361,83 L 5363,86 L 5370,98 L 5373,104 L 5377,118 L 5378,121 L 5379,125 L 5380,139 L 5380,143 L 5380,146 L 5379,161 L 5378,164 L 5377,167 L 5373,181 L 5370,187 L 5363,200 L 5361,203 L 5359,205 L 5349,216 L 5344,221 L 5332,229 L 5329,231 L 5326,232 L 5313,238 L 5310,240 L 5307,240 L 5292,244 L 5286,244 L 5271,244 L 5264,244 L 5250,240 L 5247,240 L 5244,238 L 5230,232 L 5225,229 L 5215,222 L 4911,222 L 4735,399 L 4732,401 L 4725,407 L 4720,410 L 4712,415 L 4706,417 L 4697,420 L 4691,421 L 4682,422 L 4678,422 L 3958,422 L 3958,2063 L 4442,2063 L 4443,2062 L 4448,2060 L 4456,2058 L 4461,2056 L 4470,2055 L 4475,2055 L 4484,2055 L 4488,2055 L 4494,2056 L 4497,2057 L 4503,2058 L 4506,2059 L 4512,2061 L 4515,2062 L 4520,2065 L 4523,2067 L 4528,2070 L 4530,2072 L 4535,2075 L 4537,2077 L 4541,2081 L 4544,2084 L 4547,2088 L 4549,2091 L 4553,2096 L 4554,2098 L 4557,2104 L 4559,2107 L 4561,2112 L 4562,2115 L 4564,2121 L 4564,2124 L 4565,2130 L 4566,2133 L 4566,2139 L 4566,2142 L 4566,2148 L 4566,2151 L 4565,2157 L 4564,2161 L 4562,2170 L 4560,2175 L 4556,2183 L 4553,2188 L 4548,2196 L 4545,2200 L 4538,2206 L 4535,2210 L 4527,2215 L 4523,2218 L 4514,2222 L 4510,2224 L 4501,2227 L 4496,2228 L 4486,2230 L 4481,2230 L 4473,2230 L 4468,2229 L 4460,2228 L 4455,2227 L 4447,2224 L 4442,2222 L 4441,2222 L 3958,2222 L 3958,2474 L 3959,2476 L 3962,2487 L 3964,2494 L 3965,2505 L 3965,2508 L 3965,2512 L 3964,2523 L 3962,2530 L 3959,2541 L 3958,2544 L 3956,2547 L 3950,2557 L 3947,2562 L 3939,2570 L 3936,2573 L 3934,2575 L 3925,2582 L 3919,2585 L 3908,2590 L 3905,2591 L 3902,2592 L 3891,2594 L 3884,2595 L 3873,2595 L 3870,2595 L 3866,2594 L 3855,2592 L 3852,2591 L 3849,2590 L 3838,2585 L 3832,2582 L 3823,2575 L 3821,2573 L 3818,2570 L 3811,2562 L 3807,2557 L 3801,2547 L 3799,2544 L 3798,2541 L 3795,2530 L 3793,2523 L 3792,2512 L 3792,2508 L 3792,2505 L 3793,2494 L 3795,2487 L 3798,2476 L 3799,2474 L 3799,2222 L 3658,2222 L 3658,3342 L 3658,3345 L 3657,3355 L 3656,3361 L 3653,3370 L 3651,3375 L 3646,3384 L 3643,3389 L 3637,3396 L 3635,3398 L 3335,3698 L 3333,3700 L 3325,3706 L 3320,3710 L 3312,3714 L 3306,3717 L 3297,3719 L 3291,3721 L 3282,3721 L 3279,3722 L 2479,3722 L 2476,3721 L 2466,3721 L 2460,3719 L 2451,3717 L 2446,3714 L 2437,3710 L 2432,3706 L 2425,3700 L 2420,3696 L 2415,3689 L 2411,3684 L 2407,3675 L 2404,3670 L 2402,3661 L 2400,3655 L 2399,3645 L 2399,3642 L 2399,3022 L 1979,3022 L 1976,3022 L 1966,3020 L 1959,3019 L 1950,3016 L 1944,3014 L 1938,3010 L 1933,3007 L 1925,3001 L 1923,2998 L 1723,2798 L 1721,2796 L 1715,2789 L 1711,2784 L 1707,2775 L 1704,2770 L 1702,2761 L 1700,2755 L 1700,2745 L 1699,2742 L 1699,2375 L 1646,2322 L 1556,2322 L 1551,2323 L 1545,2325 L 1534,2326 L 1531,2326 L 1427,2326 L 1424,2326 L 1413,2325 L 1406,2323 L 1396,2320 L 1393,2319 L 1390,2317 L 1381,2312 L 1375,2308 L 1367,2301 L 1365,2298 L 1363,2296 L 1356,2287 L 1353,2281 L 1349,2271 L 1348,2268 L 1347,2265 L 1344,2254 L 1344,2248 L 1344,2237 L 1344,2230 L 1347,2220 L 1348,2217 L 1349,2213 L 1353,2204 L 1355,2201 L 1356,2198 L 1363,2189 L 1367,2184 L 1375,2177 L 1381,2173 L 1390,2168 L 1393,2166 L 1396,2165 L 1406,2162 L 1413,2160 L 1424,2159 L 1427,2159 L 1531,2159 L 1534,2159 L 1545,2160 L 1551,2162 L 1556,2163 L 1679,2163 L 1682,2163 L 1691,2164 L 1697,2165 L 1706,2168 L 1712,2170 L 1720,2175 L 1726,2178 L 1733,2184 L 1735,2186 L 1835,2286 L 1837,2289 L 1844,2296 L 1847,2301 L 1850,2308 L 1853,2313 L 1856,2323 L 1857,2329 L 1858,2339 L 1858,2342 L 1858,2709 L 2012,2863 L 2479,2863 L 2482,2863 L 2491,2864 L 2497,2865 L 2506,2868 L 2512,2870 L 2520,2875 L 2525,2878 L 2533,2884 L 2537,2888 L 2543,2896 L 2546,2901 L 2551,2909 L 2553,2915 L 2556,2924 L 2557,2930 L 2558,2939 L 2558,2942 L 2558,3563 L 3246,3563 z " style="fill-opacity:1.000000;fill:rgb(28,6,183);stroke:rgb(0,0,0);stroke-width:2"/></g>
<g fill-rule="evenodd"><path d="M 916,2522 L 912,2523 L 905,2526 L 901,2527 L 894,2529 L 890,2529 L 882,2530 L 878,2530 L 870,2530 L 865,2529 L 858,2527 L 854,2526 L 846,2524 L 842,2522 L 842,2522 L 559,2522 L 559,3318 L 560,3322 L 561,3328 L 562,3339 L 563,3342 L 562,3345 L 561,3356 L 560,3363 L 557,3373 L 555,3376 L 554,3379 L 548,3388 L 545,3394 L 537,3402 L 532,3406 L 524,3413 L 521,3414 L 518,3416 L 508,3420 L 505,3422 L 502,3422 L 491,3425 L 485,3425 L 474,3425 L 467,3425 L 456,3422 L 453,3422 L 450,3420 L 440,3416 L 435,3413 L 426,3406 L 423,3404 L 421,3402 L 414,3394 L 410,3388 L 404,3379 L 403,3376 L 402,3373 L 398,3363 L 397,3356 L 396,3345 L 396,3342 L 396,3339 L 397,3328 L 398,3322 L 400,3318 L 400,2442 L 400,2439 L 401,2430 L 402,2424 L 405,2415 L 407,2409 L 411,2401 L 415,2396 L 421,2388 L 425,2384 L 432,2378 L 438,2375 L 446,2370 L 452,2368 L 461,2365 L 467,2364 L 476,2363 L 479,2363 L 842,2363 L 846,2361 L 853,2359 L 857,2357 L 864,2356 L 868,2355 L 876,2355 L 880,2355 L 888,2355 L 893,2356 L 900,2357 L 905,2358 L 912,2361 L 916,2363 L 916,2363 L 1099,2363 L 1099,1642 L 1100,1639 L 1101,1630 L 1102,1624 L 1105,1615 L 1107,1609 L 1111,1601 L 1115,1596 L 1121,1589 L 1125,1584 L 1132,1578 L 1137,1575 L 1146,1570 L 1151,1568 L 1160,1565 L 1167,1564 L 1176,1563 L 1179,1563 L 1402,1563 L 1406,1562 L 1413,1560 L 1424,1559 L 1427,1559 L 1531,1559 L 1534,1559 L 1545,1560 L 1551,1562 L 1562,1565 L 1565,1566 L 1568,1568 L 1577,1573 L 1583,1577 L 1591,1584 L 1595,1589 L 1601,1598 L 1603,1601 L 1605,1604 L 1609,1614 L 1610,1617 L 1611,1620 L 1613,1630 L 1614,1637 L 1614,1648 L 1613,1654 L 1611,1665 L 1610,1668 L 1609,1671 L 1605,1681 L 1601,1687 L 1595,1696 L 1593,1698 L 1591,1701 L 1583,1708 L 1577,1712 L 1568,1717 L 1565,1719 L 1562,1720 L 1551,1723 L 1545,1725 L 1534,1726 L 1531,1726 L 1427,1726 L 1424,1726 L 1413,1725 L 1406,1723 L 1402,1722 L 1258,1722 L 1258,2363 L 1402,2363 L 1406,2361 L 1413,2360 L 1424,2359 L 1427,2359 L 1531,2359 L 1534,2359 L 1545,2360 L 1551,2361 L 1562,2365 L 1565,2366 L 1568,2368 L 1577,2373 L 1583,2377 L 1591,2384 L 1595,2389 L 1601,2398 L 1603,2401 L 1605,2403 L 1609,2413 L 1610,2417 L 1611,2420 L 1613,2430 L 1614,2437 L 1614,2448 L 1613,2454 L 1611,2465 L 1610,2468 L 1609,2471 L 1605,2481 L 1601,2487 L 1595,2496 L 1593,2498 L 1591,2500 L 1583,2508 L 1577,2512 L 1568,2517 L 1565,2519 L 1562,2520 L 1551,2523 L 1545,2524 L 1534,2526 L 1531,2526 L 1427,2526 L 1424,2526 L 1413,2524 L 1406,2523 L 1402,2522 L 916,2522 z " style="fill-opacity:1.000000;fill:rgb(71,222,179);stroke:rgb(0,0,0);stroke-width:2"/></g>
<g fill-rule="evenodd"><path d="M 916,1522 L 912,1524 L 905,1526 L 901,1527 L 894,1529 L 890,1530 L 882,1530 L 878,1530 L 870,1530 L 865,1529 L 858,1528 L 854,1526 L 846,1524 L 842,1522 L 842,1522 L 516,1522 L 515,1522 L 511,1524 L 503,1527 L 498,1528 L 490,1529 L 485,1530 L 477,1530 L 473,1530 L 467,1529 L 464,1529 L 459,1528 L 456,1527 L 451,1525 L 448,1524 L 443,1522 L 440,1521 L 435,1518 L 432,1517 L 427,1513 L 425,1512 L 421,1508 L 419,1506 L 415,1502 L 413,1500 L 409,1496 L 407,1493 L 404,1489 L 403,1486 L 400,1481 L 399,1478 L 397,1473 L 396,1470 L 394,1465 L 394,1462 L 393,1457 L 392,1454 L 392,1448 L 391,1445 L 391,1439 L 392,1436 L 392,1431 L 393,1428 L 394,1423 L 394,1420 L 396,1415 L 397,1412 L 399,1407 L 400,1405 L 402,1400 L 404,1397 L 407,1393 L 408,1390 L 412,1386 L 414,1384 L 417,1380 L 419,1378 L 423,1375 L 426,1373 L 430,1370 L 432,1368 L 437,1365 L 440,1364 L 444,1362 L 447,1361 L 452,1359 L 455,1358 L 460,1357 L 463,1356 L 468,1355 L 471,1355 L 477,1355 L 480,1355 L 488,1355 L 493,1356 L 500,1357 L 504,1359 L 512,1361 L 516,1363 L 516,1363 L 842,1363 L 846,1361 L 853,1359 L 857,1358 L 864,1356 L 868,1355 L 876,1355 L 880,1355 L 888,1355 L 893,1356 L 900,1357 L 905,1359 L 912,1361 L 916,1363 L 916,1363 L 1402,1363 L 1406,1362 L 1413,1360 L 1424,1359 L 1427,1359 L 1531,1359 L 1534,1359 L 1545,1360 L 1551,1362 L 1562,1365 L 1565,1366 L 1568,1368 L 1577,1373 L 1583,1377 L 1591,1384 L 1595,1389 L 1601,1398 L 1603,1401 L 1605,1404 L 1609,1414 L 1610,1417 L 1611,1420 L 1613,1430 L 1614,1437 L 1614,1448 L 1613,1454 L 1611,1465 L 1610,1468 L 1609,1471 L 1605,1481 L 1601,1487 L 1595,1496 L 1593,1498 L 1591,1501 L 1583,1508 L 1577,1512 L 1568,1517 L 1565,1519 L 1562,1520 L 1551,1523 L 1545,1525 L 1534,1526 L 1531,1526 L 1427,1526 L 1424,1526 L 1413,1525 L 1406,1523 L 1402,1522 L 916,1522 z " style="fill-opacity:1.000000;fill:rgb(18,77,200);stroke:rgb(0,0,0);stroke-width:2"/></g>
<g fill-rule="evenodd"><path d="M 4958,1695 L 4957,1699 L 4955,1705 L 4953,1716 L 4952,1721 L 4951,1732 L 4951,1737 L 4951,1748 L 4951,1753 L 4952,1764 L 4953,1769 L 4955,1780 L 4957,1786 L 4958,1790 L 4958,3505 L 4958,3505 L 4960,3510 L 4963,3517 L 4964,3522 L 4965,3530 L 4966,3534 L 4966,3542 L 4966,3546 L 4966,3552 L 4965,3555 L 4964,3560 L 4964,3563 L 4962,3569 L 4961,3572 L 4959,3577 L 4958,3580 L 4955,3585 L 4953,3588 L 4950,3593 L 4948,3595 L 4945,3600 L 4943,3602 L 4939,3606 L 4936,3608 L 4932,3612 L 4929,3614 L 4925,3617 L 4922,3618 L 4917,3621 L 4914,3622 L 4909,3624 L 4906,3625 L 4901,3627 L 4897,3628 L 4892,3629 L 4889,3629 L 4883,3630 L 4880,3630 L 4874,3630 L 4871,3630 L 4866,3629 L 4863,3629 L 4858,3627 L 4855,3627 L 4850,3625 L 4848,3624 L 4843,3622 L 4840,3621 L 4835,3619 L 4833,3617 L 4828,3614 L 4826,3613 L 4822,3609 L 4820,3607 L 4816,3604 L 4814,3602 L 4811,3598 L 4809,3596 L 4806,3591 L 4804,3589 L 4802,3584 L 4800,3582 L 4798,3577 L 4797,3574 L 4795,3569 L 4794,3567 L 4793,3562 L 4792,3559 L 4791,3553 L 4791,3551 L 4791,3545 L 4791,3542 L 4791,3534 L 4792,3529 L 4793,3521 L 4794,3517 L 4797,3509 L 4799,3505 L 4799,3505 L 4799,1542 L 4799,1539 L 4800,1530 L 4801,1524 L 4804,1515 L 4806,1509 L 4811,1501 L 4814,1496 L 4820,1489 L 4824,1484 L 4832,1478 L 4837,1475 L 4845,1470 L 4851,1468 L 4860,1465 L 4866,1464 L 4875,1463 L 4878,1463 L 5002,1463 L 5006,1462 L 5012,1460 L 5023,1459 L 5026,1459 L 5130,1459 L 5134,1459 L 5144,1460 L 5151,1462 L 5161,1465 L 5164,1466 L 5167,1468 L 5177,1473 L 5182,1477 L 5190,1484 L 5194,1489 L 5201,1498 L 5203,1501 L 5204,1504 L 5209,1514 L 5210,1517 L 5211,1520 L 5213,1530 L 5214,1537 L 5214,1548 L 5213,1554 L 5211,1565 L 5210,1568 L 5209,1571 L 5204,1581 L 5201,1587 L 5194,1596 L 5192,1598 L 5190,1601 L 5182,1608 L 5177,1612 L 5167,1617 L 5164,1619 L 5161,1620 L 5151,1623 L 5144,1625 L 5134,1626 L 5130,1626 L 5026,1626 L 5023,1626 L 5012,1625 L 5006,1623 L 5002,1622 L 4958,1622 L 4958,1695 z " style="fill-opacity:1.000000;fill:rgb(67,187,139);stroke:rgb(0,0,0);stroke-width:2"/></g>
<g fill-rule="evenodd"><path d="M 6613,1937 L 6613,1948 L 6613,1954 L 6610,1965 L 6610,1968 L 6608,1971 L 6604,1981 L 6601,1987 L 6594,1996 L 6592,1998 L 6590,2001 L 6582,2008 L 6576,2012 L 6567,2017 L 6564,2019 L 6561,2020 L 6551,2023 L 6544,2025 L 6533,2026 L 6530,2026 L 6426,2026 L 6423,2026 L 6412,2025 L 6406,2023 L 6395,2020 L 6392,2019 L 6389,2017 L 6380,2012 L 6375,2008 L 6366,2001 L 6364,1998 L 6362,1996 L 6356,1987 L 6352,1981 L 6348,1971 L 6347,1968 L 6346,1965 L 6344,1954 L 6343,1948 L 6343,1937 L 6344,1930 L 6346,1920 L 6347,1917 L 6348,1914 L 6352,1904 L 6354,1901 L 6356,1898 L 6362,1889 L 6366,1884 L 6375,1877 L 6380,1873 L 6389,1868 L 6392,1866 L 6395,1865 L 6399,1864 L 6399,1422 L 5155,1422 L 5151,1423 L 5144,1425 L 5134,1426 L 5130,1426 L 5026,1426 L 5023,1426 L 5012,1425 L 5006,1423 L 4995,1420 L 4992,1419 L 4989,1417 L 4980,1412 L 4975,1408 L 4967,1401 L 4964,1398 L 4962,1396 L 4956,1387 L 4953,1381 L 4948,1371 L 4947,1368 L 4946,1365 L 4944,1354 L 4943,1348 L 4943,1337 L 4944,1330 L 4946,1320 L 4947,1317 L 4948,1314 L 4953,1304 L 4954,1301 L 4956,1298 L 4962,1289 L 4967,1284 L 4975,1277 L 4980,1273 L 4989,1268 L 4992,1266 L 4995,1265 L 5006,1262 L 5012,1260 L 5023,1259 L 5026,1259 L 5130,1259 L 5134,1259 L 5144,1260 L 5151,1262 L 5155,1263 L 6399,1263 L 6399,386 L 6235,222 L 5942,222 L 5932,229 L 5929,231 L 5926,232 L 5913,238 L 5910,240 L 5907,240 L 5892,244 L 5886,244 L 5871,244 L 5864,244 L 5850,240 L 5847,240 L 5844,238 L 5830,232 L 5824,229 L 5813,221 L 5808,216 L 5798,205 L 5796,203 L 5794,200 L 5787,187 L 5784,181 L 5779,167 L 5779,164 L 5778,161 L 5776,146 L 5776,143 L 5776,139 L 5778,125 L 5779,121 L 5779,118 L 5784,104 L 5787,98 L 5794,86 L 5796,83 L 5798,80 L 5808,69 L 5813,65 L 5824,56 L 5827,54 L 5830,53 L 5844,47 L 5847,46 L 5850,45 L 5864,42 L 5871,41 L 5886,41 L 5892,42 L 5907,45 L 5910,46 L 5913,47 L 5926,53 L 5932,56 L 5942,63 L 6268,63 L 6271,63 L 6281,64 L 6287,65 L 6296,68 L 6301,71 L 6310,75 L 6315,78 L 6322,84 L 6324,86 L 6534,296 L 6537,299 L 6543,307 L 6545,309 L 6546,312 L 6551,321 L 6553,326 L 6555,334 L 6556,339 L 6557,349 L 6558,353 L 6558,1864 L 6561,1865 L 6564,1866 L 6567,1868 L 6576,1873 L 6582,1877 L 6590,1884 L 6594,1889 L 6601,1898 L 6602,1901 L 6604,1904 L 6608,1914 L 6610,1917 L 6610,1920 L 6613,1930 L 6613,1937 z " style="fill-opacity:1.000000;fill:rgb(166,31,3);stroke:rgb(0,0,0);stroke-width:2"/></g>
<g fill-rule="evenodd"><path d="M 473,0 L 485,0 L 491,0 L 503,3 L 506,3 L 509,5 L 520,9 L 526,13 L 535,20 L 538,22 L 540,24 L 548,33 L 552,38 L 558,48 L 559,51 L 560,54 L 563,63 L 1779,63 L 1782,63 L 1791,64 L 1797,65 L 1806,68 L 1812,71 L 1820,75 L 1826,78 L 1833,84 L 1837,89 L 1843,96 L 1847,101 L 1851,109 L 1853,115 L 1856,124 L 1857,130 L 1858,140 L 1858,143 L 1858,1363 L 2002,1363 L 2006,1362 L 2013,1360 L 2024,1359 L 2027,1359 L 2131,1359 L 2134,1359 L 2145,1360 L 2151,1362 L 2162,1365 L 2165,1366 L 2168,1368 L 2177,1373 L 2182,1377 L 2191,1384 L 2195,1389 L 2201,1398 L 2203,1401 L 2205,1404 L 2209,1414 L 2210,1417 L 2211,1420 L 2213,1430 L 2214,1437 L 2214,1448 L 2213,1454 L 2211,1465 L 2210,1468 L 2209,1471 L 2205,1481 L 2201,1487 L 2195,1496 L 2193,1498 L 2191,1501 L 2182,1508 L 2177,1512 L 2168,1517 L 2165,1519 L 2162,1520 L 2151,1523 L 2145,1525 L 2134,1526 L 2131,1526 L 2027,1526 L 2024,1526 L 2013,1525 L 2006,1523 L 2002,1522 L 1858,1522 L 1858,1942 L 1858,1945 L 1857,1955 L 1856,1961 L 1853,1970 L 1851,1976 L 1847,1984 L 1843,1989 L 1837,1996 L 1835,1999 L 1735,2099 L 1733,2101 L 1726,2107 L 1720,2110 L 1712,2114 L 1706,2117 L 1697,2120 L 1691,2121 L 1682,2122 L 1679,2122 L 1556,2122 L 1551,2123 L 1545,2125 L 1534,2126 L 1531,2126 L 1427,2126 L 1424,2126 L 1413,2125 L 1406,2123 L 1396,2120 L 1393,2119 L 1390,2117 L 1381,2112 L 1375,2108 L 1367,2101 L 1365,2098 L 1363,2096 L 1356,2087 L 1353,2081 L 1349,2071 L 1348,2068 L 1347,2065 L 1344,2054 L 1344,2048 L 1344,2037 L 1344,2030 L 1347,2020 L 1348,2017 L 1349,2013 L 1353,2004 L 1355,2001 L 1356,1998 L 1363,1989 L 1367,1984 L 1375,1977 L 1381,1973 L 1390,1968 L 1393,1966 L 1396,1965 L 1406,1962 L 1413,1960 L 1424,1959 L 1427,1959 L 1531,1959 L 1534,1959 L 1545,1960 L 1551,1962 L 1556,1963 L 1646,1963 L 1699,1909 L 1699,222 L 563,222 L 560,231 L 559,234 L 559,235 L 559,405 L 559,406 L 561,411 L 562,413 L 563,418 L 564,421 L 565,427 L 566,430 L 567,435 L 567,438 L 567,443 L 567,446 L 566,452 L 566,455 L 565,460 L 564,463 L 563,468 L 562,471 L 560,476 L 559,479 L 556,484 L 555,487 L 552,492 L 550,494 L 547,498 L 545,501 L 541,505 L 539,507 L 535,511 L 532,512 L 528,516 L 525,517 L 520,520 L 517,522 L 512,524 L 510,525 L 504,527 L 501,527 L 496,529 L 493,529 L 488,530 L 484,530 L 479,530 L 476,530 L 470,530 L 467,530 L 462,529 L 458,528 L 449,525 L 444,523 L 435,519 L 431,516 L 423,510 L 419,507 L 413,500 L 409,496 L 404,488 L 402,484 L 398,475 L 396,470 L 393,461 L 392,456 L 391,446 L 391,441 L 392,434 L 392,429 L 394,421 L 395,417 L 398,410 L 400,406 L 400,406 L 400,235 L 398,231 L 394,220 L 394,217 L 393,214 L 392,202 L 392,199 L 392,87 L 392,83 L 393,72 L 394,68 L 394,65 L 398,54 L 399,51 L 401,48 L 407,38 L 410,33 L 418,24 L 421,22 L 423,20 L 433,13 L 438,9 L 449,5 L 452,3 L 455,3 L 467,0 L 473,0 z " style="fill-opacity:1.000000;fill:rgb(90,125,9);stroke:rgb(0,0,0);stroke-width:2"/></g>
<g fill-rule="evenodd"><path d="M 6613,2337 L 6613,2348 L 6613,2354 L 6610,2365 L 6610,2368 L 6608,2371 L 6604,2381 L 6601,2387 L 6594,2396 L 6592,2398 L 6590,2401 L 6582,2408 L 6576,2412 L 6567,2417 L 6564,2419 L 6561,2420 L 6551,2423 L 6544,2424 L 6533,2426 L 6530,2426 L 6426,2426 L 6423,2426 L 6412,2424 L 6406,2423 L 6402,2422 L 5870,2422 L 5867,2423 L 5858,2426 L 5858,4242 L 5858,4245 L 5857,4254 L 5855,4261 L 5853,4270 L 5850,4275 L 5846,4284 L 5842,4289 L 5837,4296 L 5832,4300 L 5825,4306 L 5820,4310 L 5811,4314 L 5806,4316 L 5797,4319 L 5791,4320 L 5781,4321 L 5778,4322 L 1279,4322 L 1276,4321 L 1267,4320 L 1260,4319 L 1251,4316 L 1246,4314 L 1237,4310 L 1232,4306 L 1225,4300 L 1223,4298 L 1046,4122 L 79,4122 L 78,4121 L 72,4121 L 69,4121 L 64,4120 L 61,4119 L 56,4118 L 53,4117 L 48,4115 L 45,4114 L 41,4112 L 38,4110 L 34,4107 L 31,4105 L 27,4102 L 25,4100 L 21,4096 L 19,4094 L 16,4090 L 14,4087 L 11,4083 L 10,4080 L 7,4076 L 6,4073 L 4,4068 L 3,4065 L 2,4060 L 1,4057 L 0,4052 L 0,4049 L 0,4044 L 0,4042 L 0,143 L 0,140 L 1,130 L 2,124 L 5,115 L 7,109 L 11,101 L 15,96 L 21,89 L 25,84 L 33,78 L 38,75 L 46,71 L 52,68 L 61,65 L 67,64 L 76,63 L 79,63 L 195,63 L 198,54 L 199,51 L 201,48 L 207,38 L 210,33 L 218,24 L 221,22 L 223,20 L 233,13 L 238,9 L 249,5 L 252,3 L 255,3 L 267,0 L 273,0 L 285,0 L 292,0 L 303,3 L 306,3 L 309,5 L 320,9 L 326,13 L 335,20 L 338,22 L 340,24 L 348,33 L 352,38 L 358,48 L 359,51 L 360,54 L 364,65 L 365,72 L 366,83 L 367,87 L 367,199 L 366,202 L 365,214 L 364,220 L 360,231 L 359,234 L 358,237 L 352,247 L 348,253 L 340,261 L 338,264 L 335,266 L 326,273 L 320,276 L 309,281 L 306,282 L 303,283 L 292,285 L 285,286 L 273,286 L 267,285 L 255,283 L 252,282 L 249,281 L 238,276 L 233,273 L 223,266 L 221,264 L 218,261 L 210,253 L 207,247 L 201,237 L 199,234 L 198,231 L 195,222 L 159,222 L 159,3963 L 400,3963 L 400,3779 L 398,3775 L 397,3773 L 395,3768 L 395,3766 L 393,3761 L 393,3758 L 392,3753 L 392,3751 L 391,3746 L 391,3743 L 391,3738 L 392,3735 L 392,3730 L 393,3727 L 394,3722 L 394,3720 L 396,3715 L 397,3712 L 398,3708 L 399,3705 L 402,3701 L 403,3698 L 406,3694 L 407,3692 L 410,3688 L 412,3686 L 415,3682 L 417,3680 L 421,3677 L 423,3675 L 427,3672 L 429,3670 L 433,3667 L 435,3666 L 440,3664 L 442,3662 L 447,3660 L 449,3660 L 454,3658 L 457,3657 L 462,3656 L 464,3656 L 469,3655 L 472,3655 L 477,3654 L 480,3654 L 485,3655 L 488,3655 L 493,3655 L 495,3656 L 500,3657 L 503,3658 L 508,3659 L 510,3660 L 515,3662 L 517,3663 L 522,3665 L 524,3667 L 529,3670 L 531,3671 L 535,3674 L 537,3676 L 541,3679 L 543,3681 L 546,3685 L 548,3687 L 551,3691 L 552,3694 L 555,3698 L 556,3700 L 559,3705 L 560,3707 L 562,3712 L 562,3715 L 564,3719 L 565,3722 L 566,3727 L 566,3730 L 567,3735 L 567,3737 L 567,3742 L 567,3745 L 566,3750 L 566,3753 L 565,3758 L 565,3760 L 564,3765 L 563,3768 L 561,3773 L 560,3775 L 559,3779 L 559,3963 L 1000,3963 L 1000,2642 L 1000,2639 L 1001,2630 L 1002,2624 L 1005,2615 L 1007,2609 L 1011,2601 L 1015,2596 L 1021,2588 L 1025,2584 L 1032,2578 L 1037,2575 L 1046,2570 L 1051,2568 L 1060,2565 L 1067,2564 L 1076,2563 L 1079,2563 L 1402,2563 L 1406,2561 L 1413,2560 L 1424,2559 L 1427,2559 L 1531,2559 L 1534,2559 L 1545,2560 L 1551,2561 L 1562,2565 L 1565,2566 L 1568,2568 L 1577,2573 L 1583,2577 L 1591,2584 L 1595,2589 L 1601,2598 L 1603,2601 L 1605,2603 L 1609,2613 L 1610,2616 L 1611,2620 L 1613,2630 L 1614,2637 L 1614,2648 L 1613,2654 L 1611,2665 L 1610,2668 L 1609,2671 L 1605,2681 L 1601,2687 L 1595,2696 L 1593,2698 L 1591,2700 L 1583,2708 L 1577,2712 L 1568,2717 L 1565,2719 L 1562,2720 L 1551,2723 L 1545,2724 L 1534,2726 L 1531,2726 L 1427,2726 L 1424,2726 L 1413,2724 L 1406,2723 L 1402,2722 L 1158,2722 L 1158,2863 L 1442,2863 L 1442,2863 L 1446,2861 L 1453,2858 L 1458,2857 L 1465,2856 L 1470,2855 L 1477,2855 L 1482,2855 L 1489,2855 L 1494,2856 L 1501,2857 L 1505,2859 L 1512,2861 L 1516,2863 L 1579,2863 L 1582,2863 L 1591,2864 L 1597,2865 L 1606,2868 L 1612,2870 L 1620,2875 L 1626,2878 L 1633,2884 L 1635,2886 L 1912,3163 L 2042,3163 L 2042,3163 L 2047,3160 L 2050,3159 L 2055,3158 L 2058,3157 L 2063,3156 L 2067,3155 L 2072,3155 L 2075,3155 L 2081,3154 L 2084,3155 L 2089,3155 L 2092,3155 L 2098,3156 L 2101,3157 L 2106,3159 L 2108,3160 L 2113,3161 L 2116,3163 L 2121,3165 L 2123,3166 L 2127,3169 L 2130,3171 L 2134,3174 L 2136,3176 L 2140,3179 L 2142,3182 L 2146,3185 L 2147,3188 L 2151,3192 L 2152,3194 L 2155,3199 L 2156,3201 L 2159,3206 L 2160,3208 L 2162,3213 L 2163,3216 L 2164,3221 L 2165,3224 L 2166,3229 L 2166,3232 L 2166,3237 L 2167,3240 L 2167,3245 L 2166,3248 L 2166,3253 L 2165,3257 L 2163,3266 L 2162,3271 L 2158,3279 L 2156,3284 L 2151,3292 L 2148,3296 L 2142,3303 L 2139,3306 L 2132,3312 L 2127,3315 L 2120,3320 L 2115,3322 L 2107,3325 L 2102,3327 L 2093,3329 L 2089,3329 L 2084,3330 L 2082,3330 L 2077,3330 L 2074,3330 L 2069,3329 L 2067,3329 L 2062,3328 L 2059,3328 L 2055,3327 L 2052,3326 L 2048,3324 L 2045,3323 L 2042,3322 L 1879,3322 L 1876,3322 L 1866,3321 L 1860,3319 L 1851,3317 L 1846,3314 L 1837,3310 L 1832,3306 L 1825,3300 L 1823,3298 L 1546,3022 L 1516,3022 L 1512,3023 L 1505,3026 L 1501,3027 L 1494,3029 L 1489,3029 L 1482,3030 L 1477,3030 L 1470,3029 L 1465,3029 L 1458,3027 L 1453,3026 L 1446,3024 L 1442,3022 L 1442,3022 L 1158,3022 L 1158,4009 L 1312,4163 L 5699,4163 L 5699,2622 L 5278,2622 L 5275,2622 L 5266,2621 L 5260,2619 L 5251,2617 L 5245,2614 L 5237,2610 L 5232,2607 L 5224,2601 L 5222,2598 L 5022,2399 L 5020,2396 L 5014,2388 L 5010,2383 L 5007,2377 L 5005,2372 L 5001,2362 L 5000,2356 L 4999,2346 L 4999,2342 L 4999,1821 L 4995,1820 L 4992,1819 L 4989,1817 L 4980,1812 L 4975,1808 L 4967,1801 L 4964,1798 L 4962,1796 L 4958,1790 L 4957,1786 L 4955,1780 L 4953,1769 L 4952,1764 L 4951,1753 L 4951,1748 L 4951,1737 L 4951,1732 L 4952,1721 L 4953,1716 L 4955,1705 L 4957,1699 L 4958,1695 L 4962,1689 L 4967,1684 L 4975,1677 L 4980,1673 L 4989,1668 L 4992,1666 L 4995,1665 L 5006,1662 L 5012,1660 L 5023,1659 L 5026,1659 L 5130,1659 L 5134,1659 L 5144,1660 L 5151,1662 L 5161,1665 L 5164,1666 L 5167,1668 L 5177,1673 L 5182,1677 L 5190,1684 L 5194,1689 L 5201,1698 L 5203,1701 L 5204,1704 L 5209,1714 L 5210,1717 L 5211,1720 L 5213,1730 L 5214,1737 L 5214,1748 L 5213,1754 L 5211,1765 L 5210,1768 L 5209,1771 L 5204,1781 L 5201,1787 L 5194,1796 L 5192,1798 L 5190,1801 L 5182,1808 L 5177,1812 L 5167,1817 L 5164,1819 L 5161,1820 L 5158,1821 L 5158,2309 L 5311,2463 L 5699,2463 L 5699,2426 L 5690,2423 L 5687,2422 L 5684,2421 L 5674,2415 L 5668,2411 L 5660,2403 L 5657,2401 L 5655,2398 L 5648,2389 L 5645,2383 L 5640,2372 L 5639,2369 L 5638,2366 L 5636,2355 L 5635,2348 L 5635,2336 L 5636,2330 L 5638,2318 L 5639,2315 L 5640,2312 L 5645,2302 L 5648,2296 L 5655,2286 L 5657,2284 L 5660,2281 L 5668,2274 L 5674,2270 L 5684,2264 L 5687,2262 L 5690,2261 L 5701,2258 L 5707,2256 L 5719,2255 L 5722,2255 L 5834,2255 L 5838,2255 L 5849,2256 L 5856,2258 L 5867,2261 L 5870,2262 L 5871,2263 L 6402,2263 L 6406,2262 L 6412,2260 L 6423,2259 L 6426,2259 L 6530,2259 L 6533,2259 L 6544,2260 L 6551,2262 L 6561,2265 L 6564,2266 L 6567,2268 L 6576,2273 L 6582,2277 L 6590,2284 L 6594,2289 L 6601,2298 L 6602,2301 L 6604,2304 L 6608,2313 L 6610,2317 L 6610,2320 L 6613,2330 L 6613,2337 z " style="fill-opacity:1.000000;fill:rgb(56,37,31);stroke:rgb(0,0,0);stroke-width:2"/></g>
<g fill-rule="evenodd"><path d="M 6613,2137 L 6613,2148 L 6613,2154 L 6610,2165 L 6610,2168 L 6608,2171 L 6604,2181 L 6601,2187 L 6594,2196 L 6592,2198 L 6590,2201 L 6582,2208 L 6576,2212 L 6567,2217 L 6564,2219 L 6561,2220 L 6551,2223 L 6544,2225 L 6533,2226 L 6530,2226 L 6426,2226 L 6423,2226 L 6412,2225 L 6406,2223 L 6402,2222 L 5870,2222 L 5867,2223 L 5856,2227 L 5852,2228 L 5849,2228 L 5838,2230 L 5834,2230 L 5722,2230 L 5719,2230 L 5707,2228 L 5704,2228 L 5701,2227 L 5690,2223 L 5687,2222 L 5686,2222 L 5515,2222 L 5515,2222 L 5510,2224 L 5508,2225 L 5502,2227 L 5499,2227 L 5494,2229 L 5491,2229 L 5486,2230 L 5483,2230 L 5477,2230 L 5474,2230 L 5469,2230 L 5466,2229 L 5461,2228 L 5458,2228 L 5452,2226 L 5449,2225 L 5444,2223 L 5441,2222 L 5436,2219 L 5434,2218 L 5429,2215 L 5427,2213 L 5422,2210 L 5420,2208 L 5416,2204 L 5414,2202 L 5410,2198 L 5408,2195 L 5405,2191 L 5403,2188 L 5401,2183 L 5399,2180 L 5397,2175 L 5396,2173 L 5394,2167 L 5393,2164 L 5392,2159 L 5392,2156 L 5391,2150 L 5391,2147 L 5391,2142 L 5391,2139 L 5391,2133 L 5391,2130 L 5392,2125 L 5393,2121 L 5396,2112 L 5398,2107 L 5402,2099 L 5405,2094 L 5410,2087 L 5414,2083 L 5420,2077 L 5424,2073 L 5432,2068 L 5436,2065 L 5445,2061 L 5449,2060 L 5458,2057 L 5463,2056 L 5473,2055 L 5477,2055 L 5486,2055 L 5490,2055 L 5498,2057 L 5503,2058 L 5510,2061 L 5515,2063 L 5515,2063 L 5686,2063 L 5690,2061 L 5701,2058 L 5707,2056 L 5719,2055 L 5722,2055 L 5834,2055 L 5838,2055 L 5849,2056 L 5856,2058 L 5867,2061 L 5870,2062 L 5871,2063 L 6402,2063 L 6406,2062 L 6412,2060 L 6423,2059 L 6426,2059 L 6530,2059 L 6533,2059 L 6544,2060 L 6551,2062 L 6561,2065 L 6564,2066 L 6567,2068 L 6576,2073 L 6582,2077 L 6590,2084 L 6594,2089 L 6601,2098 L 6602,2101 L 6604,2104 L 6608,2113 L 6610,2117 L 6610,2120 L 6613,2130 L 6613,2137 z " style="fill-opacity:1.000000;fill:rgb(93,212,203);stroke:rgb(0,0,0);stroke-width:2"/></g>
</svg>
