M48
;GenerationSoftware,Autodesk,EAGLE,9.1.0*%
;CreationDate,2018-07-17T12:46:28Z*%
FMAT,2
ICI,OFF
METRIC,TZ,000.000
T4C0.700
T3C0.813
T2C0.914
T1C1.190
%
G90
M71
T1
X-80010Y58420
X-72390Y58420
T2
X-8890Y58420
X-78740Y30480
X-78740Y33020
X-11430Y58420
T3
X-24130Y41910
X-24130Y39370
X-24130Y26670
X-31750Y26670
X-24130Y36830
X-24130Y34290
X-24130Y29210
X-24130Y31750
X-31750Y29210
X-31750Y31750
X-31750Y34290
X-31750Y36830
X-31750Y39370
X-31750Y41910
X-44450Y55880
X-44450Y53340
X-11430Y41910
X-11430Y54610
X-16510Y29210
X-16510Y41910
X-31750Y19050
X-44450Y19050
X-24130Y22860
X-24130Y10160
X-67310Y15240
X-54610Y15240
X-74930Y33020
X-87630Y35560
X-87630Y30480
X-87630Y33020
X-69850Y43180
X-62230Y33020
X-69850Y40640
X-11430Y12700
X-11430Y17780
X-69850Y38100
T4
X-54610Y28370
X-54610Y24970
M30